<?xml version="1.0" encoding="UTF-8" standalone="no"?>
<svg xmlns="http://www.w3.org/2000/svg" width="60%" height="60%" viewBox="-100 -140 295 295" preserveAspectRatio="xMinYMin meet">
<path d="m -37.361671,-77.781903 c -48.049321,48.04932 -48.049318,125.915921 -0.0085,173.956756 48.033057,48.033057 125.907433,48.040837 173.956755,-0.0085 48.03376,-48.033761 48.03235,-125.898948 -0.008,-173.939781 -48.040828,-48.040837 -125.906016,-48.042257 -173.939781,-0.0085 z M 117.26208,76.841848 c -37.300594,37.300582 -97.998639,37.317562 -135.307714,0.0085 -37.300589,-37.30059 -37.301296,-97.997929 0.0085,-135.307711 37.30059,-37.30059 97.989441,-37.292809 135.290738,0.0085 37.30979,37.308365 37.30908,97.990148 0.008,135.290741 z M 22.337235,8.7262505 l 2.8e-5,0.016951 -7.01e-4,0.016259 0.01697,-2.3e-6 27.126707,84.3430149 27.210176,-84.3415751 0.01695,-2.7e-5 -0.0071,-0.025453 0.0085,-0.0085 L 76.356621,7.4272571 49.562931,-75.615364 22.678024,7.4194788 22.337198,8.7262125 Z M 32.595233,8.7594844 66.415443,8.7587773 49.487307,59.191047 32.595233,8.7594844 l 0,0 z" style="fill:#000000" />
</svg>
