<?xml version="1.0" encoding="UTF-8" standalone="no"?>
<svg xmlns="http://www.w3.org/2000/svg" width="100%" height="100%" viewBox="0 0 512 512" preserveAspectRatio="xMinYMin meet">
<path d="M 75,71 h 362 c 0,0 25,0 25,25 v 26 c 0,0 0,25 -25,25 h -362 c 0,0 -25,0 -25,-25 v -26 c 0,0 0,-25  25,-25 z M 75,218 h 362 c 0,0 25,0 25,25 v 26 c 0,0 0,25 -25,25 h -362 c 0,0 -25,0 -25,-25 v -26 c 0,0 0,-25  25,-25 z M 75,365 h 362 c 0,0 25,0 25,25 v 26 c 0,0 0,25 -25,25 h -362 c 0,0 -25,0 -25,-25 v -26 c 0,0 0,-25  25,-25 z" style="fill:#000000;stroke:#000000;stroke-width:1.87207282" />
</svg>
