<svg xmlns="http://www.w3.org/2000/svg" width="100%" height="100%" viewBox="0 0 240 187" xmlns:xlink="http://www.w3.org/1999/xlink"><defs><path id="a" d="M0 .1h240v186.84H0V.1z"/><path id="c" d="M12.5 25C19.4 25 25 19.4 25 12.5S19.4 0 12.5 0 0 5.6 0 12.5 5.6 25 12.5 25z"/><path id="e" d="M12.5 25C19.4 25 25 19.4 25 12.5S19.4 0 12.5 0 0 5.6 0 12.5 5.6 25 12.5 25z"/></defs><g fill="none" fill-rule="evenodd"><path fill="#FFAB6C" d="M38.76 96.84s9.22 74.44 0 87.33h-7.6S0 145.2 0 128c0-17.2 13.95-31.16 31.16-31.16h7.6"/><path fill="#FF8A3B" d="M69.92 128c0 17.2-31.16 56.17-31.16 56.17S7.6 145.2 7.6 128c0-17.2 13.95-31.16 31.16-31.16 17.2 0 31.16 13.95 31.16 31.16"/><path fill="#6CAF8A" d="M208.84.1s9.22 74.44 0 87.33h-7.6s-31.18-38.96-31.18-56.17c0-17.2 13.96-31.16 31.17-31.16h7.6"/><path fill="#569171" d="M240 31.26c0 17.2-31.16 56.17-31.16 56.17s-31.17-38.96-31.17-56.17c0-17.2 13.96-31.16 31.17-31.16C226.04.1 240 14.05 240 31.26"/><mask id="b" fill="#fff"><use xlink:href="#a"/></mask><path fill="#BDBEBA" d="M52.1 187l-.73-7.15 16.35-1.68.73 7.16L52.1 187m150.8-71.2l-6.74-2.5 5.7-15.4 6.75 2.5-5.7 15.4m-46.34 10.8l-16.43-.28.13-7.2 16.43.3-.14 7.2m32.87.58l-16.44-.3.12-7.18 16.44.3-.13 7.2m-62.3 16.95l-6.97-1.7 3.9-15.97 7 1.7-3.92 15.97m-7.8 31.93l-7-1.7 3.92-15.97 6.98 1.7-3.9 15.97m-34.54 7.55l-.73-7.15 16.35-1.68.73 7.16-16.35 1.67" mask="url(#b)"/><g transform="translate(196 18)"><mask id="d" fill="#fff"><use xlink:href="#c"/></mask><use fill="#6CAF8A" xlink:href="#c"/><circle cx="9.5" cy="12.5" r="12.5" fill="#FFF" mask="url(#d)"/></g><g transform="translate(25 115)"><mask id="f" fill="#fff"><use xlink:href="#e"/></mask><use fill="#FFAB6C" xlink:href="#e"/><circle cx="9.5" cy="12.5" r="12.5" fill="#FFF" mask="url(#f)"/></g></g></svg>
