G04 #@! TF.FileFunction,Copper,L2,Bot,Signal*
%FSLAX46Y46*%
G04 Gerber Fmt 4.6, Leading zero omitted, Abs format (unit mm)*
G04 Created by KiCad (PCBNEW 4.0.7-e1-6374~58~ubuntu16.04.1) date Tue Aug 22 17:37:57 2017*
%MOMM*%
%LPD*%
G01*
G04 APERTURE LIST*
%ADD10C,0.100000*%
%ADD11R,1.700000X1.700000*%
%ADD12O,1.700000X1.700000*%
%ADD13R,1.524000X1.998980*%
%ADD14O,1.524000X1.998980*%
%ADD15C,3.810000*%
%ADD16R,1.520000X1.520000*%
%ADD17C,1.520000*%
%ADD18C,0.400000*%
%ADD19C,0.889000*%
%ADD20C,0.200000*%
%ADD21C,0.500000*%
%ADD22C,0.050000*%
G04 APERTURE END LIST*
D10*
D11*
X155723850Y-81375708D03*
D12*
X155723850Y-83915708D03*
D11*
X154910000Y-98710000D03*
D12*
X154910000Y-101250000D03*
D13*
X113270000Y-76418920D03*
D14*
X113270000Y-73381080D03*
X115810000Y-76418920D03*
X115810000Y-73381080D03*
X118350000Y-76418920D03*
X118350000Y-73381080D03*
X120890000Y-76418920D03*
X120890000Y-73381080D03*
X123430000Y-76418920D03*
X123430000Y-73381080D03*
X125970000Y-76418920D03*
X125970000Y-73381080D03*
X128510000Y-76418920D03*
X128510000Y-73381080D03*
X131050000Y-76418920D03*
X131050000Y-73381080D03*
X133590000Y-76418920D03*
X133590000Y-73381080D03*
X136130000Y-76418920D03*
X136130000Y-73381080D03*
X138670000Y-76418920D03*
X138670000Y-73381080D03*
X141210000Y-76418920D03*
X141210000Y-73381080D03*
X143750000Y-76418920D03*
X143750000Y-73381080D03*
X146290000Y-76418920D03*
X146290000Y-73381080D03*
X148830000Y-76418920D03*
X148830000Y-73381080D03*
X151370000Y-76418920D03*
X151370000Y-73381080D03*
X153910000Y-76418920D03*
X153910000Y-73381080D03*
X156450000Y-76418920D03*
X156450000Y-73381080D03*
X158990000Y-76418920D03*
X158990000Y-73381080D03*
X161530000Y-76418920D03*
X161530000Y-73381080D03*
D11*
X108800000Y-83365000D03*
D12*
X108800000Y-80825000D03*
D11*
X161222294Y-93018216D03*
D12*
X161222294Y-95558216D03*
X161222294Y-98098216D03*
X161222294Y-100638216D03*
D15*
X112670000Y-124570000D03*
X146200000Y-124820000D03*
D16*
X139090000Y-122280000D03*
D17*
X136300000Y-122280000D03*
X133630000Y-122280000D03*
X130840000Y-122280000D03*
X128040000Y-122280000D03*
X125250000Y-122280000D03*
X122580000Y-122280000D03*
X119790000Y-122280000D03*
X137520000Y-124820000D03*
X134980000Y-124820000D03*
X132180000Y-124820000D03*
X129440000Y-124820000D03*
X126690000Y-124820000D03*
X123900000Y-124820000D03*
X121160000Y-124820000D03*
D18*
X136730000Y-104530000D03*
X136030000Y-104540000D03*
X135360000Y-104540000D03*
X150270000Y-91740000D03*
X149690000Y-91740000D03*
X149120000Y-91740000D03*
X128410000Y-79918914D03*
X125350000Y-92350000D03*
X127760000Y-81418914D03*
X124920000Y-91920000D03*
D19*
X121745000Y-98395000D03*
X131210000Y-88930000D03*
X142950000Y-91520000D03*
X142950000Y-99280000D03*
D18*
X137060000Y-98400000D03*
X135100000Y-99510000D03*
D19*
X155360000Y-114160000D03*
X141080000Y-109100000D03*
D18*
X125970000Y-78130000D03*
X136190000Y-96820000D03*
X158920000Y-93010000D03*
X147533403Y-94360000D03*
X148840000Y-94360000D03*
X135150000Y-95910010D03*
X135150000Y-96840000D03*
X132830000Y-110640000D03*
X149680000Y-106330000D03*
X133480000Y-110100000D03*
X149680000Y-105680000D03*
X127260000Y-78130000D03*
X146730000Y-103100000D03*
X123310000Y-82910000D03*
X121410000Y-82910000D03*
X138810000Y-108390000D03*
X138810000Y-109990000D03*
D20*
X135360000Y-104540000D02*
X136030000Y-104540000D01*
X149120000Y-91740000D02*
X149690000Y-91740000D01*
X125350000Y-92350000D02*
X128410000Y-89290000D01*
X128410000Y-89290000D02*
X128410000Y-79918914D01*
X124920000Y-91920000D02*
X127760000Y-89080000D01*
X127760000Y-89080000D02*
X127760000Y-81418914D01*
D21*
X131210000Y-88930000D02*
X121745000Y-98395000D01*
X142950000Y-99280000D02*
X142950000Y-91520000D01*
D20*
X135100000Y-99510000D02*
X136210000Y-98400000D01*
X136210000Y-98400000D02*
X137060000Y-98400000D01*
D21*
X155360000Y-111120000D02*
X155360000Y-114160000D01*
X151170000Y-106930000D02*
X155360000Y-111120000D01*
X143878617Y-106930000D02*
X151170000Y-106930000D01*
X141080000Y-109100000D02*
X141708617Y-109100000D01*
X141708617Y-109100000D02*
X143878617Y-106930000D01*
D20*
X136190000Y-96820000D02*
X136190000Y-86390000D01*
X136190000Y-86390000D02*
X128800000Y-79000000D01*
X128800000Y-79000000D02*
X126840000Y-79000000D01*
X126840000Y-79000000D02*
X125970000Y-78130000D01*
X148840000Y-94360000D02*
X157570000Y-94360000D01*
X157570000Y-94360000D02*
X158920000Y-93010000D01*
X148840000Y-94360000D02*
X147533403Y-94360000D01*
X135150000Y-96840000D02*
X135150000Y-95910010D01*
X149680000Y-106330000D02*
X135180000Y-106330000D01*
X135180000Y-106330000D02*
X134860000Y-106650000D01*
X134860000Y-106650000D02*
X134860000Y-109990000D01*
X134860000Y-109990000D02*
X134210000Y-110640000D01*
X134210000Y-110640000D02*
X132830000Y-110640000D01*
X134380000Y-109700000D02*
X133980000Y-110100000D01*
X133980000Y-110100000D02*
X133480000Y-110100000D01*
X134380000Y-106635012D02*
X134380000Y-109700000D01*
X149680000Y-105680000D02*
X135335012Y-105680000D01*
X135335012Y-105680000D02*
X134380000Y-106635012D01*
X129030000Y-78370000D02*
X127500000Y-78370000D01*
X127500000Y-78370000D02*
X127260000Y-78130000D01*
X136730000Y-86070000D02*
X129030000Y-78370000D01*
X136730000Y-96530000D02*
X136730000Y-86070000D01*
X143300000Y-103100000D02*
X136730000Y-96530000D01*
X146730000Y-103100000D02*
X143300000Y-103100000D01*
X121410000Y-82910000D02*
X123310000Y-82910000D01*
X138810000Y-109990000D02*
X138810000Y-108390000D01*
D22*
G36*
X162542929Y-71719670D02*
X162859083Y-71930917D01*
X163070330Y-72247071D01*
X163145000Y-72622464D01*
X163145000Y-77620000D01*
X163145480Y-77624877D01*
X163221600Y-78007560D01*
X163225333Y-78016572D01*
X163442106Y-78340996D01*
X163449004Y-78347894D01*
X163773428Y-78564667D01*
X163782440Y-78568400D01*
X164165123Y-78644520D01*
X164170000Y-78645000D01*
X168667536Y-78645000D01*
X169042929Y-78719670D01*
X169359083Y-78930917D01*
X169570330Y-79247071D01*
X169595000Y-79371096D01*
X169595000Y-119368904D01*
X169570330Y-119492929D01*
X169359083Y-119809083D01*
X169042929Y-120020330D01*
X168667536Y-120095000D01*
X163670000Y-120095000D01*
X163665123Y-120095480D01*
X163282440Y-120171600D01*
X163273428Y-120175333D01*
X162949004Y-120392106D01*
X162942106Y-120399004D01*
X162725333Y-120723428D01*
X162721600Y-120732440D01*
X162645480Y-121115123D01*
X162645000Y-121120000D01*
X162645000Y-126117536D01*
X162570330Y-126492929D01*
X162359083Y-126809083D01*
X162042929Y-127020330D01*
X161667536Y-127095000D01*
X113172464Y-127095000D01*
X112797071Y-127020330D01*
X112480917Y-126809083D01*
X112441306Y-126749802D01*
X113101726Y-126750378D01*
X113903258Y-126419192D01*
X114517037Y-125806483D01*
X114841548Y-125024971D01*
X120124821Y-125024971D01*
X120282058Y-125405515D01*
X120572954Y-125696919D01*
X120953223Y-125854820D01*
X121364971Y-125855179D01*
X121745515Y-125697942D01*
X122036919Y-125407046D01*
X122194820Y-125026777D01*
X122194821Y-125024971D01*
X125654821Y-125024971D01*
X125812058Y-125405515D01*
X126102954Y-125696919D01*
X126483223Y-125854820D01*
X126894971Y-125855179D01*
X127275515Y-125697942D01*
X127566919Y-125407046D01*
X127724820Y-125026777D01*
X127724821Y-125024971D01*
X128404821Y-125024971D01*
X128562058Y-125405515D01*
X128852954Y-125696919D01*
X129233223Y-125854820D01*
X129644971Y-125855179D01*
X130025515Y-125697942D01*
X130316919Y-125407046D01*
X130381413Y-125251726D01*
X144019622Y-125251726D01*
X144350808Y-126053258D01*
X144963517Y-126667037D01*
X145764469Y-126999621D01*
X146631726Y-127000378D01*
X147433258Y-126669192D01*
X148047037Y-126056483D01*
X148379621Y-125255531D01*
X148380378Y-124388274D01*
X148049192Y-123586742D01*
X147436483Y-122972963D01*
X146635531Y-122640379D01*
X145768274Y-122639622D01*
X144966742Y-122970808D01*
X144352963Y-123583517D01*
X144020379Y-124384469D01*
X144019622Y-125251726D01*
X130381413Y-125251726D01*
X130474820Y-125026777D01*
X130475179Y-124615029D01*
X130317942Y-124234485D01*
X130027046Y-123943081D01*
X129646777Y-123785180D01*
X129235029Y-123784821D01*
X128854485Y-123942058D01*
X128563081Y-124232954D01*
X128405180Y-124613223D01*
X128404821Y-125024971D01*
X127724821Y-125024971D01*
X127725179Y-124615029D01*
X127567942Y-124234485D01*
X127277046Y-123943081D01*
X126896777Y-123785180D01*
X126485029Y-123784821D01*
X126104485Y-123942058D01*
X125813081Y-124232954D01*
X125655180Y-124613223D01*
X125654821Y-125024971D01*
X122194821Y-125024971D01*
X122195179Y-124615029D01*
X122037942Y-124234485D01*
X121747046Y-123943081D01*
X121366777Y-123785180D01*
X120955029Y-123784821D01*
X120574485Y-123942058D01*
X120283081Y-124232954D01*
X120125180Y-124613223D01*
X120124821Y-125024971D01*
X114841548Y-125024971D01*
X114849621Y-125005531D01*
X114850378Y-124138274D01*
X114519192Y-123336742D01*
X113906483Y-122722963D01*
X113333335Y-122484971D01*
X118754821Y-122484971D01*
X118912058Y-122865515D01*
X119202954Y-123156919D01*
X119583223Y-123314820D01*
X119994971Y-123315179D01*
X120375515Y-123157942D01*
X120666919Y-122867046D01*
X120824820Y-122486777D01*
X120824821Y-122484971D01*
X121544821Y-122484971D01*
X121702058Y-122865515D01*
X121992954Y-123156919D01*
X122373223Y-123314820D01*
X122784971Y-123315179D01*
X123165515Y-123157942D01*
X123456919Y-122867046D01*
X123614820Y-122486777D01*
X123614821Y-122484971D01*
X124214821Y-122484971D01*
X124372058Y-122865515D01*
X124662954Y-123156919D01*
X125043223Y-123314820D01*
X125454971Y-123315179D01*
X125835515Y-123157942D01*
X126126919Y-122867046D01*
X126284820Y-122486777D01*
X126284821Y-122484971D01*
X127004821Y-122484971D01*
X127162058Y-122865515D01*
X127452954Y-123156919D01*
X127833223Y-123314820D01*
X128244971Y-123315179D01*
X128625515Y-123157942D01*
X128916919Y-122867046D01*
X129074820Y-122486777D01*
X129074821Y-122484971D01*
X129804821Y-122484971D01*
X129962058Y-122865515D01*
X130252954Y-123156919D01*
X130633223Y-123314820D01*
X131044971Y-123315179D01*
X131425515Y-123157942D01*
X131716919Y-122867046D01*
X131874820Y-122486777D01*
X131874821Y-122484971D01*
X132594821Y-122484971D01*
X132752058Y-122865515D01*
X133042954Y-123156919D01*
X133423223Y-123314820D01*
X133834971Y-123315179D01*
X134215515Y-123157942D01*
X134506919Y-122867046D01*
X134664820Y-122486777D01*
X134664821Y-122484971D01*
X135264821Y-122484971D01*
X135422058Y-122865515D01*
X135712954Y-123156919D01*
X136093223Y-123314820D01*
X136504971Y-123315179D01*
X136885515Y-123157942D01*
X137176919Y-122867046D01*
X137334820Y-122486777D01*
X137335179Y-122075029D01*
X137177942Y-121694485D01*
X137003762Y-121520000D01*
X138049613Y-121520000D01*
X138049613Y-123040000D01*
X138068788Y-123141909D01*
X138129016Y-123235506D01*
X138220914Y-123298296D01*
X138330000Y-123320387D01*
X139850000Y-123320387D01*
X139951909Y-123301212D01*
X140045506Y-123240984D01*
X140108296Y-123149086D01*
X140130387Y-123040000D01*
X140130387Y-121520000D01*
X140111212Y-121418091D01*
X140050984Y-121324494D01*
X139959086Y-121261704D01*
X139850000Y-121239613D01*
X138330000Y-121239613D01*
X138228091Y-121258788D01*
X138134494Y-121319016D01*
X138071704Y-121410914D01*
X138049613Y-121520000D01*
X137003762Y-121520000D01*
X136887046Y-121403081D01*
X136506777Y-121245180D01*
X136095029Y-121244821D01*
X135714485Y-121402058D01*
X135423081Y-121692954D01*
X135265180Y-122073223D01*
X135264821Y-122484971D01*
X134664821Y-122484971D01*
X134665179Y-122075029D01*
X134507942Y-121694485D01*
X134217046Y-121403081D01*
X133836777Y-121245180D01*
X133425029Y-121244821D01*
X133044485Y-121402058D01*
X132753081Y-121692954D01*
X132595180Y-122073223D01*
X132594821Y-122484971D01*
X131874821Y-122484971D01*
X131875179Y-122075029D01*
X131717942Y-121694485D01*
X131427046Y-121403081D01*
X131046777Y-121245180D01*
X130635029Y-121244821D01*
X130254485Y-121402058D01*
X129963081Y-121692954D01*
X129805180Y-122073223D01*
X129804821Y-122484971D01*
X129074821Y-122484971D01*
X129075179Y-122075029D01*
X128917942Y-121694485D01*
X128627046Y-121403081D01*
X128246777Y-121245180D01*
X127835029Y-121244821D01*
X127454485Y-121402058D01*
X127163081Y-121692954D01*
X127005180Y-122073223D01*
X127004821Y-122484971D01*
X126284821Y-122484971D01*
X126285179Y-122075029D01*
X126127942Y-121694485D01*
X125837046Y-121403081D01*
X125456777Y-121245180D01*
X125045029Y-121244821D01*
X124664485Y-121402058D01*
X124373081Y-121692954D01*
X124215180Y-122073223D01*
X124214821Y-122484971D01*
X123614821Y-122484971D01*
X123615179Y-122075029D01*
X123457942Y-121694485D01*
X123167046Y-121403081D01*
X122786777Y-121245180D01*
X122375029Y-121244821D01*
X121994485Y-121402058D01*
X121703081Y-121692954D01*
X121545180Y-122073223D01*
X121544821Y-122484971D01*
X120824821Y-122484971D01*
X120825179Y-122075029D01*
X120667942Y-121694485D01*
X120377046Y-121403081D01*
X119996777Y-121245180D01*
X119585029Y-121244821D01*
X119204485Y-121402058D01*
X118913081Y-121692954D01*
X118755180Y-122073223D01*
X118754821Y-122484971D01*
X113333335Y-122484971D01*
X113105531Y-122390379D01*
X112238274Y-122389622D01*
X112195000Y-122407502D01*
X112195000Y-121120000D01*
X112194520Y-121115123D01*
X112118400Y-120732440D01*
X112114667Y-120723428D01*
X111897894Y-120399004D01*
X111890996Y-120392106D01*
X111566572Y-120175333D01*
X111557560Y-120171600D01*
X111174877Y-120095480D01*
X111170000Y-120095000D01*
X106672464Y-120095000D01*
X106297071Y-120020330D01*
X105980917Y-119809083D01*
X105769670Y-119492929D01*
X105695000Y-119117536D01*
X105695000Y-110734069D01*
X132354918Y-110734069D01*
X132427080Y-110908714D01*
X132560583Y-111042451D01*
X132735102Y-111114918D01*
X132924069Y-111115082D01*
X133098714Y-111042920D01*
X133126683Y-111015000D01*
X134210000Y-111015000D01*
X134353507Y-110986455D01*
X134475165Y-110905165D01*
X135125165Y-110255165D01*
X135206455Y-110133506D01*
X135235000Y-109990000D01*
X135235000Y-108484069D01*
X138334918Y-108484069D01*
X138407080Y-108658714D01*
X138435000Y-108686683D01*
X138435000Y-109693180D01*
X138407549Y-109720583D01*
X138335082Y-109895102D01*
X138334918Y-110084069D01*
X138407080Y-110258714D01*
X138540583Y-110392451D01*
X138715102Y-110464918D01*
X138904069Y-110465082D01*
X139078714Y-110392920D01*
X139212451Y-110259417D01*
X139284918Y-110084898D01*
X139285082Y-109895931D01*
X139212920Y-109721286D01*
X139185000Y-109693317D01*
X139185000Y-108686820D01*
X139212451Y-108659417D01*
X139284918Y-108484898D01*
X139285082Y-108295931D01*
X139212920Y-108121286D01*
X139079417Y-107987549D01*
X138904898Y-107915082D01*
X138715931Y-107914918D01*
X138541286Y-107987080D01*
X138407549Y-108120583D01*
X138335082Y-108295102D01*
X138334918Y-108484069D01*
X135235000Y-108484069D01*
X135235000Y-106805330D01*
X135335330Y-106705000D01*
X143361155Y-106705000D01*
X141531891Y-108534264D01*
X141488096Y-108490393D01*
X141223745Y-108380625D01*
X140937510Y-108380375D01*
X140672968Y-108489682D01*
X140470393Y-108691904D01*
X140360625Y-108956255D01*
X140360375Y-109242490D01*
X140469682Y-109507032D01*
X140671904Y-109709607D01*
X140936255Y-109819375D01*
X141222490Y-109819625D01*
X141487032Y-109710318D01*
X141572499Y-109625000D01*
X141708617Y-109625000D01*
X141909526Y-109585037D01*
X142079848Y-109471231D01*
X144096079Y-107455000D01*
X149238363Y-107455000D01*
X149032333Y-107592665D01*
X148942665Y-107682332D01*
X148942665Y-107682333D01*
X148725893Y-108006756D01*
X148725892Y-108006757D01*
X148677365Y-108123913D01*
X148601245Y-108506596D01*
X148601245Y-108538604D01*
X148595000Y-108570000D01*
X148595000Y-123570000D01*
X148601245Y-123601396D01*
X148601245Y-123633404D01*
X148677365Y-124016087D01*
X148725892Y-124133243D01*
X148942664Y-124457665D01*
X148942665Y-124457668D01*
X149032333Y-124547335D01*
X149356757Y-124764108D01*
X149473912Y-124812635D01*
X149473913Y-124812635D01*
X149856594Y-124888755D01*
X149983404Y-124888755D01*
X150366087Y-124812635D01*
X150483243Y-124764108D01*
X150483244Y-124764107D01*
X150807665Y-124547336D01*
X150807668Y-124547335D01*
X150897335Y-124457667D01*
X151114108Y-124133243D01*
X151162635Y-124016088D01*
X151162635Y-124016087D01*
X151238755Y-123633404D01*
X151238755Y-123601396D01*
X151245000Y-123570000D01*
X151245000Y-108570000D01*
X151238755Y-108538604D01*
X151238755Y-108506596D01*
X151162635Y-108123913D01*
X151151017Y-108095863D01*
X151114108Y-108006757D01*
X150897335Y-107682333D01*
X150807668Y-107592665D01*
X150807665Y-107592664D01*
X150601637Y-107455000D01*
X150952538Y-107455000D01*
X154835000Y-111337462D01*
X154835000Y-113667444D01*
X154750393Y-113751904D01*
X154640625Y-114016255D01*
X154640375Y-114302490D01*
X154749682Y-114567032D01*
X154951904Y-114769607D01*
X155216255Y-114879375D01*
X155502490Y-114879625D01*
X155767032Y-114770318D01*
X155969607Y-114568096D01*
X156079375Y-114303745D01*
X156079625Y-114017510D01*
X155970318Y-113752968D01*
X155885000Y-113667501D01*
X155885000Y-111120000D01*
X155845037Y-110919091D01*
X155731231Y-110748769D01*
X151541231Y-106558769D01*
X151370909Y-106444963D01*
X151170000Y-106405000D01*
X150154935Y-106405000D01*
X150155082Y-106235931D01*
X150082920Y-106061286D01*
X150026751Y-106005019D01*
X150082451Y-105949417D01*
X150154918Y-105774898D01*
X150155082Y-105585931D01*
X150082920Y-105411286D01*
X149949417Y-105277549D01*
X149774898Y-105205082D01*
X149585931Y-105204918D01*
X149411286Y-105277080D01*
X149383317Y-105305000D01*
X135335012Y-105305000D01*
X135191505Y-105333545D01*
X135069847Y-105414835D01*
X134114835Y-106369847D01*
X134033545Y-106491505D01*
X134033545Y-106491506D01*
X134005000Y-106635012D01*
X134005000Y-109544670D01*
X133824670Y-109725000D01*
X133776820Y-109725000D01*
X133749417Y-109697549D01*
X133574898Y-109625082D01*
X133385931Y-109624918D01*
X133211286Y-109697080D01*
X133077549Y-109830583D01*
X133005082Y-110005102D01*
X133004918Y-110194069D01*
X133007033Y-110199188D01*
X132924898Y-110165082D01*
X132735931Y-110164918D01*
X132561286Y-110237080D01*
X132427549Y-110370583D01*
X132355082Y-110545102D01*
X132354918Y-110734069D01*
X105695000Y-110734069D01*
X105695000Y-109622464D01*
X105769670Y-109247071D01*
X105980917Y-108930917D01*
X106297071Y-108719670D01*
X106672464Y-108645000D01*
X109670000Y-108645000D01*
X109674877Y-108644520D01*
X110057560Y-108568400D01*
X110066572Y-108564667D01*
X110390996Y-108347894D01*
X110397894Y-108340996D01*
X110614667Y-108016572D01*
X110618400Y-108007560D01*
X110694520Y-107624877D01*
X110695000Y-107620000D01*
X110695000Y-99604069D01*
X134624918Y-99604069D01*
X134697080Y-99778714D01*
X134830583Y-99912451D01*
X135005102Y-99984918D01*
X135194069Y-99985082D01*
X135368714Y-99912920D01*
X135502451Y-99779417D01*
X135574918Y-99604898D01*
X135574952Y-99565378D01*
X136365330Y-98775000D01*
X136763180Y-98775000D01*
X136790583Y-98802451D01*
X136965102Y-98874918D01*
X137154069Y-98875082D01*
X137328714Y-98802920D01*
X137462451Y-98669417D01*
X137534918Y-98494898D01*
X137535082Y-98305931D01*
X137462920Y-98131286D01*
X137329417Y-97997549D01*
X137154898Y-97925082D01*
X136965931Y-97924918D01*
X136791286Y-97997080D01*
X136763317Y-98025000D01*
X136210000Y-98025000D01*
X136066493Y-98053545D01*
X135944835Y-98134835D01*
X135044718Y-99034952D01*
X135005931Y-99034918D01*
X134831286Y-99107080D01*
X134697549Y-99240583D01*
X134625082Y-99415102D01*
X134624918Y-99604069D01*
X110695000Y-99604069D01*
X110695000Y-98537490D01*
X121025375Y-98537490D01*
X121134682Y-98802032D01*
X121336904Y-99004607D01*
X121601255Y-99114375D01*
X121887490Y-99114625D01*
X122152032Y-99005318D01*
X122354607Y-98803096D01*
X122464375Y-98538745D01*
X122464480Y-98417982D01*
X124878383Y-96004079D01*
X134674918Y-96004079D01*
X134747080Y-96178724D01*
X134775000Y-96206693D01*
X134775000Y-96543180D01*
X134747549Y-96570583D01*
X134675082Y-96745102D01*
X134674918Y-96934069D01*
X134747080Y-97108714D01*
X134880583Y-97242451D01*
X135055102Y-97314918D01*
X135244069Y-97315082D01*
X135418714Y-97242920D01*
X135552451Y-97109417D01*
X135624918Y-96934898D01*
X135625082Y-96745931D01*
X135552920Y-96571286D01*
X135525000Y-96543317D01*
X135525000Y-96206830D01*
X135552451Y-96179427D01*
X135624918Y-96004908D01*
X135625082Y-95815941D01*
X135552920Y-95641296D01*
X135419417Y-95507559D01*
X135244898Y-95435092D01*
X135055931Y-95434928D01*
X134881286Y-95507090D01*
X134747549Y-95640593D01*
X134675082Y-95815112D01*
X134674918Y-96004079D01*
X124878383Y-96004079D01*
X131232941Y-89649521D01*
X131352490Y-89649625D01*
X131617032Y-89540318D01*
X131819607Y-89338096D01*
X131929375Y-89073745D01*
X131929625Y-88787510D01*
X131820318Y-88522968D01*
X131618096Y-88320393D01*
X131353745Y-88210625D01*
X131067510Y-88210375D01*
X130802968Y-88319682D01*
X130600393Y-88521904D01*
X130490625Y-88786255D01*
X130490520Y-88907018D01*
X121722059Y-97675479D01*
X121602510Y-97675375D01*
X121337968Y-97784682D01*
X121135393Y-97986904D01*
X121025625Y-98251255D01*
X121025375Y-98537490D01*
X110695000Y-98537490D01*
X110695000Y-92014069D01*
X124444918Y-92014069D01*
X124517080Y-92188714D01*
X124650583Y-92322451D01*
X124825102Y-92394918D01*
X124874961Y-92394961D01*
X124874918Y-92444069D01*
X124947080Y-92618714D01*
X125080583Y-92752451D01*
X125255102Y-92824918D01*
X125444069Y-92825082D01*
X125618714Y-92752920D01*
X125752451Y-92619417D01*
X125824918Y-92444898D01*
X125824952Y-92405378D01*
X128675165Y-89555165D01*
X128756455Y-89433506D01*
X128785000Y-89290000D01*
X128785000Y-80215734D01*
X128812451Y-80188331D01*
X128884918Y-80013812D01*
X128885082Y-79824845D01*
X128812920Y-79650200D01*
X128679417Y-79516463D01*
X128504898Y-79443996D01*
X128315931Y-79443832D01*
X128141286Y-79515994D01*
X128007549Y-79649497D01*
X127935082Y-79824016D01*
X127934918Y-80012983D01*
X128007080Y-80187628D01*
X128035000Y-80215597D01*
X128035000Y-81022056D01*
X128029417Y-81016463D01*
X127854898Y-80943996D01*
X127665931Y-80943832D01*
X127491286Y-81015994D01*
X127357549Y-81149497D01*
X127285082Y-81324016D01*
X127284918Y-81512983D01*
X127357080Y-81687628D01*
X127385000Y-81715597D01*
X127385000Y-88924670D01*
X124864718Y-91444952D01*
X124825931Y-91444918D01*
X124651286Y-91517080D01*
X124517549Y-91650583D01*
X124445082Y-91825102D01*
X124444918Y-92014069D01*
X110695000Y-92014069D01*
X110695000Y-91620000D01*
X110694520Y-91615123D01*
X110618400Y-91232440D01*
X110614667Y-91223428D01*
X110397894Y-90899004D01*
X110390996Y-90892106D01*
X110066572Y-90675333D01*
X110057560Y-90671600D01*
X109674877Y-90595480D01*
X109670000Y-90595000D01*
X106672464Y-90595000D01*
X106297071Y-90520330D01*
X105980917Y-90309083D01*
X105769670Y-89992929D01*
X105695000Y-89617536D01*
X105695000Y-83004069D01*
X120934918Y-83004069D01*
X121007080Y-83178714D01*
X121140583Y-83312451D01*
X121315102Y-83384918D01*
X121504069Y-83385082D01*
X121678714Y-83312920D01*
X121706683Y-83285000D01*
X123013180Y-83285000D01*
X123040583Y-83312451D01*
X123215102Y-83384918D01*
X123404069Y-83385082D01*
X123578714Y-83312920D01*
X123712451Y-83179417D01*
X123784918Y-83004898D01*
X123785082Y-82815931D01*
X123712920Y-82641286D01*
X123579417Y-82507549D01*
X123404898Y-82435082D01*
X123215931Y-82434918D01*
X123041286Y-82507080D01*
X123013317Y-82535000D01*
X121706820Y-82535000D01*
X121679417Y-82507549D01*
X121504898Y-82435082D01*
X121315931Y-82434918D01*
X121141286Y-82507080D01*
X121007549Y-82640583D01*
X120935082Y-82815102D01*
X120934918Y-83004069D01*
X105695000Y-83004069D01*
X105695000Y-80825000D01*
X107652960Y-80825000D01*
X107738596Y-81255519D01*
X107982465Y-81620495D01*
X108347441Y-81864364D01*
X108777960Y-81950000D01*
X108822040Y-81950000D01*
X109252559Y-81864364D01*
X109617535Y-81620495D01*
X109861404Y-81255519D01*
X109947040Y-80825000D01*
X109861404Y-80394481D01*
X109617535Y-80029505D01*
X109252559Y-79785636D01*
X108822040Y-79700000D01*
X108777960Y-79700000D01*
X108347441Y-79785636D01*
X107982465Y-80029505D01*
X107738596Y-80394481D01*
X107652960Y-80825000D01*
X105695000Y-80825000D01*
X105695000Y-79622464D01*
X105769670Y-79247071D01*
X105980917Y-78930917D01*
X106297071Y-78719670D01*
X106672464Y-78645000D01*
X111170000Y-78645000D01*
X111174877Y-78644520D01*
X111557560Y-78568400D01*
X111566572Y-78564667D01*
X111890996Y-78347894D01*
X111897894Y-78340996D01*
X112114667Y-78016572D01*
X112118400Y-78007560D01*
X112194520Y-77624877D01*
X112195000Y-77620000D01*
X112195000Y-75419430D01*
X112227613Y-75419430D01*
X112227613Y-77418410D01*
X112246788Y-77520319D01*
X112307016Y-77613916D01*
X112398914Y-77676706D01*
X112508000Y-77698797D01*
X114032000Y-77698797D01*
X114133909Y-77679622D01*
X114227506Y-77619394D01*
X114290296Y-77527496D01*
X114312387Y-77418410D01*
X114312387Y-76156461D01*
X114773000Y-76156461D01*
X114773000Y-76681379D01*
X114851937Y-77078222D01*
X115076730Y-77414649D01*
X115413157Y-77639442D01*
X115810000Y-77718379D01*
X116206843Y-77639442D01*
X116543270Y-77414649D01*
X116768063Y-77078222D01*
X116847000Y-76681379D01*
X116847000Y-76156461D01*
X117313000Y-76156461D01*
X117313000Y-76681379D01*
X117391937Y-77078222D01*
X117616730Y-77414649D01*
X117953157Y-77639442D01*
X118350000Y-77718379D01*
X118746843Y-77639442D01*
X119083270Y-77414649D01*
X119308063Y-77078222D01*
X119387000Y-76681379D01*
X119387000Y-76156461D01*
X119853000Y-76156461D01*
X119853000Y-76681379D01*
X119931937Y-77078222D01*
X120156730Y-77414649D01*
X120493157Y-77639442D01*
X120890000Y-77718379D01*
X121286843Y-77639442D01*
X121623270Y-77414649D01*
X121848063Y-77078222D01*
X121927000Y-76681379D01*
X121927000Y-76156461D01*
X124933000Y-76156461D01*
X124933000Y-76681379D01*
X125011937Y-77078222D01*
X125236730Y-77414649D01*
X125573157Y-77639442D01*
X125802823Y-77685126D01*
X125701286Y-77727080D01*
X125567549Y-77860583D01*
X125495082Y-78035102D01*
X125494918Y-78224069D01*
X125567080Y-78398714D01*
X125700583Y-78532451D01*
X125875102Y-78604918D01*
X125914622Y-78604952D01*
X126574835Y-79265165D01*
X126696494Y-79346455D01*
X126840000Y-79375000D01*
X128644670Y-79375000D01*
X135815000Y-86545330D01*
X135815000Y-96523180D01*
X135787549Y-96550583D01*
X135715082Y-96725102D01*
X135714918Y-96914069D01*
X135787080Y-97088714D01*
X135920583Y-97222451D01*
X136095102Y-97294918D01*
X136284069Y-97295082D01*
X136458714Y-97222920D01*
X136592451Y-97089417D01*
X136641343Y-96971673D01*
X143034835Y-103365165D01*
X143156493Y-103446455D01*
X143300000Y-103475000D01*
X146433180Y-103475000D01*
X146460583Y-103502451D01*
X146635102Y-103574918D01*
X146824069Y-103575082D01*
X146998714Y-103502920D01*
X147132451Y-103369417D01*
X147204918Y-103194898D01*
X147205082Y-103005931D01*
X147132920Y-102831286D01*
X146999417Y-102697549D01*
X146824898Y-102625082D01*
X146635931Y-102624918D01*
X146461286Y-102697080D01*
X146433317Y-102725000D01*
X143455330Y-102725000D01*
X141980330Y-101250000D01*
X153762960Y-101250000D01*
X153848596Y-101680519D01*
X154092465Y-102045495D01*
X154457441Y-102289364D01*
X154887960Y-102375000D01*
X154932040Y-102375000D01*
X155362559Y-102289364D01*
X155727535Y-102045495D01*
X155971404Y-101680519D01*
X156057040Y-101250000D01*
X155971404Y-100819481D01*
X155850287Y-100638216D01*
X160075254Y-100638216D01*
X160160890Y-101068735D01*
X160404759Y-101433711D01*
X160769735Y-101677580D01*
X161200254Y-101763216D01*
X161244334Y-101763216D01*
X161674853Y-101677580D01*
X162039829Y-101433711D01*
X162283698Y-101068735D01*
X162369334Y-100638216D01*
X162283698Y-100207697D01*
X162039829Y-99842721D01*
X161674853Y-99598852D01*
X161244334Y-99513216D01*
X161200254Y-99513216D01*
X160769735Y-99598852D01*
X160404759Y-99842721D01*
X160160890Y-100207697D01*
X160075254Y-100638216D01*
X155850287Y-100638216D01*
X155727535Y-100454505D01*
X155362559Y-100210636D01*
X154932040Y-100125000D01*
X154887960Y-100125000D01*
X154457441Y-100210636D01*
X154092465Y-100454505D01*
X153848596Y-100819481D01*
X153762960Y-101250000D01*
X141980330Y-101250000D01*
X137105000Y-96374670D01*
X137105000Y-91662490D01*
X142230375Y-91662490D01*
X142339682Y-91927032D01*
X142425000Y-92012499D01*
X142425000Y-98787444D01*
X142340393Y-98871904D01*
X142230625Y-99136255D01*
X142230375Y-99422490D01*
X142339682Y-99687032D01*
X142541904Y-99889607D01*
X142806255Y-99999375D01*
X143092490Y-99999625D01*
X143357032Y-99890318D01*
X143559607Y-99688096D01*
X143669375Y-99423745D01*
X143669625Y-99137510D01*
X143560318Y-98872968D01*
X143475000Y-98787501D01*
X143475000Y-95558216D01*
X160075254Y-95558216D01*
X160160890Y-95988735D01*
X160404759Y-96353711D01*
X160769735Y-96597580D01*
X161200254Y-96683216D01*
X161244334Y-96683216D01*
X161674853Y-96597580D01*
X162039829Y-96353711D01*
X162283698Y-95988735D01*
X162369334Y-95558216D01*
X162283698Y-95127697D01*
X162039829Y-94762721D01*
X161674853Y-94518852D01*
X161244334Y-94433216D01*
X161200254Y-94433216D01*
X160769735Y-94518852D01*
X160404759Y-94762721D01*
X160160890Y-95127697D01*
X160075254Y-95558216D01*
X143475000Y-95558216D01*
X143475000Y-94454069D01*
X147058321Y-94454069D01*
X147130483Y-94628714D01*
X147263986Y-94762451D01*
X147438505Y-94834918D01*
X147627472Y-94835082D01*
X147802117Y-94762920D01*
X147830086Y-94735000D01*
X148543180Y-94735000D01*
X148570583Y-94762451D01*
X148745102Y-94834918D01*
X148934069Y-94835082D01*
X149108714Y-94762920D01*
X149136683Y-94735000D01*
X157570000Y-94735000D01*
X157713507Y-94706455D01*
X157835165Y-94625165D01*
X158975282Y-93485048D01*
X159014069Y-93485082D01*
X159188714Y-93412920D01*
X159322451Y-93279417D01*
X159394918Y-93104898D01*
X159395082Y-92915931D01*
X159322920Y-92741286D01*
X159189417Y-92607549D01*
X159014898Y-92535082D01*
X158825931Y-92534918D01*
X158651286Y-92607080D01*
X158517549Y-92740583D01*
X158445082Y-92915102D01*
X158445048Y-92954622D01*
X157414670Y-93985000D01*
X149136820Y-93985000D01*
X149109417Y-93957549D01*
X148934898Y-93885082D01*
X148745931Y-93884918D01*
X148571286Y-93957080D01*
X148543317Y-93985000D01*
X147830223Y-93985000D01*
X147802820Y-93957549D01*
X147628301Y-93885082D01*
X147439334Y-93884918D01*
X147264689Y-93957080D01*
X147130952Y-94090583D01*
X147058485Y-94265102D01*
X147058321Y-94454069D01*
X143475000Y-94454069D01*
X143475000Y-92168216D01*
X160091907Y-92168216D01*
X160091907Y-93868216D01*
X160111082Y-93970125D01*
X160171310Y-94063722D01*
X160263208Y-94126512D01*
X160372294Y-94148603D01*
X162072294Y-94148603D01*
X162174203Y-94129428D01*
X162267800Y-94069200D01*
X162330590Y-93977302D01*
X162352681Y-93868216D01*
X162352681Y-92168216D01*
X162333506Y-92066307D01*
X162273278Y-91972710D01*
X162181380Y-91909920D01*
X162072294Y-91887829D01*
X160372294Y-91887829D01*
X160270385Y-91907004D01*
X160176788Y-91967232D01*
X160113998Y-92059130D01*
X160091907Y-92168216D01*
X143475000Y-92168216D01*
X143475000Y-92012556D01*
X143559607Y-91928096D01*
X143669375Y-91663745D01*
X143669625Y-91377510D01*
X143560318Y-91112968D01*
X143358096Y-90910393D01*
X143093745Y-90800625D01*
X142807510Y-90800375D01*
X142542968Y-90909682D01*
X142340393Y-91111904D01*
X142230625Y-91376255D01*
X142230375Y-91662490D01*
X137105000Y-91662490D01*
X137105000Y-86070000D01*
X137076455Y-85926494D01*
X136995165Y-85804835D01*
X135106038Y-83915708D01*
X154576810Y-83915708D01*
X154662446Y-84346227D01*
X154906315Y-84711203D01*
X155271291Y-84955072D01*
X155701810Y-85040708D01*
X155745890Y-85040708D01*
X156176409Y-84955072D01*
X156541385Y-84711203D01*
X156785254Y-84346227D01*
X156870890Y-83915708D01*
X156785254Y-83485189D01*
X156541385Y-83120213D01*
X156176409Y-82876344D01*
X155745890Y-82790708D01*
X155701810Y-82790708D01*
X155271291Y-82876344D01*
X154906315Y-83120213D01*
X154662446Y-83485189D01*
X154576810Y-83915708D01*
X135106038Y-83915708D01*
X129295165Y-78104835D01*
X129173507Y-78023545D01*
X129030000Y-77995000D01*
X127718170Y-77995000D01*
X127662920Y-77861286D01*
X127529417Y-77727549D01*
X127354898Y-77655082D01*
X127165931Y-77654918D01*
X126991286Y-77727080D01*
X126857549Y-77860583D01*
X126785082Y-78035102D01*
X126784918Y-78224069D01*
X126857080Y-78398714D01*
X126990583Y-78532451D01*
X127165102Y-78604918D01*
X127204622Y-78604952D01*
X127224670Y-78625000D01*
X126995330Y-78625000D01*
X126445048Y-78074718D01*
X126445082Y-78035931D01*
X126372920Y-77861286D01*
X126239417Y-77727549D01*
X126137226Y-77685116D01*
X126366843Y-77639442D01*
X126703270Y-77414649D01*
X126928063Y-77078222D01*
X127007000Y-76681379D01*
X127007000Y-76156461D01*
X127473000Y-76156461D01*
X127473000Y-76681379D01*
X127551937Y-77078222D01*
X127776730Y-77414649D01*
X128113157Y-77639442D01*
X128510000Y-77718379D01*
X128906843Y-77639442D01*
X129243270Y-77414649D01*
X129468063Y-77078222D01*
X129547000Y-76681379D01*
X129547000Y-76156461D01*
X130013000Y-76156461D01*
X130013000Y-76681379D01*
X130091937Y-77078222D01*
X130316730Y-77414649D01*
X130653157Y-77639442D01*
X131050000Y-77718379D01*
X131446843Y-77639442D01*
X131783270Y-77414649D01*
X132008063Y-77078222D01*
X132087000Y-76681379D01*
X132087000Y-76156461D01*
X132553000Y-76156461D01*
X132553000Y-76681379D01*
X132631937Y-77078222D01*
X132856730Y-77414649D01*
X133193157Y-77639442D01*
X133590000Y-77718379D01*
X133986843Y-77639442D01*
X134323270Y-77414649D01*
X134548063Y-77078222D01*
X134627000Y-76681379D01*
X134627000Y-76156461D01*
X135093000Y-76156461D01*
X135093000Y-76681379D01*
X135171937Y-77078222D01*
X135396730Y-77414649D01*
X135733157Y-77639442D01*
X136130000Y-77718379D01*
X136526843Y-77639442D01*
X136863270Y-77414649D01*
X137088063Y-77078222D01*
X137167000Y-76681379D01*
X137167000Y-76156461D01*
X137633000Y-76156461D01*
X137633000Y-76681379D01*
X137711937Y-77078222D01*
X137936730Y-77414649D01*
X138273157Y-77639442D01*
X138670000Y-77718379D01*
X139066843Y-77639442D01*
X139403270Y-77414649D01*
X139628063Y-77078222D01*
X139707000Y-76681379D01*
X139707000Y-76156461D01*
X140173000Y-76156461D01*
X140173000Y-76681379D01*
X140251937Y-77078222D01*
X140476730Y-77414649D01*
X140813157Y-77639442D01*
X141210000Y-77718379D01*
X141606843Y-77639442D01*
X141943270Y-77414649D01*
X142168063Y-77078222D01*
X142247000Y-76681379D01*
X142247000Y-76156461D01*
X145253000Y-76156461D01*
X145253000Y-76681379D01*
X145331937Y-77078222D01*
X145556730Y-77414649D01*
X145893157Y-77639442D01*
X146290000Y-77718379D01*
X146686843Y-77639442D01*
X147023270Y-77414649D01*
X147248063Y-77078222D01*
X147327000Y-76681379D01*
X147327000Y-76156461D01*
X147793000Y-76156461D01*
X147793000Y-76681379D01*
X147871937Y-77078222D01*
X148096730Y-77414649D01*
X148433157Y-77639442D01*
X148830000Y-77718379D01*
X149226843Y-77639442D01*
X149563270Y-77414649D01*
X149788063Y-77078222D01*
X149867000Y-76681379D01*
X149867000Y-76156461D01*
X150333000Y-76156461D01*
X150333000Y-76681379D01*
X150411937Y-77078222D01*
X150636730Y-77414649D01*
X150973157Y-77639442D01*
X151370000Y-77718379D01*
X151766843Y-77639442D01*
X152103270Y-77414649D01*
X152328063Y-77078222D01*
X152407000Y-76681379D01*
X152407000Y-76156461D01*
X152873000Y-76156461D01*
X152873000Y-76681379D01*
X152951937Y-77078222D01*
X153176730Y-77414649D01*
X153513157Y-77639442D01*
X153910000Y-77718379D01*
X154306843Y-77639442D01*
X154643270Y-77414649D01*
X154868063Y-77078222D01*
X154947000Y-76681379D01*
X154947000Y-76156461D01*
X155413000Y-76156461D01*
X155413000Y-76681379D01*
X155491937Y-77078222D01*
X155716730Y-77414649D01*
X156053157Y-77639442D01*
X156450000Y-77718379D01*
X156846843Y-77639442D01*
X157183270Y-77414649D01*
X157408063Y-77078222D01*
X157487000Y-76681379D01*
X157487000Y-76156461D01*
X157953000Y-76156461D01*
X157953000Y-76681379D01*
X158031937Y-77078222D01*
X158256730Y-77414649D01*
X158593157Y-77639442D01*
X158990000Y-77718379D01*
X159386843Y-77639442D01*
X159723270Y-77414649D01*
X159948063Y-77078222D01*
X160027000Y-76681379D01*
X160027000Y-76156461D01*
X159948063Y-75759618D01*
X159723270Y-75423191D01*
X159386843Y-75198398D01*
X158990000Y-75119461D01*
X158593157Y-75198398D01*
X158256730Y-75423191D01*
X158031937Y-75759618D01*
X157953000Y-76156461D01*
X157487000Y-76156461D01*
X157408063Y-75759618D01*
X157183270Y-75423191D01*
X156846843Y-75198398D01*
X156450000Y-75119461D01*
X156053157Y-75198398D01*
X155716730Y-75423191D01*
X155491937Y-75759618D01*
X155413000Y-76156461D01*
X154947000Y-76156461D01*
X154868063Y-75759618D01*
X154643270Y-75423191D01*
X154306843Y-75198398D01*
X153910000Y-75119461D01*
X153513157Y-75198398D01*
X153176730Y-75423191D01*
X152951937Y-75759618D01*
X152873000Y-76156461D01*
X152407000Y-76156461D01*
X152328063Y-75759618D01*
X152103270Y-75423191D01*
X151766843Y-75198398D01*
X151370000Y-75119461D01*
X150973157Y-75198398D01*
X150636730Y-75423191D01*
X150411937Y-75759618D01*
X150333000Y-76156461D01*
X149867000Y-76156461D01*
X149788063Y-75759618D01*
X149563270Y-75423191D01*
X149226843Y-75198398D01*
X148830000Y-75119461D01*
X148433157Y-75198398D01*
X148096730Y-75423191D01*
X147871937Y-75759618D01*
X147793000Y-76156461D01*
X147327000Y-76156461D01*
X147248063Y-75759618D01*
X147023270Y-75423191D01*
X146686843Y-75198398D01*
X146290000Y-75119461D01*
X145893157Y-75198398D01*
X145556730Y-75423191D01*
X145331937Y-75759618D01*
X145253000Y-76156461D01*
X142247000Y-76156461D01*
X142168063Y-75759618D01*
X141943270Y-75423191D01*
X141606843Y-75198398D01*
X141210000Y-75119461D01*
X140813157Y-75198398D01*
X140476730Y-75423191D01*
X140251937Y-75759618D01*
X140173000Y-76156461D01*
X139707000Y-76156461D01*
X139628063Y-75759618D01*
X139403270Y-75423191D01*
X139066843Y-75198398D01*
X138670000Y-75119461D01*
X138273157Y-75198398D01*
X137936730Y-75423191D01*
X137711937Y-75759618D01*
X137633000Y-76156461D01*
X137167000Y-76156461D01*
X137088063Y-75759618D01*
X136863270Y-75423191D01*
X136526843Y-75198398D01*
X136130000Y-75119461D01*
X135733157Y-75198398D01*
X135396730Y-75423191D01*
X135171937Y-75759618D01*
X135093000Y-76156461D01*
X134627000Y-76156461D01*
X134548063Y-75759618D01*
X134323270Y-75423191D01*
X133986843Y-75198398D01*
X133590000Y-75119461D01*
X133193157Y-75198398D01*
X132856730Y-75423191D01*
X132631937Y-75759618D01*
X132553000Y-76156461D01*
X132087000Y-76156461D01*
X132008063Y-75759618D01*
X131783270Y-75423191D01*
X131446843Y-75198398D01*
X131050000Y-75119461D01*
X130653157Y-75198398D01*
X130316730Y-75423191D01*
X130091937Y-75759618D01*
X130013000Y-76156461D01*
X129547000Y-76156461D01*
X129468063Y-75759618D01*
X129243270Y-75423191D01*
X128906843Y-75198398D01*
X128510000Y-75119461D01*
X128113157Y-75198398D01*
X127776730Y-75423191D01*
X127551937Y-75759618D01*
X127473000Y-76156461D01*
X127007000Y-76156461D01*
X126928063Y-75759618D01*
X126703270Y-75423191D01*
X126366843Y-75198398D01*
X125970000Y-75119461D01*
X125573157Y-75198398D01*
X125236730Y-75423191D01*
X125011937Y-75759618D01*
X124933000Y-76156461D01*
X121927000Y-76156461D01*
X121848063Y-75759618D01*
X121623270Y-75423191D01*
X121286843Y-75198398D01*
X120890000Y-75119461D01*
X120493157Y-75198398D01*
X120156730Y-75423191D01*
X119931937Y-75759618D01*
X119853000Y-76156461D01*
X119387000Y-76156461D01*
X119308063Y-75759618D01*
X119083270Y-75423191D01*
X118746843Y-75198398D01*
X118350000Y-75119461D01*
X117953157Y-75198398D01*
X117616730Y-75423191D01*
X117391937Y-75759618D01*
X117313000Y-76156461D01*
X116847000Y-76156461D01*
X116768063Y-75759618D01*
X116543270Y-75423191D01*
X116206843Y-75198398D01*
X115810000Y-75119461D01*
X115413157Y-75198398D01*
X115076730Y-75423191D01*
X114851937Y-75759618D01*
X114773000Y-76156461D01*
X114312387Y-76156461D01*
X114312387Y-75419430D01*
X114293212Y-75317521D01*
X114232984Y-75223924D01*
X114141086Y-75161134D01*
X114032000Y-75139043D01*
X112508000Y-75139043D01*
X112406091Y-75158218D01*
X112312494Y-75218446D01*
X112249704Y-75310344D01*
X112227613Y-75419430D01*
X112195000Y-75419430D01*
X112195000Y-73118621D01*
X112233000Y-73118621D01*
X112233000Y-73643539D01*
X112311937Y-74040382D01*
X112536730Y-74376809D01*
X112873157Y-74601602D01*
X113270000Y-74680539D01*
X113666843Y-74601602D01*
X114003270Y-74376809D01*
X114228063Y-74040382D01*
X114307000Y-73643539D01*
X114307000Y-73118621D01*
X114773000Y-73118621D01*
X114773000Y-73643539D01*
X114851937Y-74040382D01*
X115076730Y-74376809D01*
X115413157Y-74601602D01*
X115810000Y-74680539D01*
X116206843Y-74601602D01*
X116543270Y-74376809D01*
X116768063Y-74040382D01*
X116847000Y-73643539D01*
X116847000Y-73118621D01*
X119853000Y-73118621D01*
X119853000Y-73643539D01*
X119931937Y-74040382D01*
X120156730Y-74376809D01*
X120493157Y-74601602D01*
X120890000Y-74680539D01*
X121286843Y-74601602D01*
X121623270Y-74376809D01*
X121848063Y-74040382D01*
X121927000Y-73643539D01*
X121927000Y-73118621D01*
X122393000Y-73118621D01*
X122393000Y-73643539D01*
X122471937Y-74040382D01*
X122696730Y-74376809D01*
X123033157Y-74601602D01*
X123430000Y-74680539D01*
X123826843Y-74601602D01*
X124163270Y-74376809D01*
X124388063Y-74040382D01*
X124467000Y-73643539D01*
X124467000Y-73118621D01*
X124933000Y-73118621D01*
X124933000Y-73643539D01*
X125011937Y-74040382D01*
X125236730Y-74376809D01*
X125573157Y-74601602D01*
X125970000Y-74680539D01*
X126366843Y-74601602D01*
X126703270Y-74376809D01*
X126928063Y-74040382D01*
X127007000Y-73643539D01*
X127007000Y-73118621D01*
X130013000Y-73118621D01*
X130013000Y-73643539D01*
X130091937Y-74040382D01*
X130316730Y-74376809D01*
X130653157Y-74601602D01*
X131050000Y-74680539D01*
X131446843Y-74601602D01*
X131783270Y-74376809D01*
X132008063Y-74040382D01*
X132087000Y-73643539D01*
X132087000Y-73118621D01*
X132553000Y-73118621D01*
X132553000Y-73643539D01*
X132631937Y-74040382D01*
X132856730Y-74376809D01*
X133193157Y-74601602D01*
X133590000Y-74680539D01*
X133986843Y-74601602D01*
X134323270Y-74376809D01*
X134548063Y-74040382D01*
X134627000Y-73643539D01*
X134627000Y-73118621D01*
X137633000Y-73118621D01*
X137633000Y-73643539D01*
X137711937Y-74040382D01*
X137936730Y-74376809D01*
X138273157Y-74601602D01*
X138670000Y-74680539D01*
X139066843Y-74601602D01*
X139403270Y-74376809D01*
X139628063Y-74040382D01*
X139707000Y-73643539D01*
X139707000Y-73118621D01*
X140173000Y-73118621D01*
X140173000Y-73643539D01*
X140251937Y-74040382D01*
X140476730Y-74376809D01*
X140813157Y-74601602D01*
X141210000Y-74680539D01*
X141606843Y-74601602D01*
X141943270Y-74376809D01*
X142168063Y-74040382D01*
X142247000Y-73643539D01*
X142247000Y-73118621D01*
X142713000Y-73118621D01*
X142713000Y-73643539D01*
X142791937Y-74040382D01*
X143016730Y-74376809D01*
X143353157Y-74601602D01*
X143750000Y-74680539D01*
X144146843Y-74601602D01*
X144483270Y-74376809D01*
X144708063Y-74040382D01*
X144787000Y-73643539D01*
X144787000Y-73118621D01*
X145253000Y-73118621D01*
X145253000Y-73643539D01*
X145331937Y-74040382D01*
X145556730Y-74376809D01*
X145893157Y-74601602D01*
X146290000Y-74680539D01*
X146686843Y-74601602D01*
X147023270Y-74376809D01*
X147248063Y-74040382D01*
X147327000Y-73643539D01*
X147327000Y-73118621D01*
X150333000Y-73118621D01*
X150333000Y-73643539D01*
X150411937Y-74040382D01*
X150636730Y-74376809D01*
X150973157Y-74601602D01*
X151370000Y-74680539D01*
X151766843Y-74601602D01*
X152103270Y-74376809D01*
X152328063Y-74040382D01*
X152407000Y-73643539D01*
X152407000Y-73118621D01*
X155413000Y-73118621D01*
X155413000Y-73643539D01*
X155491937Y-74040382D01*
X155716730Y-74376809D01*
X156053157Y-74601602D01*
X156450000Y-74680539D01*
X156846843Y-74601602D01*
X157183270Y-74376809D01*
X157408063Y-74040382D01*
X157487000Y-73643539D01*
X157487000Y-73118621D01*
X157953000Y-73118621D01*
X157953000Y-73643539D01*
X158031937Y-74040382D01*
X158256730Y-74376809D01*
X158593157Y-74601602D01*
X158990000Y-74680539D01*
X159386843Y-74601602D01*
X159723270Y-74376809D01*
X159948063Y-74040382D01*
X160027000Y-73643539D01*
X160027000Y-73118621D01*
X160493000Y-73118621D01*
X160493000Y-73643539D01*
X160571937Y-74040382D01*
X160796730Y-74376809D01*
X161133157Y-74601602D01*
X161530000Y-74680539D01*
X161926843Y-74601602D01*
X162263270Y-74376809D01*
X162488063Y-74040382D01*
X162567000Y-73643539D01*
X162567000Y-73118621D01*
X162488063Y-72721778D01*
X162263270Y-72385351D01*
X161926843Y-72160558D01*
X161530000Y-72081621D01*
X161133157Y-72160558D01*
X160796730Y-72385351D01*
X160571937Y-72721778D01*
X160493000Y-73118621D01*
X160027000Y-73118621D01*
X159948063Y-72721778D01*
X159723270Y-72385351D01*
X159386843Y-72160558D01*
X158990000Y-72081621D01*
X158593157Y-72160558D01*
X158256730Y-72385351D01*
X158031937Y-72721778D01*
X157953000Y-73118621D01*
X157487000Y-73118621D01*
X157408063Y-72721778D01*
X157183270Y-72385351D01*
X156846843Y-72160558D01*
X156450000Y-72081621D01*
X156053157Y-72160558D01*
X155716730Y-72385351D01*
X155491937Y-72721778D01*
X155413000Y-73118621D01*
X152407000Y-73118621D01*
X152328063Y-72721778D01*
X152103270Y-72385351D01*
X151766843Y-72160558D01*
X151370000Y-72081621D01*
X150973157Y-72160558D01*
X150636730Y-72385351D01*
X150411937Y-72721778D01*
X150333000Y-73118621D01*
X147327000Y-73118621D01*
X147248063Y-72721778D01*
X147023270Y-72385351D01*
X146686843Y-72160558D01*
X146290000Y-72081621D01*
X145893157Y-72160558D01*
X145556730Y-72385351D01*
X145331937Y-72721778D01*
X145253000Y-73118621D01*
X144787000Y-73118621D01*
X144708063Y-72721778D01*
X144483270Y-72385351D01*
X144146843Y-72160558D01*
X143750000Y-72081621D01*
X143353157Y-72160558D01*
X143016730Y-72385351D01*
X142791937Y-72721778D01*
X142713000Y-73118621D01*
X142247000Y-73118621D01*
X142168063Y-72721778D01*
X141943270Y-72385351D01*
X141606843Y-72160558D01*
X141210000Y-72081621D01*
X140813157Y-72160558D01*
X140476730Y-72385351D01*
X140251937Y-72721778D01*
X140173000Y-73118621D01*
X139707000Y-73118621D01*
X139628063Y-72721778D01*
X139403270Y-72385351D01*
X139066843Y-72160558D01*
X138670000Y-72081621D01*
X138273157Y-72160558D01*
X137936730Y-72385351D01*
X137711937Y-72721778D01*
X137633000Y-73118621D01*
X134627000Y-73118621D01*
X134548063Y-72721778D01*
X134323270Y-72385351D01*
X133986843Y-72160558D01*
X133590000Y-72081621D01*
X133193157Y-72160558D01*
X132856730Y-72385351D01*
X132631937Y-72721778D01*
X132553000Y-73118621D01*
X132087000Y-73118621D01*
X132008063Y-72721778D01*
X131783270Y-72385351D01*
X131446843Y-72160558D01*
X131050000Y-72081621D01*
X130653157Y-72160558D01*
X130316730Y-72385351D01*
X130091937Y-72721778D01*
X130013000Y-73118621D01*
X127007000Y-73118621D01*
X126928063Y-72721778D01*
X126703270Y-72385351D01*
X126366843Y-72160558D01*
X125970000Y-72081621D01*
X125573157Y-72160558D01*
X125236730Y-72385351D01*
X125011937Y-72721778D01*
X124933000Y-73118621D01*
X124467000Y-73118621D01*
X124388063Y-72721778D01*
X124163270Y-72385351D01*
X123826843Y-72160558D01*
X123430000Y-72081621D01*
X123033157Y-72160558D01*
X122696730Y-72385351D01*
X122471937Y-72721778D01*
X122393000Y-73118621D01*
X121927000Y-73118621D01*
X121848063Y-72721778D01*
X121623270Y-72385351D01*
X121286843Y-72160558D01*
X120890000Y-72081621D01*
X120493157Y-72160558D01*
X120156730Y-72385351D01*
X119931937Y-72721778D01*
X119853000Y-73118621D01*
X116847000Y-73118621D01*
X116768063Y-72721778D01*
X116543270Y-72385351D01*
X116206843Y-72160558D01*
X115810000Y-72081621D01*
X115413157Y-72160558D01*
X115076730Y-72385351D01*
X114851937Y-72721778D01*
X114773000Y-73118621D01*
X114307000Y-73118621D01*
X114228063Y-72721778D01*
X114003270Y-72385351D01*
X113666843Y-72160558D01*
X113270000Y-72081621D01*
X112873157Y-72160558D01*
X112536730Y-72385351D01*
X112311937Y-72721778D01*
X112233000Y-73118621D01*
X112195000Y-73118621D01*
X112195000Y-72622464D01*
X112269670Y-72247071D01*
X112480917Y-71930917D01*
X112797071Y-71719670D01*
X113172464Y-71645000D01*
X162167536Y-71645000D01*
X162542929Y-71719670D01*
X162542929Y-71719670D01*
G37*
X162542929Y-71719670D02*
X162859083Y-71930917D01*
X163070330Y-72247071D01*
X163145000Y-72622464D01*
X163145000Y-77620000D01*
X163145480Y-77624877D01*
X163221600Y-78007560D01*
X163225333Y-78016572D01*
X163442106Y-78340996D01*
X163449004Y-78347894D01*
X163773428Y-78564667D01*
X163782440Y-78568400D01*
X164165123Y-78644520D01*
X164170000Y-78645000D01*
X168667536Y-78645000D01*
X169042929Y-78719670D01*
X169359083Y-78930917D01*
X169570330Y-79247071D01*
X169595000Y-79371096D01*
X169595000Y-119368904D01*
X169570330Y-119492929D01*
X169359083Y-119809083D01*
X169042929Y-120020330D01*
X168667536Y-120095000D01*
X163670000Y-120095000D01*
X163665123Y-120095480D01*
X163282440Y-120171600D01*
X163273428Y-120175333D01*
X162949004Y-120392106D01*
X162942106Y-120399004D01*
X162725333Y-120723428D01*
X162721600Y-120732440D01*
X162645480Y-121115123D01*
X162645000Y-121120000D01*
X162645000Y-126117536D01*
X162570330Y-126492929D01*
X162359083Y-126809083D01*
X162042929Y-127020330D01*
X161667536Y-127095000D01*
X113172464Y-127095000D01*
X112797071Y-127020330D01*
X112480917Y-126809083D01*
X112441306Y-126749802D01*
X113101726Y-126750378D01*
X113903258Y-126419192D01*
X114517037Y-125806483D01*
X114841548Y-125024971D01*
X120124821Y-125024971D01*
X120282058Y-125405515D01*
X120572954Y-125696919D01*
X120953223Y-125854820D01*
X121364971Y-125855179D01*
X121745515Y-125697942D01*
X122036919Y-125407046D01*
X122194820Y-125026777D01*
X122194821Y-125024971D01*
X125654821Y-125024971D01*
X125812058Y-125405515D01*
X126102954Y-125696919D01*
X126483223Y-125854820D01*
X126894971Y-125855179D01*
X127275515Y-125697942D01*
X127566919Y-125407046D01*
X127724820Y-125026777D01*
X127724821Y-125024971D01*
X128404821Y-125024971D01*
X128562058Y-125405515D01*
X128852954Y-125696919D01*
X129233223Y-125854820D01*
X129644971Y-125855179D01*
X130025515Y-125697942D01*
X130316919Y-125407046D01*
X130381413Y-125251726D01*
X144019622Y-125251726D01*
X144350808Y-126053258D01*
X144963517Y-126667037D01*
X145764469Y-126999621D01*
X146631726Y-127000378D01*
X147433258Y-126669192D01*
X148047037Y-126056483D01*
X148379621Y-125255531D01*
X148380378Y-124388274D01*
X148049192Y-123586742D01*
X147436483Y-122972963D01*
X146635531Y-122640379D01*
X145768274Y-122639622D01*
X144966742Y-122970808D01*
X144352963Y-123583517D01*
X144020379Y-124384469D01*
X144019622Y-125251726D01*
X130381413Y-125251726D01*
X130474820Y-125026777D01*
X130475179Y-124615029D01*
X130317942Y-124234485D01*
X130027046Y-123943081D01*
X129646777Y-123785180D01*
X129235029Y-123784821D01*
X128854485Y-123942058D01*
X128563081Y-124232954D01*
X128405180Y-124613223D01*
X128404821Y-125024971D01*
X127724821Y-125024971D01*
X127725179Y-124615029D01*
X127567942Y-124234485D01*
X127277046Y-123943081D01*
X126896777Y-123785180D01*
X126485029Y-123784821D01*
X126104485Y-123942058D01*
X125813081Y-124232954D01*
X125655180Y-124613223D01*
X125654821Y-125024971D01*
X122194821Y-125024971D01*
X122195179Y-124615029D01*
X122037942Y-124234485D01*
X121747046Y-123943081D01*
X121366777Y-123785180D01*
X120955029Y-123784821D01*
X120574485Y-123942058D01*
X120283081Y-124232954D01*
X120125180Y-124613223D01*
X120124821Y-125024971D01*
X114841548Y-125024971D01*
X114849621Y-125005531D01*
X114850378Y-124138274D01*
X114519192Y-123336742D01*
X113906483Y-122722963D01*
X113333335Y-122484971D01*
X118754821Y-122484971D01*
X118912058Y-122865515D01*
X119202954Y-123156919D01*
X119583223Y-123314820D01*
X119994971Y-123315179D01*
X120375515Y-123157942D01*
X120666919Y-122867046D01*
X120824820Y-122486777D01*
X120824821Y-122484971D01*
X121544821Y-122484971D01*
X121702058Y-122865515D01*
X121992954Y-123156919D01*
X122373223Y-123314820D01*
X122784971Y-123315179D01*
X123165515Y-123157942D01*
X123456919Y-122867046D01*
X123614820Y-122486777D01*
X123614821Y-122484971D01*
X124214821Y-122484971D01*
X124372058Y-122865515D01*
X124662954Y-123156919D01*
X125043223Y-123314820D01*
X125454971Y-123315179D01*
X125835515Y-123157942D01*
X126126919Y-122867046D01*
X126284820Y-122486777D01*
X126284821Y-122484971D01*
X127004821Y-122484971D01*
X127162058Y-122865515D01*
X127452954Y-123156919D01*
X127833223Y-123314820D01*
X128244971Y-123315179D01*
X128625515Y-123157942D01*
X128916919Y-122867046D01*
X129074820Y-122486777D01*
X129074821Y-122484971D01*
X129804821Y-122484971D01*
X129962058Y-122865515D01*
X130252954Y-123156919D01*
X130633223Y-123314820D01*
X131044971Y-123315179D01*
X131425515Y-123157942D01*
X131716919Y-122867046D01*
X131874820Y-122486777D01*
X131874821Y-122484971D01*
X132594821Y-122484971D01*
X132752058Y-122865515D01*
X133042954Y-123156919D01*
X133423223Y-123314820D01*
X133834971Y-123315179D01*
X134215515Y-123157942D01*
X134506919Y-122867046D01*
X134664820Y-122486777D01*
X134664821Y-122484971D01*
X135264821Y-122484971D01*
X135422058Y-122865515D01*
X135712954Y-123156919D01*
X136093223Y-123314820D01*
X136504971Y-123315179D01*
X136885515Y-123157942D01*
X137176919Y-122867046D01*
X137334820Y-122486777D01*
X137335179Y-122075029D01*
X137177942Y-121694485D01*
X137003762Y-121520000D01*
X138049613Y-121520000D01*
X138049613Y-123040000D01*
X138068788Y-123141909D01*
X138129016Y-123235506D01*
X138220914Y-123298296D01*
X138330000Y-123320387D01*
X139850000Y-123320387D01*
X139951909Y-123301212D01*
X140045506Y-123240984D01*
X140108296Y-123149086D01*
X140130387Y-123040000D01*
X140130387Y-121520000D01*
X140111212Y-121418091D01*
X140050984Y-121324494D01*
X139959086Y-121261704D01*
X139850000Y-121239613D01*
X138330000Y-121239613D01*
X138228091Y-121258788D01*
X138134494Y-121319016D01*
X138071704Y-121410914D01*
X138049613Y-121520000D01*
X137003762Y-121520000D01*
X136887046Y-121403081D01*
X136506777Y-121245180D01*
X136095029Y-121244821D01*
X135714485Y-121402058D01*
X135423081Y-121692954D01*
X135265180Y-122073223D01*
X135264821Y-122484971D01*
X134664821Y-122484971D01*
X134665179Y-122075029D01*
X134507942Y-121694485D01*
X134217046Y-121403081D01*
X133836777Y-121245180D01*
X133425029Y-121244821D01*
X133044485Y-121402058D01*
X132753081Y-121692954D01*
X132595180Y-122073223D01*
X132594821Y-122484971D01*
X131874821Y-122484971D01*
X131875179Y-122075029D01*
X131717942Y-121694485D01*
X131427046Y-121403081D01*
X131046777Y-121245180D01*
X130635029Y-121244821D01*
X130254485Y-121402058D01*
X129963081Y-121692954D01*
X129805180Y-122073223D01*
X129804821Y-122484971D01*
X129074821Y-122484971D01*
X129075179Y-122075029D01*
X128917942Y-121694485D01*
X128627046Y-121403081D01*
X128246777Y-121245180D01*
X127835029Y-121244821D01*
X127454485Y-121402058D01*
X127163081Y-121692954D01*
X127005180Y-122073223D01*
X127004821Y-122484971D01*
X126284821Y-122484971D01*
X126285179Y-122075029D01*
X126127942Y-121694485D01*
X125837046Y-121403081D01*
X125456777Y-121245180D01*
X125045029Y-121244821D01*
X124664485Y-121402058D01*
X124373081Y-121692954D01*
X124215180Y-122073223D01*
X124214821Y-122484971D01*
X123614821Y-122484971D01*
X123615179Y-122075029D01*
X123457942Y-121694485D01*
X123167046Y-121403081D01*
X122786777Y-121245180D01*
X122375029Y-121244821D01*
X121994485Y-121402058D01*
X121703081Y-121692954D01*
X121545180Y-122073223D01*
X121544821Y-122484971D01*
X120824821Y-122484971D01*
X120825179Y-122075029D01*
X120667942Y-121694485D01*
X120377046Y-121403081D01*
X119996777Y-121245180D01*
X119585029Y-121244821D01*
X119204485Y-121402058D01*
X118913081Y-121692954D01*
X118755180Y-122073223D01*
X118754821Y-122484971D01*
X113333335Y-122484971D01*
X113105531Y-122390379D01*
X112238274Y-122389622D01*
X112195000Y-122407502D01*
X112195000Y-121120000D01*
X112194520Y-121115123D01*
X112118400Y-120732440D01*
X112114667Y-120723428D01*
X111897894Y-120399004D01*
X111890996Y-120392106D01*
X111566572Y-120175333D01*
X111557560Y-120171600D01*
X111174877Y-120095480D01*
X111170000Y-120095000D01*
X106672464Y-120095000D01*
X106297071Y-120020330D01*
X105980917Y-119809083D01*
X105769670Y-119492929D01*
X105695000Y-119117536D01*
X105695000Y-110734069D01*
X132354918Y-110734069D01*
X132427080Y-110908714D01*
X132560583Y-111042451D01*
X132735102Y-111114918D01*
X132924069Y-111115082D01*
X133098714Y-111042920D01*
X133126683Y-111015000D01*
X134210000Y-111015000D01*
X134353507Y-110986455D01*
X134475165Y-110905165D01*
X135125165Y-110255165D01*
X135206455Y-110133506D01*
X135235000Y-109990000D01*
X135235000Y-108484069D01*
X138334918Y-108484069D01*
X138407080Y-108658714D01*
X138435000Y-108686683D01*
X138435000Y-109693180D01*
X138407549Y-109720583D01*
X138335082Y-109895102D01*
X138334918Y-110084069D01*
X138407080Y-110258714D01*
X138540583Y-110392451D01*
X138715102Y-110464918D01*
X138904069Y-110465082D01*
X139078714Y-110392920D01*
X139212451Y-110259417D01*
X139284918Y-110084898D01*
X139285082Y-109895931D01*
X139212920Y-109721286D01*
X139185000Y-109693317D01*
X139185000Y-108686820D01*
X139212451Y-108659417D01*
X139284918Y-108484898D01*
X139285082Y-108295931D01*
X139212920Y-108121286D01*
X139079417Y-107987549D01*
X138904898Y-107915082D01*
X138715931Y-107914918D01*
X138541286Y-107987080D01*
X138407549Y-108120583D01*
X138335082Y-108295102D01*
X138334918Y-108484069D01*
X135235000Y-108484069D01*
X135235000Y-106805330D01*
X135335330Y-106705000D01*
X143361155Y-106705000D01*
X141531891Y-108534264D01*
X141488096Y-108490393D01*
X141223745Y-108380625D01*
X140937510Y-108380375D01*
X140672968Y-108489682D01*
X140470393Y-108691904D01*
X140360625Y-108956255D01*
X140360375Y-109242490D01*
X140469682Y-109507032D01*
X140671904Y-109709607D01*
X140936255Y-109819375D01*
X141222490Y-109819625D01*
X141487032Y-109710318D01*
X141572499Y-109625000D01*
X141708617Y-109625000D01*
X141909526Y-109585037D01*
X142079848Y-109471231D01*
X144096079Y-107455000D01*
X149238363Y-107455000D01*
X149032333Y-107592665D01*
X148942665Y-107682332D01*
X148942665Y-107682333D01*
X148725893Y-108006756D01*
X148725892Y-108006757D01*
X148677365Y-108123913D01*
X148601245Y-108506596D01*
X148601245Y-108538604D01*
X148595000Y-108570000D01*
X148595000Y-123570000D01*
X148601245Y-123601396D01*
X148601245Y-123633404D01*
X148677365Y-124016087D01*
X148725892Y-124133243D01*
X148942664Y-124457665D01*
X148942665Y-124457668D01*
X149032333Y-124547335D01*
X149356757Y-124764108D01*
X149473912Y-124812635D01*
X149473913Y-124812635D01*
X149856594Y-124888755D01*
X149983404Y-124888755D01*
X150366087Y-124812635D01*
X150483243Y-124764108D01*
X150483244Y-124764107D01*
X150807665Y-124547336D01*
X150807668Y-124547335D01*
X150897335Y-124457667D01*
X151114108Y-124133243D01*
X151162635Y-124016088D01*
X151162635Y-124016087D01*
X151238755Y-123633404D01*
X151238755Y-123601396D01*
X151245000Y-123570000D01*
X151245000Y-108570000D01*
X151238755Y-108538604D01*
X151238755Y-108506596D01*
X151162635Y-108123913D01*
X151151017Y-108095863D01*
X151114108Y-108006757D01*
X150897335Y-107682333D01*
X150807668Y-107592665D01*
X150807665Y-107592664D01*
X150601637Y-107455000D01*
X150952538Y-107455000D01*
X154835000Y-111337462D01*
X154835000Y-113667444D01*
X154750393Y-113751904D01*
X154640625Y-114016255D01*
X154640375Y-114302490D01*
X154749682Y-114567032D01*
X154951904Y-114769607D01*
X155216255Y-114879375D01*
X155502490Y-114879625D01*
X155767032Y-114770318D01*
X155969607Y-114568096D01*
X156079375Y-114303745D01*
X156079625Y-114017510D01*
X155970318Y-113752968D01*
X155885000Y-113667501D01*
X155885000Y-111120000D01*
X155845037Y-110919091D01*
X155731231Y-110748769D01*
X151541231Y-106558769D01*
X151370909Y-106444963D01*
X151170000Y-106405000D01*
X150154935Y-106405000D01*
X150155082Y-106235931D01*
X150082920Y-106061286D01*
X150026751Y-106005019D01*
X150082451Y-105949417D01*
X150154918Y-105774898D01*
X150155082Y-105585931D01*
X150082920Y-105411286D01*
X149949417Y-105277549D01*
X149774898Y-105205082D01*
X149585931Y-105204918D01*
X149411286Y-105277080D01*
X149383317Y-105305000D01*
X135335012Y-105305000D01*
X135191505Y-105333545D01*
X135069847Y-105414835D01*
X134114835Y-106369847D01*
X134033545Y-106491505D01*
X134033545Y-106491506D01*
X134005000Y-106635012D01*
X134005000Y-109544670D01*
X133824670Y-109725000D01*
X133776820Y-109725000D01*
X133749417Y-109697549D01*
X133574898Y-109625082D01*
X133385931Y-109624918D01*
X133211286Y-109697080D01*
X133077549Y-109830583D01*
X133005082Y-110005102D01*
X133004918Y-110194069D01*
X133007033Y-110199188D01*
X132924898Y-110165082D01*
X132735931Y-110164918D01*
X132561286Y-110237080D01*
X132427549Y-110370583D01*
X132355082Y-110545102D01*
X132354918Y-110734069D01*
X105695000Y-110734069D01*
X105695000Y-109622464D01*
X105769670Y-109247071D01*
X105980917Y-108930917D01*
X106297071Y-108719670D01*
X106672464Y-108645000D01*
X109670000Y-108645000D01*
X109674877Y-108644520D01*
X110057560Y-108568400D01*
X110066572Y-108564667D01*
X110390996Y-108347894D01*
X110397894Y-108340996D01*
X110614667Y-108016572D01*
X110618400Y-108007560D01*
X110694520Y-107624877D01*
X110695000Y-107620000D01*
X110695000Y-99604069D01*
X134624918Y-99604069D01*
X134697080Y-99778714D01*
X134830583Y-99912451D01*
X135005102Y-99984918D01*
X135194069Y-99985082D01*
X135368714Y-99912920D01*
X135502451Y-99779417D01*
X135574918Y-99604898D01*
X135574952Y-99565378D01*
X136365330Y-98775000D01*
X136763180Y-98775000D01*
X136790583Y-98802451D01*
X136965102Y-98874918D01*
X137154069Y-98875082D01*
X137328714Y-98802920D01*
X137462451Y-98669417D01*
X137534918Y-98494898D01*
X137535082Y-98305931D01*
X137462920Y-98131286D01*
X137329417Y-97997549D01*
X137154898Y-97925082D01*
X136965931Y-97924918D01*
X136791286Y-97997080D01*
X136763317Y-98025000D01*
X136210000Y-98025000D01*
X136066493Y-98053545D01*
X135944835Y-98134835D01*
X135044718Y-99034952D01*
X135005931Y-99034918D01*
X134831286Y-99107080D01*
X134697549Y-99240583D01*
X134625082Y-99415102D01*
X134624918Y-99604069D01*
X110695000Y-99604069D01*
X110695000Y-98537490D01*
X121025375Y-98537490D01*
X121134682Y-98802032D01*
X121336904Y-99004607D01*
X121601255Y-99114375D01*
X121887490Y-99114625D01*
X122152032Y-99005318D01*
X122354607Y-98803096D01*
X122464375Y-98538745D01*
X122464480Y-98417982D01*
X124878383Y-96004079D01*
X134674918Y-96004079D01*
X134747080Y-96178724D01*
X134775000Y-96206693D01*
X134775000Y-96543180D01*
X134747549Y-96570583D01*
X134675082Y-96745102D01*
X134674918Y-96934069D01*
X134747080Y-97108714D01*
X134880583Y-97242451D01*
X135055102Y-97314918D01*
X135244069Y-97315082D01*
X135418714Y-97242920D01*
X135552451Y-97109417D01*
X135624918Y-96934898D01*
X135625082Y-96745931D01*
X135552920Y-96571286D01*
X135525000Y-96543317D01*
X135525000Y-96206830D01*
X135552451Y-96179427D01*
X135624918Y-96004908D01*
X135625082Y-95815941D01*
X135552920Y-95641296D01*
X135419417Y-95507559D01*
X135244898Y-95435092D01*
X135055931Y-95434928D01*
X134881286Y-95507090D01*
X134747549Y-95640593D01*
X134675082Y-95815112D01*
X134674918Y-96004079D01*
X124878383Y-96004079D01*
X131232941Y-89649521D01*
X131352490Y-89649625D01*
X131617032Y-89540318D01*
X131819607Y-89338096D01*
X131929375Y-89073745D01*
X131929625Y-88787510D01*
X131820318Y-88522968D01*
X131618096Y-88320393D01*
X131353745Y-88210625D01*
X131067510Y-88210375D01*
X130802968Y-88319682D01*
X130600393Y-88521904D01*
X130490625Y-88786255D01*
X130490520Y-88907018D01*
X121722059Y-97675479D01*
X121602510Y-97675375D01*
X121337968Y-97784682D01*
X121135393Y-97986904D01*
X121025625Y-98251255D01*
X121025375Y-98537490D01*
X110695000Y-98537490D01*
X110695000Y-92014069D01*
X124444918Y-92014069D01*
X124517080Y-92188714D01*
X124650583Y-92322451D01*
X124825102Y-92394918D01*
X124874961Y-92394961D01*
X124874918Y-92444069D01*
X124947080Y-92618714D01*
X125080583Y-92752451D01*
X125255102Y-92824918D01*
X125444069Y-92825082D01*
X125618714Y-92752920D01*
X125752451Y-92619417D01*
X125824918Y-92444898D01*
X125824952Y-92405378D01*
X128675165Y-89555165D01*
X128756455Y-89433506D01*
X128785000Y-89290000D01*
X128785000Y-80215734D01*
X128812451Y-80188331D01*
X128884918Y-80013812D01*
X128885082Y-79824845D01*
X128812920Y-79650200D01*
X128679417Y-79516463D01*
X128504898Y-79443996D01*
X128315931Y-79443832D01*
X128141286Y-79515994D01*
X128007549Y-79649497D01*
X127935082Y-79824016D01*
X127934918Y-80012983D01*
X128007080Y-80187628D01*
X128035000Y-80215597D01*
X128035000Y-81022056D01*
X128029417Y-81016463D01*
X127854898Y-80943996D01*
X127665931Y-80943832D01*
X127491286Y-81015994D01*
X127357549Y-81149497D01*
X127285082Y-81324016D01*
X127284918Y-81512983D01*
X127357080Y-81687628D01*
X127385000Y-81715597D01*
X127385000Y-88924670D01*
X124864718Y-91444952D01*
X124825931Y-91444918D01*
X124651286Y-91517080D01*
X124517549Y-91650583D01*
X124445082Y-91825102D01*
X124444918Y-92014069D01*
X110695000Y-92014069D01*
X110695000Y-91620000D01*
X110694520Y-91615123D01*
X110618400Y-91232440D01*
X110614667Y-91223428D01*
X110397894Y-90899004D01*
X110390996Y-90892106D01*
X110066572Y-90675333D01*
X110057560Y-90671600D01*
X109674877Y-90595480D01*
X109670000Y-90595000D01*
X106672464Y-90595000D01*
X106297071Y-90520330D01*
X105980917Y-90309083D01*
X105769670Y-89992929D01*
X105695000Y-89617536D01*
X105695000Y-83004069D01*
X120934918Y-83004069D01*
X121007080Y-83178714D01*
X121140583Y-83312451D01*
X121315102Y-83384918D01*
X121504069Y-83385082D01*
X121678714Y-83312920D01*
X121706683Y-83285000D01*
X123013180Y-83285000D01*
X123040583Y-83312451D01*
X123215102Y-83384918D01*
X123404069Y-83385082D01*
X123578714Y-83312920D01*
X123712451Y-83179417D01*
X123784918Y-83004898D01*
X123785082Y-82815931D01*
X123712920Y-82641286D01*
X123579417Y-82507549D01*
X123404898Y-82435082D01*
X123215931Y-82434918D01*
X123041286Y-82507080D01*
X123013317Y-82535000D01*
X121706820Y-82535000D01*
X121679417Y-82507549D01*
X121504898Y-82435082D01*
X121315931Y-82434918D01*
X121141286Y-82507080D01*
X121007549Y-82640583D01*
X120935082Y-82815102D01*
X120934918Y-83004069D01*
X105695000Y-83004069D01*
X105695000Y-80825000D01*
X107652960Y-80825000D01*
X107738596Y-81255519D01*
X107982465Y-81620495D01*
X108347441Y-81864364D01*
X108777960Y-81950000D01*
X108822040Y-81950000D01*
X109252559Y-81864364D01*
X109617535Y-81620495D01*
X109861404Y-81255519D01*
X109947040Y-80825000D01*
X109861404Y-80394481D01*
X109617535Y-80029505D01*
X109252559Y-79785636D01*
X108822040Y-79700000D01*
X108777960Y-79700000D01*
X108347441Y-79785636D01*
X107982465Y-80029505D01*
X107738596Y-80394481D01*
X107652960Y-80825000D01*
X105695000Y-80825000D01*
X105695000Y-79622464D01*
X105769670Y-79247071D01*
X105980917Y-78930917D01*
X106297071Y-78719670D01*
X106672464Y-78645000D01*
X111170000Y-78645000D01*
X111174877Y-78644520D01*
X111557560Y-78568400D01*
X111566572Y-78564667D01*
X111890996Y-78347894D01*
X111897894Y-78340996D01*
X112114667Y-78016572D01*
X112118400Y-78007560D01*
X112194520Y-77624877D01*
X112195000Y-77620000D01*
X112195000Y-75419430D01*
X112227613Y-75419430D01*
X112227613Y-77418410D01*
X112246788Y-77520319D01*
X112307016Y-77613916D01*
X112398914Y-77676706D01*
X112508000Y-77698797D01*
X114032000Y-77698797D01*
X114133909Y-77679622D01*
X114227506Y-77619394D01*
X114290296Y-77527496D01*
X114312387Y-77418410D01*
X114312387Y-76156461D01*
X114773000Y-76156461D01*
X114773000Y-76681379D01*
X114851937Y-77078222D01*
X115076730Y-77414649D01*
X115413157Y-77639442D01*
X115810000Y-77718379D01*
X116206843Y-77639442D01*
X116543270Y-77414649D01*
X116768063Y-77078222D01*
X116847000Y-76681379D01*
X116847000Y-76156461D01*
X117313000Y-76156461D01*
X117313000Y-76681379D01*
X117391937Y-77078222D01*
X117616730Y-77414649D01*
X117953157Y-77639442D01*
X118350000Y-77718379D01*
X118746843Y-77639442D01*
X119083270Y-77414649D01*
X119308063Y-77078222D01*
X119387000Y-76681379D01*
X119387000Y-76156461D01*
X119853000Y-76156461D01*
X119853000Y-76681379D01*
X119931937Y-77078222D01*
X120156730Y-77414649D01*
X120493157Y-77639442D01*
X120890000Y-77718379D01*
X121286843Y-77639442D01*
X121623270Y-77414649D01*
X121848063Y-77078222D01*
X121927000Y-76681379D01*
X121927000Y-76156461D01*
X124933000Y-76156461D01*
X124933000Y-76681379D01*
X125011937Y-77078222D01*
X125236730Y-77414649D01*
X125573157Y-77639442D01*
X125802823Y-77685126D01*
X125701286Y-77727080D01*
X125567549Y-77860583D01*
X125495082Y-78035102D01*
X125494918Y-78224069D01*
X125567080Y-78398714D01*
X125700583Y-78532451D01*
X125875102Y-78604918D01*
X125914622Y-78604952D01*
X126574835Y-79265165D01*
X126696494Y-79346455D01*
X126840000Y-79375000D01*
X128644670Y-79375000D01*
X135815000Y-86545330D01*
X135815000Y-96523180D01*
X135787549Y-96550583D01*
X135715082Y-96725102D01*
X135714918Y-96914069D01*
X135787080Y-97088714D01*
X135920583Y-97222451D01*
X136095102Y-97294918D01*
X136284069Y-97295082D01*
X136458714Y-97222920D01*
X136592451Y-97089417D01*
X136641343Y-96971673D01*
X143034835Y-103365165D01*
X143156493Y-103446455D01*
X143300000Y-103475000D01*
X146433180Y-103475000D01*
X146460583Y-103502451D01*
X146635102Y-103574918D01*
X146824069Y-103575082D01*
X146998714Y-103502920D01*
X147132451Y-103369417D01*
X147204918Y-103194898D01*
X147205082Y-103005931D01*
X147132920Y-102831286D01*
X146999417Y-102697549D01*
X146824898Y-102625082D01*
X146635931Y-102624918D01*
X146461286Y-102697080D01*
X146433317Y-102725000D01*
X143455330Y-102725000D01*
X141980330Y-101250000D01*
X153762960Y-101250000D01*
X153848596Y-101680519D01*
X154092465Y-102045495D01*
X154457441Y-102289364D01*
X154887960Y-102375000D01*
X154932040Y-102375000D01*
X155362559Y-102289364D01*
X155727535Y-102045495D01*
X155971404Y-101680519D01*
X156057040Y-101250000D01*
X155971404Y-100819481D01*
X155850287Y-100638216D01*
X160075254Y-100638216D01*
X160160890Y-101068735D01*
X160404759Y-101433711D01*
X160769735Y-101677580D01*
X161200254Y-101763216D01*
X161244334Y-101763216D01*
X161674853Y-101677580D01*
X162039829Y-101433711D01*
X162283698Y-101068735D01*
X162369334Y-100638216D01*
X162283698Y-100207697D01*
X162039829Y-99842721D01*
X161674853Y-99598852D01*
X161244334Y-99513216D01*
X161200254Y-99513216D01*
X160769735Y-99598852D01*
X160404759Y-99842721D01*
X160160890Y-100207697D01*
X160075254Y-100638216D01*
X155850287Y-100638216D01*
X155727535Y-100454505D01*
X155362559Y-100210636D01*
X154932040Y-100125000D01*
X154887960Y-100125000D01*
X154457441Y-100210636D01*
X154092465Y-100454505D01*
X153848596Y-100819481D01*
X153762960Y-101250000D01*
X141980330Y-101250000D01*
X137105000Y-96374670D01*
X137105000Y-91662490D01*
X142230375Y-91662490D01*
X142339682Y-91927032D01*
X142425000Y-92012499D01*
X142425000Y-98787444D01*
X142340393Y-98871904D01*
X142230625Y-99136255D01*
X142230375Y-99422490D01*
X142339682Y-99687032D01*
X142541904Y-99889607D01*
X142806255Y-99999375D01*
X143092490Y-99999625D01*
X143357032Y-99890318D01*
X143559607Y-99688096D01*
X143669375Y-99423745D01*
X143669625Y-99137510D01*
X143560318Y-98872968D01*
X143475000Y-98787501D01*
X143475000Y-95558216D01*
X160075254Y-95558216D01*
X160160890Y-95988735D01*
X160404759Y-96353711D01*
X160769735Y-96597580D01*
X161200254Y-96683216D01*
X161244334Y-96683216D01*
X161674853Y-96597580D01*
X162039829Y-96353711D01*
X162283698Y-95988735D01*
X162369334Y-95558216D01*
X162283698Y-95127697D01*
X162039829Y-94762721D01*
X161674853Y-94518852D01*
X161244334Y-94433216D01*
X161200254Y-94433216D01*
X160769735Y-94518852D01*
X160404759Y-94762721D01*
X160160890Y-95127697D01*
X160075254Y-95558216D01*
X143475000Y-95558216D01*
X143475000Y-94454069D01*
X147058321Y-94454069D01*
X147130483Y-94628714D01*
X147263986Y-94762451D01*
X147438505Y-94834918D01*
X147627472Y-94835082D01*
X147802117Y-94762920D01*
X147830086Y-94735000D01*
X148543180Y-94735000D01*
X148570583Y-94762451D01*
X148745102Y-94834918D01*
X148934069Y-94835082D01*
X149108714Y-94762920D01*
X149136683Y-94735000D01*
X157570000Y-94735000D01*
X157713507Y-94706455D01*
X157835165Y-94625165D01*
X158975282Y-93485048D01*
X159014069Y-93485082D01*
X159188714Y-93412920D01*
X159322451Y-93279417D01*
X159394918Y-93104898D01*
X159395082Y-92915931D01*
X159322920Y-92741286D01*
X159189417Y-92607549D01*
X159014898Y-92535082D01*
X158825931Y-92534918D01*
X158651286Y-92607080D01*
X158517549Y-92740583D01*
X158445082Y-92915102D01*
X158445048Y-92954622D01*
X157414670Y-93985000D01*
X149136820Y-93985000D01*
X149109417Y-93957549D01*
X148934898Y-93885082D01*
X148745931Y-93884918D01*
X148571286Y-93957080D01*
X148543317Y-93985000D01*
X147830223Y-93985000D01*
X147802820Y-93957549D01*
X147628301Y-93885082D01*
X147439334Y-93884918D01*
X147264689Y-93957080D01*
X147130952Y-94090583D01*
X147058485Y-94265102D01*
X147058321Y-94454069D01*
X143475000Y-94454069D01*
X143475000Y-92168216D01*
X160091907Y-92168216D01*
X160091907Y-93868216D01*
X160111082Y-93970125D01*
X160171310Y-94063722D01*
X160263208Y-94126512D01*
X160372294Y-94148603D01*
X162072294Y-94148603D01*
X162174203Y-94129428D01*
X162267800Y-94069200D01*
X162330590Y-93977302D01*
X162352681Y-93868216D01*
X162352681Y-92168216D01*
X162333506Y-92066307D01*
X162273278Y-91972710D01*
X162181380Y-91909920D01*
X162072294Y-91887829D01*
X160372294Y-91887829D01*
X160270385Y-91907004D01*
X160176788Y-91967232D01*
X160113998Y-92059130D01*
X160091907Y-92168216D01*
X143475000Y-92168216D01*
X143475000Y-92012556D01*
X143559607Y-91928096D01*
X143669375Y-91663745D01*
X143669625Y-91377510D01*
X143560318Y-91112968D01*
X143358096Y-90910393D01*
X143093745Y-90800625D01*
X142807510Y-90800375D01*
X142542968Y-90909682D01*
X142340393Y-91111904D01*
X142230625Y-91376255D01*
X142230375Y-91662490D01*
X137105000Y-91662490D01*
X137105000Y-86070000D01*
X137076455Y-85926494D01*
X136995165Y-85804835D01*
X135106038Y-83915708D01*
X154576810Y-83915708D01*
X154662446Y-84346227D01*
X154906315Y-84711203D01*
X155271291Y-84955072D01*
X155701810Y-85040708D01*
X155745890Y-85040708D01*
X156176409Y-84955072D01*
X156541385Y-84711203D01*
X156785254Y-84346227D01*
X156870890Y-83915708D01*
X156785254Y-83485189D01*
X156541385Y-83120213D01*
X156176409Y-82876344D01*
X155745890Y-82790708D01*
X155701810Y-82790708D01*
X155271291Y-82876344D01*
X154906315Y-83120213D01*
X154662446Y-83485189D01*
X154576810Y-83915708D01*
X135106038Y-83915708D01*
X129295165Y-78104835D01*
X129173507Y-78023545D01*
X129030000Y-77995000D01*
X127718170Y-77995000D01*
X127662920Y-77861286D01*
X127529417Y-77727549D01*
X127354898Y-77655082D01*
X127165931Y-77654918D01*
X126991286Y-77727080D01*
X126857549Y-77860583D01*
X126785082Y-78035102D01*
X126784918Y-78224069D01*
X126857080Y-78398714D01*
X126990583Y-78532451D01*
X127165102Y-78604918D01*
X127204622Y-78604952D01*
X127224670Y-78625000D01*
X126995330Y-78625000D01*
X126445048Y-78074718D01*
X126445082Y-78035931D01*
X126372920Y-77861286D01*
X126239417Y-77727549D01*
X126137226Y-77685116D01*
X126366843Y-77639442D01*
X126703270Y-77414649D01*
X126928063Y-77078222D01*
X127007000Y-76681379D01*
X127007000Y-76156461D01*
X127473000Y-76156461D01*
X127473000Y-76681379D01*
X127551937Y-77078222D01*
X127776730Y-77414649D01*
X128113157Y-77639442D01*
X128510000Y-77718379D01*
X128906843Y-77639442D01*
X129243270Y-77414649D01*
X129468063Y-77078222D01*
X129547000Y-76681379D01*
X129547000Y-76156461D01*
X130013000Y-76156461D01*
X130013000Y-76681379D01*
X130091937Y-77078222D01*
X130316730Y-77414649D01*
X130653157Y-77639442D01*
X131050000Y-77718379D01*
X131446843Y-77639442D01*
X131783270Y-77414649D01*
X132008063Y-77078222D01*
X132087000Y-76681379D01*
X132087000Y-76156461D01*
X132553000Y-76156461D01*
X132553000Y-76681379D01*
X132631937Y-77078222D01*
X132856730Y-77414649D01*
X133193157Y-77639442D01*
X133590000Y-77718379D01*
X133986843Y-77639442D01*
X134323270Y-77414649D01*
X134548063Y-77078222D01*
X134627000Y-76681379D01*
X134627000Y-76156461D01*
X135093000Y-76156461D01*
X135093000Y-76681379D01*
X135171937Y-77078222D01*
X135396730Y-77414649D01*
X135733157Y-77639442D01*
X136130000Y-77718379D01*
X136526843Y-77639442D01*
X136863270Y-77414649D01*
X137088063Y-77078222D01*
X137167000Y-76681379D01*
X137167000Y-76156461D01*
X137633000Y-76156461D01*
X137633000Y-76681379D01*
X137711937Y-77078222D01*
X137936730Y-77414649D01*
X138273157Y-77639442D01*
X138670000Y-77718379D01*
X139066843Y-77639442D01*
X139403270Y-77414649D01*
X139628063Y-77078222D01*
X139707000Y-76681379D01*
X139707000Y-76156461D01*
X140173000Y-76156461D01*
X140173000Y-76681379D01*
X140251937Y-77078222D01*
X140476730Y-77414649D01*
X140813157Y-77639442D01*
X141210000Y-77718379D01*
X141606843Y-77639442D01*
X141943270Y-77414649D01*
X142168063Y-77078222D01*
X142247000Y-76681379D01*
X142247000Y-76156461D01*
X145253000Y-76156461D01*
X145253000Y-76681379D01*
X145331937Y-77078222D01*
X145556730Y-77414649D01*
X145893157Y-77639442D01*
X146290000Y-77718379D01*
X146686843Y-77639442D01*
X147023270Y-77414649D01*
X147248063Y-77078222D01*
X147327000Y-76681379D01*
X147327000Y-76156461D01*
X147793000Y-76156461D01*
X147793000Y-76681379D01*
X147871937Y-77078222D01*
X148096730Y-77414649D01*
X148433157Y-77639442D01*
X148830000Y-77718379D01*
X149226843Y-77639442D01*
X149563270Y-77414649D01*
X149788063Y-77078222D01*
X149867000Y-76681379D01*
X149867000Y-76156461D01*
X150333000Y-76156461D01*
X150333000Y-76681379D01*
X150411937Y-77078222D01*
X150636730Y-77414649D01*
X150973157Y-77639442D01*
X151370000Y-77718379D01*
X151766843Y-77639442D01*
X152103270Y-77414649D01*
X152328063Y-77078222D01*
X152407000Y-76681379D01*
X152407000Y-76156461D01*
X152873000Y-76156461D01*
X152873000Y-76681379D01*
X152951937Y-77078222D01*
X153176730Y-77414649D01*
X153513157Y-77639442D01*
X153910000Y-77718379D01*
X154306843Y-77639442D01*
X154643270Y-77414649D01*
X154868063Y-77078222D01*
X154947000Y-76681379D01*
X154947000Y-76156461D01*
X155413000Y-76156461D01*
X155413000Y-76681379D01*
X155491937Y-77078222D01*
X155716730Y-77414649D01*
X156053157Y-77639442D01*
X156450000Y-77718379D01*
X156846843Y-77639442D01*
X157183270Y-77414649D01*
X157408063Y-77078222D01*
X157487000Y-76681379D01*
X157487000Y-76156461D01*
X157953000Y-76156461D01*
X157953000Y-76681379D01*
X158031937Y-77078222D01*
X158256730Y-77414649D01*
X158593157Y-77639442D01*
X158990000Y-77718379D01*
X159386843Y-77639442D01*
X159723270Y-77414649D01*
X159948063Y-77078222D01*
X160027000Y-76681379D01*
X160027000Y-76156461D01*
X159948063Y-75759618D01*
X159723270Y-75423191D01*
X159386843Y-75198398D01*
X158990000Y-75119461D01*
X158593157Y-75198398D01*
X158256730Y-75423191D01*
X158031937Y-75759618D01*
X157953000Y-76156461D01*
X157487000Y-76156461D01*
X157408063Y-75759618D01*
X157183270Y-75423191D01*
X156846843Y-75198398D01*
X156450000Y-75119461D01*
X156053157Y-75198398D01*
X155716730Y-75423191D01*
X155491937Y-75759618D01*
X155413000Y-76156461D01*
X154947000Y-76156461D01*
X154868063Y-75759618D01*
X154643270Y-75423191D01*
X154306843Y-75198398D01*
X153910000Y-75119461D01*
X153513157Y-75198398D01*
X153176730Y-75423191D01*
X152951937Y-75759618D01*
X152873000Y-76156461D01*
X152407000Y-76156461D01*
X152328063Y-75759618D01*
X152103270Y-75423191D01*
X151766843Y-75198398D01*
X151370000Y-75119461D01*
X150973157Y-75198398D01*
X150636730Y-75423191D01*
X150411937Y-75759618D01*
X150333000Y-76156461D01*
X149867000Y-76156461D01*
X149788063Y-75759618D01*
X149563270Y-75423191D01*
X149226843Y-75198398D01*
X148830000Y-75119461D01*
X148433157Y-75198398D01*
X148096730Y-75423191D01*
X147871937Y-75759618D01*
X147793000Y-76156461D01*
X147327000Y-76156461D01*
X147248063Y-75759618D01*
X147023270Y-75423191D01*
X146686843Y-75198398D01*
X146290000Y-75119461D01*
X145893157Y-75198398D01*
X145556730Y-75423191D01*
X145331937Y-75759618D01*
X145253000Y-76156461D01*
X142247000Y-76156461D01*
X142168063Y-75759618D01*
X141943270Y-75423191D01*
X141606843Y-75198398D01*
X141210000Y-75119461D01*
X140813157Y-75198398D01*
X140476730Y-75423191D01*
X140251937Y-75759618D01*
X140173000Y-76156461D01*
X139707000Y-76156461D01*
X139628063Y-75759618D01*
X139403270Y-75423191D01*
X139066843Y-75198398D01*
X138670000Y-75119461D01*
X138273157Y-75198398D01*
X137936730Y-75423191D01*
X137711937Y-75759618D01*
X137633000Y-76156461D01*
X137167000Y-76156461D01*
X137088063Y-75759618D01*
X136863270Y-75423191D01*
X136526843Y-75198398D01*
X136130000Y-75119461D01*
X135733157Y-75198398D01*
X135396730Y-75423191D01*
X135171937Y-75759618D01*
X135093000Y-76156461D01*
X134627000Y-76156461D01*
X134548063Y-75759618D01*
X134323270Y-75423191D01*
X133986843Y-75198398D01*
X133590000Y-75119461D01*
X133193157Y-75198398D01*
X132856730Y-75423191D01*
X132631937Y-75759618D01*
X132553000Y-76156461D01*
X132087000Y-76156461D01*
X132008063Y-75759618D01*
X131783270Y-75423191D01*
X131446843Y-75198398D01*
X131050000Y-75119461D01*
X130653157Y-75198398D01*
X130316730Y-75423191D01*
X130091937Y-75759618D01*
X130013000Y-76156461D01*
X129547000Y-76156461D01*
X129468063Y-75759618D01*
X129243270Y-75423191D01*
X128906843Y-75198398D01*
X128510000Y-75119461D01*
X128113157Y-75198398D01*
X127776730Y-75423191D01*
X127551937Y-75759618D01*
X127473000Y-76156461D01*
X127007000Y-76156461D01*
X126928063Y-75759618D01*
X126703270Y-75423191D01*
X126366843Y-75198398D01*
X125970000Y-75119461D01*
X125573157Y-75198398D01*
X125236730Y-75423191D01*
X125011937Y-75759618D01*
X124933000Y-76156461D01*
X121927000Y-76156461D01*
X121848063Y-75759618D01*
X121623270Y-75423191D01*
X121286843Y-75198398D01*
X120890000Y-75119461D01*
X120493157Y-75198398D01*
X120156730Y-75423191D01*
X119931937Y-75759618D01*
X119853000Y-76156461D01*
X119387000Y-76156461D01*
X119308063Y-75759618D01*
X119083270Y-75423191D01*
X118746843Y-75198398D01*
X118350000Y-75119461D01*
X117953157Y-75198398D01*
X117616730Y-75423191D01*
X117391937Y-75759618D01*
X117313000Y-76156461D01*
X116847000Y-76156461D01*
X116768063Y-75759618D01*
X116543270Y-75423191D01*
X116206843Y-75198398D01*
X115810000Y-75119461D01*
X115413157Y-75198398D01*
X115076730Y-75423191D01*
X114851937Y-75759618D01*
X114773000Y-76156461D01*
X114312387Y-76156461D01*
X114312387Y-75419430D01*
X114293212Y-75317521D01*
X114232984Y-75223924D01*
X114141086Y-75161134D01*
X114032000Y-75139043D01*
X112508000Y-75139043D01*
X112406091Y-75158218D01*
X112312494Y-75218446D01*
X112249704Y-75310344D01*
X112227613Y-75419430D01*
X112195000Y-75419430D01*
X112195000Y-73118621D01*
X112233000Y-73118621D01*
X112233000Y-73643539D01*
X112311937Y-74040382D01*
X112536730Y-74376809D01*
X112873157Y-74601602D01*
X113270000Y-74680539D01*
X113666843Y-74601602D01*
X114003270Y-74376809D01*
X114228063Y-74040382D01*
X114307000Y-73643539D01*
X114307000Y-73118621D01*
X114773000Y-73118621D01*
X114773000Y-73643539D01*
X114851937Y-74040382D01*
X115076730Y-74376809D01*
X115413157Y-74601602D01*
X115810000Y-74680539D01*
X116206843Y-74601602D01*
X116543270Y-74376809D01*
X116768063Y-74040382D01*
X116847000Y-73643539D01*
X116847000Y-73118621D01*
X119853000Y-73118621D01*
X119853000Y-73643539D01*
X119931937Y-74040382D01*
X120156730Y-74376809D01*
X120493157Y-74601602D01*
X120890000Y-74680539D01*
X121286843Y-74601602D01*
X121623270Y-74376809D01*
X121848063Y-74040382D01*
X121927000Y-73643539D01*
X121927000Y-73118621D01*
X122393000Y-73118621D01*
X122393000Y-73643539D01*
X122471937Y-74040382D01*
X122696730Y-74376809D01*
X123033157Y-74601602D01*
X123430000Y-74680539D01*
X123826843Y-74601602D01*
X124163270Y-74376809D01*
X124388063Y-74040382D01*
X124467000Y-73643539D01*
X124467000Y-73118621D01*
X124933000Y-73118621D01*
X124933000Y-73643539D01*
X125011937Y-74040382D01*
X125236730Y-74376809D01*
X125573157Y-74601602D01*
X125970000Y-74680539D01*
X126366843Y-74601602D01*
X126703270Y-74376809D01*
X126928063Y-74040382D01*
X127007000Y-73643539D01*
X127007000Y-73118621D01*
X130013000Y-73118621D01*
X130013000Y-73643539D01*
X130091937Y-74040382D01*
X130316730Y-74376809D01*
X130653157Y-74601602D01*
X131050000Y-74680539D01*
X131446843Y-74601602D01*
X131783270Y-74376809D01*
X132008063Y-74040382D01*
X132087000Y-73643539D01*
X132087000Y-73118621D01*
X132553000Y-73118621D01*
X132553000Y-73643539D01*
X132631937Y-74040382D01*
X132856730Y-74376809D01*
X133193157Y-74601602D01*
X133590000Y-74680539D01*
X133986843Y-74601602D01*
X134323270Y-74376809D01*
X134548063Y-74040382D01*
X134627000Y-73643539D01*
X134627000Y-73118621D01*
X137633000Y-73118621D01*
X137633000Y-73643539D01*
X137711937Y-74040382D01*
X137936730Y-74376809D01*
X138273157Y-74601602D01*
X138670000Y-74680539D01*
X139066843Y-74601602D01*
X139403270Y-74376809D01*
X139628063Y-74040382D01*
X139707000Y-73643539D01*
X139707000Y-73118621D01*
X140173000Y-73118621D01*
X140173000Y-73643539D01*
X140251937Y-74040382D01*
X140476730Y-74376809D01*
X140813157Y-74601602D01*
X141210000Y-74680539D01*
X141606843Y-74601602D01*
X141943270Y-74376809D01*
X142168063Y-74040382D01*
X142247000Y-73643539D01*
X142247000Y-73118621D01*
X142713000Y-73118621D01*
X142713000Y-73643539D01*
X142791937Y-74040382D01*
X143016730Y-74376809D01*
X143353157Y-74601602D01*
X143750000Y-74680539D01*
X144146843Y-74601602D01*
X144483270Y-74376809D01*
X144708063Y-74040382D01*
X144787000Y-73643539D01*
X144787000Y-73118621D01*
X145253000Y-73118621D01*
X145253000Y-73643539D01*
X145331937Y-74040382D01*
X145556730Y-74376809D01*
X145893157Y-74601602D01*
X146290000Y-74680539D01*
X146686843Y-74601602D01*
X147023270Y-74376809D01*
X147248063Y-74040382D01*
X147327000Y-73643539D01*
X147327000Y-73118621D01*
X150333000Y-73118621D01*
X150333000Y-73643539D01*
X150411937Y-74040382D01*
X150636730Y-74376809D01*
X150973157Y-74601602D01*
X151370000Y-74680539D01*
X151766843Y-74601602D01*
X152103270Y-74376809D01*
X152328063Y-74040382D01*
X152407000Y-73643539D01*
X152407000Y-73118621D01*
X155413000Y-73118621D01*
X155413000Y-73643539D01*
X155491937Y-74040382D01*
X155716730Y-74376809D01*
X156053157Y-74601602D01*
X156450000Y-74680539D01*
X156846843Y-74601602D01*
X157183270Y-74376809D01*
X157408063Y-74040382D01*
X157487000Y-73643539D01*
X157487000Y-73118621D01*
X157953000Y-73118621D01*
X157953000Y-73643539D01*
X158031937Y-74040382D01*
X158256730Y-74376809D01*
X158593157Y-74601602D01*
X158990000Y-74680539D01*
X159386843Y-74601602D01*
X159723270Y-74376809D01*
X159948063Y-74040382D01*
X160027000Y-73643539D01*
X160027000Y-73118621D01*
X160493000Y-73118621D01*
X160493000Y-73643539D01*
X160571937Y-74040382D01*
X160796730Y-74376809D01*
X161133157Y-74601602D01*
X161530000Y-74680539D01*
X161926843Y-74601602D01*
X162263270Y-74376809D01*
X162488063Y-74040382D01*
X162567000Y-73643539D01*
X162567000Y-73118621D01*
X162488063Y-72721778D01*
X162263270Y-72385351D01*
X161926843Y-72160558D01*
X161530000Y-72081621D01*
X161133157Y-72160558D01*
X160796730Y-72385351D01*
X160571937Y-72721778D01*
X160493000Y-73118621D01*
X160027000Y-73118621D01*
X159948063Y-72721778D01*
X159723270Y-72385351D01*
X159386843Y-72160558D01*
X158990000Y-72081621D01*
X158593157Y-72160558D01*
X158256730Y-72385351D01*
X158031937Y-72721778D01*
X157953000Y-73118621D01*
X157487000Y-73118621D01*
X157408063Y-72721778D01*
X157183270Y-72385351D01*
X156846843Y-72160558D01*
X156450000Y-72081621D01*
X156053157Y-72160558D01*
X155716730Y-72385351D01*
X155491937Y-72721778D01*
X155413000Y-73118621D01*
X152407000Y-73118621D01*
X152328063Y-72721778D01*
X152103270Y-72385351D01*
X151766843Y-72160558D01*
X151370000Y-72081621D01*
X150973157Y-72160558D01*
X150636730Y-72385351D01*
X150411937Y-72721778D01*
X150333000Y-73118621D01*
X147327000Y-73118621D01*
X147248063Y-72721778D01*
X147023270Y-72385351D01*
X146686843Y-72160558D01*
X146290000Y-72081621D01*
X145893157Y-72160558D01*
X145556730Y-72385351D01*
X145331937Y-72721778D01*
X145253000Y-73118621D01*
X144787000Y-73118621D01*
X144708063Y-72721778D01*
X144483270Y-72385351D01*
X144146843Y-72160558D01*
X143750000Y-72081621D01*
X143353157Y-72160558D01*
X143016730Y-72385351D01*
X142791937Y-72721778D01*
X142713000Y-73118621D01*
X142247000Y-73118621D01*
X142168063Y-72721778D01*
X141943270Y-72385351D01*
X141606843Y-72160558D01*
X141210000Y-72081621D01*
X140813157Y-72160558D01*
X140476730Y-72385351D01*
X140251937Y-72721778D01*
X140173000Y-73118621D01*
X139707000Y-73118621D01*
X139628063Y-72721778D01*
X139403270Y-72385351D01*
X139066843Y-72160558D01*
X138670000Y-72081621D01*
X138273157Y-72160558D01*
X137936730Y-72385351D01*
X137711937Y-72721778D01*
X137633000Y-73118621D01*
X134627000Y-73118621D01*
X134548063Y-72721778D01*
X134323270Y-72385351D01*
X133986843Y-72160558D01*
X133590000Y-72081621D01*
X133193157Y-72160558D01*
X132856730Y-72385351D01*
X132631937Y-72721778D01*
X132553000Y-73118621D01*
X132087000Y-73118621D01*
X132008063Y-72721778D01*
X131783270Y-72385351D01*
X131446843Y-72160558D01*
X131050000Y-72081621D01*
X130653157Y-72160558D01*
X130316730Y-72385351D01*
X130091937Y-72721778D01*
X130013000Y-73118621D01*
X127007000Y-73118621D01*
X126928063Y-72721778D01*
X126703270Y-72385351D01*
X126366843Y-72160558D01*
X125970000Y-72081621D01*
X125573157Y-72160558D01*
X125236730Y-72385351D01*
X125011937Y-72721778D01*
X124933000Y-73118621D01*
X124467000Y-73118621D01*
X124388063Y-72721778D01*
X124163270Y-72385351D01*
X123826843Y-72160558D01*
X123430000Y-72081621D01*
X123033157Y-72160558D01*
X122696730Y-72385351D01*
X122471937Y-72721778D01*
X122393000Y-73118621D01*
X121927000Y-73118621D01*
X121848063Y-72721778D01*
X121623270Y-72385351D01*
X121286843Y-72160558D01*
X120890000Y-72081621D01*
X120493157Y-72160558D01*
X120156730Y-72385351D01*
X119931937Y-72721778D01*
X119853000Y-73118621D01*
X116847000Y-73118621D01*
X116768063Y-72721778D01*
X116543270Y-72385351D01*
X116206843Y-72160558D01*
X115810000Y-72081621D01*
X115413157Y-72160558D01*
X115076730Y-72385351D01*
X114851937Y-72721778D01*
X114773000Y-73118621D01*
X114307000Y-73118621D01*
X114228063Y-72721778D01*
X114003270Y-72385351D01*
X113666843Y-72160558D01*
X113270000Y-72081621D01*
X112873157Y-72160558D01*
X112536730Y-72385351D01*
X112311937Y-72721778D01*
X112233000Y-73118621D01*
X112195000Y-73118621D01*
X112195000Y-72622464D01*
X112269670Y-72247071D01*
X112480917Y-71930917D01*
X112797071Y-71719670D01*
X113172464Y-71645000D01*
X162167536Y-71645000D01*
X162542929Y-71719670D01*
M02*
