G04 #@! TF.FileFunction,Legend,Top*
%FSLAX46Y46*%
G04 Gerber Fmt 4.6, Leading zero omitted, Abs format (unit mm)*
G04 Created by KiCad (PCBNEW 4.0.7-e1-6374~58~ubuntu16.04.1) date Thu Aug  3 01:25:43 2017*
%MOMM*%
%LPD*%
G01*
G04 APERTURE LIST*
%ADD10C,0.100000*%
%ADD11C,0.125000*%
%ADD12C,0.175000*%
%ADD13C,0.250000*%
%ADD14C,0.120000*%
%ADD15C,0.150000*%
%ADD16C,0.381000*%
%ADD17C,0.127000*%
%ADD18C,0.304800*%
%ADD19C,0.119380*%
%ADD20C,0.203200*%
G04 APERTURE END LIST*
D10*
D11*
X107454096Y-111217690D02*
X107549334Y-111217690D01*
X107596953Y-111241500D01*
X107644572Y-111289119D01*
X107668381Y-111384357D01*
X107668381Y-111551024D01*
X107644572Y-111646262D01*
X107596953Y-111693881D01*
X107549334Y-111717690D01*
X107454096Y-111717690D01*
X107406477Y-111693881D01*
X107358858Y-111646262D01*
X107335048Y-111551024D01*
X107335048Y-111384357D01*
X107358858Y-111289119D01*
X107406477Y-111241500D01*
X107454096Y-111217690D01*
X107882668Y-111717690D02*
X107882668Y-111384357D01*
X107882668Y-111217690D02*
X107858858Y-111241500D01*
X107882668Y-111265310D01*
X107906477Y-111241500D01*
X107882668Y-111217690D01*
X107882668Y-111265310D01*
X108192191Y-111717690D02*
X108144572Y-111693881D01*
X108120763Y-111646262D01*
X108120763Y-111217690D01*
X108763620Y-111717690D02*
X108763620Y-111217690D01*
X108954096Y-111217690D01*
X109001715Y-111241500D01*
X109025524Y-111265310D01*
X109049334Y-111312929D01*
X109049334Y-111384357D01*
X109025524Y-111431976D01*
X109001715Y-111455786D01*
X108954096Y-111479595D01*
X108763620Y-111479595D01*
X109263620Y-111717690D02*
X109263620Y-111384357D01*
X109263620Y-111479595D02*
X109287429Y-111431976D01*
X109311239Y-111408167D01*
X109358858Y-111384357D01*
X109406477Y-111384357D01*
X109763620Y-111693881D02*
X109716001Y-111717690D01*
X109620763Y-111717690D01*
X109573144Y-111693881D01*
X109549334Y-111646262D01*
X109549334Y-111455786D01*
X109573144Y-111408167D01*
X109620763Y-111384357D01*
X109716001Y-111384357D01*
X109763620Y-111408167D01*
X109787429Y-111455786D01*
X109787429Y-111503405D01*
X109549334Y-111551024D01*
X109977905Y-111693881D02*
X110025524Y-111717690D01*
X110120762Y-111717690D01*
X110168381Y-111693881D01*
X110192191Y-111646262D01*
X110192191Y-111622452D01*
X110168381Y-111574833D01*
X110120762Y-111551024D01*
X110049334Y-111551024D01*
X110001715Y-111527214D01*
X109977905Y-111479595D01*
X109977905Y-111455786D01*
X110001715Y-111408167D01*
X110049334Y-111384357D01*
X110120762Y-111384357D01*
X110168381Y-111408167D01*
X110382667Y-111693881D02*
X110430286Y-111717690D01*
X110525524Y-111717690D01*
X110573143Y-111693881D01*
X110596953Y-111646262D01*
X110596953Y-111622452D01*
X110573143Y-111574833D01*
X110525524Y-111551024D01*
X110454096Y-111551024D01*
X110406477Y-111527214D01*
X110382667Y-111479595D01*
X110382667Y-111455786D01*
X110406477Y-111408167D01*
X110454096Y-111384357D01*
X110525524Y-111384357D01*
X110573143Y-111408167D01*
X107513620Y-112092690D02*
X107608858Y-112092690D01*
X107656477Y-112116500D01*
X107704096Y-112164119D01*
X107727905Y-112259357D01*
X107727905Y-112426024D01*
X107704096Y-112521262D01*
X107656477Y-112568881D01*
X107608858Y-112592690D01*
X107513620Y-112592690D01*
X107466001Y-112568881D01*
X107418382Y-112521262D01*
X107394572Y-112426024D01*
X107394572Y-112259357D01*
X107418382Y-112164119D01*
X107466001Y-112116500D01*
X107513620Y-112092690D01*
X107942192Y-112592690D02*
X107942192Y-112259357D01*
X107942192Y-112092690D02*
X107918382Y-112116500D01*
X107942192Y-112140310D01*
X107966001Y-112116500D01*
X107942192Y-112092690D01*
X107942192Y-112140310D01*
X108251715Y-112592690D02*
X108204096Y-112568881D01*
X108180287Y-112521262D01*
X108180287Y-112092690D01*
X108751715Y-112092690D02*
X109037429Y-112092690D01*
X108894572Y-112592690D02*
X108894572Y-112092690D01*
X109394572Y-112568881D02*
X109346953Y-112592690D01*
X109251715Y-112592690D01*
X109204096Y-112568881D01*
X109180286Y-112521262D01*
X109180286Y-112330786D01*
X109204096Y-112283167D01*
X109251715Y-112259357D01*
X109346953Y-112259357D01*
X109394572Y-112283167D01*
X109418381Y-112330786D01*
X109418381Y-112378405D01*
X109180286Y-112426024D01*
X109632667Y-112592690D02*
X109632667Y-112259357D01*
X109632667Y-112306976D02*
X109656476Y-112283167D01*
X109704095Y-112259357D01*
X109775524Y-112259357D01*
X109823143Y-112283167D01*
X109846952Y-112330786D01*
X109846952Y-112592690D01*
X109846952Y-112330786D02*
X109870762Y-112283167D01*
X109918381Y-112259357D01*
X109989809Y-112259357D01*
X110037429Y-112283167D01*
X110061238Y-112330786D01*
X110061238Y-112592690D01*
X110299334Y-112259357D02*
X110299334Y-112759357D01*
X110299334Y-112283167D02*
X110346953Y-112259357D01*
X110442191Y-112259357D01*
X110489810Y-112283167D01*
X110513619Y-112306976D01*
X110537429Y-112354595D01*
X110537429Y-112497452D01*
X110513619Y-112545071D01*
X110489810Y-112568881D01*
X110442191Y-112592690D01*
X110346953Y-112592690D01*
X110299334Y-112568881D01*
X108668381Y-113420071D02*
X108644571Y-113443881D01*
X108573143Y-113467690D01*
X108525524Y-113467690D01*
X108454095Y-113443881D01*
X108406476Y-113396262D01*
X108382667Y-113348643D01*
X108358857Y-113253405D01*
X108358857Y-113181976D01*
X108382667Y-113086738D01*
X108406476Y-113039119D01*
X108454095Y-112991500D01*
X108525524Y-112967690D01*
X108573143Y-112967690D01*
X108644571Y-112991500D01*
X108668381Y-113015310D01*
X108882667Y-113467690D02*
X108882667Y-112967690D01*
X108882667Y-113205786D02*
X109168381Y-113205786D01*
X109168381Y-113467690D02*
X109168381Y-112967690D01*
X109335048Y-112967690D02*
X109620762Y-112967690D01*
X109477905Y-113467690D02*
X109477905Y-112967690D01*
X108156477Y-113842690D02*
X108442191Y-113842690D01*
X108299334Y-114342690D02*
X108299334Y-113842690D01*
X108823143Y-114342690D02*
X108823143Y-114080786D01*
X108799334Y-114033167D01*
X108751715Y-114009357D01*
X108656477Y-114009357D01*
X108608858Y-114033167D01*
X108823143Y-114318881D02*
X108775524Y-114342690D01*
X108656477Y-114342690D01*
X108608858Y-114318881D01*
X108585048Y-114271262D01*
X108585048Y-114223643D01*
X108608858Y-114176024D01*
X108656477Y-114152214D01*
X108775524Y-114152214D01*
X108823143Y-114128405D01*
X109275524Y-114318881D02*
X109227905Y-114342690D01*
X109132667Y-114342690D01*
X109085048Y-114318881D01*
X109061239Y-114295071D01*
X109037429Y-114247452D01*
X109037429Y-114104595D01*
X109061239Y-114056976D01*
X109085048Y-114033167D01*
X109132667Y-114009357D01*
X109227905Y-114009357D01*
X109275524Y-114033167D01*
X109489810Y-114342690D02*
X109489810Y-113842690D01*
X109704095Y-114342690D02*
X109704095Y-114080786D01*
X109680286Y-114033167D01*
X109632667Y-114009357D01*
X109561238Y-114009357D01*
X109513619Y-114033167D01*
X109489810Y-114056976D01*
X108573143Y-115217690D02*
X108573143Y-114717690D01*
X108858857Y-115217690D01*
X108858857Y-114717690D01*
X109382667Y-115170071D02*
X109358857Y-115193881D01*
X109287429Y-115217690D01*
X109239810Y-115217690D01*
X109168381Y-115193881D01*
X109120762Y-115146262D01*
X109096953Y-115098643D01*
X109073143Y-115003405D01*
X109073143Y-114931976D01*
X109096953Y-114836738D01*
X109120762Y-114789119D01*
X109168381Y-114741500D01*
X109239810Y-114717690D01*
X109287429Y-114717690D01*
X109358857Y-114741500D01*
X109382667Y-114765310D01*
X108573143Y-116092690D02*
X108573143Y-115592690D01*
X108858857Y-116092690D01*
X108858857Y-115592690D01*
X109382667Y-116045071D02*
X109358857Y-116068881D01*
X109287429Y-116092690D01*
X109239810Y-116092690D01*
X109168381Y-116068881D01*
X109120762Y-116021262D01*
X109096953Y-115973643D01*
X109073143Y-115878405D01*
X109073143Y-115806976D01*
X109096953Y-115711738D01*
X109120762Y-115664119D01*
X109168381Y-115616500D01*
X109239810Y-115592690D01*
X109287429Y-115592690D01*
X109358857Y-115616500D01*
X109382667Y-115640310D01*
X108573143Y-116967690D02*
X108573143Y-116467690D01*
X108858857Y-116967690D01*
X108858857Y-116467690D01*
X109382667Y-116920071D02*
X109358857Y-116943881D01*
X109287429Y-116967690D01*
X109239810Y-116967690D01*
X109168381Y-116943881D01*
X109120762Y-116896262D01*
X109096953Y-116848643D01*
X109073143Y-116753405D01*
X109073143Y-116681976D01*
X109096953Y-116586738D01*
X109120762Y-116539119D01*
X109168381Y-116491500D01*
X109239810Y-116467690D01*
X109287429Y-116467690D01*
X109358857Y-116491500D01*
X109382667Y-116515310D01*
X108573143Y-117842690D02*
X108573143Y-117342690D01*
X108858857Y-117842690D01*
X108858857Y-117342690D01*
X109382667Y-117795071D02*
X109358857Y-117818881D01*
X109287429Y-117842690D01*
X109239810Y-117842690D01*
X109168381Y-117818881D01*
X109120762Y-117771262D01*
X109096953Y-117723643D01*
X109073143Y-117628405D01*
X109073143Y-117556976D01*
X109096953Y-117461738D01*
X109120762Y-117414119D01*
X109168381Y-117366500D01*
X109239810Y-117342690D01*
X109287429Y-117342690D01*
X109358857Y-117366500D01*
X109382667Y-117390310D01*
X136076571Y-125480000D02*
X136028952Y-125456190D01*
X135957524Y-125456190D01*
X135886095Y-125480000D01*
X135838476Y-125527619D01*
X135814667Y-125575238D01*
X135790857Y-125670476D01*
X135790857Y-125741905D01*
X135814667Y-125837143D01*
X135838476Y-125884762D01*
X135886095Y-125932381D01*
X135957524Y-125956190D01*
X136005143Y-125956190D01*
X136076571Y-125932381D01*
X136100381Y-125908571D01*
X136100381Y-125741905D01*
X136005143Y-125741905D01*
X136314667Y-125622857D02*
X136314667Y-125956190D01*
X136314667Y-125670476D02*
X136338476Y-125646667D01*
X136386095Y-125622857D01*
X136457524Y-125622857D01*
X136505143Y-125646667D01*
X136528952Y-125694286D01*
X136528952Y-125956190D01*
X136981333Y-125956190D02*
X136981333Y-125456190D01*
X136981333Y-125932381D02*
X136933714Y-125956190D01*
X136838476Y-125956190D01*
X136790857Y-125932381D01*
X136767048Y-125908571D01*
X136743238Y-125860952D01*
X136743238Y-125718095D01*
X136767048Y-125670476D01*
X136790857Y-125646667D01*
X136838476Y-125622857D01*
X136933714Y-125622857D01*
X136981333Y-125646667D01*
X148836192Y-125328214D02*
X149217144Y-125328214D01*
X149026668Y-125518690D02*
X149026668Y-125137738D01*
X149383811Y-125018690D02*
X149550478Y-125518690D01*
X149717144Y-125018690D01*
X150098096Y-125494881D02*
X150050477Y-125518690D01*
X149955239Y-125518690D01*
X149907620Y-125494881D01*
X149883811Y-125471071D01*
X149860001Y-125423452D01*
X149860001Y-125280595D01*
X149883811Y-125232976D01*
X149907620Y-125209167D01*
X149955239Y-125185357D01*
X150050477Y-125185357D01*
X150098096Y-125209167D01*
X150526667Y-125494881D02*
X150479048Y-125518690D01*
X150383810Y-125518690D01*
X150336191Y-125494881D01*
X150312382Y-125471071D01*
X150288572Y-125423452D01*
X150288572Y-125280595D01*
X150312382Y-125232976D01*
X150336191Y-125209167D01*
X150383810Y-125185357D01*
X150479048Y-125185357D01*
X150526667Y-125209167D01*
X148217144Y-126107976D02*
X148169525Y-126084167D01*
X148145716Y-126060357D01*
X148121906Y-126012738D01*
X148121906Y-125988929D01*
X148145716Y-125941310D01*
X148169525Y-125917500D01*
X148217144Y-125893690D01*
X148312382Y-125893690D01*
X148360001Y-125917500D01*
X148383811Y-125941310D01*
X148407620Y-125988929D01*
X148407620Y-126012738D01*
X148383811Y-126060357D01*
X148360001Y-126084167D01*
X148312382Y-126107976D01*
X148217144Y-126107976D01*
X148169525Y-126131786D01*
X148145716Y-126155595D01*
X148121906Y-126203214D01*
X148121906Y-126298452D01*
X148145716Y-126346071D01*
X148169525Y-126369881D01*
X148217144Y-126393690D01*
X148312382Y-126393690D01*
X148360001Y-126369881D01*
X148383811Y-126346071D01*
X148407620Y-126298452D01*
X148407620Y-126203214D01*
X148383811Y-126155595D01*
X148360001Y-126131786D01*
X148312382Y-126107976D01*
X148550477Y-125893690D02*
X148717144Y-126393690D01*
X148883810Y-125893690D01*
X149431429Y-126203214D02*
X149812381Y-126203214D01*
X150645714Y-126060357D02*
X150645714Y-126393690D01*
X150526667Y-125869881D02*
X150407619Y-126227024D01*
X150717143Y-126227024D01*
X151002857Y-125893690D02*
X151050476Y-125893690D01*
X151098095Y-125917500D01*
X151121904Y-125941310D01*
X151145714Y-125988929D01*
X151169523Y-126084167D01*
X151169523Y-126203214D01*
X151145714Y-126298452D01*
X151121904Y-126346071D01*
X151098095Y-126369881D01*
X151050476Y-126393690D01*
X151002857Y-126393690D01*
X150955238Y-126369881D01*
X150931428Y-126346071D01*
X150907619Y-126298452D01*
X150883809Y-126203214D01*
X150883809Y-126084167D01*
X150907619Y-125988929D01*
X150931428Y-125941310D01*
X150955238Y-125917500D01*
X151002857Y-125893690D01*
X151312380Y-125893690D02*
X151479047Y-126393690D01*
X151645713Y-125893690D01*
X160544191Y-95038690D02*
X160544191Y-94538690D01*
X160663238Y-94538690D01*
X160734667Y-94562500D01*
X160782286Y-94610119D01*
X160806095Y-94657738D01*
X160829905Y-94752976D01*
X160829905Y-94824405D01*
X160806095Y-94919643D01*
X160782286Y-94967262D01*
X160734667Y-95014881D01*
X160663238Y-95038690D01*
X160544191Y-95038690D01*
X161044191Y-95038690D02*
X161044191Y-94705357D01*
X161044191Y-94538690D02*
X161020381Y-94562500D01*
X161044191Y-94586310D01*
X161068000Y-94562500D01*
X161044191Y-94538690D01*
X161044191Y-94586310D01*
X161258476Y-95014881D02*
X161306095Y-95038690D01*
X161401333Y-95038690D01*
X161448952Y-95014881D01*
X161472762Y-94967262D01*
X161472762Y-94943452D01*
X161448952Y-94895833D01*
X161401333Y-94872024D01*
X161329905Y-94872024D01*
X161282286Y-94848214D01*
X161258476Y-94800595D01*
X161258476Y-94776786D01*
X161282286Y-94729167D01*
X161329905Y-94705357D01*
X161401333Y-94705357D01*
X161448952Y-94729167D01*
X161687048Y-94705357D02*
X161687048Y-95205357D01*
X161687048Y-94729167D02*
X161734667Y-94705357D01*
X161829905Y-94705357D01*
X161877524Y-94729167D01*
X161901333Y-94752976D01*
X161925143Y-94800595D01*
X161925143Y-94943452D01*
X161901333Y-94991071D01*
X161877524Y-95014881D01*
X161829905Y-95038690D01*
X161734667Y-95038690D01*
X161687048Y-95014881D01*
X162210857Y-95038690D02*
X162163238Y-95014881D01*
X162139429Y-94967262D01*
X162139429Y-94538690D01*
X162615619Y-95038690D02*
X162615619Y-94776786D01*
X162591810Y-94729167D01*
X162544191Y-94705357D01*
X162448953Y-94705357D01*
X162401334Y-94729167D01*
X162615619Y-95014881D02*
X162568000Y-95038690D01*
X162448953Y-95038690D01*
X162401334Y-95014881D01*
X162377524Y-94967262D01*
X162377524Y-94919643D01*
X162401334Y-94872024D01*
X162448953Y-94848214D01*
X162568000Y-94848214D01*
X162615619Y-94824405D01*
X162806096Y-94705357D02*
X162925143Y-95038690D01*
X163044191Y-94705357D02*
X162925143Y-95038690D01*
X162877524Y-95157738D01*
X162853715Y-95181548D01*
X162806096Y-95205357D01*
X163615619Y-95038690D02*
X163615619Y-94538690D01*
X163806095Y-94538690D01*
X163853714Y-94562500D01*
X163877523Y-94586310D01*
X163901333Y-94633929D01*
X163901333Y-94705357D01*
X163877523Y-94752976D01*
X163853714Y-94776786D01*
X163806095Y-94800595D01*
X163615619Y-94800595D01*
X164187047Y-95038690D02*
X164139428Y-95014881D01*
X164115619Y-94991071D01*
X164091809Y-94943452D01*
X164091809Y-94800595D01*
X164115619Y-94752976D01*
X164139428Y-94729167D01*
X164187047Y-94705357D01*
X164258476Y-94705357D01*
X164306095Y-94729167D01*
X164329904Y-94752976D01*
X164353714Y-94800595D01*
X164353714Y-94943452D01*
X164329904Y-94991071D01*
X164306095Y-95014881D01*
X164258476Y-95038690D01*
X164187047Y-95038690D01*
X164520381Y-94705357D02*
X164615619Y-95038690D01*
X164710857Y-94800595D01*
X164806095Y-95038690D01*
X164901333Y-94705357D01*
X165282286Y-95014881D02*
X165234667Y-95038690D01*
X165139429Y-95038690D01*
X165091810Y-95014881D01*
X165068000Y-94967262D01*
X165068000Y-94776786D01*
X165091810Y-94729167D01*
X165139429Y-94705357D01*
X165234667Y-94705357D01*
X165282286Y-94729167D01*
X165306095Y-94776786D01*
X165306095Y-94824405D01*
X165068000Y-94872024D01*
X165520381Y-95038690D02*
X165520381Y-94705357D01*
X165520381Y-94800595D02*
X165544190Y-94752976D01*
X165568000Y-94729167D01*
X165615619Y-94705357D01*
X165663238Y-94705357D01*
X161532287Y-95723214D02*
X161913239Y-95723214D01*
X161722763Y-95913690D02*
X161722763Y-95532738D01*
X162389430Y-95413690D02*
X162151335Y-95413690D01*
X162127525Y-95651786D01*
X162151335Y-95627976D01*
X162198954Y-95604167D01*
X162318001Y-95604167D01*
X162365620Y-95627976D01*
X162389430Y-95651786D01*
X162413239Y-95699405D01*
X162413239Y-95818452D01*
X162389430Y-95866071D01*
X162365620Y-95889881D01*
X162318001Y-95913690D01*
X162198954Y-95913690D01*
X162151335Y-95889881D01*
X162127525Y-95866071D01*
X162556096Y-95413690D02*
X162722763Y-95913690D01*
X162889429Y-95413690D01*
X163698952Y-95437500D02*
X163651333Y-95413690D01*
X163579905Y-95413690D01*
X163508476Y-95437500D01*
X163460857Y-95485119D01*
X163437048Y-95532738D01*
X163413238Y-95627976D01*
X163413238Y-95699405D01*
X163437048Y-95794643D01*
X163460857Y-95842262D01*
X163508476Y-95889881D01*
X163579905Y-95913690D01*
X163627524Y-95913690D01*
X163698952Y-95889881D01*
X163722762Y-95866071D01*
X163722762Y-95699405D01*
X163627524Y-95699405D01*
X163937048Y-95580357D02*
X163937048Y-95913690D01*
X163937048Y-95627976D02*
X163960857Y-95604167D01*
X164008476Y-95580357D01*
X164079905Y-95580357D01*
X164127524Y-95604167D01*
X164151333Y-95651786D01*
X164151333Y-95913690D01*
X164603714Y-95913690D02*
X164603714Y-95413690D01*
X164603714Y-95889881D02*
X164556095Y-95913690D01*
X164460857Y-95913690D01*
X164413238Y-95889881D01*
X164389429Y-95866071D01*
X164365619Y-95818452D01*
X164365619Y-95675595D01*
X164389429Y-95627976D01*
X164413238Y-95604167D01*
X164460857Y-95580357D01*
X164556095Y-95580357D01*
X164603714Y-95604167D01*
X138406478Y-106786214D02*
X138787430Y-106786214D01*
X138596954Y-106976690D02*
X138596954Y-106595738D01*
X139263621Y-106476690D02*
X139025526Y-106476690D01*
X139001716Y-106714786D01*
X139025526Y-106690976D01*
X139073145Y-106667167D01*
X139192192Y-106667167D01*
X139239811Y-106690976D01*
X139263621Y-106714786D01*
X139287430Y-106762405D01*
X139287430Y-106881452D01*
X139263621Y-106929071D01*
X139239811Y-106952881D01*
X139192192Y-106976690D01*
X139073145Y-106976690D01*
X139025526Y-106952881D01*
X139001716Y-106929071D01*
X139430287Y-106476690D02*
X139596954Y-106976690D01*
X139763620Y-106476690D01*
X140573143Y-106500500D02*
X140525524Y-106476690D01*
X140454096Y-106476690D01*
X140382667Y-106500500D01*
X140335048Y-106548119D01*
X140311239Y-106595738D01*
X140287429Y-106690976D01*
X140287429Y-106762405D01*
X140311239Y-106857643D01*
X140335048Y-106905262D01*
X140382667Y-106952881D01*
X140454096Y-106976690D01*
X140501715Y-106976690D01*
X140573143Y-106952881D01*
X140596953Y-106929071D01*
X140596953Y-106762405D01*
X140501715Y-106762405D01*
X140811239Y-106643357D02*
X140811239Y-106976690D01*
X140811239Y-106690976D02*
X140835048Y-106667167D01*
X140882667Y-106643357D01*
X140954096Y-106643357D01*
X141001715Y-106667167D01*
X141025524Y-106714786D01*
X141025524Y-106976690D01*
X141477905Y-106976690D02*
X141477905Y-106476690D01*
X141477905Y-106952881D02*
X141430286Y-106976690D01*
X141335048Y-106976690D01*
X141287429Y-106952881D01*
X141263620Y-106929071D01*
X141239810Y-106881452D01*
X141239810Y-106738595D01*
X141263620Y-106690976D01*
X141287429Y-106667167D01*
X141335048Y-106643357D01*
X141430286Y-106643357D01*
X141477905Y-106667167D01*
X142073143Y-106952881D02*
X142144572Y-106976690D01*
X142263619Y-106976690D01*
X142311238Y-106952881D01*
X142335048Y-106929071D01*
X142358857Y-106881452D01*
X142358857Y-106833833D01*
X142335048Y-106786214D01*
X142311238Y-106762405D01*
X142263619Y-106738595D01*
X142168381Y-106714786D01*
X142120762Y-106690976D01*
X142096953Y-106667167D01*
X142073143Y-106619548D01*
X142073143Y-106571929D01*
X142096953Y-106524310D01*
X142120762Y-106500500D01*
X142168381Y-106476690D01*
X142287429Y-106476690D01*
X142358857Y-106500500D01*
X142573143Y-106976690D02*
X142573143Y-106643357D01*
X142573143Y-106476690D02*
X142549333Y-106500500D01*
X142573143Y-106524310D01*
X142596952Y-106500500D01*
X142573143Y-106476690D01*
X142573143Y-106524310D01*
X143025523Y-106643357D02*
X143025523Y-107048119D01*
X143001714Y-107095738D01*
X142977904Y-107119548D01*
X142930285Y-107143357D01*
X142858857Y-107143357D01*
X142811238Y-107119548D01*
X143025523Y-106952881D02*
X142977904Y-106976690D01*
X142882666Y-106976690D01*
X142835047Y-106952881D01*
X142811238Y-106929071D01*
X142787428Y-106881452D01*
X142787428Y-106738595D01*
X142811238Y-106690976D01*
X142835047Y-106667167D01*
X142882666Y-106643357D01*
X142977904Y-106643357D01*
X143025523Y-106667167D01*
X138918381Y-107589786D02*
X138751715Y-107589786D01*
X138751715Y-107851690D02*
X138751715Y-107351690D01*
X138989810Y-107351690D01*
X139251714Y-107851690D02*
X139204095Y-107827881D01*
X139180286Y-107780262D01*
X139180286Y-107351690D01*
X139513619Y-107851690D02*
X139466000Y-107827881D01*
X139442191Y-107804071D01*
X139418381Y-107756452D01*
X139418381Y-107613595D01*
X139442191Y-107565976D01*
X139466000Y-107542167D01*
X139513619Y-107518357D01*
X139585048Y-107518357D01*
X139632667Y-107542167D01*
X139656476Y-107565976D01*
X139680286Y-107613595D01*
X139680286Y-107756452D01*
X139656476Y-107804071D01*
X139632667Y-107827881D01*
X139585048Y-107851690D01*
X139513619Y-107851690D01*
X139846953Y-107518357D02*
X139942191Y-107851690D01*
X140037429Y-107613595D01*
X140132667Y-107851690D01*
X140227905Y-107518357D01*
X140799334Y-107851690D02*
X140799334Y-107518357D01*
X140799334Y-107565976D02*
X140823143Y-107542167D01*
X140870762Y-107518357D01*
X140942191Y-107518357D01*
X140989810Y-107542167D01*
X141013619Y-107589786D01*
X141013619Y-107851690D01*
X141013619Y-107589786D02*
X141037429Y-107542167D01*
X141085048Y-107518357D01*
X141156476Y-107518357D01*
X141204096Y-107542167D01*
X141227905Y-107589786D01*
X141227905Y-107851690D01*
X141656477Y-107827881D02*
X141608858Y-107851690D01*
X141513620Y-107851690D01*
X141466001Y-107827881D01*
X141442191Y-107780262D01*
X141442191Y-107589786D01*
X141466001Y-107542167D01*
X141513620Y-107518357D01*
X141608858Y-107518357D01*
X141656477Y-107542167D01*
X141680286Y-107589786D01*
X141680286Y-107637405D01*
X141442191Y-107685024D01*
X141823143Y-107518357D02*
X142013619Y-107518357D01*
X141894572Y-107351690D02*
X141894572Y-107780262D01*
X141918381Y-107827881D01*
X141966000Y-107851690D01*
X142013619Y-107851690D01*
X142370762Y-107827881D02*
X142323143Y-107851690D01*
X142227905Y-107851690D01*
X142180286Y-107827881D01*
X142156476Y-107780262D01*
X142156476Y-107589786D01*
X142180286Y-107542167D01*
X142227905Y-107518357D01*
X142323143Y-107518357D01*
X142370762Y-107542167D01*
X142394571Y-107589786D01*
X142394571Y-107637405D01*
X142156476Y-107685024D01*
X142608857Y-107851690D02*
X142608857Y-107518357D01*
X142608857Y-107613595D02*
X142632666Y-107565976D01*
X142656476Y-107542167D01*
X142704095Y-107518357D01*
X142751714Y-107518357D01*
D12*
X121666667Y-126049999D02*
X122366667Y-125816666D01*
X121666667Y-125583333D01*
X122300000Y-125349999D02*
X122333333Y-125316666D01*
X122366667Y-125349999D01*
X122333333Y-125383333D01*
X122300000Y-125349999D01*
X122366667Y-125349999D01*
X122366667Y-124483333D02*
X121900000Y-124483333D01*
X121966667Y-124483333D02*
X121933333Y-124450000D01*
X121900000Y-124383333D01*
X121900000Y-124283333D01*
X121933333Y-124216667D01*
X122000000Y-124183333D01*
X122366667Y-124183333D01*
X122000000Y-124183333D02*
X121933333Y-124150000D01*
X121900000Y-124083333D01*
X121900000Y-123983333D01*
X121933333Y-123916667D01*
X122000000Y-123883333D01*
X122366667Y-123883333D01*
X122333333Y-123283334D02*
X122366667Y-123350000D01*
X122366667Y-123483334D01*
X122333333Y-123550000D01*
X122266667Y-123583334D01*
X122000000Y-123583334D01*
X121933333Y-123550000D01*
X121900000Y-123483334D01*
X121900000Y-123350000D01*
X121933333Y-123283334D01*
X122000000Y-123250000D01*
X122066667Y-123250000D01*
X122133333Y-123583334D01*
X121900000Y-123050000D02*
X121900000Y-122783334D01*
X121666667Y-122950000D02*
X122266667Y-122950000D01*
X122333333Y-122916667D01*
X122366667Y-122850000D01*
X122366667Y-122783334D01*
X122333333Y-122283334D02*
X122366667Y-122350000D01*
X122366667Y-122483334D01*
X122333333Y-122550000D01*
X122266667Y-122583334D01*
X122000000Y-122583334D01*
X121933333Y-122550000D01*
X121900000Y-122483334D01*
X121900000Y-122350000D01*
X121933333Y-122283334D01*
X122000000Y-122250000D01*
X122066667Y-122250000D01*
X122133333Y-122583334D01*
X122366667Y-121950000D02*
X121900000Y-121950000D01*
X122033333Y-121950000D02*
X121966667Y-121916667D01*
X121933333Y-121883334D01*
X121900000Y-121816667D01*
X121900000Y-121750000D01*
X120916667Y-125933333D02*
X120916667Y-125599999D01*
X121116667Y-125999999D02*
X120416667Y-125766666D01*
X121116667Y-125533333D01*
X121050000Y-125299999D02*
X121083333Y-125266666D01*
X121116667Y-125299999D01*
X121083333Y-125333333D01*
X121050000Y-125299999D01*
X121116667Y-125299999D01*
X121116667Y-124433333D02*
X120650000Y-124433333D01*
X120716667Y-124433333D02*
X120683333Y-124400000D01*
X120650000Y-124333333D01*
X120650000Y-124233333D01*
X120683333Y-124166667D01*
X120750000Y-124133333D01*
X121116667Y-124133333D01*
X120750000Y-124133333D02*
X120683333Y-124100000D01*
X120650000Y-124033333D01*
X120650000Y-123933333D01*
X120683333Y-123866667D01*
X120750000Y-123833333D01*
X121116667Y-123833333D01*
X121083333Y-123233334D02*
X121116667Y-123300000D01*
X121116667Y-123433334D01*
X121083333Y-123500000D01*
X121016667Y-123533334D01*
X120750000Y-123533334D01*
X120683333Y-123500000D01*
X120650000Y-123433334D01*
X120650000Y-123300000D01*
X120683333Y-123233334D01*
X120750000Y-123200000D01*
X120816667Y-123200000D01*
X120883333Y-123533334D01*
X120650000Y-123000000D02*
X120650000Y-122733334D01*
X120416667Y-122900000D02*
X121016667Y-122900000D01*
X121083333Y-122866667D01*
X121116667Y-122800000D01*
X121116667Y-122733334D01*
X121083333Y-122233334D02*
X121116667Y-122300000D01*
X121116667Y-122433334D01*
X121083333Y-122500000D01*
X121016667Y-122533334D01*
X120750000Y-122533334D01*
X120683333Y-122500000D01*
X120650000Y-122433334D01*
X120650000Y-122300000D01*
X120683333Y-122233334D01*
X120750000Y-122200000D01*
X120816667Y-122200000D01*
X120883333Y-122533334D01*
X121116667Y-121900000D02*
X120650000Y-121900000D01*
X120783333Y-121900000D02*
X120716667Y-121866667D01*
X120683333Y-121833334D01*
X120650000Y-121766667D01*
X120650000Y-121700000D01*
D11*
X123285714Y-126409522D02*
X123285714Y-126028570D01*
X123476190Y-126219046D02*
X123095238Y-126219046D01*
X122976190Y-125552379D02*
X122976190Y-125790474D01*
X123214286Y-125814284D01*
X123190476Y-125790474D01*
X123166667Y-125742855D01*
X123166667Y-125623808D01*
X123190476Y-125576189D01*
X123214286Y-125552379D01*
X123261905Y-125528570D01*
X123380952Y-125528570D01*
X123428571Y-125552379D01*
X123452381Y-125576189D01*
X123476190Y-125623808D01*
X123476190Y-125742855D01*
X123452381Y-125790474D01*
X123428571Y-125814284D01*
X122976190Y-125385713D02*
X123476190Y-125219046D01*
X122976190Y-125052380D01*
X123452381Y-124528571D02*
X123476190Y-124457142D01*
X123476190Y-124338095D01*
X123452381Y-124290476D01*
X123428571Y-124266666D01*
X123380952Y-124242857D01*
X123333333Y-124242857D01*
X123285714Y-124266666D01*
X123261905Y-124290476D01*
X123238095Y-124338095D01*
X123214286Y-124433333D01*
X123190476Y-124480952D01*
X123166667Y-124504761D01*
X123119048Y-124528571D01*
X123071429Y-124528571D01*
X123023810Y-124504761D01*
X123000000Y-124480952D01*
X122976190Y-124433333D01*
X122976190Y-124314285D01*
X123000000Y-124242857D01*
X123476190Y-124028571D02*
X123142857Y-124028571D01*
X122976190Y-124028571D02*
X123000000Y-124052381D01*
X123023810Y-124028571D01*
X123000000Y-124004762D01*
X122976190Y-124028571D01*
X123023810Y-124028571D01*
X123142857Y-123576191D02*
X123547619Y-123576191D01*
X123595238Y-123600000D01*
X123619048Y-123623810D01*
X123642857Y-123671429D01*
X123642857Y-123742857D01*
X123619048Y-123790476D01*
X123452381Y-123576191D02*
X123476190Y-123623810D01*
X123476190Y-123719048D01*
X123452381Y-123766667D01*
X123428571Y-123790476D01*
X123380952Y-123814286D01*
X123238095Y-123814286D01*
X123190476Y-123790476D01*
X123166667Y-123766667D01*
X123142857Y-123719048D01*
X123142857Y-123623810D01*
X123166667Y-123576191D01*
X123000000Y-122695239D02*
X122976190Y-122742858D01*
X122976190Y-122814286D01*
X123000000Y-122885715D01*
X123047619Y-122933334D01*
X123095238Y-122957143D01*
X123190476Y-122980953D01*
X123261905Y-122980953D01*
X123357143Y-122957143D01*
X123404762Y-122933334D01*
X123452381Y-122885715D01*
X123476190Y-122814286D01*
X123476190Y-122766667D01*
X123452381Y-122695239D01*
X123428571Y-122671429D01*
X123261905Y-122671429D01*
X123261905Y-122766667D01*
X123142857Y-122457143D02*
X123476190Y-122457143D01*
X123190476Y-122457143D02*
X123166667Y-122433334D01*
X123142857Y-122385715D01*
X123142857Y-122314286D01*
X123166667Y-122266667D01*
X123214286Y-122242858D01*
X123476190Y-122242858D01*
X123476190Y-121790477D02*
X122976190Y-121790477D01*
X123452381Y-121790477D02*
X123476190Y-121838096D01*
X123476190Y-121933334D01*
X123452381Y-121980953D01*
X123428571Y-122004762D01*
X123380952Y-122028572D01*
X123238095Y-122028572D01*
X123190476Y-122004762D01*
X123166667Y-121980953D01*
X123142857Y-121933334D01*
X123142857Y-121838096D01*
X123166667Y-121790477D01*
D13*
X168505143Y-89066286D02*
X168552762Y-89113905D01*
X168600381Y-89256762D01*
X168600381Y-89352000D01*
X168552762Y-89494858D01*
X168457524Y-89590096D01*
X168362286Y-89637715D01*
X168171810Y-89685334D01*
X168028952Y-89685334D01*
X167838476Y-89637715D01*
X167743238Y-89590096D01*
X167648000Y-89494858D01*
X167600381Y-89352000D01*
X167600381Y-89256762D01*
X167648000Y-89113905D01*
X167695619Y-89066286D01*
X168600381Y-88637715D02*
X167600381Y-88637715D01*
X167600381Y-88399620D01*
X167648000Y-88256762D01*
X167743238Y-88161524D01*
X167838476Y-88113905D01*
X168028952Y-88066286D01*
X168171810Y-88066286D01*
X168362286Y-88113905D01*
X168457524Y-88161524D01*
X168552762Y-88256762D01*
X168600381Y-88399620D01*
X168600381Y-88637715D01*
X168552762Y-86923429D02*
X168600381Y-86780572D01*
X168600381Y-86542476D01*
X168552762Y-86447238D01*
X168505143Y-86399619D01*
X168409905Y-86352000D01*
X168314667Y-86352000D01*
X168219429Y-86399619D01*
X168171810Y-86447238D01*
X168124190Y-86542476D01*
X168076571Y-86732953D01*
X168028952Y-86828191D01*
X167981333Y-86875810D01*
X167886095Y-86923429D01*
X167790857Y-86923429D01*
X167695619Y-86875810D01*
X167648000Y-86828191D01*
X167600381Y-86732953D01*
X167600381Y-86494857D01*
X167648000Y-86352000D01*
X167933714Y-86018667D02*
X168600381Y-85780572D01*
X167933714Y-85542476D02*
X168600381Y-85780572D01*
X168838476Y-85875810D01*
X168886095Y-85923429D01*
X168933714Y-86018667D01*
X168552762Y-85209143D02*
X168600381Y-85113905D01*
X168600381Y-84923429D01*
X168552762Y-84828190D01*
X168457524Y-84780571D01*
X168409905Y-84780571D01*
X168314667Y-84828190D01*
X168267048Y-84923429D01*
X168267048Y-85066286D01*
X168219429Y-85161524D01*
X168124190Y-85209143D01*
X168076571Y-85209143D01*
X167981333Y-85161524D01*
X167933714Y-85066286D01*
X167933714Y-84923429D01*
X167981333Y-84828190D01*
X167933714Y-84494857D02*
X167933714Y-84113905D01*
X167600381Y-84352000D02*
X168457524Y-84352000D01*
X168552762Y-84304381D01*
X168600381Y-84209143D01*
X168600381Y-84113905D01*
X168552762Y-83399618D02*
X168600381Y-83494856D01*
X168600381Y-83685333D01*
X168552762Y-83780571D01*
X168457524Y-83828190D01*
X168076571Y-83828190D01*
X167981333Y-83780571D01*
X167933714Y-83685333D01*
X167933714Y-83494856D01*
X167981333Y-83399618D01*
X168076571Y-83351999D01*
X168171810Y-83351999D01*
X168267048Y-83828190D01*
X168600381Y-82923428D02*
X167933714Y-82923428D01*
X168028952Y-82923428D02*
X167981333Y-82875809D01*
X167933714Y-82780571D01*
X167933714Y-82637713D01*
X167981333Y-82542475D01*
X168076571Y-82494856D01*
X168600381Y-82494856D01*
X168076571Y-82494856D02*
X167981333Y-82447237D01*
X167933714Y-82351999D01*
X167933714Y-82209142D01*
X167981333Y-82113904D01*
X168076571Y-82066285D01*
X168600381Y-82066285D01*
D14*
X153019328Y-98463300D02*
X151219328Y-98463300D01*
X151219328Y-101683300D02*
X153669328Y-101683300D01*
D15*
X147350000Y-80300000D02*
X131350000Y-80300000D01*
X131350000Y-80300000D02*
X131350000Y-96300000D01*
X131350000Y-96300000D02*
X147350000Y-96300000D01*
X147350000Y-96300000D02*
X147350000Y-80300000D01*
D16*
X142494000Y-125766000D02*
X142494000Y-126266000D01*
X146994000Y-121766000D02*
G75*
G03X146994000Y-121766000I-2000000J0D01*
G01*
X141994000Y-121766000D02*
G75*
G03X141994000Y-121766000I-2000000J0D01*
G01*
X137494000Y-124266000D02*
X147494000Y-124266000D01*
X137494000Y-119366000D02*
X147494000Y-119366000D01*
X137494000Y-125766000D02*
X147494000Y-125766000D01*
X137494000Y-126266000D02*
X147494000Y-126266000D01*
X147494000Y-126266000D02*
X147494000Y-116466000D01*
X147494000Y-116466000D02*
X137494000Y-116466000D01*
X137494000Y-116466000D02*
X137494000Y-126266000D01*
D17*
X155398600Y-85887240D02*
X158497400Y-85887240D01*
X158497400Y-85887240D02*
X158497400Y-81284760D01*
X158497400Y-81284760D02*
X155398600Y-81284760D01*
X155398600Y-81284760D02*
X155398600Y-85887240D01*
X156325201Y-85110000D02*
G75*
G03X156325201Y-85110000I-283981J0D01*
G01*
X116140080Y-84190120D02*
X115492380Y-83542420D01*
X115987680Y-84190120D02*
X115492380Y-83694820D01*
X116990980Y-82793120D02*
X116990980Y-82132720D01*
X117943480Y-82793120D02*
X117943480Y-82132720D01*
X116038480Y-82793120D02*
X116038480Y-82132720D01*
X116990980Y-84190120D02*
X116990980Y-84850520D01*
X117943480Y-84190120D02*
X117943480Y-84850520D01*
X116038480Y-84190120D02*
X116038480Y-84850520D01*
X115492380Y-82793120D02*
X118489580Y-82793120D01*
X118489580Y-82793120D02*
X118489580Y-84190120D01*
X118489580Y-84190120D02*
X115492380Y-84190120D01*
X115492380Y-84190120D02*
X115492380Y-82793120D01*
D14*
X147350000Y-99850000D02*
X147350000Y-100450000D01*
X147350000Y-100450000D02*
X147150000Y-100650000D01*
X147150000Y-97650000D02*
X147350000Y-97650000D01*
X147350000Y-97650000D02*
X147350000Y-98450000D01*
X144350000Y-98450000D02*
X144350000Y-97650000D01*
X144350000Y-97650000D02*
X144550000Y-97650000D01*
X144550000Y-100650000D02*
X144350000Y-100650000D01*
X144350000Y-100650000D02*
X144350000Y-99850000D01*
D15*
X107600000Y-87550000D02*
X107600000Y-87150000D01*
X107600000Y-87550000D02*
X108000000Y-87550000D01*
X110800000Y-87550000D02*
X110800000Y-87150000D01*
X110800000Y-87550000D02*
X110400000Y-87550000D01*
X110800000Y-84350000D02*
X110800000Y-84750000D01*
X110800000Y-84350000D02*
X110400000Y-84350000D01*
X107600000Y-84350000D02*
X108000000Y-84350000D01*
D14*
X152348000Y-84716000D02*
X151348000Y-84716000D01*
X151348000Y-83356000D02*
X152348000Y-83356000D01*
X127030000Y-81900000D02*
X127030000Y-83100000D01*
X125270000Y-83100000D02*
X125270000Y-81900000D01*
X153198000Y-81336000D02*
X153198000Y-82036000D01*
X151998000Y-82036000D02*
X151998000Y-81336000D01*
X128500000Y-81950000D02*
X128500000Y-82650000D01*
X127300000Y-82650000D02*
X127300000Y-81950000D01*
X107950000Y-89400000D02*
X107250000Y-89400000D01*
X107250000Y-88200000D02*
X107950000Y-88200000D01*
X130000000Y-81950000D02*
X130000000Y-82650000D01*
X128800000Y-82650000D02*
X128800000Y-81950000D01*
X111450000Y-86550000D02*
X111450000Y-85850000D01*
X112650000Y-85850000D02*
X112650000Y-86550000D01*
X110850000Y-89400000D02*
X110150000Y-89400000D01*
X110150000Y-88200000D02*
X110850000Y-88200000D01*
X133650000Y-119650000D02*
X132950000Y-119650000D01*
X132950000Y-118450000D02*
X133650000Y-118450000D01*
X127000000Y-87000000D02*
X127000000Y-88100000D01*
X127000000Y-88100000D02*
X129100000Y-88100000D01*
X127000000Y-87000000D02*
X129100000Y-87000000D01*
X150068000Y-82336000D02*
X150068000Y-81336000D01*
X151428000Y-81336000D02*
X151428000Y-82336000D01*
X153718000Y-83986000D02*
X153718000Y-82986000D01*
X155078000Y-82986000D02*
X155078000Y-83986000D01*
X160192000Y-81022000D02*
X160192000Y-82022000D01*
X158832000Y-82022000D02*
X158832000Y-81022000D01*
X120220980Y-83291620D02*
X120220980Y-84291620D01*
X118860980Y-84291620D02*
X118860980Y-83291620D01*
X119190980Y-81671620D02*
X118190980Y-81671620D01*
X118190980Y-80311620D02*
X119190980Y-80311620D01*
X128130000Y-85000000D02*
X128130000Y-86000000D01*
X126770000Y-86000000D02*
X126770000Y-85000000D01*
X116118854Y-105264930D02*
X115118854Y-105264930D01*
X115118854Y-103904930D02*
X116118854Y-103904930D01*
X121200000Y-111070000D02*
X122200000Y-111070000D01*
X122200000Y-112430000D02*
X121200000Y-112430000D01*
X133650000Y-98350000D02*
X132950000Y-98350000D01*
X132950000Y-97150000D02*
X133650000Y-97150000D01*
X130500000Y-120150000D02*
X130500000Y-119450000D01*
X131700000Y-119450000D02*
X131700000Y-120150000D01*
X130500000Y-108850000D02*
X130500000Y-108150000D01*
X131700000Y-108150000D02*
X131700000Y-108850000D01*
X130450000Y-101750000D02*
X130450000Y-102450000D01*
X129250000Y-102450000D02*
X129250000Y-101750000D01*
X115268854Y-98684930D02*
X115968854Y-98684930D01*
X115968854Y-99884930D02*
X115268854Y-99884930D01*
X123290000Y-94520000D02*
X123290000Y-95450000D01*
X123290000Y-97680000D02*
X123290000Y-96750000D01*
X123290000Y-97680000D02*
X125450000Y-97680000D01*
X123290000Y-94520000D02*
X124750000Y-94520000D01*
D15*
X118898800Y-126528760D02*
X118898800Y-105731240D01*
X118500020Y-105731240D02*
X118500020Y-126528760D01*
X112701200Y-126528760D02*
X112701200Y-105731240D01*
X113199040Y-105731240D02*
X113199040Y-126528760D01*
X113199040Y-116130000D02*
X112701200Y-116130000D01*
X113199040Y-123729680D02*
X112701200Y-123729680D01*
X113199040Y-121230320D02*
X112701200Y-121230320D01*
X113199040Y-118631900D02*
X112701200Y-118631900D01*
X113199040Y-113630640D02*
X112701200Y-113630640D01*
X113199040Y-111032220D02*
X112701200Y-111032220D01*
X112701200Y-105931900D02*
X113199040Y-105931900D01*
X113199040Y-126328100D02*
X112701200Y-126328100D01*
X112701200Y-108535400D02*
X113199040Y-108535400D01*
X112701200Y-126526220D02*
X118898800Y-126526220D01*
X118898800Y-105733780D02*
X112701200Y-105733780D01*
D14*
X112780980Y-80861620D02*
X112780980Y-81791620D01*
X112780980Y-84021620D02*
X112780980Y-83091620D01*
X112780980Y-84021620D02*
X114940980Y-84021620D01*
X112780980Y-80861620D02*
X114240980Y-80861620D01*
X115118854Y-102004930D02*
X116118854Y-102004930D01*
X116118854Y-103364930D02*
X115118854Y-103364930D01*
X116118854Y-101564930D02*
X115118854Y-101564930D01*
X115118854Y-100204930D02*
X116118854Y-100204930D01*
X130230000Y-108000000D02*
X130230000Y-109000000D01*
X128870000Y-109000000D02*
X128870000Y-108000000D01*
X127670000Y-102600000D02*
X127670000Y-101600000D01*
X129030000Y-101600000D02*
X129030000Y-102600000D01*
X121200000Y-109420000D02*
X122200000Y-109420000D01*
X122200000Y-110780000D02*
X121200000Y-110780000D01*
X121780000Y-96350000D02*
X121780000Y-97350000D01*
X120420000Y-97350000D02*
X120420000Y-96350000D01*
X127480000Y-95400000D02*
X127480000Y-96400000D01*
X126120000Y-96400000D02*
X126120000Y-95400000D01*
X133650000Y-108350000D02*
X132950000Y-108350000D01*
X132950000Y-107150000D02*
X133650000Y-107150000D01*
X130250000Y-98350000D02*
X129550000Y-98350000D01*
X129550000Y-97150000D02*
X130250000Y-97150000D01*
X133650000Y-121150000D02*
X132950000Y-121150000D01*
X132950000Y-119950000D02*
X133650000Y-119950000D01*
X133650000Y-109850000D02*
X132950000Y-109850000D01*
X132950000Y-108650000D02*
X133650000Y-108650000D01*
X121400000Y-99900000D02*
X121400000Y-100600000D01*
X120200000Y-100600000D02*
X120200000Y-99900000D01*
X112968854Y-105034930D02*
X114068854Y-105034930D01*
X114068854Y-105034930D02*
X114068854Y-102934930D01*
X112968854Y-105034930D02*
X112968854Y-102934930D01*
X117268854Y-101334930D02*
X118968854Y-101334930D01*
X118968854Y-101334930D02*
X118968854Y-98784930D01*
X117268854Y-101334930D02*
X117268854Y-98784930D01*
X123190000Y-90570000D02*
X123190000Y-91500000D01*
X123190000Y-93730000D02*
X123190000Y-92800000D01*
X123190000Y-93730000D02*
X125350000Y-93730000D01*
X123190000Y-90570000D02*
X124650000Y-90570000D01*
X117655070Y-85738854D02*
X117655070Y-86668854D01*
X117655070Y-88898854D02*
X117655070Y-87968854D01*
X117655070Y-88898854D02*
X119815070Y-88898854D01*
X117655070Y-85738854D02*
X119115070Y-85738854D01*
X141060000Y-100130000D02*
X141060000Y-99200000D01*
X141060000Y-96970000D02*
X141060000Y-97900000D01*
X141060000Y-96970000D02*
X138900000Y-96970000D01*
X141060000Y-100130000D02*
X139600000Y-100130000D01*
X122200000Y-109130000D02*
X121200000Y-109130000D01*
X121200000Y-107770000D02*
X122200000Y-107770000D01*
X121780000Y-92400000D02*
X121780000Y-93400000D01*
X120420000Y-93400000D02*
X120420000Y-92400000D01*
X127380000Y-91450000D02*
X127380000Y-92450000D01*
X126020000Y-92450000D02*
X126020000Y-91450000D01*
X114665070Y-88338854D02*
X115665070Y-88338854D01*
X115665070Y-89698854D02*
X114665070Y-89698854D01*
X113380000Y-93750000D02*
X113380000Y-94750000D01*
X112020000Y-94750000D02*
X112020000Y-93750000D01*
X115665070Y-87998854D02*
X114665070Y-87998854D01*
X114665070Y-86638854D02*
X115665070Y-86638854D01*
X121745070Y-86618854D02*
X121745070Y-87618854D01*
X120385070Y-87618854D02*
X120385070Y-86618854D01*
X141050000Y-101880000D02*
X140050000Y-101880000D01*
X140050000Y-100520000D02*
X141050000Y-100520000D01*
X136920000Y-99250000D02*
X136920000Y-98250000D01*
X138280000Y-98250000D02*
X138280000Y-99250000D01*
D15*
X125639000Y-126840000D02*
X125639000Y-121760000D01*
X125639000Y-121760000D02*
X130211000Y-121760000D01*
X130211000Y-121760000D02*
X130211000Y-126840000D01*
X130211000Y-126840000D02*
X125639000Y-126840000D01*
X127163000Y-126840000D02*
X127163000Y-126332000D01*
X127163000Y-126332000D02*
X128433000Y-126332000D01*
X128433000Y-126332000D02*
X128433000Y-126840000D01*
X127475000Y-104650000D02*
X127475000Y-100250000D01*
X121950000Y-106225000D02*
X121950000Y-100250000D01*
X135940000Y-116386000D02*
X130860000Y-116386000D01*
X130860000Y-116386000D02*
X130860000Y-111814000D01*
X130860000Y-111814000D02*
X135940000Y-111814000D01*
X135940000Y-111814000D02*
X135940000Y-116386000D01*
X135940000Y-114862000D02*
X135432000Y-114862000D01*
X135432000Y-114862000D02*
X135432000Y-113592000D01*
X135432000Y-113592000D02*
X135940000Y-113592000D01*
X135940000Y-104936000D02*
X130860000Y-104936000D01*
X130860000Y-104936000D02*
X130860000Y-100364000D01*
X130860000Y-100364000D02*
X135940000Y-100364000D01*
X135940000Y-100364000D02*
X135940000Y-104936000D01*
X135940000Y-103412000D02*
X135432000Y-103412000D01*
X135432000Y-103412000D02*
X135432000Y-102142000D01*
X135432000Y-102142000D02*
X135940000Y-102142000D01*
X113740070Y-96043854D02*
X113790070Y-96043854D01*
X113740070Y-91893854D02*
X113885070Y-91893854D01*
X118890070Y-91893854D02*
X118745070Y-91893854D01*
X118890070Y-96043854D02*
X118745070Y-96043854D01*
X113740070Y-96043854D02*
X113740070Y-91893854D01*
X118890070Y-96043854D02*
X118890070Y-91893854D01*
X113790070Y-96043854D02*
X113790070Y-97443854D01*
D17*
X139616180Y-111760000D02*
X139616180Y-113284000D01*
X139743180Y-113665000D02*
X139743180Y-111379000D01*
X139870180Y-111125000D02*
X139870180Y-113919000D01*
X139997180Y-114173000D02*
X139997180Y-110871000D01*
X140124180Y-110744000D02*
X140124180Y-114300000D01*
X145585180Y-112522000D02*
G75*
G03X145585180Y-112522000I-3048000J0D01*
G01*
X139235180Y-109220000D02*
X139235180Y-115824000D01*
X139235180Y-115824000D02*
X145077180Y-115824000D01*
X145077180Y-115824000D02*
X145839180Y-115062000D01*
X145839180Y-115062000D02*
X145839180Y-109982000D01*
X145839180Y-109982000D02*
X145077180Y-109220000D01*
X145077180Y-109220000D02*
X139235180Y-109220000D01*
X144696180Y-112522000D02*
X143934180Y-112522000D01*
X144315180Y-112141000D02*
X144315180Y-112903000D01*
X167469820Y-117856000D02*
X167469820Y-116332000D01*
X167342820Y-115951000D02*
X167342820Y-118237000D01*
X167215820Y-118491000D02*
X167215820Y-115697000D01*
X167088820Y-115443000D02*
X167088820Y-118745000D01*
X166961820Y-118872000D02*
X166961820Y-115316000D01*
X167596820Y-117094000D02*
G75*
G03X167596820Y-117094000I-3048000J0D01*
G01*
X167850820Y-120396000D02*
X167850820Y-113792000D01*
X167850820Y-113792000D02*
X162008820Y-113792000D01*
X162008820Y-113792000D02*
X161246820Y-114554000D01*
X161246820Y-114554000D02*
X161246820Y-119634000D01*
X161246820Y-119634000D02*
X162008820Y-120396000D01*
X162008820Y-120396000D02*
X167850820Y-120396000D01*
X162389820Y-117094000D02*
X163151820Y-117094000D01*
X162770820Y-117475000D02*
X162770820Y-116713000D01*
X157749240Y-122715020D02*
X157749240Y-126712980D01*
X157647640Y-126712980D02*
X157647640Y-122715020D01*
X157548580Y-122715020D02*
X157548580Y-126712980D01*
X157446980Y-126712980D02*
X157446980Y-122715020D01*
X157347920Y-122715020D02*
X157347920Y-126712980D01*
X157248860Y-122715020D02*
X157248860Y-126712980D01*
X157848300Y-122715020D02*
X157848300Y-126712980D01*
X157848300Y-126712980D02*
X153047700Y-126712980D01*
X153047700Y-126712980D02*
X153047700Y-122715020D01*
X153047700Y-122715020D02*
X157848300Y-122715020D01*
D16*
X158193740Y-118110000D02*
G75*
G03X158193740Y-118110000I-2999740J0D01*
G01*
X157495240Y-121310400D02*
X157495240Y-114909600D01*
X152892760Y-114909600D02*
X152892760Y-121310400D01*
X159194500Y-118110000D02*
G75*
G03X159194500Y-118110000I-4000500J0D01*
G01*
D14*
X158132000Y-102440000D02*
X158132000Y-103390000D01*
X158132000Y-112640000D02*
X158132000Y-111690000D01*
X158132000Y-112640000D02*
X159932000Y-112640000D01*
X159932000Y-102440000D02*
X158132000Y-102440000D01*
X141870000Y-102510000D02*
X136670000Y-102510000D01*
X136670000Y-102510000D02*
X136670000Y-105290000D01*
X136670000Y-105290000D02*
X141870000Y-105290000D01*
X141870000Y-105290000D02*
X141870000Y-102510000D01*
X143140000Y-102510000D02*
X144530000Y-102510000D01*
X144530000Y-102510000D02*
X144530000Y-103900000D01*
X121260000Y-115840000D02*
X121260000Y-121040000D01*
X121260000Y-121040000D02*
X124040000Y-121040000D01*
X124040000Y-121040000D02*
X124040000Y-115840000D01*
X124040000Y-115840000D02*
X121260000Y-115840000D01*
X121260000Y-114570000D02*
X121260000Y-113180000D01*
X121260000Y-113180000D02*
X122650000Y-113180000D01*
X125560000Y-115840000D02*
X125560000Y-121040000D01*
X125560000Y-121040000D02*
X128340000Y-121040000D01*
X128340000Y-121040000D02*
X128340000Y-115840000D01*
X128340000Y-115840000D02*
X125560000Y-115840000D01*
X125560000Y-114570000D02*
X125560000Y-113180000D01*
X125560000Y-113180000D02*
X126950000Y-113180000D01*
X163068000Y-99180000D02*
X165728000Y-99180000D01*
X165728000Y-99180000D02*
X165728000Y-96400000D01*
X165728000Y-96400000D02*
X163068000Y-96400000D01*
X163068000Y-96400000D02*
X163068000Y-99180000D01*
X161798000Y-99180000D02*
X160408000Y-99180000D01*
X160408000Y-99180000D02*
X160408000Y-97790000D01*
X154319328Y-100623300D02*
X154319328Y-99923300D01*
X155519328Y-99923300D02*
X155519328Y-100623300D01*
X148719328Y-100623300D02*
X148719328Y-99923300D01*
X149919328Y-99923300D02*
X149919328Y-100623300D01*
X151892000Y-85224000D02*
X149232000Y-85224000D01*
X149232000Y-85224000D02*
X149232000Y-88004000D01*
X149232000Y-88004000D02*
X151892000Y-88004000D01*
X151892000Y-88004000D02*
X151892000Y-85224000D01*
X153162000Y-85224000D02*
X154552000Y-85224000D01*
X154552000Y-85224000D02*
X154552000Y-86614000D01*
D18*
X162800000Y-77440000D02*
X112000000Y-77440000D01*
X112000000Y-72360000D02*
X162800000Y-72360000D01*
X112000000Y-74900000D02*
X114540000Y-74900000D01*
X114540000Y-74900000D02*
X114540000Y-77440000D01*
X112000000Y-72360000D02*
X112000000Y-77440000D01*
X162800000Y-77440000D02*
X162800000Y-72360000D01*
D11*
X151688376Y-97549490D02*
X151688376Y-97954252D01*
X151712185Y-98001871D01*
X151735995Y-98025681D01*
X151783614Y-98049490D01*
X151878852Y-98049490D01*
X151926471Y-98025681D01*
X151950280Y-98001871D01*
X151974090Y-97954252D01*
X151974090Y-97549490D01*
X152474090Y-98049490D02*
X152188376Y-98049490D01*
X152331233Y-98049490D02*
X152331233Y-97549490D01*
X152283614Y-97620919D01*
X152235995Y-97668538D01*
X152188376Y-97692348D01*
D10*
X139130952Y-79904762D02*
X139454762Y-79904762D01*
X139492857Y-79885714D01*
X139511905Y-79866667D01*
X139530952Y-79828571D01*
X139530952Y-79752381D01*
X139511905Y-79714286D01*
X139492857Y-79695238D01*
X139454762Y-79676190D01*
X139130952Y-79676190D01*
X139130952Y-79314285D02*
X139130952Y-79390476D01*
X139150000Y-79428571D01*
X139169048Y-79447619D01*
X139226190Y-79485714D01*
X139302381Y-79504762D01*
X139454762Y-79504762D01*
X139492857Y-79485714D01*
X139511905Y-79466666D01*
X139530952Y-79428571D01*
X139530952Y-79352381D01*
X139511905Y-79314285D01*
X139492857Y-79295238D01*
X139454762Y-79276190D01*
X139359524Y-79276190D01*
X139321429Y-79295238D01*
X139302381Y-79314285D01*
X139283333Y-79352381D01*
X139283333Y-79428571D01*
X139302381Y-79466666D01*
X139321429Y-79485714D01*
X139359524Y-79504762D01*
D11*
X136174953Y-121892190D02*
X136174953Y-121392190D01*
X136365429Y-121392190D01*
X136413048Y-121416000D01*
X136436857Y-121439810D01*
X136460667Y-121487429D01*
X136460667Y-121558857D01*
X136436857Y-121606476D01*
X136413048Y-121630286D01*
X136365429Y-121654095D01*
X136174953Y-121654095D01*
X136651143Y-121439810D02*
X136674953Y-121416000D01*
X136722572Y-121392190D01*
X136841619Y-121392190D01*
X136889238Y-121416000D01*
X136913048Y-121439810D01*
X136936857Y-121487429D01*
X136936857Y-121535048D01*
X136913048Y-121606476D01*
X136627334Y-121892190D01*
X136936857Y-121892190D01*
X158730190Y-86232952D02*
X159134952Y-86232952D01*
X159182571Y-86209143D01*
X159206381Y-86185333D01*
X159230190Y-86137714D01*
X159230190Y-86042476D01*
X159206381Y-85994857D01*
X159182571Y-85971048D01*
X159134952Y-85947238D01*
X158730190Y-85947238D01*
X158777810Y-85732952D02*
X158754000Y-85709142D01*
X158730190Y-85661523D01*
X158730190Y-85542476D01*
X158754000Y-85494857D01*
X158777810Y-85471047D01*
X158825429Y-85447238D01*
X158873048Y-85447238D01*
X158944476Y-85471047D01*
X159230190Y-85756761D01*
X159230190Y-85447238D01*
D10*
X118771932Y-83496382D02*
X119095742Y-83496382D01*
X119133837Y-83477334D01*
X119152885Y-83458287D01*
X119171932Y-83420191D01*
X119171932Y-83344001D01*
X119152885Y-83305906D01*
X119133837Y-83286858D01*
X119095742Y-83267810D01*
X118771932Y-83267810D01*
X118771932Y-82886858D02*
X118771932Y-83077334D01*
X118962409Y-83096382D01*
X118943361Y-83077334D01*
X118924313Y-83039239D01*
X118924313Y-82944001D01*
X118943361Y-82905905D01*
X118962409Y-82886858D01*
X119000504Y-82867810D01*
X119095742Y-82867810D01*
X119133837Y-82886858D01*
X119152885Y-82905905D01*
X119171932Y-82944001D01*
X119171932Y-83039239D01*
X119152885Y-83077334D01*
X119133837Y-83096382D01*
D11*
X142676190Y-100116666D02*
X143033333Y-100116666D01*
X143104762Y-100140476D01*
X143152381Y-100188095D01*
X143176190Y-100259523D01*
X143176190Y-100307142D01*
X143176190Y-99616667D02*
X143176190Y-99902381D01*
X143176190Y-99759524D02*
X142676190Y-99759524D01*
X142747619Y-99807143D01*
X142795238Y-99854762D01*
X142819048Y-99902381D01*
D10*
X106345238Y-85730952D02*
X106345238Y-86054762D01*
X106364286Y-86092857D01*
X106383333Y-86111905D01*
X106421429Y-86130952D01*
X106497619Y-86130952D01*
X106535714Y-86111905D01*
X106554762Y-86092857D01*
X106573810Y-86054762D01*
X106573810Y-85730952D01*
X106726191Y-85730952D02*
X106992858Y-85730952D01*
X106821429Y-86130952D01*
D11*
X149189334Y-83800190D02*
X149189334Y-84157333D01*
X149165524Y-84228762D01*
X149117905Y-84276381D01*
X149046477Y-84300190D01*
X148998858Y-84300190D01*
X149427429Y-84300190D02*
X149427429Y-83800190D01*
X149617905Y-83800190D01*
X149665524Y-83824000D01*
X149689333Y-83847810D01*
X149713143Y-83895429D01*
X149713143Y-83966857D01*
X149689333Y-84014476D01*
X149665524Y-84038286D01*
X149617905Y-84062095D01*
X149427429Y-84062095D01*
X150189333Y-84300190D02*
X149903619Y-84300190D01*
X150046476Y-84300190D02*
X150046476Y-83800190D01*
X149998857Y-83871619D01*
X149951238Y-83919238D01*
X149903619Y-83943048D01*
D10*
X126330952Y-80516667D02*
X126330952Y-80707143D01*
X125930952Y-80707143D01*
X125969048Y-80402381D02*
X125950000Y-80383333D01*
X125930952Y-80345238D01*
X125930952Y-80250000D01*
X125950000Y-80211904D01*
X125969048Y-80192857D01*
X126007143Y-80173809D01*
X126045238Y-80173809D01*
X126102381Y-80192857D01*
X126330952Y-80421428D01*
X126330952Y-80173809D01*
D11*
X152776571Y-79839333D02*
X152800381Y-79863143D01*
X152824190Y-79934571D01*
X152824190Y-79982190D01*
X152800381Y-80053619D01*
X152752762Y-80101238D01*
X152705143Y-80125047D01*
X152609905Y-80148857D01*
X152538476Y-80148857D01*
X152443238Y-80125047D01*
X152395619Y-80101238D01*
X152348000Y-80053619D01*
X152324190Y-79982190D01*
X152324190Y-79934571D01*
X152348000Y-79863143D01*
X152371810Y-79839333D01*
X152490857Y-79410762D02*
X152824190Y-79410762D01*
X152300381Y-79529809D02*
X152657524Y-79648857D01*
X152657524Y-79339333D01*
D10*
X128042857Y-80466666D02*
X128061905Y-80485714D01*
X128080952Y-80542857D01*
X128080952Y-80580952D01*
X128061905Y-80638095D01*
X128023810Y-80676190D01*
X127985714Y-80695238D01*
X127909524Y-80714286D01*
X127852381Y-80714286D01*
X127776190Y-80695238D01*
X127738095Y-80676190D01*
X127700000Y-80638095D01*
X127680952Y-80580952D01*
X127680952Y-80542857D01*
X127700000Y-80485714D01*
X127719048Y-80466666D01*
X128080952Y-80276190D02*
X128080952Y-80200000D01*
X128061905Y-80161905D01*
X128042857Y-80142857D01*
X127985714Y-80104762D01*
X127909524Y-80085714D01*
X127757143Y-80085714D01*
X127719048Y-80104762D01*
X127700000Y-80123809D01*
X127680952Y-80161905D01*
X127680952Y-80238095D01*
X127700000Y-80276190D01*
X127719048Y-80295238D01*
X127757143Y-80314286D01*
X127852381Y-80314286D01*
X127890476Y-80295238D01*
X127909524Y-80276190D01*
X127928571Y-80238095D01*
X127928571Y-80161905D01*
X127909524Y-80123809D01*
X127890476Y-80104762D01*
X127852381Y-80085714D01*
X107342858Y-89942857D02*
X107323810Y-89961905D01*
X107266667Y-89980952D01*
X107228572Y-89980952D01*
X107171429Y-89961905D01*
X107133334Y-89923810D01*
X107114286Y-89885714D01*
X107095238Y-89809524D01*
X107095238Y-89752381D01*
X107114286Y-89676190D01*
X107133334Y-89638095D01*
X107171429Y-89600000D01*
X107228572Y-89580952D01*
X107266667Y-89580952D01*
X107323810Y-89600000D01*
X107342858Y-89619048D01*
X107723810Y-89980952D02*
X107495238Y-89980952D01*
X107609524Y-89980952D02*
X107609524Y-89580952D01*
X107571429Y-89638095D01*
X107533334Y-89676190D01*
X107495238Y-89695238D01*
X107971429Y-89580952D02*
X108009524Y-89580952D01*
X108047619Y-89600000D01*
X108066667Y-89619048D01*
X108085714Y-89657143D01*
X108104762Y-89733333D01*
X108104762Y-89828571D01*
X108085714Y-89904762D01*
X108066667Y-89942857D01*
X108047619Y-89961905D01*
X108009524Y-89980952D01*
X107971429Y-89980952D01*
X107933333Y-89961905D01*
X107914286Y-89942857D01*
X107895238Y-89904762D01*
X107876190Y-89828571D01*
X107876190Y-89733333D01*
X107895238Y-89657143D01*
X107914286Y-89619048D01*
X107933333Y-89600000D01*
X107971429Y-89580952D01*
X129542857Y-80457142D02*
X129561905Y-80476190D01*
X129580952Y-80533333D01*
X129580952Y-80571428D01*
X129561905Y-80628571D01*
X129523810Y-80666666D01*
X129485714Y-80685714D01*
X129409524Y-80704762D01*
X129352381Y-80704762D01*
X129276190Y-80685714D01*
X129238095Y-80666666D01*
X129200000Y-80628571D01*
X129180952Y-80571428D01*
X129180952Y-80533333D01*
X129200000Y-80476190D01*
X129219048Y-80457142D01*
X129580952Y-80076190D02*
X129580952Y-80304762D01*
X129580952Y-80190476D02*
X129180952Y-80190476D01*
X129238095Y-80228571D01*
X129276190Y-80266666D01*
X129295238Y-80304762D01*
X129580952Y-79695238D02*
X129580952Y-79923810D01*
X129580952Y-79809524D02*
X129180952Y-79809524D01*
X129238095Y-79847619D01*
X129276190Y-79885714D01*
X129295238Y-79923810D01*
X113172857Y-86363142D02*
X113191905Y-86382190D01*
X113210952Y-86439333D01*
X113210952Y-86477428D01*
X113191905Y-86534571D01*
X113153810Y-86572666D01*
X113115714Y-86591714D01*
X113039524Y-86610762D01*
X112982381Y-86610762D01*
X112906190Y-86591714D01*
X112868095Y-86572666D01*
X112830000Y-86534571D01*
X112810952Y-86477428D01*
X112810952Y-86439333D01*
X112830000Y-86382190D01*
X112849048Y-86363142D01*
X113210952Y-85982190D02*
X113210952Y-86210762D01*
X113210952Y-86096476D02*
X112810952Y-86096476D01*
X112868095Y-86134571D01*
X112906190Y-86172666D01*
X112925238Y-86210762D01*
X112849048Y-85829810D02*
X112830000Y-85810762D01*
X112810952Y-85772667D01*
X112810952Y-85677429D01*
X112830000Y-85639333D01*
X112849048Y-85620286D01*
X112887143Y-85601238D01*
X112925238Y-85601238D01*
X112982381Y-85620286D01*
X113210952Y-85848857D01*
X113210952Y-85601238D01*
X110242858Y-89942857D02*
X110223810Y-89961905D01*
X110166667Y-89980952D01*
X110128572Y-89980952D01*
X110071429Y-89961905D01*
X110033334Y-89923810D01*
X110014286Y-89885714D01*
X109995238Y-89809524D01*
X109995238Y-89752381D01*
X110014286Y-89676190D01*
X110033334Y-89638095D01*
X110071429Y-89600000D01*
X110128572Y-89580952D01*
X110166667Y-89580952D01*
X110223810Y-89600000D01*
X110242858Y-89619048D01*
X110623810Y-89980952D02*
X110395238Y-89980952D01*
X110509524Y-89980952D02*
X110509524Y-89580952D01*
X110471429Y-89638095D01*
X110433334Y-89676190D01*
X110395238Y-89695238D01*
X110757143Y-89580952D02*
X111004762Y-89580952D01*
X110871429Y-89733333D01*
X110928571Y-89733333D01*
X110966667Y-89752381D01*
X110985714Y-89771429D01*
X111004762Y-89809524D01*
X111004762Y-89904762D01*
X110985714Y-89942857D01*
X110966667Y-89961905D01*
X110928571Y-89980952D01*
X110814286Y-89980952D01*
X110776190Y-89961905D01*
X110757143Y-89942857D01*
X135092858Y-119192857D02*
X135073810Y-119211905D01*
X135016667Y-119230952D01*
X134978572Y-119230952D01*
X134921429Y-119211905D01*
X134883334Y-119173810D01*
X134864286Y-119135714D01*
X134845238Y-119059524D01*
X134845238Y-119002381D01*
X134864286Y-118926190D01*
X134883334Y-118888095D01*
X134921429Y-118850000D01*
X134978572Y-118830952D01*
X135016667Y-118830952D01*
X135073810Y-118850000D01*
X135092858Y-118869048D01*
X135473810Y-119230952D02*
X135245238Y-119230952D01*
X135359524Y-119230952D02*
X135359524Y-118830952D01*
X135321429Y-118888095D01*
X135283334Y-118926190D01*
X135245238Y-118945238D01*
X135816667Y-118964286D02*
X135816667Y-119230952D01*
X135721429Y-118811905D02*
X135626190Y-119097619D01*
X135873810Y-119097619D01*
X128480952Y-88945238D02*
X128080952Y-88945238D01*
X128080952Y-88850000D01*
X128100000Y-88792857D01*
X128138095Y-88754762D01*
X128176190Y-88735714D01*
X128252381Y-88716666D01*
X128309524Y-88716666D01*
X128385714Y-88735714D01*
X128423810Y-88754762D01*
X128461905Y-88792857D01*
X128480952Y-88850000D01*
X128480952Y-88945238D01*
X128119048Y-88564286D02*
X128100000Y-88545238D01*
X128080952Y-88507143D01*
X128080952Y-88411905D01*
X128100000Y-88373809D01*
X128119048Y-88354762D01*
X128157143Y-88335714D01*
X128195238Y-88335714D01*
X128252381Y-88354762D01*
X128480952Y-88583333D01*
X128480952Y-88335714D01*
D11*
X149832190Y-81919333D02*
X149594095Y-82086000D01*
X149832190Y-82205047D02*
X149332190Y-82205047D01*
X149332190Y-82014571D01*
X149356000Y-81966952D01*
X149379810Y-81943143D01*
X149427429Y-81919333D01*
X149498857Y-81919333D01*
X149546476Y-81943143D01*
X149570286Y-81966952D01*
X149594095Y-82014571D01*
X149594095Y-82205047D01*
X149832190Y-81443143D02*
X149832190Y-81728857D01*
X149832190Y-81586000D02*
X149332190Y-81586000D01*
X149403619Y-81633619D01*
X149451238Y-81681238D01*
X149475048Y-81728857D01*
X154150190Y-81871333D02*
X153912095Y-82038000D01*
X154150190Y-82157047D02*
X153650190Y-82157047D01*
X153650190Y-81966571D01*
X153674000Y-81918952D01*
X153697810Y-81895143D01*
X153745429Y-81871333D01*
X153816857Y-81871333D01*
X153864476Y-81895143D01*
X153888286Y-81918952D01*
X153912095Y-81966571D01*
X153912095Y-82157047D01*
X153650190Y-81704666D02*
X153650190Y-81395143D01*
X153840667Y-81561809D01*
X153840667Y-81490381D01*
X153864476Y-81442762D01*
X153888286Y-81418952D01*
X153935905Y-81395143D01*
X154054952Y-81395143D01*
X154102571Y-81418952D01*
X154126381Y-81442762D01*
X154150190Y-81490381D01*
X154150190Y-81633238D01*
X154126381Y-81680857D01*
X154102571Y-81704666D01*
X159588190Y-83955333D02*
X159350095Y-84122000D01*
X159588190Y-84241047D02*
X159088190Y-84241047D01*
X159088190Y-84050571D01*
X159112000Y-84002952D01*
X159135810Y-83979143D01*
X159183429Y-83955333D01*
X159254857Y-83955333D01*
X159302476Y-83979143D01*
X159326286Y-84002952D01*
X159350095Y-84050571D01*
X159350095Y-84241047D01*
X159088190Y-83502952D02*
X159088190Y-83741047D01*
X159326286Y-83764857D01*
X159302476Y-83741047D01*
X159278667Y-83693428D01*
X159278667Y-83574381D01*
X159302476Y-83526762D01*
X159326286Y-83502952D01*
X159373905Y-83479143D01*
X159492952Y-83479143D01*
X159540571Y-83502952D01*
X159564381Y-83526762D01*
X159588190Y-83574381D01*
X159588190Y-83693428D01*
X159564381Y-83741047D01*
X159540571Y-83764857D01*
D10*
X120871932Y-84048762D02*
X120681456Y-84182096D01*
X120871932Y-84277334D02*
X120471932Y-84277334D01*
X120471932Y-84124953D01*
X120490980Y-84086858D01*
X120510028Y-84067810D01*
X120548123Y-84048762D01*
X120605266Y-84048762D01*
X120643361Y-84067810D01*
X120662409Y-84086858D01*
X120681456Y-84124953D01*
X120681456Y-84277334D01*
X120871932Y-83667810D02*
X120871932Y-83896382D01*
X120871932Y-83782096D02*
X120471932Y-83782096D01*
X120529075Y-83820191D01*
X120567170Y-83858286D01*
X120586218Y-83896382D01*
X120871932Y-83286858D02*
X120871932Y-83515430D01*
X120871932Y-83401144D02*
X120471932Y-83401144D01*
X120529075Y-83439239D01*
X120567170Y-83477334D01*
X120586218Y-83515430D01*
X118433838Y-79722572D02*
X118300504Y-79532096D01*
X118205266Y-79722572D02*
X118205266Y-79322572D01*
X118357647Y-79322572D01*
X118395742Y-79341620D01*
X118414790Y-79360668D01*
X118433838Y-79398763D01*
X118433838Y-79455906D01*
X118414790Y-79494001D01*
X118395742Y-79513049D01*
X118357647Y-79532096D01*
X118205266Y-79532096D01*
X118814790Y-79722572D02*
X118586218Y-79722572D01*
X118700504Y-79722572D02*
X118700504Y-79322572D01*
X118662409Y-79379715D01*
X118624314Y-79417810D01*
X118586218Y-79436858D01*
X118967170Y-79360668D02*
X118986218Y-79341620D01*
X119024313Y-79322572D01*
X119119551Y-79322572D01*
X119157647Y-79341620D01*
X119176694Y-79360668D01*
X119195742Y-79398763D01*
X119195742Y-79436858D01*
X119176694Y-79494001D01*
X118948123Y-79722572D01*
X119195742Y-79722572D01*
X126480952Y-85007142D02*
X126290476Y-85140476D01*
X126480952Y-85235714D02*
X126080952Y-85235714D01*
X126080952Y-85083333D01*
X126100000Y-85045238D01*
X126119048Y-85026190D01*
X126157143Y-85007142D01*
X126214286Y-85007142D01*
X126252381Y-85026190D01*
X126271429Y-85045238D01*
X126290476Y-85083333D01*
X126290476Y-85235714D01*
X126480952Y-84626190D02*
X126480952Y-84854762D01*
X126480952Y-84740476D02*
X126080952Y-84740476D01*
X126138095Y-84778571D01*
X126176190Y-84816666D01*
X126195238Y-84854762D01*
X126080952Y-84492857D02*
X126080952Y-84245238D01*
X126233333Y-84378571D01*
X126233333Y-84321429D01*
X126252381Y-84283333D01*
X126271429Y-84264286D01*
X126309524Y-84245238D01*
X126404762Y-84245238D01*
X126442857Y-84264286D01*
X126461905Y-84283333D01*
X126480952Y-84321429D01*
X126480952Y-84435714D01*
X126461905Y-84473810D01*
X126442857Y-84492857D01*
D11*
X117378572Y-104326190D02*
X117211905Y-104088095D01*
X117092858Y-104326190D02*
X117092858Y-103826190D01*
X117283334Y-103826190D01*
X117330953Y-103850000D01*
X117354762Y-103873810D01*
X117378572Y-103921429D01*
X117378572Y-103992857D01*
X117354762Y-104040476D01*
X117330953Y-104064286D01*
X117283334Y-104088095D01*
X117092858Y-104088095D01*
X117854762Y-104326190D02*
X117569048Y-104326190D01*
X117711905Y-104326190D02*
X117711905Y-103826190D01*
X117664286Y-103897619D01*
X117616667Y-103945238D01*
X117569048Y-103969048D01*
X118283333Y-103992857D02*
X118283333Y-104326190D01*
X118164286Y-103802381D02*
X118045238Y-104159524D01*
X118354762Y-104159524D01*
D10*
X119542858Y-111430952D02*
X119409524Y-111240476D01*
X119314286Y-111430952D02*
X119314286Y-111030952D01*
X119466667Y-111030952D01*
X119504762Y-111050000D01*
X119523810Y-111069048D01*
X119542858Y-111107143D01*
X119542858Y-111164286D01*
X119523810Y-111202381D01*
X119504762Y-111221429D01*
X119466667Y-111240476D01*
X119314286Y-111240476D01*
X119923810Y-111430952D02*
X119695238Y-111430952D01*
X119809524Y-111430952D02*
X119809524Y-111030952D01*
X119771429Y-111088095D01*
X119733334Y-111126190D01*
X119695238Y-111145238D01*
X120285714Y-111030952D02*
X120095238Y-111030952D01*
X120076190Y-111221429D01*
X120095238Y-111202381D01*
X120133333Y-111183333D01*
X120228571Y-111183333D01*
X120266667Y-111202381D01*
X120285714Y-111221429D01*
X120304762Y-111259524D01*
X120304762Y-111354762D01*
X120285714Y-111392857D01*
X120266667Y-111411905D01*
X120228571Y-111430952D01*
X120133333Y-111430952D01*
X120095238Y-111411905D01*
X120076190Y-111392857D01*
X135092858Y-97892857D02*
X135073810Y-97911905D01*
X135016667Y-97930952D01*
X134978572Y-97930952D01*
X134921429Y-97911905D01*
X134883334Y-97873810D01*
X134864286Y-97835714D01*
X134845238Y-97759524D01*
X134845238Y-97702381D01*
X134864286Y-97626190D01*
X134883334Y-97588095D01*
X134921429Y-97550000D01*
X134978572Y-97530952D01*
X135016667Y-97530952D01*
X135073810Y-97550000D01*
X135092858Y-97569048D01*
X135245238Y-97569048D02*
X135264286Y-97550000D01*
X135302381Y-97530952D01*
X135397619Y-97530952D01*
X135435715Y-97550000D01*
X135454762Y-97569048D01*
X135473810Y-97607143D01*
X135473810Y-97645238D01*
X135454762Y-97702381D01*
X135226191Y-97930952D01*
X135473810Y-97930952D01*
X135721429Y-97530952D02*
X135759524Y-97530952D01*
X135797619Y-97550000D01*
X135816667Y-97569048D01*
X135835714Y-97607143D01*
X135854762Y-97683333D01*
X135854762Y-97778571D01*
X135835714Y-97854762D01*
X135816667Y-97892857D01*
X135797619Y-97911905D01*
X135759524Y-97930952D01*
X135721429Y-97930952D01*
X135683333Y-97911905D01*
X135664286Y-97892857D01*
X135645238Y-97854762D01*
X135626190Y-97778571D01*
X135626190Y-97683333D01*
X135645238Y-97607143D01*
X135664286Y-97569048D01*
X135683333Y-97550000D01*
X135721429Y-97530952D01*
X129742857Y-121357142D02*
X129761905Y-121376190D01*
X129780952Y-121433333D01*
X129780952Y-121471428D01*
X129761905Y-121528571D01*
X129723810Y-121566666D01*
X129685714Y-121585714D01*
X129609524Y-121604762D01*
X129552381Y-121604762D01*
X129476190Y-121585714D01*
X129438095Y-121566666D01*
X129400000Y-121528571D01*
X129380952Y-121471428D01*
X129380952Y-121433333D01*
X129400000Y-121376190D01*
X129419048Y-121357142D01*
X129419048Y-121204762D02*
X129400000Y-121185714D01*
X129380952Y-121147619D01*
X129380952Y-121052381D01*
X129400000Y-121014285D01*
X129419048Y-120995238D01*
X129457143Y-120976190D01*
X129495238Y-120976190D01*
X129552381Y-120995238D01*
X129780952Y-121223809D01*
X129780952Y-120976190D01*
X129780952Y-120595238D02*
X129780952Y-120823810D01*
X129780952Y-120709524D02*
X129380952Y-120709524D01*
X129438095Y-120747619D01*
X129476190Y-120785714D01*
X129495238Y-120823810D01*
X130892857Y-110807142D02*
X130911905Y-110826190D01*
X130930952Y-110883333D01*
X130930952Y-110921428D01*
X130911905Y-110978571D01*
X130873810Y-111016666D01*
X130835714Y-111035714D01*
X130759524Y-111054762D01*
X130702381Y-111054762D01*
X130626190Y-111035714D01*
X130588095Y-111016666D01*
X130550000Y-110978571D01*
X130530952Y-110921428D01*
X130530952Y-110883333D01*
X130550000Y-110826190D01*
X130569048Y-110807142D01*
X130569048Y-110654762D02*
X130550000Y-110635714D01*
X130530952Y-110597619D01*
X130530952Y-110502381D01*
X130550000Y-110464285D01*
X130569048Y-110445238D01*
X130607143Y-110426190D01*
X130645238Y-110426190D01*
X130702381Y-110445238D01*
X130930952Y-110673809D01*
X130930952Y-110426190D01*
X130569048Y-110273810D02*
X130550000Y-110254762D01*
X130530952Y-110216667D01*
X130530952Y-110121429D01*
X130550000Y-110083333D01*
X130569048Y-110064286D01*
X130607143Y-110045238D01*
X130645238Y-110045238D01*
X130702381Y-110064286D01*
X130930952Y-110292857D01*
X130930952Y-110045238D01*
X130492857Y-104457142D02*
X130511905Y-104476190D01*
X130530952Y-104533333D01*
X130530952Y-104571428D01*
X130511905Y-104628571D01*
X130473810Y-104666666D01*
X130435714Y-104685714D01*
X130359524Y-104704762D01*
X130302381Y-104704762D01*
X130226190Y-104685714D01*
X130188095Y-104666666D01*
X130150000Y-104628571D01*
X130130952Y-104571428D01*
X130130952Y-104533333D01*
X130150000Y-104476190D01*
X130169048Y-104457142D01*
X130169048Y-104304762D02*
X130150000Y-104285714D01*
X130130952Y-104247619D01*
X130130952Y-104152381D01*
X130150000Y-104114285D01*
X130169048Y-104095238D01*
X130207143Y-104076190D01*
X130245238Y-104076190D01*
X130302381Y-104095238D01*
X130530952Y-104323809D01*
X130530952Y-104076190D01*
X130130952Y-103942857D02*
X130130952Y-103695238D01*
X130283333Y-103828571D01*
X130283333Y-103771429D01*
X130302381Y-103733333D01*
X130321429Y-103714286D01*
X130359524Y-103695238D01*
X130454762Y-103695238D01*
X130492857Y-103714286D01*
X130511905Y-103733333D01*
X130530952Y-103771429D01*
X130530952Y-103885714D01*
X130511905Y-103923810D01*
X130492857Y-103942857D01*
D11*
X113078572Y-99478571D02*
X113054762Y-99502381D01*
X112983334Y-99526190D01*
X112935715Y-99526190D01*
X112864286Y-99502381D01*
X112816667Y-99454762D01*
X112792858Y-99407143D01*
X112769048Y-99311905D01*
X112769048Y-99240476D01*
X112792858Y-99145238D01*
X112816667Y-99097619D01*
X112864286Y-99050000D01*
X112935715Y-99026190D01*
X112983334Y-99026190D01*
X113054762Y-99050000D01*
X113078572Y-99073810D01*
X113269048Y-99073810D02*
X113292858Y-99050000D01*
X113340477Y-99026190D01*
X113459524Y-99026190D01*
X113507143Y-99050000D01*
X113530953Y-99073810D01*
X113554762Y-99121429D01*
X113554762Y-99169048D01*
X113530953Y-99240476D01*
X113245239Y-99526190D01*
X113554762Y-99526190D01*
X113983333Y-99192857D02*
X113983333Y-99526190D01*
X113864286Y-99002381D02*
X113745238Y-99359524D01*
X114054762Y-99359524D01*
D10*
X124711905Y-98419048D02*
X124673810Y-98400000D01*
X124635714Y-98361905D01*
X124578571Y-98304762D01*
X124540476Y-98285714D01*
X124502381Y-98285714D01*
X124521429Y-98380952D02*
X124483333Y-98361905D01*
X124445238Y-98323810D01*
X124426190Y-98247619D01*
X124426190Y-98114286D01*
X124445238Y-98038095D01*
X124483333Y-98000000D01*
X124521429Y-97980952D01*
X124597619Y-97980952D01*
X124635714Y-98000000D01*
X124673810Y-98038095D01*
X124692857Y-98114286D01*
X124692857Y-98247619D01*
X124673810Y-98323810D01*
X124635714Y-98361905D01*
X124597619Y-98380952D01*
X124521429Y-98380952D01*
X124845238Y-98019048D02*
X124864286Y-98000000D01*
X124902381Y-97980952D01*
X124997619Y-97980952D01*
X125035715Y-98000000D01*
X125054762Y-98019048D01*
X125073810Y-98057143D01*
X125073810Y-98095238D01*
X125054762Y-98152381D01*
X124826191Y-98380952D01*
X125073810Y-98380952D01*
X118330952Y-105093333D02*
X118616667Y-105093333D01*
X118673810Y-105112381D01*
X118711905Y-105150476D01*
X118730952Y-105207619D01*
X118730952Y-105245714D01*
X118330952Y-104940952D02*
X118330952Y-104693333D01*
X118483333Y-104826666D01*
X118483333Y-104769524D01*
X118502381Y-104731428D01*
X118521429Y-104712381D01*
X118559524Y-104693333D01*
X118654762Y-104693333D01*
X118692857Y-104712381D01*
X118711905Y-104731428D01*
X118730952Y-104769524D01*
X118730952Y-104883809D01*
X118711905Y-104921905D01*
X118692857Y-104940952D01*
X113502885Y-84860668D02*
X113464790Y-84841620D01*
X113426694Y-84803525D01*
X113369551Y-84746382D01*
X113331456Y-84727334D01*
X113293361Y-84727334D01*
X113312409Y-84822572D02*
X113274313Y-84803525D01*
X113236218Y-84765430D01*
X113217170Y-84689239D01*
X113217170Y-84555906D01*
X113236218Y-84479715D01*
X113274313Y-84441620D01*
X113312409Y-84422572D01*
X113388599Y-84422572D01*
X113426694Y-84441620D01*
X113464790Y-84479715D01*
X113483837Y-84555906D01*
X113483837Y-84689239D01*
X113464790Y-84765430D01*
X113426694Y-84803525D01*
X113388599Y-84822572D01*
X113312409Y-84822572D01*
X113864790Y-84822572D02*
X113636218Y-84822572D01*
X113750504Y-84822572D02*
X113750504Y-84422572D01*
X113712409Y-84479715D01*
X113674314Y-84517810D01*
X113636218Y-84536858D01*
D11*
X117328572Y-102911120D02*
X117161905Y-102673025D01*
X117042858Y-102911120D02*
X117042858Y-102411120D01*
X117233334Y-102411120D01*
X117280953Y-102434930D01*
X117304762Y-102458740D01*
X117328572Y-102506359D01*
X117328572Y-102577787D01*
X117304762Y-102625406D01*
X117280953Y-102649216D01*
X117233334Y-102673025D01*
X117042858Y-102673025D01*
X117804762Y-102911120D02*
X117519048Y-102911120D01*
X117661905Y-102911120D02*
X117661905Y-102411120D01*
X117614286Y-102482549D01*
X117566667Y-102530168D01*
X117519048Y-102553978D01*
X118233333Y-102411120D02*
X118138095Y-102411120D01*
X118090476Y-102434930D01*
X118066667Y-102458740D01*
X118019048Y-102530168D01*
X117995238Y-102625406D01*
X117995238Y-102815882D01*
X118019048Y-102863501D01*
X118042857Y-102887311D01*
X118090476Y-102911120D01*
X118185714Y-102911120D01*
X118233333Y-102887311D01*
X118257143Y-102863501D01*
X118280952Y-102815882D01*
X118280952Y-102696835D01*
X118257143Y-102649216D01*
X118233333Y-102625406D01*
X118185714Y-102601597D01*
X118090476Y-102601597D01*
X118042857Y-102625406D01*
X118019048Y-102649216D01*
X117995238Y-102696835D01*
X113228572Y-101126190D02*
X113061905Y-100888095D01*
X112942858Y-101126190D02*
X112942858Y-100626190D01*
X113133334Y-100626190D01*
X113180953Y-100650000D01*
X113204762Y-100673810D01*
X113228572Y-100721429D01*
X113228572Y-100792857D01*
X113204762Y-100840476D01*
X113180953Y-100864286D01*
X113133334Y-100888095D01*
X112942858Y-100888095D01*
X113704762Y-101126190D02*
X113419048Y-101126190D01*
X113561905Y-101126190D02*
X113561905Y-100626190D01*
X113514286Y-100697619D01*
X113466667Y-100745238D01*
X113419048Y-100769048D01*
X113871429Y-100626190D02*
X114204762Y-100626190D01*
X113990476Y-101126190D01*
D10*
X130230952Y-110757142D02*
X130040476Y-110890476D01*
X130230952Y-110985714D02*
X129830952Y-110985714D01*
X129830952Y-110833333D01*
X129850000Y-110795238D01*
X129869048Y-110776190D01*
X129907143Y-110757142D01*
X129964286Y-110757142D01*
X130002381Y-110776190D01*
X130021429Y-110795238D01*
X130040476Y-110833333D01*
X130040476Y-110985714D01*
X130230952Y-110376190D02*
X130230952Y-110604762D01*
X130230952Y-110490476D02*
X129830952Y-110490476D01*
X129888095Y-110528571D01*
X129926190Y-110566666D01*
X129945238Y-110604762D01*
X130002381Y-110147619D02*
X129983333Y-110185714D01*
X129964286Y-110204762D01*
X129926190Y-110223810D01*
X129907143Y-110223810D01*
X129869048Y-110204762D01*
X129850000Y-110185714D01*
X129830952Y-110147619D01*
X129830952Y-110071429D01*
X129850000Y-110033333D01*
X129869048Y-110014286D01*
X129907143Y-109995238D01*
X129926190Y-109995238D01*
X129964286Y-110014286D01*
X129983333Y-110033333D01*
X130002381Y-110071429D01*
X130002381Y-110147619D01*
X130021429Y-110185714D01*
X130040476Y-110204762D01*
X130078571Y-110223810D01*
X130154762Y-110223810D01*
X130192857Y-110204762D01*
X130211905Y-110185714D01*
X130230952Y-110147619D01*
X130230952Y-110071429D01*
X130211905Y-110033333D01*
X130192857Y-110014286D01*
X130154762Y-109995238D01*
X130078571Y-109995238D01*
X130040476Y-110014286D01*
X130021429Y-110033333D01*
X130002381Y-110071429D01*
X128530952Y-100407142D02*
X128340476Y-100540476D01*
X128530952Y-100635714D02*
X128130952Y-100635714D01*
X128130952Y-100483333D01*
X128150000Y-100445238D01*
X128169048Y-100426190D01*
X128207143Y-100407142D01*
X128264286Y-100407142D01*
X128302381Y-100426190D01*
X128321429Y-100445238D01*
X128340476Y-100483333D01*
X128340476Y-100635714D01*
X128530952Y-100026190D02*
X128530952Y-100254762D01*
X128530952Y-100140476D02*
X128130952Y-100140476D01*
X128188095Y-100178571D01*
X128226190Y-100216666D01*
X128245238Y-100254762D01*
X128530952Y-99835714D02*
X128530952Y-99759524D01*
X128511905Y-99721429D01*
X128492857Y-99702381D01*
X128435714Y-99664286D01*
X128359524Y-99645238D01*
X128207143Y-99645238D01*
X128169048Y-99664286D01*
X128150000Y-99683333D01*
X128130952Y-99721429D01*
X128130952Y-99797619D01*
X128150000Y-99835714D01*
X128169048Y-99854762D01*
X128207143Y-99873810D01*
X128302381Y-99873810D01*
X128340476Y-99854762D01*
X128359524Y-99835714D01*
X128378571Y-99797619D01*
X128378571Y-99721429D01*
X128359524Y-99683333D01*
X128340476Y-99664286D01*
X128302381Y-99645238D01*
X119542858Y-110280952D02*
X119409524Y-110090476D01*
X119314286Y-110280952D02*
X119314286Y-109880952D01*
X119466667Y-109880952D01*
X119504762Y-109900000D01*
X119523810Y-109919048D01*
X119542858Y-109957143D01*
X119542858Y-110014286D01*
X119523810Y-110052381D01*
X119504762Y-110071429D01*
X119466667Y-110090476D01*
X119314286Y-110090476D01*
X119695238Y-109919048D02*
X119714286Y-109900000D01*
X119752381Y-109880952D01*
X119847619Y-109880952D01*
X119885715Y-109900000D01*
X119904762Y-109919048D01*
X119923810Y-109957143D01*
X119923810Y-109995238D01*
X119904762Y-110052381D01*
X119676191Y-110280952D01*
X119923810Y-110280952D01*
X120171429Y-109880952D02*
X120209524Y-109880952D01*
X120247619Y-109900000D01*
X120266667Y-109919048D01*
X120285714Y-109957143D01*
X120304762Y-110033333D01*
X120304762Y-110128571D01*
X120285714Y-110204762D01*
X120266667Y-110242857D01*
X120247619Y-110261905D01*
X120209524Y-110280952D01*
X120171429Y-110280952D01*
X120133333Y-110261905D01*
X120114286Y-110242857D01*
X120095238Y-110204762D01*
X120076190Y-110128571D01*
X120076190Y-110033333D01*
X120095238Y-109957143D01*
X120114286Y-109919048D01*
X120133333Y-109900000D01*
X120171429Y-109880952D01*
X121780952Y-95107142D02*
X121590476Y-95240476D01*
X121780952Y-95335714D02*
X121380952Y-95335714D01*
X121380952Y-95183333D01*
X121400000Y-95145238D01*
X121419048Y-95126190D01*
X121457143Y-95107142D01*
X121514286Y-95107142D01*
X121552381Y-95126190D01*
X121571429Y-95145238D01*
X121590476Y-95183333D01*
X121590476Y-95335714D01*
X121419048Y-94954762D02*
X121400000Y-94935714D01*
X121380952Y-94897619D01*
X121380952Y-94802381D01*
X121400000Y-94764285D01*
X121419048Y-94745238D01*
X121457143Y-94726190D01*
X121495238Y-94726190D01*
X121552381Y-94745238D01*
X121780952Y-94973809D01*
X121780952Y-94726190D01*
X121780952Y-94345238D02*
X121780952Y-94573810D01*
X121780952Y-94459524D02*
X121380952Y-94459524D01*
X121438095Y-94497619D01*
X121476190Y-94535714D01*
X121495238Y-94573810D01*
X126980952Y-98107142D02*
X126790476Y-98240476D01*
X126980952Y-98335714D02*
X126580952Y-98335714D01*
X126580952Y-98183333D01*
X126600000Y-98145238D01*
X126619048Y-98126190D01*
X126657143Y-98107142D01*
X126714286Y-98107142D01*
X126752381Y-98126190D01*
X126771429Y-98145238D01*
X126790476Y-98183333D01*
X126790476Y-98335714D01*
X126619048Y-97954762D02*
X126600000Y-97935714D01*
X126580952Y-97897619D01*
X126580952Y-97802381D01*
X126600000Y-97764285D01*
X126619048Y-97745238D01*
X126657143Y-97726190D01*
X126695238Y-97726190D01*
X126752381Y-97745238D01*
X126980952Y-97973809D01*
X126980952Y-97726190D01*
X126619048Y-97573810D02*
X126600000Y-97554762D01*
X126580952Y-97516667D01*
X126580952Y-97421429D01*
X126600000Y-97383333D01*
X126619048Y-97364286D01*
X126657143Y-97345238D01*
X126695238Y-97345238D01*
X126752381Y-97364286D01*
X126980952Y-97592857D01*
X126980952Y-97345238D01*
X135142858Y-107942857D02*
X135123810Y-107961905D01*
X135066667Y-107980952D01*
X135028572Y-107980952D01*
X134971429Y-107961905D01*
X134933334Y-107923810D01*
X134914286Y-107885714D01*
X134895238Y-107809524D01*
X134895238Y-107752381D01*
X134914286Y-107676190D01*
X134933334Y-107638095D01*
X134971429Y-107600000D01*
X135028572Y-107580952D01*
X135066667Y-107580952D01*
X135123810Y-107600000D01*
X135142858Y-107619048D01*
X135523810Y-107980952D02*
X135295238Y-107980952D01*
X135409524Y-107980952D02*
X135409524Y-107580952D01*
X135371429Y-107638095D01*
X135333334Y-107676190D01*
X135295238Y-107695238D01*
X135885714Y-107580952D02*
X135695238Y-107580952D01*
X135676190Y-107771429D01*
X135695238Y-107752381D01*
X135733333Y-107733333D01*
X135828571Y-107733333D01*
X135866667Y-107752381D01*
X135885714Y-107771429D01*
X135904762Y-107809524D01*
X135904762Y-107904762D01*
X135885714Y-107942857D01*
X135866667Y-107961905D01*
X135828571Y-107980952D01*
X135733333Y-107980952D01*
X135695238Y-107961905D01*
X135676190Y-107942857D01*
X131692858Y-97892857D02*
X131673810Y-97911905D01*
X131616667Y-97930952D01*
X131578572Y-97930952D01*
X131521429Y-97911905D01*
X131483334Y-97873810D01*
X131464286Y-97835714D01*
X131445238Y-97759524D01*
X131445238Y-97702381D01*
X131464286Y-97626190D01*
X131483334Y-97588095D01*
X131521429Y-97550000D01*
X131578572Y-97530952D01*
X131616667Y-97530952D01*
X131673810Y-97550000D01*
X131692858Y-97569048D01*
X132073810Y-97930952D02*
X131845238Y-97930952D01*
X131959524Y-97930952D02*
X131959524Y-97530952D01*
X131921429Y-97588095D01*
X131883334Y-97626190D01*
X131845238Y-97645238D01*
X132416667Y-97530952D02*
X132340476Y-97530952D01*
X132302381Y-97550000D01*
X132283333Y-97569048D01*
X132245238Y-97626190D01*
X132226190Y-97702381D01*
X132226190Y-97854762D01*
X132245238Y-97892857D01*
X132264286Y-97911905D01*
X132302381Y-97930952D01*
X132378571Y-97930952D01*
X132416667Y-97911905D01*
X132435714Y-97892857D01*
X132454762Y-97854762D01*
X132454762Y-97759524D01*
X132435714Y-97721429D01*
X132416667Y-97702381D01*
X132378571Y-97683333D01*
X132302381Y-97683333D01*
X132264286Y-97702381D01*
X132245238Y-97721429D01*
X132226190Y-97759524D01*
X135092858Y-120692857D02*
X135073810Y-120711905D01*
X135016667Y-120730952D01*
X134978572Y-120730952D01*
X134921429Y-120711905D01*
X134883334Y-120673810D01*
X134864286Y-120635714D01*
X134845238Y-120559524D01*
X134845238Y-120502381D01*
X134864286Y-120426190D01*
X134883334Y-120388095D01*
X134921429Y-120350000D01*
X134978572Y-120330952D01*
X135016667Y-120330952D01*
X135073810Y-120350000D01*
X135092858Y-120369048D01*
X135473810Y-120730952D02*
X135245238Y-120730952D01*
X135359524Y-120730952D02*
X135359524Y-120330952D01*
X135321429Y-120388095D01*
X135283334Y-120426190D01*
X135245238Y-120445238D01*
X135607143Y-120330952D02*
X135873810Y-120330952D01*
X135702381Y-120730952D01*
X135142858Y-109392857D02*
X135123810Y-109411905D01*
X135066667Y-109430952D01*
X135028572Y-109430952D01*
X134971429Y-109411905D01*
X134933334Y-109373810D01*
X134914286Y-109335714D01*
X134895238Y-109259524D01*
X134895238Y-109202381D01*
X134914286Y-109126190D01*
X134933334Y-109088095D01*
X134971429Y-109050000D01*
X135028572Y-109030952D01*
X135066667Y-109030952D01*
X135123810Y-109050000D01*
X135142858Y-109069048D01*
X135523810Y-109430952D02*
X135295238Y-109430952D01*
X135409524Y-109430952D02*
X135409524Y-109030952D01*
X135371429Y-109088095D01*
X135333334Y-109126190D01*
X135295238Y-109145238D01*
X135752381Y-109202381D02*
X135714286Y-109183333D01*
X135695238Y-109164286D01*
X135676190Y-109126190D01*
X135676190Y-109107143D01*
X135695238Y-109069048D01*
X135714286Y-109050000D01*
X135752381Y-109030952D01*
X135828571Y-109030952D01*
X135866667Y-109050000D01*
X135885714Y-109069048D01*
X135904762Y-109107143D01*
X135904762Y-109126190D01*
X135885714Y-109164286D01*
X135866667Y-109183333D01*
X135828571Y-109202381D01*
X135752381Y-109202381D01*
X135714286Y-109221429D01*
X135695238Y-109240476D01*
X135676190Y-109278571D01*
X135676190Y-109354762D01*
X135695238Y-109392857D01*
X135714286Y-109411905D01*
X135752381Y-109430952D01*
X135828571Y-109430952D01*
X135866667Y-109411905D01*
X135885714Y-109392857D01*
X135904762Y-109354762D01*
X135904762Y-109278571D01*
X135885714Y-109240476D01*
X135866667Y-109221429D01*
X135828571Y-109202381D01*
X120592858Y-98642857D02*
X120573810Y-98661905D01*
X120516667Y-98680952D01*
X120478572Y-98680952D01*
X120421429Y-98661905D01*
X120383334Y-98623810D01*
X120364286Y-98585714D01*
X120345238Y-98509524D01*
X120345238Y-98452381D01*
X120364286Y-98376190D01*
X120383334Y-98338095D01*
X120421429Y-98300000D01*
X120478572Y-98280952D01*
X120516667Y-98280952D01*
X120573810Y-98300000D01*
X120592858Y-98319048D01*
X120973810Y-98680952D02*
X120745238Y-98680952D01*
X120859524Y-98680952D02*
X120859524Y-98280952D01*
X120821429Y-98338095D01*
X120783334Y-98376190D01*
X120745238Y-98395238D01*
X121164286Y-98680952D02*
X121240476Y-98680952D01*
X121278571Y-98661905D01*
X121297619Y-98642857D01*
X121335714Y-98585714D01*
X121354762Y-98509524D01*
X121354762Y-98357143D01*
X121335714Y-98319048D01*
X121316667Y-98300000D01*
X121278571Y-98280952D01*
X121202381Y-98280952D01*
X121164286Y-98300000D01*
X121145238Y-98319048D01*
X121126190Y-98357143D01*
X121126190Y-98452381D01*
X121145238Y-98490476D01*
X121164286Y-98509524D01*
X121202381Y-98528571D01*
X121278571Y-98528571D01*
X121316667Y-98509524D01*
X121335714Y-98490476D01*
X121354762Y-98452381D01*
D11*
X113726190Y-102169047D02*
X113226190Y-102169047D01*
X113226190Y-102050000D01*
X113250000Y-101978571D01*
X113297619Y-101930952D01*
X113345238Y-101907143D01*
X113440476Y-101883333D01*
X113511905Y-101883333D01*
X113607143Y-101907143D01*
X113654762Y-101930952D01*
X113702381Y-101978571D01*
X113726190Y-102050000D01*
X113726190Y-102169047D01*
X113392857Y-101454762D02*
X113726190Y-101454762D01*
X113202381Y-101573809D02*
X113559524Y-101692857D01*
X113559524Y-101383333D01*
X119026190Y-102369047D02*
X118526190Y-102369047D01*
X118526190Y-102250000D01*
X118550000Y-102178571D01*
X118597619Y-102130952D01*
X118645238Y-102107143D01*
X118740476Y-102083333D01*
X118811905Y-102083333D01*
X118907143Y-102107143D01*
X118954762Y-102130952D01*
X119002381Y-102178571D01*
X119026190Y-102250000D01*
X119026190Y-102369047D01*
X118526190Y-101630952D02*
X118526190Y-101869047D01*
X118764286Y-101892857D01*
X118740476Y-101869047D01*
X118716667Y-101821428D01*
X118716667Y-101702381D01*
X118740476Y-101654762D01*
X118764286Y-101630952D01*
X118811905Y-101607143D01*
X118930952Y-101607143D01*
X118978571Y-101630952D01*
X119002381Y-101654762D01*
X119026190Y-101702381D01*
X119026190Y-101821428D01*
X119002381Y-101869047D01*
X118978571Y-101892857D01*
D10*
X123911905Y-90069048D02*
X123873810Y-90050000D01*
X123835714Y-90011905D01*
X123778571Y-89954762D01*
X123740476Y-89935714D01*
X123702381Y-89935714D01*
X123721429Y-90030952D02*
X123683333Y-90011905D01*
X123645238Y-89973810D01*
X123626190Y-89897619D01*
X123626190Y-89764286D01*
X123645238Y-89688095D01*
X123683333Y-89650000D01*
X123721429Y-89630952D01*
X123797619Y-89630952D01*
X123835714Y-89650000D01*
X123873810Y-89688095D01*
X123892857Y-89764286D01*
X123892857Y-89897619D01*
X123873810Y-89973810D01*
X123835714Y-90011905D01*
X123797619Y-90030952D01*
X123721429Y-90030952D01*
X124026191Y-89630952D02*
X124273810Y-89630952D01*
X124140477Y-89783333D01*
X124197619Y-89783333D01*
X124235715Y-89802381D01*
X124254762Y-89821429D01*
X124273810Y-89859524D01*
X124273810Y-89954762D01*
X124254762Y-89992857D01*
X124235715Y-90011905D01*
X124197619Y-90030952D01*
X124083334Y-90030952D01*
X124045238Y-90011905D01*
X124026191Y-89992857D01*
D11*
X118402381Y-89823810D02*
X118354762Y-89800000D01*
X118307143Y-89752381D01*
X118235714Y-89680952D01*
X118188095Y-89657143D01*
X118140476Y-89657143D01*
X118164286Y-89776190D02*
X118116667Y-89752381D01*
X118069048Y-89704762D01*
X118045238Y-89609524D01*
X118045238Y-89442857D01*
X118069048Y-89347619D01*
X118116667Y-89300000D01*
X118164286Y-89276190D01*
X118259524Y-89276190D01*
X118307143Y-89300000D01*
X118354762Y-89347619D01*
X118378571Y-89442857D01*
X118378571Y-89609524D01*
X118354762Y-89704762D01*
X118307143Y-89752381D01*
X118259524Y-89776190D01*
X118164286Y-89776190D01*
X118807143Y-89442857D02*
X118807143Y-89776190D01*
X118688096Y-89252381D02*
X118569048Y-89609524D01*
X118878572Y-89609524D01*
X142773810Y-98097619D02*
X142750000Y-98145238D01*
X142702381Y-98192857D01*
X142630952Y-98264286D01*
X142607143Y-98311905D01*
X142607143Y-98359524D01*
X142726190Y-98335714D02*
X142702381Y-98383333D01*
X142654762Y-98430952D01*
X142559524Y-98454762D01*
X142392857Y-98454762D01*
X142297619Y-98430952D01*
X142250000Y-98383333D01*
X142226190Y-98335714D01*
X142226190Y-98240476D01*
X142250000Y-98192857D01*
X142297619Y-98145238D01*
X142392857Y-98121429D01*
X142559524Y-98121429D01*
X142654762Y-98145238D01*
X142702381Y-98192857D01*
X142726190Y-98240476D01*
X142726190Y-98335714D01*
X142226190Y-97669047D02*
X142226190Y-97907142D01*
X142464286Y-97930952D01*
X142440476Y-97907142D01*
X142416667Y-97859523D01*
X142416667Y-97740476D01*
X142440476Y-97692857D01*
X142464286Y-97669047D01*
X142511905Y-97645238D01*
X142630952Y-97645238D01*
X142678571Y-97669047D01*
X142702381Y-97692857D01*
X142726190Y-97740476D01*
X142726190Y-97859523D01*
X142702381Y-97907142D01*
X142678571Y-97930952D01*
D10*
X119542858Y-108630952D02*
X119409524Y-108440476D01*
X119314286Y-108630952D02*
X119314286Y-108230952D01*
X119466667Y-108230952D01*
X119504762Y-108250000D01*
X119523810Y-108269048D01*
X119542858Y-108307143D01*
X119542858Y-108364286D01*
X119523810Y-108402381D01*
X119504762Y-108421429D01*
X119466667Y-108440476D01*
X119314286Y-108440476D01*
X119695238Y-108269048D02*
X119714286Y-108250000D01*
X119752381Y-108230952D01*
X119847619Y-108230952D01*
X119885715Y-108250000D01*
X119904762Y-108269048D01*
X119923810Y-108307143D01*
X119923810Y-108345238D01*
X119904762Y-108402381D01*
X119676191Y-108630952D01*
X119923810Y-108630952D01*
X120057143Y-108230952D02*
X120304762Y-108230952D01*
X120171429Y-108383333D01*
X120228571Y-108383333D01*
X120266667Y-108402381D01*
X120285714Y-108421429D01*
X120304762Y-108459524D01*
X120304762Y-108554762D01*
X120285714Y-108592857D01*
X120266667Y-108611905D01*
X120228571Y-108630952D01*
X120114286Y-108630952D01*
X120076190Y-108611905D01*
X120057143Y-108592857D01*
X120680952Y-95107142D02*
X120490476Y-95240476D01*
X120680952Y-95335714D02*
X120280952Y-95335714D01*
X120280952Y-95183333D01*
X120300000Y-95145238D01*
X120319048Y-95126190D01*
X120357143Y-95107142D01*
X120414286Y-95107142D01*
X120452381Y-95126190D01*
X120471429Y-95145238D01*
X120490476Y-95183333D01*
X120490476Y-95335714D01*
X120319048Y-94954762D02*
X120300000Y-94935714D01*
X120280952Y-94897619D01*
X120280952Y-94802381D01*
X120300000Y-94764285D01*
X120319048Y-94745238D01*
X120357143Y-94726190D01*
X120395238Y-94726190D01*
X120452381Y-94745238D01*
X120680952Y-94973809D01*
X120680952Y-94726190D01*
X120414286Y-94383333D02*
X120680952Y-94383333D01*
X120261905Y-94478571D02*
X120547619Y-94573810D01*
X120547619Y-94326190D01*
X126880952Y-90257142D02*
X126690476Y-90390476D01*
X126880952Y-90485714D02*
X126480952Y-90485714D01*
X126480952Y-90333333D01*
X126500000Y-90295238D01*
X126519048Y-90276190D01*
X126557143Y-90257142D01*
X126614286Y-90257142D01*
X126652381Y-90276190D01*
X126671429Y-90295238D01*
X126690476Y-90333333D01*
X126690476Y-90485714D01*
X126519048Y-90104762D02*
X126500000Y-90085714D01*
X126480952Y-90047619D01*
X126480952Y-89952381D01*
X126500000Y-89914285D01*
X126519048Y-89895238D01*
X126557143Y-89876190D01*
X126595238Y-89876190D01*
X126652381Y-89895238D01*
X126880952Y-90123809D01*
X126880952Y-89876190D01*
X126480952Y-89514286D02*
X126480952Y-89704762D01*
X126671429Y-89723810D01*
X126652381Y-89704762D01*
X126633333Y-89666667D01*
X126633333Y-89571429D01*
X126652381Y-89533333D01*
X126671429Y-89514286D01*
X126709524Y-89495238D01*
X126804762Y-89495238D01*
X126842857Y-89514286D01*
X126861905Y-89533333D01*
X126880952Y-89571429D01*
X126880952Y-89666667D01*
X126861905Y-89704762D01*
X126842857Y-89723810D01*
D11*
X112728572Y-89926190D02*
X112561905Y-89688095D01*
X112442858Y-89926190D02*
X112442858Y-89426190D01*
X112633334Y-89426190D01*
X112680953Y-89450000D01*
X112704762Y-89473810D01*
X112728572Y-89521429D01*
X112728572Y-89592857D01*
X112704762Y-89640476D01*
X112680953Y-89664286D01*
X112633334Y-89688095D01*
X112442858Y-89688095D01*
X112919048Y-89473810D02*
X112942858Y-89450000D01*
X112990477Y-89426190D01*
X113109524Y-89426190D01*
X113157143Y-89450000D01*
X113180953Y-89473810D01*
X113204762Y-89521429D01*
X113204762Y-89569048D01*
X113180953Y-89640476D01*
X112895239Y-89926190D01*
X113204762Y-89926190D01*
X113633333Y-89426190D02*
X113538095Y-89426190D01*
X113490476Y-89450000D01*
X113466667Y-89473810D01*
X113419048Y-89545238D01*
X113395238Y-89640476D01*
X113395238Y-89830952D01*
X113419048Y-89878571D01*
X113442857Y-89902381D01*
X113490476Y-89926190D01*
X113585714Y-89926190D01*
X113633333Y-89902381D01*
X113657143Y-89878571D01*
X113680952Y-89830952D01*
X113680952Y-89711905D01*
X113657143Y-89664286D01*
X113633333Y-89640476D01*
X113585714Y-89616667D01*
X113490476Y-89616667D01*
X113442857Y-89640476D01*
X113419048Y-89664286D01*
X113395238Y-89711905D01*
X112926190Y-92421428D02*
X112688095Y-92588095D01*
X112926190Y-92707142D02*
X112426190Y-92707142D01*
X112426190Y-92516666D01*
X112450000Y-92469047D01*
X112473810Y-92445238D01*
X112521429Y-92421428D01*
X112592857Y-92421428D01*
X112640476Y-92445238D01*
X112664286Y-92469047D01*
X112688095Y-92516666D01*
X112688095Y-92707142D01*
X112473810Y-92230952D02*
X112450000Y-92207142D01*
X112426190Y-92159523D01*
X112426190Y-92040476D01*
X112450000Y-91992857D01*
X112473810Y-91969047D01*
X112521429Y-91945238D01*
X112569048Y-91945238D01*
X112640476Y-91969047D01*
X112926190Y-92254761D01*
X112926190Y-91945238D01*
X112426190Y-91778571D02*
X112426190Y-91445238D01*
X112926190Y-91659524D01*
X114828572Y-86276190D02*
X114661905Y-86038095D01*
X114542858Y-86276190D02*
X114542858Y-85776190D01*
X114733334Y-85776190D01*
X114780953Y-85800000D01*
X114804762Y-85823810D01*
X114828572Y-85871429D01*
X114828572Y-85942857D01*
X114804762Y-85990476D01*
X114780953Y-86014286D01*
X114733334Y-86038095D01*
X114542858Y-86038095D01*
X115019048Y-85823810D02*
X115042858Y-85800000D01*
X115090477Y-85776190D01*
X115209524Y-85776190D01*
X115257143Y-85800000D01*
X115280953Y-85823810D01*
X115304762Y-85871429D01*
X115304762Y-85919048D01*
X115280953Y-85990476D01*
X114995239Y-86276190D01*
X115304762Y-86276190D01*
X115590476Y-85990476D02*
X115542857Y-85966667D01*
X115519048Y-85942857D01*
X115495238Y-85895238D01*
X115495238Y-85871429D01*
X115519048Y-85823810D01*
X115542857Y-85800000D01*
X115590476Y-85776190D01*
X115685714Y-85776190D01*
X115733333Y-85800000D01*
X115757143Y-85823810D01*
X115780952Y-85871429D01*
X115780952Y-85895238D01*
X115757143Y-85942857D01*
X115733333Y-85966667D01*
X115685714Y-85990476D01*
X115590476Y-85990476D01*
X115542857Y-86014286D01*
X115519048Y-86038095D01*
X115495238Y-86085714D01*
X115495238Y-86180952D01*
X115519048Y-86228571D01*
X115542857Y-86252381D01*
X115590476Y-86276190D01*
X115685714Y-86276190D01*
X115733333Y-86252381D01*
X115757143Y-86228571D01*
X115780952Y-86180952D01*
X115780952Y-86085714D01*
X115757143Y-86038095D01*
X115733333Y-86014286D01*
X115685714Y-85990476D01*
X121326190Y-89571428D02*
X121088095Y-89738095D01*
X121326190Y-89857142D02*
X120826190Y-89857142D01*
X120826190Y-89666666D01*
X120850000Y-89619047D01*
X120873810Y-89595238D01*
X120921429Y-89571428D01*
X120992857Y-89571428D01*
X121040476Y-89595238D01*
X121064286Y-89619047D01*
X121088095Y-89666666D01*
X121088095Y-89857142D01*
X120873810Y-89380952D02*
X120850000Y-89357142D01*
X120826190Y-89309523D01*
X120826190Y-89190476D01*
X120850000Y-89142857D01*
X120873810Y-89119047D01*
X120921429Y-89095238D01*
X120969048Y-89095238D01*
X121040476Y-89119047D01*
X121326190Y-89404761D01*
X121326190Y-89095238D01*
X121326190Y-88857143D02*
X121326190Y-88761905D01*
X121302381Y-88714286D01*
X121278571Y-88690476D01*
X121207143Y-88642857D01*
X121111905Y-88619048D01*
X120921429Y-88619048D01*
X120873810Y-88642857D01*
X120850000Y-88666667D01*
X120826190Y-88714286D01*
X120826190Y-88809524D01*
X120850000Y-88857143D01*
X120873810Y-88880952D01*
X120921429Y-88904762D01*
X121040476Y-88904762D01*
X121088095Y-88880952D01*
X121111905Y-88857143D01*
X121135714Y-88809524D01*
X121135714Y-88714286D01*
X121111905Y-88666667D01*
X121088095Y-88642857D01*
X121040476Y-88619048D01*
X137228572Y-101076190D02*
X137061905Y-100838095D01*
X136942858Y-101076190D02*
X136942858Y-100576190D01*
X137133334Y-100576190D01*
X137180953Y-100600000D01*
X137204762Y-100623810D01*
X137228572Y-100671429D01*
X137228572Y-100742857D01*
X137204762Y-100790476D01*
X137180953Y-100814286D01*
X137133334Y-100838095D01*
X136942858Y-100838095D01*
X137395239Y-100576190D02*
X137704762Y-100576190D01*
X137538096Y-100766667D01*
X137609524Y-100766667D01*
X137657143Y-100790476D01*
X137680953Y-100814286D01*
X137704762Y-100861905D01*
X137704762Y-100980952D01*
X137680953Y-101028571D01*
X137657143Y-101052381D01*
X137609524Y-101076190D01*
X137466667Y-101076190D01*
X137419048Y-101052381D01*
X137395239Y-101028571D01*
X138014286Y-100576190D02*
X138061905Y-100576190D01*
X138109524Y-100600000D01*
X138133333Y-100623810D01*
X138157143Y-100671429D01*
X138180952Y-100766667D01*
X138180952Y-100885714D01*
X138157143Y-100980952D01*
X138133333Y-101028571D01*
X138109524Y-101052381D01*
X138061905Y-101076190D01*
X138014286Y-101076190D01*
X137966667Y-101052381D01*
X137942857Y-101028571D01*
X137919048Y-100980952D01*
X137895238Y-100885714D01*
X137895238Y-100766667D01*
X137919048Y-100671429D01*
X137942857Y-100623810D01*
X137966667Y-100600000D01*
X138014286Y-100576190D01*
X136626190Y-99071428D02*
X136388095Y-99238095D01*
X136626190Y-99357142D02*
X136126190Y-99357142D01*
X136126190Y-99166666D01*
X136150000Y-99119047D01*
X136173810Y-99095238D01*
X136221429Y-99071428D01*
X136292857Y-99071428D01*
X136340476Y-99095238D01*
X136364286Y-99119047D01*
X136388095Y-99166666D01*
X136388095Y-99357142D01*
X136126190Y-98904761D02*
X136126190Y-98595238D01*
X136316667Y-98761904D01*
X136316667Y-98690476D01*
X136340476Y-98642857D01*
X136364286Y-98619047D01*
X136411905Y-98595238D01*
X136530952Y-98595238D01*
X136578571Y-98619047D01*
X136602381Y-98642857D01*
X136626190Y-98690476D01*
X136626190Y-98833333D01*
X136602381Y-98880952D01*
X136578571Y-98904761D01*
X136626190Y-98119048D02*
X136626190Y-98404762D01*
X136626190Y-98261905D02*
X136126190Y-98261905D01*
X136197619Y-98309524D01*
X136245238Y-98357143D01*
X136269048Y-98404762D01*
D10*
X131995238Y-122630952D02*
X131995238Y-122954762D01*
X132014286Y-122992857D01*
X132033333Y-123011905D01*
X132071429Y-123030952D01*
X132147619Y-123030952D01*
X132185714Y-123011905D01*
X132204762Y-122992857D01*
X132223810Y-122954762D01*
X132223810Y-122630952D01*
X132471429Y-122802381D02*
X132433334Y-122783333D01*
X132414286Y-122764286D01*
X132395238Y-122726190D01*
X132395238Y-122707143D01*
X132414286Y-122669048D01*
X132433334Y-122650000D01*
X132471429Y-122630952D01*
X132547619Y-122630952D01*
X132585715Y-122650000D01*
X132604762Y-122669048D01*
X132623810Y-122707143D01*
X132623810Y-122726190D01*
X132604762Y-122764286D01*
X132585715Y-122783333D01*
X132547619Y-122802381D01*
X132471429Y-122802381D01*
X132433334Y-122821429D01*
X132414286Y-122840476D01*
X132395238Y-122878571D01*
X132395238Y-122954762D01*
X132414286Y-122992857D01*
X132433334Y-123011905D01*
X132471429Y-123030952D01*
X132547619Y-123030952D01*
X132585715Y-123011905D01*
X132604762Y-122992857D01*
X132623810Y-122954762D01*
X132623810Y-122878571D01*
X132604762Y-122840476D01*
X132585715Y-122821429D01*
X132547619Y-122802381D01*
X121330952Y-102754762D02*
X121654762Y-102754762D01*
X121692857Y-102735714D01*
X121711905Y-102716667D01*
X121730952Y-102678571D01*
X121730952Y-102602381D01*
X121711905Y-102564286D01*
X121692857Y-102545238D01*
X121654762Y-102526190D01*
X121330952Y-102526190D01*
X121730952Y-102316666D02*
X121730952Y-102240476D01*
X121711905Y-102202381D01*
X121692857Y-102183333D01*
X121635714Y-102145238D01*
X121559524Y-102126190D01*
X121407143Y-102126190D01*
X121369048Y-102145238D01*
X121350000Y-102164285D01*
X121330952Y-102202381D01*
X121330952Y-102278571D01*
X121350000Y-102316666D01*
X121369048Y-102335714D01*
X121407143Y-102354762D01*
X121502381Y-102354762D01*
X121540476Y-102335714D01*
X121559524Y-102316666D01*
X121578571Y-102278571D01*
X121578571Y-102202381D01*
X121559524Y-102164285D01*
X121540476Y-102145238D01*
X121502381Y-102126190D01*
X130180952Y-116245238D02*
X130504762Y-116245238D01*
X130542857Y-116226190D01*
X130561905Y-116207143D01*
X130580952Y-116169047D01*
X130580952Y-116092857D01*
X130561905Y-116054762D01*
X130542857Y-116035714D01*
X130504762Y-116016666D01*
X130180952Y-116016666D01*
X130580952Y-115616666D02*
X130580952Y-115845238D01*
X130580952Y-115730952D02*
X130180952Y-115730952D01*
X130238095Y-115769047D01*
X130276190Y-115807142D01*
X130295238Y-115845238D01*
X130180952Y-115369047D02*
X130180952Y-115330952D01*
X130200000Y-115292857D01*
X130219048Y-115273809D01*
X130257143Y-115254762D01*
X130333333Y-115235714D01*
X130428571Y-115235714D01*
X130504762Y-115254762D01*
X130542857Y-115273809D01*
X130561905Y-115292857D01*
X130580952Y-115330952D01*
X130580952Y-115369047D01*
X130561905Y-115407143D01*
X130542857Y-115426190D01*
X130504762Y-115445238D01*
X130428571Y-115464286D01*
X130333333Y-115464286D01*
X130257143Y-115445238D01*
X130219048Y-115426190D01*
X130200000Y-115407143D01*
X130180952Y-115369047D01*
X130180952Y-104845238D02*
X130504762Y-104845238D01*
X130542857Y-104826190D01*
X130561905Y-104807143D01*
X130580952Y-104769047D01*
X130580952Y-104692857D01*
X130561905Y-104654762D01*
X130542857Y-104635714D01*
X130504762Y-104616666D01*
X130180952Y-104616666D01*
X130580952Y-104216666D02*
X130580952Y-104445238D01*
X130580952Y-104330952D02*
X130180952Y-104330952D01*
X130238095Y-104369047D01*
X130276190Y-104407142D01*
X130295238Y-104445238D01*
X130580952Y-103835714D02*
X130580952Y-104064286D01*
X130580952Y-103950000D02*
X130180952Y-103950000D01*
X130238095Y-103988095D01*
X130276190Y-104026190D01*
X130295238Y-104064286D01*
D11*
X119376190Y-93119047D02*
X119780952Y-93119047D01*
X119828571Y-93095238D01*
X119852381Y-93071428D01*
X119876190Y-93023809D01*
X119876190Y-92928571D01*
X119852381Y-92880952D01*
X119828571Y-92857143D01*
X119780952Y-92833333D01*
X119376190Y-92833333D01*
X119876190Y-92333333D02*
X119876190Y-92619047D01*
X119876190Y-92476190D02*
X119376190Y-92476190D01*
X119447619Y-92523809D01*
X119495238Y-92571428D01*
X119519048Y-92619047D01*
X119423810Y-92142857D02*
X119400000Y-92119047D01*
X119376190Y-92071428D01*
X119376190Y-91952381D01*
X119400000Y-91904762D01*
X119423810Y-91880952D01*
X119471429Y-91857143D01*
X119519048Y-91857143D01*
X119590476Y-91880952D01*
X119876190Y-92166666D01*
X119876190Y-91857143D01*
D19*
X142453784Y-108763707D02*
X142429956Y-108787535D01*
X142358473Y-108811362D01*
X142310818Y-108811362D01*
X142239335Y-108787535D01*
X142191680Y-108739880D01*
X142167852Y-108692224D01*
X142144024Y-108596914D01*
X142144024Y-108525431D01*
X142167852Y-108430120D01*
X142191680Y-108382465D01*
X142239335Y-108334810D01*
X142310818Y-108310982D01*
X142358473Y-108310982D01*
X142429956Y-108334810D01*
X142453784Y-108358638D01*
X142644404Y-108358638D02*
X142668232Y-108334810D01*
X142715887Y-108310982D01*
X142835025Y-108310982D01*
X142882681Y-108334810D01*
X142906508Y-108358638D01*
X142930336Y-108406293D01*
X142930336Y-108453948D01*
X142906508Y-108525431D01*
X142620577Y-108811362D01*
X142930336Y-108811362D01*
X164465424Y-121209707D02*
X164441596Y-121233535D01*
X164370113Y-121257362D01*
X164322458Y-121257362D01*
X164250975Y-121233535D01*
X164203320Y-121185880D01*
X164179492Y-121138224D01*
X164155664Y-121042914D01*
X164155664Y-120971431D01*
X164179492Y-120876120D01*
X164203320Y-120828465D01*
X164250975Y-120780810D01*
X164322458Y-120756982D01*
X164370113Y-120756982D01*
X164441596Y-120780810D01*
X164465424Y-120804638D01*
X164894321Y-120756982D02*
X164799010Y-120756982D01*
X164751355Y-120780810D01*
X164727527Y-120804638D01*
X164679872Y-120876120D01*
X164656044Y-120971431D01*
X164656044Y-121162052D01*
X164679872Y-121209707D01*
X164703700Y-121233535D01*
X164751355Y-121257362D01*
X164846665Y-121257362D01*
X164894321Y-121233535D01*
X164918148Y-121209707D01*
X164941976Y-121162052D01*
X164941976Y-121042914D01*
X164918148Y-120995259D01*
X164894321Y-120971431D01*
X164846665Y-120947603D01*
X164751355Y-120947603D01*
X164703700Y-120971431D01*
X164679872Y-120995259D01*
X164656044Y-121042914D01*
X155078672Y-122441002D02*
X155078672Y-121940622D01*
X155197810Y-121940622D01*
X155269293Y-121964450D01*
X155316948Y-122012105D01*
X155340776Y-122059760D01*
X155364604Y-122155071D01*
X155364604Y-122226554D01*
X155340776Y-122321864D01*
X155316948Y-122369520D01*
X155269293Y-122417175D01*
X155197810Y-122441002D01*
X155078672Y-122441002D01*
X155793501Y-121940622D02*
X155698190Y-121940622D01*
X155650535Y-121964450D01*
X155626707Y-121988278D01*
X155579052Y-122059760D01*
X155555224Y-122155071D01*
X155555224Y-122345692D01*
X155579052Y-122393347D01*
X155602880Y-122417175D01*
X155650535Y-122441002D01*
X155745845Y-122441002D01*
X155793501Y-122417175D01*
X155817328Y-122393347D01*
X155841156Y-122345692D01*
X155841156Y-122226554D01*
X155817328Y-122178899D01*
X155793501Y-122155071D01*
X155745845Y-122131243D01*
X155650535Y-122131243D01*
X155602880Y-122155071D01*
X155579052Y-122178899D01*
X155555224Y-122226554D01*
D18*
X154940000Y-113300329D02*
X154214286Y-113300329D01*
X154214286Y-111776329D01*
X156101143Y-112284329D02*
X156101143Y-113300329D01*
X155738286Y-111703757D02*
X155375429Y-112792329D01*
X156318857Y-112792329D01*
X153270857Y-123282529D02*
X153270857Y-124298529D01*
X152908000Y-122701957D02*
X152545143Y-123790529D01*
X153488571Y-123790529D01*
X153924000Y-122774529D02*
X154940000Y-122774529D01*
X154286857Y-124298529D01*
X156173715Y-123282529D02*
X156173715Y-124298529D01*
X155520572Y-123282529D02*
X155520572Y-124080814D01*
X155593144Y-124225957D01*
X155738286Y-124298529D01*
X155956001Y-124298529D01*
X156101144Y-124225957D01*
X156173715Y-124153386D01*
X156899429Y-124298529D02*
X156899429Y-122774529D01*
X156899429Y-123500243D02*
X157770286Y-123500243D01*
X157770286Y-124298529D02*
X157770286Y-122774529D01*
D15*
X160798095Y-100388381D02*
X160798095Y-101197905D01*
X160845714Y-101293143D01*
X160893333Y-101340762D01*
X160988571Y-101388381D01*
X161179048Y-101388381D01*
X161274286Y-101340762D01*
X161321905Y-101293143D01*
X161369524Y-101197905D01*
X161369524Y-100388381D01*
X162274286Y-100721714D02*
X162274286Y-101388381D01*
X162036190Y-100340762D02*
X161798095Y-101055048D01*
X162417143Y-101055048D01*
D11*
X142866190Y-106316666D02*
X143223333Y-106316666D01*
X143294762Y-106340476D01*
X143342381Y-106388095D01*
X143366190Y-106459523D01*
X143366190Y-106507142D01*
X142913810Y-106102381D02*
X142890000Y-106078571D01*
X142866190Y-106030952D01*
X142866190Y-105911905D01*
X142890000Y-105864286D01*
X142913810Y-105840476D01*
X142961429Y-105816667D01*
X143009048Y-105816667D01*
X143080476Y-105840476D01*
X143366190Y-106126190D01*
X143366190Y-105816667D01*
X122433334Y-112326190D02*
X122433334Y-112683333D01*
X122409524Y-112754762D01*
X122361905Y-112802381D01*
X122290477Y-112826190D01*
X122242858Y-112826190D01*
X122885714Y-112492857D02*
X122885714Y-112826190D01*
X122766667Y-112302381D02*
X122647619Y-112659524D01*
X122957143Y-112659524D01*
X126783334Y-112326190D02*
X126783334Y-112683333D01*
X126759524Y-112754762D01*
X126711905Y-112802381D01*
X126640477Y-112826190D01*
X126592858Y-112826190D01*
X127259524Y-112326190D02*
X127021429Y-112326190D01*
X126997619Y-112564286D01*
X127021429Y-112540476D01*
X127069048Y-112516667D01*
X127188095Y-112516667D01*
X127235714Y-112540476D01*
X127259524Y-112564286D01*
X127283333Y-112611905D01*
X127283333Y-112730952D01*
X127259524Y-112778571D01*
X127235714Y-112802381D01*
X127188095Y-112826190D01*
X127069048Y-112826190D01*
X127021429Y-112802381D01*
X126997619Y-112778571D01*
D15*
X158860381Y-98123333D02*
X159574667Y-98123333D01*
X159717524Y-98170953D01*
X159812762Y-98266191D01*
X159860381Y-98409048D01*
X159860381Y-98504286D01*
X158860381Y-97218571D02*
X158860381Y-97409048D01*
X158908000Y-97504286D01*
X158955619Y-97551905D01*
X159098476Y-97647143D01*
X159288952Y-97694762D01*
X159669905Y-97694762D01*
X159765143Y-97647143D01*
X159812762Y-97599524D01*
X159860381Y-97504286D01*
X159860381Y-97313809D01*
X159812762Y-97218571D01*
X159765143Y-97170952D01*
X159669905Y-97123333D01*
X159431810Y-97123333D01*
X159336571Y-97170952D01*
X159288952Y-97218571D01*
X159241333Y-97313809D01*
X159241333Y-97504286D01*
X159288952Y-97599524D01*
X159336571Y-97647143D01*
X159431810Y-97694762D01*
D11*
X155097899Y-98356633D02*
X155121709Y-98380443D01*
X155145518Y-98451871D01*
X155145518Y-98499490D01*
X155121709Y-98570919D01*
X155074090Y-98618538D01*
X155026471Y-98642347D01*
X154931233Y-98666157D01*
X154859804Y-98666157D01*
X154764566Y-98642347D01*
X154716947Y-98618538D01*
X154669328Y-98570919D01*
X154645518Y-98499490D01*
X154645518Y-98451871D01*
X154669328Y-98380443D01*
X154693138Y-98356633D01*
X154645518Y-98189966D02*
X154645518Y-97880443D01*
X154835995Y-98047109D01*
X154835995Y-97975681D01*
X154859804Y-97928062D01*
X154883614Y-97904252D01*
X154931233Y-97880443D01*
X155050280Y-97880443D01*
X155097899Y-97904252D01*
X155121709Y-97928062D01*
X155145518Y-97975681D01*
X155145518Y-98118538D01*
X155121709Y-98166157D01*
X155097899Y-98189966D01*
X149497899Y-98356633D02*
X149521709Y-98380443D01*
X149545518Y-98451871D01*
X149545518Y-98499490D01*
X149521709Y-98570919D01*
X149474090Y-98618538D01*
X149426471Y-98642347D01*
X149331233Y-98666157D01*
X149259804Y-98666157D01*
X149164566Y-98642347D01*
X149116947Y-98618538D01*
X149069328Y-98570919D01*
X149045518Y-98499490D01*
X149045518Y-98451871D01*
X149069328Y-98380443D01*
X149093138Y-98356633D01*
X149045518Y-98189966D02*
X149045518Y-97856633D01*
X149545518Y-98070919D01*
D15*
X156004381Y-87352095D02*
X155004381Y-87352095D01*
X155004381Y-86971142D01*
X155052000Y-86875904D01*
X155099619Y-86828285D01*
X155194857Y-86780666D01*
X155337714Y-86780666D01*
X155432952Y-86828285D01*
X155480571Y-86875904D01*
X155528190Y-86971142D01*
X155528190Y-87352095D01*
X156004381Y-85828285D02*
X156004381Y-86399714D01*
X156004381Y-86114000D02*
X155004381Y-86114000D01*
X155147238Y-86209238D01*
X155242476Y-86304476D01*
X155290095Y-86399714D01*
D20*
X136650096Y-71549619D02*
X136650096Y-70533619D01*
X137037143Y-70533619D01*
X137133905Y-70582000D01*
X137182286Y-70630381D01*
X137230667Y-70727143D01*
X137230667Y-70872286D01*
X137182286Y-70969048D01*
X137133905Y-71017429D01*
X137037143Y-71065810D01*
X136650096Y-71065810D01*
X137569334Y-70533619D02*
X138198286Y-70533619D01*
X137859620Y-70920667D01*
X138004762Y-70920667D01*
X138101524Y-70969048D01*
X138149905Y-71017429D01*
X138198286Y-71114190D01*
X138198286Y-71356095D01*
X138149905Y-71452857D01*
X138101524Y-71501238D01*
X138004762Y-71549619D01*
X137714477Y-71549619D01*
X137617715Y-71501238D01*
X137569334Y-71452857D01*
M02*
