G04 #@! TF.FileFunction,Soldermask,Bot*
%FSLAX46Y46*%
G04 Gerber Fmt 4.6, Leading zero omitted, Abs format (unit mm)*
G04 Created by KiCad (PCBNEW 4.0.7-e1-6374~58~ubuntu16.04.1) date Tue Aug 22 17:37:57 2017*
%MOMM*%
%LPD*%
G01*
G04 APERTURE LIST*
%ADD10C,0.100000*%
%ADD11R,1.700000X1.700000*%
%ADD12O,1.700000X1.700000*%
%ADD13R,1.524000X1.998980*%
%ADD14O,1.524000X1.998980*%
%ADD15C,3.810000*%
%ADD16R,1.520000X1.520000*%
%ADD17C,1.520000*%
G04 APERTURE END LIST*
D10*
D11*
X155723850Y-81375708D03*
D12*
X155723850Y-83915708D03*
D11*
X154910000Y-98710000D03*
D12*
X154910000Y-101250000D03*
D13*
X113270000Y-76418920D03*
D14*
X113270000Y-73381080D03*
X115810000Y-76418920D03*
X115810000Y-73381080D03*
X118350000Y-76418920D03*
X118350000Y-73381080D03*
X120890000Y-76418920D03*
X120890000Y-73381080D03*
X123430000Y-76418920D03*
X123430000Y-73381080D03*
X125970000Y-76418920D03*
X125970000Y-73381080D03*
X128510000Y-76418920D03*
X128510000Y-73381080D03*
X131050000Y-76418920D03*
X131050000Y-73381080D03*
X133590000Y-76418920D03*
X133590000Y-73381080D03*
X136130000Y-76418920D03*
X136130000Y-73381080D03*
X138670000Y-76418920D03*
X138670000Y-73381080D03*
X141210000Y-76418920D03*
X141210000Y-73381080D03*
X143750000Y-76418920D03*
X143750000Y-73381080D03*
X146290000Y-76418920D03*
X146290000Y-73381080D03*
X148830000Y-76418920D03*
X148830000Y-73381080D03*
X151370000Y-76418920D03*
X151370000Y-73381080D03*
X153910000Y-76418920D03*
X153910000Y-73381080D03*
X156450000Y-76418920D03*
X156450000Y-73381080D03*
X158990000Y-76418920D03*
X158990000Y-73381080D03*
X161530000Y-76418920D03*
X161530000Y-73381080D03*
D11*
X108800000Y-83365000D03*
D12*
X108800000Y-80825000D03*
D11*
X161222294Y-93018216D03*
D12*
X161222294Y-95558216D03*
X161222294Y-98098216D03*
X161222294Y-100638216D03*
D15*
X112670000Y-124570000D03*
X146200000Y-124820000D03*
D16*
X139090000Y-122280000D03*
D17*
X136300000Y-122280000D03*
X133630000Y-122280000D03*
X130840000Y-122280000D03*
X128040000Y-122280000D03*
X125250000Y-122280000D03*
X122580000Y-122280000D03*
X119790000Y-122280000D03*
X137520000Y-124820000D03*
X134980000Y-124820000D03*
X132180000Y-124820000D03*
X129440000Y-124820000D03*
X126690000Y-124820000D03*
X123900000Y-124820000D03*
X121160000Y-124820000D03*
M02*
