M48
;DRILL file {KiCad 4.0.7-e1-6374~58~ubuntu16.04.1} date Tue Aug 22 17:37:22 2017
;FORMAT={-:-/ absolute / metric / decimal}
FMAT,2
METRIC,TZ
T1C0.220
T2C0.635
T3C1.000
T4C1.001
T5C1.020
T6C3.000
T7C3.050
%
G90
G05
M71
T1
X121.41Y-82.91
X123.31Y-82.91
X124.92Y-91.92
X125.35Y-92.35
X125.97Y-78.13
X127.26Y-78.13
X127.76Y-81.419
X128.41Y-79.919
X132.83Y-110.64
X133.48Y-110.1
X135.1Y-99.51
X135.15Y-95.91
X135.15Y-96.84
X135.36Y-104.54
X136.03Y-104.54
X136.19Y-96.82
X136.73Y-104.53
X137.06Y-98.4
X138.81Y-108.39
X138.81Y-109.99
X146.73Y-103.1
X147.533Y-94.36
X148.84Y-94.36
X149.12Y-91.74
X149.68Y-105.68
X149.68Y-106.33
X149.69Y-91.74
X150.27Y-91.74
X158.92Y-93.01
T2
X121.745Y-98.395
X131.21Y-88.93
X141.08Y-109.1
X142.95Y-91.52
X142.95Y-99.28
X155.36Y-114.16
T3
X108.8Y-80.825
X108.8Y-83.365
X154.91Y-98.71
X154.91Y-101.25
X155.724Y-81.376
X155.724Y-83.916
X161.222Y-93.018
X161.222Y-95.558
X161.222Y-98.098
X161.222Y-100.638
T4
X113.27Y-73.63
X113.27Y-76.17
X115.81Y-73.63
X115.81Y-76.17
X118.35Y-73.63
X118.35Y-76.17
X120.89Y-73.63
X120.89Y-76.17
X123.43Y-73.63
X123.43Y-76.17
X125.97Y-73.63
X125.97Y-76.17
X128.51Y-73.63
X128.51Y-76.17
X131.05Y-73.63
X131.05Y-76.17
X133.59Y-73.63
X133.59Y-76.17
X136.13Y-73.63
X136.13Y-76.17
X138.67Y-73.63
X138.67Y-76.17
X141.21Y-73.63
X141.21Y-76.17
X143.75Y-73.63
X143.75Y-76.17
X146.29Y-73.63
X146.29Y-76.17
X148.83Y-73.63
X148.83Y-76.17
X151.37Y-73.63
X151.37Y-76.17
X153.91Y-73.63
X153.91Y-76.17
X156.45Y-73.63
X156.45Y-76.17
X158.99Y-73.63
X158.99Y-76.17
X161.53Y-73.63
X161.53Y-76.17
T5
X119.79Y-122.28
X121.16Y-124.82
X122.58Y-122.28
X123.9Y-124.82
X125.25Y-122.28
X126.69Y-124.82
X128.04Y-122.28
X129.44Y-124.82
X130.84Y-122.28
X132.18Y-124.82
X133.63Y-122.28
X134.98Y-124.82
X136.3Y-122.28
X137.52Y-124.82
X139.09Y-122.28
T6
X108.42Y-74.82
X108.42Y-123.82
X166.42Y-74.82
X166.42Y-123.82
T7
X112.67Y-124.57
X146.2Y-124.82
T0
M30
