G04 #@! TF.FileFunction,Copper,L2,Bot,Signal*
%FSLAX46Y46*%
G04 Gerber Fmt 4.6, Leading zero omitted, Abs format (unit mm)*
G04 Created by KiCad (PCBNEW 4.0.7-e1-6374~58~ubuntu16.04.1) date Thu Aug  3 01:25:43 2017*
%MOMM*%
%LPD*%
G01*
G04 APERTURE LIST*
%ADD10C,0.100000*%
%ADD11C,3.560000*%
%ADD12C,2.540000*%
%ADD13C,2.160000*%
%ADD14C,2.500000*%
%ADD15O,1.998980X1.998980*%
%ADD16R,1.998980X1.998980*%
%ADD17R,1.700000X1.700000*%
%ADD18O,1.700000X1.700000*%
%ADD19R,1.524000X1.998980*%
%ADD20O,1.524000X1.998980*%
%ADD21C,0.400000*%
%ADD22C,0.889000*%
%ADD23C,0.400000*%
%ADD24C,0.200000*%
%ADD25C,0.600000*%
%ADD26C,0.050000*%
G04 APERTURE END LIST*
D10*
D11*
X152014000Y-90170000D03*
D12*
X161544000Y-90170000D03*
D13*
X161544000Y-85090000D03*
X165984000Y-92710000D03*
X157094000Y-92710000D03*
D14*
X139994000Y-121666000D03*
X144994000Y-121666000D03*
D15*
X115800000Y-114860000D03*
D16*
X115800000Y-107240000D03*
D15*
X115800000Y-109780000D03*
X115800000Y-112320000D03*
X115800000Y-117400000D03*
X115800000Y-119940000D03*
X115800000Y-122480000D03*
X115800000Y-125020000D03*
D17*
X143140000Y-103900000D03*
D18*
X140600000Y-103900000D03*
X138060000Y-103900000D03*
D17*
X122650000Y-114570000D03*
D18*
X122650000Y-117110000D03*
X122650000Y-119650000D03*
D17*
X126950000Y-114570000D03*
D18*
X126950000Y-117110000D03*
X126950000Y-119650000D03*
D17*
X161798000Y-97790000D03*
D18*
X164338000Y-97790000D03*
D17*
X153162000Y-86614000D03*
D18*
X150622000Y-86614000D03*
D19*
X113270000Y-76418920D03*
D20*
X113270000Y-73381080D03*
X115810000Y-76418920D03*
X115810000Y-73381080D03*
X118350000Y-76418920D03*
X118350000Y-73381080D03*
X120890000Y-76418920D03*
X120890000Y-73381080D03*
X123430000Y-76418920D03*
X123430000Y-73381080D03*
X125970000Y-76418920D03*
X125970000Y-73381080D03*
X128510000Y-76418920D03*
X128510000Y-73381080D03*
X131050000Y-76418920D03*
X131050000Y-73381080D03*
X133590000Y-76418920D03*
X133590000Y-73381080D03*
X136130000Y-76418920D03*
X136130000Y-73381080D03*
X138670000Y-76418920D03*
X138670000Y-73381080D03*
X141210000Y-76418920D03*
X141210000Y-73381080D03*
X143750000Y-76418920D03*
X143750000Y-73381080D03*
X146290000Y-76418920D03*
X146290000Y-73381080D03*
X148830000Y-76418920D03*
X148830000Y-73381080D03*
X151370000Y-76418920D03*
X151370000Y-73381080D03*
X153910000Y-76418920D03*
X153910000Y-73381080D03*
X156450000Y-76418920D03*
X156450000Y-73381080D03*
X158990000Y-76418920D03*
X158990000Y-73381080D03*
X161530000Y-76418920D03*
X161530000Y-73381080D03*
D21*
X129032000Y-105664000D03*
X129032000Y-104902000D03*
X129032000Y-104140000D03*
X112255500Y-88138000D03*
X118872000Y-98044000D03*
X118110000Y-98044000D03*
X117348000Y-98044000D03*
D22*
X151638000Y-81788000D03*
X145288000Y-78486000D03*
X157988000Y-79248000D03*
X134112000Y-86106000D03*
X123994502Y-91914702D03*
X125476000Y-87630000D03*
X139300000Y-95504000D03*
X128778000Y-96012000D03*
X143002000Y-82042000D03*
X146304000Y-80264000D03*
X159512000Y-83566000D03*
X154178000Y-80936000D03*
X126300000Y-94000000D03*
X108200000Y-82050000D03*
X123900000Y-90394500D03*
X109150000Y-82700000D03*
D21*
X122475000Y-107250000D03*
X123125000Y-109250000D03*
X123775000Y-110900000D03*
D22*
X158242000Y-101092000D03*
X111252000Y-83312000D03*
X160274000Y-114808000D03*
D23*
X157988000Y-79248000D02*
X157226000Y-78486000D01*
X157226000Y-78486000D02*
X145288000Y-78486000D01*
X152014000Y-90170000D02*
X138176000Y-90170000D01*
X138176000Y-90170000D02*
X136906000Y-88900000D01*
X136906000Y-88900000D02*
X134112000Y-86106000D01*
X125476000Y-87630000D02*
X125476000Y-90433204D01*
X125476000Y-90433204D02*
X123994502Y-91914702D01*
X128778000Y-96012000D02*
X129286000Y-95504000D01*
X129286000Y-95504000D02*
X139300000Y-95504000D01*
X146304000Y-80264000D02*
X144780000Y-80264000D01*
X144780000Y-80264000D02*
X143002000Y-82042000D01*
X154178000Y-80936000D02*
X156882000Y-80936000D01*
X156882000Y-80936000D02*
X159512000Y-83566000D01*
X119450010Y-77650000D02*
X119450010Y-75714361D01*
X126300000Y-94000000D02*
X126300000Y-84499990D01*
X126300000Y-84499990D02*
X119450010Y-77650000D01*
X119450010Y-75714361D02*
X118805639Y-75069990D01*
X118805639Y-75069990D02*
X116910010Y-75069990D01*
X116910010Y-75069990D02*
X115810000Y-76170000D01*
D24*
X108200000Y-82050000D02*
X108644499Y-81605501D01*
X108644499Y-81605501D02*
X110374499Y-81605501D01*
X110374499Y-81605501D02*
X115810000Y-76170000D01*
D23*
X123900000Y-90394500D02*
X123900000Y-85292000D01*
X123900000Y-85292000D02*
X118350000Y-79742000D01*
X118350000Y-76170000D02*
X118350000Y-79742000D01*
D24*
X114800000Y-78100000D02*
X116420000Y-78100000D01*
X116420000Y-78100000D02*
X118350000Y-76170000D01*
X110644499Y-82255501D02*
X114800000Y-78100000D01*
X109594499Y-82255501D02*
X110644499Y-82255501D01*
X109150000Y-82700000D02*
X109594499Y-82255501D01*
D23*
X115800000Y-107240000D02*
X122465000Y-107240000D01*
X122465000Y-107240000D02*
X122475000Y-107250000D01*
X116700000Y-109250000D02*
X116330000Y-109250000D01*
X116330000Y-109250000D02*
X115800000Y-109780000D01*
X123125000Y-109250000D02*
X116700000Y-109250000D01*
X116700000Y-109250000D02*
X116340000Y-109250000D01*
X115800000Y-112320000D02*
X116799489Y-111320511D01*
X116799489Y-111320511D02*
X116809489Y-111320511D01*
X116809489Y-111320511D02*
X117230000Y-110900000D01*
X123775000Y-110900000D02*
X117230000Y-110900000D01*
D25*
X160274000Y-105664000D02*
X133604000Y-105664000D01*
X114300000Y-86360000D02*
X133604000Y-105664000D01*
X160274000Y-105664000D02*
X160274000Y-103124000D01*
X160274000Y-114808000D02*
X160274000Y-105664000D01*
X160274000Y-103124000D02*
X158242000Y-101092000D01*
X111252000Y-83312000D02*
X114300000Y-86360000D01*
D26*
G36*
X162542929Y-71719670D02*
X162859083Y-71930917D01*
X163070330Y-72247071D01*
X163145000Y-72622464D01*
X163145000Y-77620000D01*
X163145480Y-77624877D01*
X163221600Y-78007560D01*
X163225333Y-78016572D01*
X163442106Y-78340996D01*
X163449004Y-78347894D01*
X163773428Y-78564667D01*
X163782440Y-78568400D01*
X164165123Y-78644520D01*
X164170000Y-78645000D01*
X168667536Y-78645000D01*
X169042929Y-78719670D01*
X169359083Y-78930917D01*
X169570330Y-79247071D01*
X169595000Y-79371096D01*
X169595000Y-119368904D01*
X169570330Y-119492929D01*
X169359083Y-119809083D01*
X169042929Y-120020330D01*
X168667536Y-120095000D01*
X163670000Y-120095000D01*
X163665123Y-120095480D01*
X163282440Y-120171600D01*
X163273428Y-120175333D01*
X162949004Y-120392106D01*
X162942106Y-120399004D01*
X162725333Y-120723428D01*
X162721600Y-120732440D01*
X162645480Y-121115123D01*
X162645000Y-121120000D01*
X162645000Y-126117536D01*
X162570330Y-126492929D01*
X162359083Y-126809083D01*
X162042929Y-127020330D01*
X161667536Y-127095000D01*
X113172464Y-127095000D01*
X112797071Y-127020330D01*
X112480917Y-126809083D01*
X112269670Y-126492929D01*
X112195000Y-126117536D01*
X112195000Y-121120000D01*
X112194520Y-121115123D01*
X112118400Y-120732440D01*
X112114667Y-120723428D01*
X111897894Y-120399004D01*
X111890996Y-120392106D01*
X111566572Y-120175333D01*
X111557560Y-120171600D01*
X111174877Y-120095480D01*
X111170000Y-120095000D01*
X106672464Y-120095000D01*
X106297071Y-120020330D01*
X105980917Y-119809083D01*
X105769670Y-119492929D01*
X105695000Y-119117536D01*
X105695000Y-109622464D01*
X105769670Y-109247071D01*
X105980917Y-108930917D01*
X106297071Y-108719670D01*
X106672464Y-108645000D01*
X109670000Y-108645000D01*
X109674877Y-108644520D01*
X110057560Y-108568400D01*
X110066572Y-108564667D01*
X110390996Y-108347894D01*
X110397894Y-108340996D01*
X110614667Y-108016572D01*
X110618400Y-108007560D01*
X110694520Y-107624877D01*
X110695000Y-107620000D01*
X110695000Y-106240510D01*
X114520123Y-106240510D01*
X114520123Y-108239490D01*
X114539298Y-108341399D01*
X114599526Y-108434996D01*
X114691424Y-108497786D01*
X114800510Y-108519877D01*
X115602245Y-108519877D01*
X115312274Y-108577556D01*
X114898799Y-108853830D01*
X114622525Y-109267305D01*
X114525510Y-109755031D01*
X114525510Y-109804969D01*
X114622525Y-110292695D01*
X114898799Y-110706170D01*
X115312274Y-110982444D01*
X115651900Y-111050000D01*
X115312274Y-111117556D01*
X114898799Y-111393830D01*
X114622525Y-111807305D01*
X114525510Y-112295031D01*
X114525510Y-112344969D01*
X114622525Y-112832695D01*
X114898799Y-113246170D01*
X115312274Y-113522444D01*
X115651900Y-113590000D01*
X115312274Y-113657556D01*
X114898799Y-113933830D01*
X114622525Y-114347305D01*
X114525510Y-114835031D01*
X114525510Y-114884969D01*
X114622525Y-115372695D01*
X114898799Y-115786170D01*
X115312274Y-116062444D01*
X115651900Y-116130000D01*
X115312274Y-116197556D01*
X114898799Y-116473830D01*
X114622525Y-116887305D01*
X114525510Y-117375031D01*
X114525510Y-117424969D01*
X114622525Y-117912695D01*
X114898799Y-118326170D01*
X115312274Y-118602444D01*
X115651900Y-118670000D01*
X115312274Y-118737556D01*
X114898799Y-119013830D01*
X114622525Y-119427305D01*
X114525510Y-119915031D01*
X114525510Y-119964969D01*
X114622525Y-120452695D01*
X114898799Y-120866170D01*
X115312274Y-121142444D01*
X115651900Y-121210000D01*
X115312274Y-121277556D01*
X114898799Y-121553830D01*
X114622525Y-121967305D01*
X114525510Y-122455031D01*
X114525510Y-122504969D01*
X114622525Y-122992695D01*
X114898799Y-123406170D01*
X115312274Y-123682444D01*
X115651900Y-123750000D01*
X115312274Y-123817556D01*
X114898799Y-124093830D01*
X114622525Y-124507305D01*
X114525510Y-124995031D01*
X114525510Y-125044969D01*
X114622525Y-125532695D01*
X114898799Y-125946170D01*
X115312274Y-126222444D01*
X115800000Y-126319459D01*
X116287726Y-126222444D01*
X116701201Y-125946170D01*
X116977475Y-125532695D01*
X117074490Y-125044969D01*
X117074490Y-124995031D01*
X116977475Y-124507305D01*
X116701201Y-124093830D01*
X116287726Y-123817556D01*
X115948100Y-123750000D01*
X116287726Y-123682444D01*
X116701201Y-123406170D01*
X116977475Y-122992695D01*
X117074490Y-122504969D01*
X117074490Y-122455031D01*
X116977616Y-121968011D01*
X143468735Y-121968011D01*
X143700414Y-122528715D01*
X144129029Y-122958079D01*
X144689328Y-123190735D01*
X145296011Y-123191265D01*
X145856715Y-122959586D01*
X146286079Y-122530971D01*
X146518735Y-121970672D01*
X146519265Y-121363989D01*
X146287586Y-120803285D01*
X145858971Y-120373921D01*
X145298672Y-120141265D01*
X144691989Y-120140735D01*
X144131285Y-120372414D01*
X143701921Y-120801029D01*
X143469265Y-121361328D01*
X143468735Y-121968011D01*
X116977616Y-121968011D01*
X116977475Y-121967305D01*
X116701201Y-121553830D01*
X116287726Y-121277556D01*
X115948100Y-121210000D01*
X116287726Y-121142444D01*
X116701201Y-120866170D01*
X116977475Y-120452695D01*
X117074490Y-119964969D01*
X117074490Y-119915031D01*
X117021772Y-119650000D01*
X121502960Y-119650000D01*
X121588596Y-120080519D01*
X121832465Y-120445495D01*
X122197441Y-120689364D01*
X122627960Y-120775000D01*
X122672040Y-120775000D01*
X123102559Y-120689364D01*
X123467535Y-120445495D01*
X123711404Y-120080519D01*
X123797040Y-119650000D01*
X125802960Y-119650000D01*
X125888596Y-120080519D01*
X126132465Y-120445495D01*
X126497441Y-120689364D01*
X126927960Y-120775000D01*
X126972040Y-120775000D01*
X127402559Y-120689364D01*
X127767535Y-120445495D01*
X128011404Y-120080519D01*
X128097040Y-119650000D01*
X128011404Y-119219481D01*
X127767535Y-118854505D01*
X127402559Y-118610636D01*
X126972040Y-118525000D01*
X126927960Y-118525000D01*
X126497441Y-118610636D01*
X126132465Y-118854505D01*
X125888596Y-119219481D01*
X125802960Y-119650000D01*
X123797040Y-119650000D01*
X123711404Y-119219481D01*
X123467535Y-118854505D01*
X123102559Y-118610636D01*
X122672040Y-118525000D01*
X122627960Y-118525000D01*
X122197441Y-118610636D01*
X121832465Y-118854505D01*
X121588596Y-119219481D01*
X121502960Y-119650000D01*
X117021772Y-119650000D01*
X116977475Y-119427305D01*
X116701201Y-119013830D01*
X116287726Y-118737556D01*
X115948100Y-118670000D01*
X116287726Y-118602444D01*
X116701201Y-118326170D01*
X116977475Y-117912695D01*
X117074490Y-117424969D01*
X117074490Y-117375031D01*
X117021772Y-117110000D01*
X121502960Y-117110000D01*
X121588596Y-117540519D01*
X121832465Y-117905495D01*
X122197441Y-118149364D01*
X122627960Y-118235000D01*
X122672040Y-118235000D01*
X123102559Y-118149364D01*
X123467535Y-117905495D01*
X123711404Y-117540519D01*
X123797040Y-117110000D01*
X125802960Y-117110000D01*
X125888596Y-117540519D01*
X126132465Y-117905495D01*
X126497441Y-118149364D01*
X126927960Y-118235000D01*
X126972040Y-118235000D01*
X127402559Y-118149364D01*
X127767535Y-117905495D01*
X128011404Y-117540519D01*
X128097040Y-117110000D01*
X128011404Y-116679481D01*
X127767535Y-116314505D01*
X127402559Y-116070636D01*
X126972040Y-115985000D01*
X126927960Y-115985000D01*
X126497441Y-116070636D01*
X126132465Y-116314505D01*
X125888596Y-116679481D01*
X125802960Y-117110000D01*
X123797040Y-117110000D01*
X123711404Y-116679481D01*
X123467535Y-116314505D01*
X123102559Y-116070636D01*
X122672040Y-115985000D01*
X122627960Y-115985000D01*
X122197441Y-116070636D01*
X121832465Y-116314505D01*
X121588596Y-116679481D01*
X121502960Y-117110000D01*
X117021772Y-117110000D01*
X116977475Y-116887305D01*
X116701201Y-116473830D01*
X116287726Y-116197556D01*
X115948100Y-116130000D01*
X116287726Y-116062444D01*
X116701201Y-115786170D01*
X116977475Y-115372695D01*
X117074490Y-114884969D01*
X117074490Y-114835031D01*
X116977475Y-114347305D01*
X116701201Y-113933830D01*
X116287726Y-113657556D01*
X115948100Y-113590000D01*
X116287726Y-113522444D01*
X116701201Y-113246170D01*
X116977475Y-112832695D01*
X117074490Y-112344969D01*
X117074490Y-112295031D01*
X116978632Y-111813120D01*
X117115228Y-111676524D01*
X117145365Y-111656387D01*
X117426751Y-111375000D01*
X123774585Y-111375000D01*
X123869069Y-111375082D01*
X123956773Y-111338843D01*
X123956775Y-111338843D01*
X123956777Y-111338842D01*
X124043714Y-111302920D01*
X124177451Y-111169417D01*
X124249918Y-110994898D01*
X124250082Y-110805931D01*
X124177920Y-110631286D01*
X124044417Y-110497549D01*
X123869898Y-110425082D01*
X123680931Y-110424918D01*
X123680733Y-110425000D01*
X117230000Y-110425000D01*
X117048225Y-110461157D01*
X116894124Y-110564124D01*
X116894122Y-110564127D01*
X116493750Y-110964498D01*
X116466892Y-110982444D01*
X116463613Y-110984635D01*
X116313482Y-111134766D01*
X116287726Y-111117556D01*
X115948100Y-111050000D01*
X116287726Y-110982444D01*
X116701201Y-110706170D01*
X116977475Y-110292695D01*
X117074490Y-109804969D01*
X117074490Y-109755031D01*
X117068516Y-109725000D01*
X123124585Y-109725000D01*
X123219069Y-109725082D01*
X123306773Y-109688843D01*
X123306775Y-109688843D01*
X123306777Y-109688842D01*
X123393714Y-109652920D01*
X123527451Y-109519417D01*
X123599918Y-109344898D01*
X123600082Y-109155931D01*
X123527920Y-108981286D01*
X123394417Y-108847549D01*
X123219898Y-108775082D01*
X123030931Y-108774918D01*
X123030733Y-108775000D01*
X116583223Y-108775000D01*
X116287726Y-108577556D01*
X116249740Y-108570000D01*
X148595000Y-108570000D01*
X148595000Y-123570000D01*
X148601245Y-123601396D01*
X148601245Y-123633404D01*
X148677365Y-124016087D01*
X148725892Y-124133243D01*
X148942664Y-124457665D01*
X148942665Y-124457668D01*
X149032333Y-124547335D01*
X149356757Y-124764108D01*
X149473912Y-124812635D01*
X149473913Y-124812635D01*
X149856594Y-124888755D01*
X149983404Y-124888755D01*
X150366087Y-124812635D01*
X150483243Y-124764108D01*
X150483244Y-124764107D01*
X150807665Y-124547336D01*
X150807668Y-124547335D01*
X150897335Y-124457667D01*
X151114108Y-124133243D01*
X151162635Y-124016088D01*
X151162635Y-124016087D01*
X151238755Y-123633404D01*
X151238755Y-123601396D01*
X151245000Y-123570000D01*
X151245000Y-108570000D01*
X151238755Y-108538604D01*
X151238755Y-108506596D01*
X151162635Y-108123913D01*
X151151017Y-108095863D01*
X151114108Y-108006757D01*
X150897335Y-107682333D01*
X150807668Y-107592665D01*
X150807665Y-107592664D01*
X150483243Y-107375892D01*
X150366087Y-107327365D01*
X149983404Y-107251245D01*
X149856594Y-107251245D01*
X149473913Y-107327365D01*
X149473912Y-107327365D01*
X149356757Y-107375892D01*
X149032333Y-107592665D01*
X148942665Y-107682332D01*
X148942665Y-107682333D01*
X148725893Y-108006756D01*
X148725892Y-108006757D01*
X148677365Y-108123913D01*
X148601245Y-108506596D01*
X148601245Y-108538604D01*
X148595000Y-108570000D01*
X116249740Y-108570000D01*
X115997755Y-108519877D01*
X116799490Y-108519877D01*
X116901399Y-108500702D01*
X116994996Y-108440474D01*
X117057786Y-108348576D01*
X117079877Y-108239490D01*
X117079877Y-107715000D01*
X122356217Y-107715000D01*
X122380102Y-107724918D01*
X122569069Y-107725082D01*
X122743714Y-107652920D01*
X122877451Y-107519417D01*
X122949918Y-107344898D01*
X122950082Y-107155931D01*
X122877920Y-106981286D01*
X122744417Y-106847549D01*
X122669892Y-106816603D01*
X122646775Y-106801157D01*
X122619745Y-106795780D01*
X122569898Y-106775082D01*
X122515448Y-106775035D01*
X122465000Y-106765000D01*
X117079877Y-106765000D01*
X117079877Y-106240510D01*
X117060702Y-106138601D01*
X117000474Y-106045004D01*
X116908576Y-105982214D01*
X116799490Y-105960123D01*
X114800510Y-105960123D01*
X114698601Y-105979298D01*
X114605004Y-106039526D01*
X114542214Y-106131424D01*
X114520123Y-106240510D01*
X110695000Y-106240510D01*
X110695000Y-104234069D01*
X128556918Y-104234069D01*
X128629080Y-104408714D01*
X128741248Y-104521079D01*
X128629549Y-104632583D01*
X128557082Y-104807102D01*
X128556918Y-104996069D01*
X128629080Y-105170714D01*
X128741248Y-105283079D01*
X128629549Y-105394583D01*
X128557082Y-105569102D01*
X128556918Y-105758069D01*
X128629080Y-105932714D01*
X128762583Y-106066451D01*
X128937102Y-106138918D01*
X129126069Y-106139082D01*
X129300714Y-106066920D01*
X129434451Y-105933417D01*
X129506918Y-105758898D01*
X129507082Y-105569931D01*
X129434920Y-105395286D01*
X129322752Y-105282921D01*
X129434451Y-105171417D01*
X129506918Y-104996898D01*
X129507082Y-104807931D01*
X129434920Y-104633286D01*
X129322752Y-104520921D01*
X129434451Y-104409417D01*
X129506918Y-104234898D01*
X129507082Y-104045931D01*
X129434920Y-103871286D01*
X129301417Y-103737549D01*
X129126898Y-103665082D01*
X128937931Y-103664918D01*
X128763286Y-103737080D01*
X128629549Y-103870583D01*
X128557082Y-104045102D01*
X128556918Y-104234069D01*
X110695000Y-104234069D01*
X110695000Y-91620000D01*
X110694520Y-91615123D01*
X110618400Y-91232440D01*
X110614667Y-91223428D01*
X110397894Y-90899004D01*
X110390996Y-90892106D01*
X110066572Y-90675333D01*
X110057560Y-90671600D01*
X109674877Y-90595480D01*
X109670000Y-90595000D01*
X106672464Y-90595000D01*
X106297071Y-90520330D01*
X105980917Y-90309083D01*
X105769670Y-89992929D01*
X105695000Y-89617536D01*
X105695000Y-83454490D01*
X110532375Y-83454490D01*
X110641682Y-83719032D01*
X110843904Y-83921607D01*
X111108255Y-84031375D01*
X111158247Y-84031419D01*
X113893414Y-86766586D01*
X133197414Y-106070587D01*
X133383957Y-106195231D01*
X133604000Y-106239000D01*
X159699000Y-106239000D01*
X159699000Y-114365357D01*
X159664393Y-114399904D01*
X159554625Y-114664255D01*
X159554375Y-114950490D01*
X159663682Y-115215032D01*
X159865904Y-115417607D01*
X160130255Y-115527375D01*
X160416490Y-115527625D01*
X160681032Y-115418318D01*
X160883607Y-115216096D01*
X160993375Y-114951745D01*
X160993625Y-114665510D01*
X160884318Y-114400968D01*
X160849000Y-114365588D01*
X160849000Y-103124000D01*
X160805231Y-102903957D01*
X160680586Y-102717414D01*
X158961582Y-100998410D01*
X158961625Y-100949510D01*
X158852318Y-100684968D01*
X158650096Y-100482393D01*
X158385745Y-100372625D01*
X158099510Y-100372375D01*
X157834968Y-100481682D01*
X157632393Y-100683904D01*
X157522625Y-100948255D01*
X157522375Y-101234490D01*
X157631682Y-101499032D01*
X157833904Y-101701607D01*
X158098255Y-101811375D01*
X158148247Y-101811419D01*
X159699000Y-103362172D01*
X159699000Y-105089000D01*
X133842173Y-105089000D01*
X132631133Y-103877960D01*
X136935000Y-103877960D01*
X136935000Y-103922040D01*
X137020636Y-104352559D01*
X137264505Y-104717535D01*
X137629481Y-104961404D01*
X138060000Y-105047040D01*
X138490519Y-104961404D01*
X138855495Y-104717535D01*
X139099364Y-104352559D01*
X139185000Y-103922040D01*
X139185000Y-103877960D01*
X139099364Y-103447441D01*
X138855495Y-103082465D01*
X138806908Y-103050000D01*
X142009613Y-103050000D01*
X142009613Y-104750000D01*
X142028788Y-104851909D01*
X142089016Y-104945506D01*
X142180914Y-105008296D01*
X142290000Y-105030387D01*
X143990000Y-105030387D01*
X144091909Y-105011212D01*
X144185506Y-104950984D01*
X144248296Y-104859086D01*
X144270387Y-104750000D01*
X144270387Y-103050000D01*
X144251212Y-102948091D01*
X144190984Y-102854494D01*
X144099086Y-102791704D01*
X143990000Y-102769613D01*
X142290000Y-102769613D01*
X142188091Y-102788788D01*
X142094494Y-102849016D01*
X142031704Y-102940914D01*
X142009613Y-103050000D01*
X138806908Y-103050000D01*
X138490519Y-102838596D01*
X138060000Y-102752960D01*
X137629481Y-102838596D01*
X137264505Y-103082465D01*
X137020636Y-103447441D01*
X136935000Y-103877960D01*
X132631133Y-103877960D01*
X125693173Y-96940000D01*
X160667613Y-96940000D01*
X160667613Y-98640000D01*
X160686788Y-98741909D01*
X160747016Y-98835506D01*
X160838914Y-98898296D01*
X160948000Y-98920387D01*
X162648000Y-98920387D01*
X162749909Y-98901212D01*
X162843506Y-98840984D01*
X162906296Y-98749086D01*
X162928387Y-98640000D01*
X162928387Y-96940000D01*
X162909212Y-96838091D01*
X162848984Y-96744494D01*
X162757086Y-96681704D01*
X162648000Y-96659613D01*
X160948000Y-96659613D01*
X160846091Y-96678788D01*
X160752494Y-96739016D01*
X160689704Y-96830914D01*
X160667613Y-96940000D01*
X125693173Y-96940000D01*
X124907663Y-96154490D01*
X128058375Y-96154490D01*
X128167682Y-96419032D01*
X128369904Y-96621607D01*
X128634255Y-96731375D01*
X128920490Y-96731625D01*
X129185032Y-96622318D01*
X129387607Y-96420096D01*
X129497375Y-96155745D01*
X129497529Y-95979000D01*
X138757532Y-95979000D01*
X138891904Y-96113607D01*
X139156255Y-96223375D01*
X139442490Y-96223625D01*
X139707032Y-96114318D01*
X139909607Y-95912096D01*
X140019375Y-95647745D01*
X140019625Y-95361510D01*
X139910318Y-95096968D01*
X139708096Y-94894393D01*
X139443745Y-94784625D01*
X139157510Y-94784375D01*
X138892968Y-94893682D01*
X138757414Y-95029000D01*
X129286000Y-95029000D01*
X129104225Y-95065157D01*
X128950124Y-95168124D01*
X128950122Y-95168127D01*
X128825708Y-95292541D01*
X128635510Y-95292375D01*
X128370968Y-95401682D01*
X128168393Y-95603904D01*
X128058625Y-95868255D01*
X128058375Y-96154490D01*
X124907663Y-96154490D01*
X114706586Y-85953414D01*
X111971582Y-83218410D01*
X111971625Y-83169510D01*
X111862318Y-82904968D01*
X111660096Y-82702393D01*
X111395745Y-82592625D01*
X111109510Y-82592375D01*
X110844968Y-82701682D01*
X110642393Y-82903904D01*
X110532625Y-83168255D01*
X110532375Y-83454490D01*
X105695000Y-83454490D01*
X105695000Y-82192490D01*
X107480375Y-82192490D01*
X107589682Y-82457032D01*
X107791904Y-82659607D01*
X108056255Y-82769375D01*
X108342490Y-82769625D01*
X108430470Y-82733272D01*
X108430375Y-82842490D01*
X108539682Y-83107032D01*
X108741904Y-83309607D01*
X109006255Y-83419375D01*
X109292490Y-83419625D01*
X109557032Y-83310318D01*
X109759607Y-83108096D01*
X109869375Y-82843745D01*
X109869561Y-82630501D01*
X110644499Y-82630501D01*
X110788006Y-82601956D01*
X110909664Y-82520666D01*
X114955330Y-78475000D01*
X116420000Y-78475000D01*
X116563507Y-78446455D01*
X116685165Y-78365165D01*
X117628090Y-77422240D01*
X117875000Y-77587219D01*
X117875000Y-79742000D01*
X117911157Y-79923775D01*
X118014124Y-80077876D01*
X123425000Y-85488752D01*
X123425000Y-89852032D01*
X123290393Y-89986404D01*
X123180625Y-90250755D01*
X123180375Y-90536990D01*
X123289682Y-90801532D01*
X123491904Y-91004107D01*
X123756255Y-91113875D01*
X124042490Y-91114125D01*
X124180248Y-91057204D01*
X124042209Y-91195243D01*
X123852012Y-91195077D01*
X123587470Y-91304384D01*
X123384895Y-91506606D01*
X123275127Y-91770957D01*
X123274877Y-92057192D01*
X123384184Y-92321734D01*
X123586406Y-92524309D01*
X123850757Y-92634077D01*
X124136992Y-92634327D01*
X124401534Y-92525020D01*
X124604109Y-92322798D01*
X124713877Y-92058447D01*
X124714044Y-91866911D01*
X125811873Y-90769082D01*
X125811876Y-90769080D01*
X125825000Y-90749439D01*
X125825000Y-93457532D01*
X125690393Y-93591904D01*
X125580625Y-93856255D01*
X125580375Y-94142490D01*
X125689682Y-94407032D01*
X125891904Y-94609607D01*
X126156255Y-94719375D01*
X126442490Y-94719625D01*
X126707032Y-94610318D01*
X126909607Y-94408096D01*
X127019375Y-94143745D01*
X127019625Y-93857510D01*
X126910318Y-93592968D01*
X126775000Y-93457414D01*
X126775000Y-92978344D01*
X155738765Y-92978344D01*
X155944617Y-93476543D01*
X156325452Y-93858043D01*
X156823291Y-94064764D01*
X157362344Y-94065235D01*
X157860543Y-93859383D01*
X158242043Y-93478548D01*
X158448764Y-92980709D01*
X158448766Y-92978344D01*
X164628765Y-92978344D01*
X164834617Y-93476543D01*
X165215452Y-93858043D01*
X165713291Y-94064764D01*
X166252344Y-94065235D01*
X166750543Y-93859383D01*
X167132043Y-93478548D01*
X167338764Y-92980709D01*
X167339235Y-92441656D01*
X167133383Y-91943457D01*
X166752548Y-91561957D01*
X166254709Y-91355236D01*
X165715656Y-91354765D01*
X165217457Y-91560617D01*
X164835957Y-91941452D01*
X164629236Y-92439291D01*
X164628765Y-92978344D01*
X158448766Y-92978344D01*
X158449235Y-92441656D01*
X158243383Y-91943457D01*
X157862548Y-91561957D01*
X157364709Y-91355236D01*
X156825656Y-91354765D01*
X156327457Y-91560617D01*
X155945957Y-91941452D01*
X155739236Y-92439291D01*
X155738765Y-92978344D01*
X126775000Y-92978344D01*
X126775000Y-86248490D01*
X133392375Y-86248490D01*
X133501682Y-86513032D01*
X133703904Y-86715607D01*
X133968255Y-86825375D01*
X134159790Y-86825542D01*
X137840124Y-90505876D01*
X137994225Y-90608843D01*
X138176000Y-90645000D01*
X149986753Y-90645000D01*
X150270840Y-91332543D01*
X150848416Y-91911129D01*
X151603442Y-92224643D01*
X152420971Y-92225356D01*
X153176543Y-91913160D01*
X153755129Y-91335584D01*
X154068643Y-90580558D01*
X154069356Y-89763029D01*
X153757160Y-89007457D01*
X153179584Y-88428871D01*
X152424558Y-88115357D01*
X151607029Y-88114644D01*
X150851457Y-88426840D01*
X150272871Y-89004416D01*
X149986116Y-89695000D01*
X138372752Y-89695000D01*
X135269712Y-86591960D01*
X149497000Y-86591960D01*
X149497000Y-86636040D01*
X149582636Y-87066559D01*
X149826505Y-87431535D01*
X150191481Y-87675404D01*
X150622000Y-87761040D01*
X151052519Y-87675404D01*
X151417495Y-87431535D01*
X151661364Y-87066559D01*
X151747000Y-86636040D01*
X151747000Y-86591960D01*
X151661364Y-86161441D01*
X151417495Y-85796465D01*
X151052519Y-85552596D01*
X150622000Y-85466960D01*
X150191481Y-85552596D01*
X149826505Y-85796465D01*
X149582636Y-86161441D01*
X149497000Y-86591960D01*
X135269712Y-86591960D01*
X134831459Y-86153707D01*
X134831625Y-85963510D01*
X134722318Y-85698968D01*
X134520096Y-85496393D01*
X134255745Y-85386625D01*
X133969510Y-85386375D01*
X133704968Y-85495682D01*
X133502393Y-85697904D01*
X133392625Y-85962255D01*
X133392375Y-86248490D01*
X126775000Y-86248490D01*
X126775000Y-85358344D01*
X160188765Y-85358344D01*
X160394617Y-85856543D01*
X160775452Y-86238043D01*
X161273291Y-86444764D01*
X161812344Y-86445235D01*
X162310543Y-86239383D01*
X162692043Y-85858548D01*
X162898764Y-85360709D01*
X162899235Y-84821656D01*
X162693383Y-84323457D01*
X162312548Y-83941957D01*
X161814709Y-83735236D01*
X161275656Y-83734765D01*
X160777457Y-83940617D01*
X160395957Y-84321452D01*
X160189236Y-84819291D01*
X160188765Y-85358344D01*
X126775000Y-85358344D01*
X126775000Y-84499995D01*
X126775001Y-84499990D01*
X126738843Y-84318216D01*
X126738843Y-84318215D01*
X126635876Y-84164114D01*
X124656252Y-82184490D01*
X142282375Y-82184490D01*
X142391682Y-82449032D01*
X142593904Y-82651607D01*
X142858255Y-82761375D01*
X143144490Y-82761625D01*
X143409032Y-82652318D01*
X143611607Y-82450096D01*
X143721375Y-82185745D01*
X143721542Y-81994210D01*
X144637262Y-81078490D01*
X153458375Y-81078490D01*
X153567682Y-81343032D01*
X153769904Y-81545607D01*
X154034255Y-81655375D01*
X154320490Y-81655625D01*
X154585032Y-81546318D01*
X154720586Y-81411000D01*
X156685248Y-81411000D01*
X158792541Y-83518292D01*
X158792375Y-83708490D01*
X158901682Y-83973032D01*
X159103904Y-84175607D01*
X159368255Y-84285375D01*
X159654490Y-84285625D01*
X159919032Y-84176318D01*
X160121607Y-83974096D01*
X160231375Y-83709745D01*
X160231625Y-83423510D01*
X160122318Y-83158968D01*
X159920096Y-82956393D01*
X159655745Y-82846625D01*
X159464209Y-82846458D01*
X157217876Y-80600124D01*
X157063775Y-80497157D01*
X156882000Y-80461000D01*
X154720468Y-80461000D01*
X154586096Y-80326393D01*
X154321745Y-80216625D01*
X154035510Y-80216375D01*
X153770968Y-80325682D01*
X153568393Y-80527904D01*
X153458625Y-80792255D01*
X153458375Y-81078490D01*
X144637262Y-81078490D01*
X144976752Y-80739000D01*
X145761532Y-80739000D01*
X145895904Y-80873607D01*
X146160255Y-80983375D01*
X146446490Y-80983625D01*
X146711032Y-80874318D01*
X146913607Y-80672096D01*
X147023375Y-80407745D01*
X147023625Y-80121510D01*
X146914318Y-79856968D01*
X146712096Y-79654393D01*
X146447745Y-79544625D01*
X146161510Y-79544375D01*
X145896968Y-79653682D01*
X145761414Y-79789000D01*
X144780005Y-79789000D01*
X144780000Y-79788999D01*
X144628384Y-79819158D01*
X144598225Y-79825157D01*
X144450633Y-79923775D01*
X144444124Y-79928124D01*
X143049707Y-81322541D01*
X142859510Y-81322375D01*
X142594968Y-81431682D01*
X142392393Y-81633904D01*
X142282625Y-81898255D01*
X142282375Y-82184490D01*
X124656252Y-82184490D01*
X121100252Y-78628490D01*
X144568375Y-78628490D01*
X144677682Y-78893032D01*
X144879904Y-79095607D01*
X145144255Y-79205375D01*
X145430490Y-79205625D01*
X145695032Y-79096318D01*
X145830586Y-78961000D01*
X157029248Y-78961000D01*
X157268541Y-79200293D01*
X157268375Y-79390490D01*
X157377682Y-79655032D01*
X157579904Y-79857607D01*
X157844255Y-79967375D01*
X158130490Y-79967625D01*
X158395032Y-79858318D01*
X158597607Y-79656096D01*
X158707375Y-79391745D01*
X158707625Y-79105510D01*
X158598318Y-78840968D01*
X158396096Y-78638393D01*
X158131745Y-78528625D01*
X157940210Y-78528458D01*
X157561876Y-78150124D01*
X157407775Y-78047157D01*
X157226000Y-78011000D01*
X145830468Y-78011000D01*
X145696096Y-77876393D01*
X145431745Y-77766625D01*
X145145510Y-77766375D01*
X144880968Y-77875682D01*
X144678393Y-78077904D01*
X144568625Y-78342255D01*
X144568375Y-78628490D01*
X121100252Y-78628490D01*
X119925010Y-77453248D01*
X119925010Y-77043398D01*
X119931937Y-77078222D01*
X120156730Y-77414649D01*
X120493157Y-77639442D01*
X120890000Y-77718379D01*
X121286843Y-77639442D01*
X121623270Y-77414649D01*
X121848063Y-77078222D01*
X121927000Y-76681379D01*
X121927000Y-76156461D01*
X124933000Y-76156461D01*
X124933000Y-76681379D01*
X125011937Y-77078222D01*
X125236730Y-77414649D01*
X125573157Y-77639442D01*
X125970000Y-77718379D01*
X126366843Y-77639442D01*
X126703270Y-77414649D01*
X126928063Y-77078222D01*
X127007000Y-76681379D01*
X127007000Y-76156461D01*
X127473000Y-76156461D01*
X127473000Y-76681379D01*
X127551937Y-77078222D01*
X127776730Y-77414649D01*
X128113157Y-77639442D01*
X128510000Y-77718379D01*
X128906843Y-77639442D01*
X129243270Y-77414649D01*
X129468063Y-77078222D01*
X129547000Y-76681379D01*
X129547000Y-76156461D01*
X130013000Y-76156461D01*
X130013000Y-76681379D01*
X130091937Y-77078222D01*
X130316730Y-77414649D01*
X130653157Y-77639442D01*
X131050000Y-77718379D01*
X131446843Y-77639442D01*
X131783270Y-77414649D01*
X132008063Y-77078222D01*
X132087000Y-76681379D01*
X132087000Y-76156461D01*
X132553000Y-76156461D01*
X132553000Y-76681379D01*
X132631937Y-77078222D01*
X132856730Y-77414649D01*
X133193157Y-77639442D01*
X133590000Y-77718379D01*
X133986843Y-77639442D01*
X134323270Y-77414649D01*
X134548063Y-77078222D01*
X134627000Y-76681379D01*
X134627000Y-76156461D01*
X135093000Y-76156461D01*
X135093000Y-76681379D01*
X135171937Y-77078222D01*
X135396730Y-77414649D01*
X135733157Y-77639442D01*
X136130000Y-77718379D01*
X136526843Y-77639442D01*
X136863270Y-77414649D01*
X137088063Y-77078222D01*
X137167000Y-76681379D01*
X137167000Y-76156461D01*
X137633000Y-76156461D01*
X137633000Y-76681379D01*
X137711937Y-77078222D01*
X137936730Y-77414649D01*
X138273157Y-77639442D01*
X138670000Y-77718379D01*
X139066843Y-77639442D01*
X139403270Y-77414649D01*
X139628063Y-77078222D01*
X139707000Y-76681379D01*
X139707000Y-76156461D01*
X140173000Y-76156461D01*
X140173000Y-76681379D01*
X140251937Y-77078222D01*
X140476730Y-77414649D01*
X140813157Y-77639442D01*
X141210000Y-77718379D01*
X141606843Y-77639442D01*
X141943270Y-77414649D01*
X142168063Y-77078222D01*
X142247000Y-76681379D01*
X142247000Y-76156461D01*
X145253000Y-76156461D01*
X145253000Y-76681379D01*
X145331937Y-77078222D01*
X145556730Y-77414649D01*
X145893157Y-77639442D01*
X146290000Y-77718379D01*
X146686843Y-77639442D01*
X147023270Y-77414649D01*
X147248063Y-77078222D01*
X147327000Y-76681379D01*
X147327000Y-76156461D01*
X147793000Y-76156461D01*
X147793000Y-76681379D01*
X147871937Y-77078222D01*
X148096730Y-77414649D01*
X148433157Y-77639442D01*
X148830000Y-77718379D01*
X149226843Y-77639442D01*
X149563270Y-77414649D01*
X149788063Y-77078222D01*
X149867000Y-76681379D01*
X149867000Y-76156461D01*
X150333000Y-76156461D01*
X150333000Y-76681379D01*
X150411937Y-77078222D01*
X150636730Y-77414649D01*
X150973157Y-77639442D01*
X151370000Y-77718379D01*
X151766843Y-77639442D01*
X152103270Y-77414649D01*
X152328063Y-77078222D01*
X152407000Y-76681379D01*
X152407000Y-76156461D01*
X152873000Y-76156461D01*
X152873000Y-76681379D01*
X152951937Y-77078222D01*
X153176730Y-77414649D01*
X153513157Y-77639442D01*
X153910000Y-77718379D01*
X154306843Y-77639442D01*
X154643270Y-77414649D01*
X154868063Y-77078222D01*
X154947000Y-76681379D01*
X154947000Y-76156461D01*
X155413000Y-76156461D01*
X155413000Y-76681379D01*
X155491937Y-77078222D01*
X155716730Y-77414649D01*
X156053157Y-77639442D01*
X156450000Y-77718379D01*
X156846843Y-77639442D01*
X157183270Y-77414649D01*
X157408063Y-77078222D01*
X157487000Y-76681379D01*
X157487000Y-76156461D01*
X157953000Y-76156461D01*
X157953000Y-76681379D01*
X158031937Y-77078222D01*
X158256730Y-77414649D01*
X158593157Y-77639442D01*
X158990000Y-77718379D01*
X159386843Y-77639442D01*
X159723270Y-77414649D01*
X159948063Y-77078222D01*
X160027000Y-76681379D01*
X160027000Y-76156461D01*
X159948063Y-75759618D01*
X159723270Y-75423191D01*
X159386843Y-75198398D01*
X158990000Y-75119461D01*
X158593157Y-75198398D01*
X158256730Y-75423191D01*
X158031937Y-75759618D01*
X157953000Y-76156461D01*
X157487000Y-76156461D01*
X157408063Y-75759618D01*
X157183270Y-75423191D01*
X156846843Y-75198398D01*
X156450000Y-75119461D01*
X156053157Y-75198398D01*
X155716730Y-75423191D01*
X155491937Y-75759618D01*
X155413000Y-76156461D01*
X154947000Y-76156461D01*
X154868063Y-75759618D01*
X154643270Y-75423191D01*
X154306843Y-75198398D01*
X153910000Y-75119461D01*
X153513157Y-75198398D01*
X153176730Y-75423191D01*
X152951937Y-75759618D01*
X152873000Y-76156461D01*
X152407000Y-76156461D01*
X152328063Y-75759618D01*
X152103270Y-75423191D01*
X151766843Y-75198398D01*
X151370000Y-75119461D01*
X150973157Y-75198398D01*
X150636730Y-75423191D01*
X150411937Y-75759618D01*
X150333000Y-76156461D01*
X149867000Y-76156461D01*
X149788063Y-75759618D01*
X149563270Y-75423191D01*
X149226843Y-75198398D01*
X148830000Y-75119461D01*
X148433157Y-75198398D01*
X148096730Y-75423191D01*
X147871937Y-75759618D01*
X147793000Y-76156461D01*
X147327000Y-76156461D01*
X147248063Y-75759618D01*
X147023270Y-75423191D01*
X146686843Y-75198398D01*
X146290000Y-75119461D01*
X145893157Y-75198398D01*
X145556730Y-75423191D01*
X145331937Y-75759618D01*
X145253000Y-76156461D01*
X142247000Y-76156461D01*
X142168063Y-75759618D01*
X141943270Y-75423191D01*
X141606843Y-75198398D01*
X141210000Y-75119461D01*
X140813157Y-75198398D01*
X140476730Y-75423191D01*
X140251937Y-75759618D01*
X140173000Y-76156461D01*
X139707000Y-76156461D01*
X139628063Y-75759618D01*
X139403270Y-75423191D01*
X139066843Y-75198398D01*
X138670000Y-75119461D01*
X138273157Y-75198398D01*
X137936730Y-75423191D01*
X137711937Y-75759618D01*
X137633000Y-76156461D01*
X137167000Y-76156461D01*
X137088063Y-75759618D01*
X136863270Y-75423191D01*
X136526843Y-75198398D01*
X136130000Y-75119461D01*
X135733157Y-75198398D01*
X135396730Y-75423191D01*
X135171937Y-75759618D01*
X135093000Y-76156461D01*
X134627000Y-76156461D01*
X134548063Y-75759618D01*
X134323270Y-75423191D01*
X133986843Y-75198398D01*
X133590000Y-75119461D01*
X133193157Y-75198398D01*
X132856730Y-75423191D01*
X132631937Y-75759618D01*
X132553000Y-76156461D01*
X132087000Y-76156461D01*
X132008063Y-75759618D01*
X131783270Y-75423191D01*
X131446843Y-75198398D01*
X131050000Y-75119461D01*
X130653157Y-75198398D01*
X130316730Y-75423191D01*
X130091937Y-75759618D01*
X130013000Y-76156461D01*
X129547000Y-76156461D01*
X129468063Y-75759618D01*
X129243270Y-75423191D01*
X128906843Y-75198398D01*
X128510000Y-75119461D01*
X128113157Y-75198398D01*
X127776730Y-75423191D01*
X127551937Y-75759618D01*
X127473000Y-76156461D01*
X127007000Y-76156461D01*
X126928063Y-75759618D01*
X126703270Y-75423191D01*
X126366843Y-75198398D01*
X125970000Y-75119461D01*
X125573157Y-75198398D01*
X125236730Y-75423191D01*
X125011937Y-75759618D01*
X124933000Y-76156461D01*
X121927000Y-76156461D01*
X121848063Y-75759618D01*
X121623270Y-75423191D01*
X121286843Y-75198398D01*
X120890000Y-75119461D01*
X120493157Y-75198398D01*
X120156730Y-75423191D01*
X119931937Y-75759618D01*
X119925010Y-75794442D01*
X119925010Y-75714361D01*
X119888853Y-75532586D01*
X119785886Y-75378485D01*
X119141515Y-74734114D01*
X118987414Y-74631147D01*
X118805639Y-74594990D01*
X116910010Y-74594990D01*
X116728235Y-74631147D01*
X116574134Y-74734114D01*
X116125942Y-75182306D01*
X115810000Y-75119461D01*
X115413157Y-75198398D01*
X115076730Y-75423191D01*
X114851937Y-75759618D01*
X114773000Y-76156461D01*
X114773000Y-76676670D01*
X114312387Y-77137283D01*
X114312387Y-75419430D01*
X114293212Y-75317521D01*
X114232984Y-75223924D01*
X114141086Y-75161134D01*
X114032000Y-75139043D01*
X112508000Y-75139043D01*
X112406091Y-75158218D01*
X112312494Y-75218446D01*
X112249704Y-75310344D01*
X112227613Y-75419430D01*
X112227613Y-77418410D01*
X112246788Y-77520319D01*
X112307016Y-77613916D01*
X112398914Y-77676706D01*
X112508000Y-77698797D01*
X113750873Y-77698797D01*
X110219169Y-81230501D01*
X108644499Y-81230501D01*
X108500993Y-81259046D01*
X108379334Y-81340336D01*
X108375754Y-81343916D01*
X108343745Y-81330625D01*
X108057510Y-81330375D01*
X107792968Y-81439682D01*
X107590393Y-81641904D01*
X107480625Y-81906255D01*
X107480375Y-82192490D01*
X105695000Y-82192490D01*
X105695000Y-79622464D01*
X105769670Y-79247071D01*
X105980917Y-78930917D01*
X106297071Y-78719670D01*
X106672464Y-78645000D01*
X111170000Y-78645000D01*
X111174877Y-78644520D01*
X111557560Y-78568400D01*
X111566572Y-78564667D01*
X111890996Y-78347894D01*
X111897894Y-78340996D01*
X112114667Y-78016572D01*
X112118400Y-78007560D01*
X112194520Y-77624877D01*
X112195000Y-77620000D01*
X112195000Y-73118621D01*
X112233000Y-73118621D01*
X112233000Y-73643539D01*
X112311937Y-74040382D01*
X112536730Y-74376809D01*
X112873157Y-74601602D01*
X113270000Y-74680539D01*
X113666843Y-74601602D01*
X114003270Y-74376809D01*
X114228063Y-74040382D01*
X114307000Y-73643539D01*
X114307000Y-73118621D01*
X114773000Y-73118621D01*
X114773000Y-73643539D01*
X114851937Y-74040382D01*
X115076730Y-74376809D01*
X115413157Y-74601602D01*
X115810000Y-74680539D01*
X116206843Y-74601602D01*
X116543270Y-74376809D01*
X116768063Y-74040382D01*
X116847000Y-73643539D01*
X116847000Y-73118621D01*
X119853000Y-73118621D01*
X119853000Y-73643539D01*
X119931937Y-74040382D01*
X120156730Y-74376809D01*
X120493157Y-74601602D01*
X120890000Y-74680539D01*
X121286843Y-74601602D01*
X121623270Y-74376809D01*
X121848063Y-74040382D01*
X121927000Y-73643539D01*
X121927000Y-73118621D01*
X122393000Y-73118621D01*
X122393000Y-73643539D01*
X122471937Y-74040382D01*
X122696730Y-74376809D01*
X123033157Y-74601602D01*
X123430000Y-74680539D01*
X123826843Y-74601602D01*
X124163270Y-74376809D01*
X124388063Y-74040382D01*
X124467000Y-73643539D01*
X124467000Y-73118621D01*
X124933000Y-73118621D01*
X124933000Y-73643539D01*
X125011937Y-74040382D01*
X125236730Y-74376809D01*
X125573157Y-74601602D01*
X125970000Y-74680539D01*
X126366843Y-74601602D01*
X126703270Y-74376809D01*
X126928063Y-74040382D01*
X127007000Y-73643539D01*
X127007000Y-73118621D01*
X130013000Y-73118621D01*
X130013000Y-73643539D01*
X130091937Y-74040382D01*
X130316730Y-74376809D01*
X130653157Y-74601602D01*
X131050000Y-74680539D01*
X131446843Y-74601602D01*
X131783270Y-74376809D01*
X132008063Y-74040382D01*
X132087000Y-73643539D01*
X132087000Y-73118621D01*
X132553000Y-73118621D01*
X132553000Y-73643539D01*
X132631937Y-74040382D01*
X132856730Y-74376809D01*
X133193157Y-74601602D01*
X133590000Y-74680539D01*
X133986843Y-74601602D01*
X134323270Y-74376809D01*
X134548063Y-74040382D01*
X134627000Y-73643539D01*
X134627000Y-73118621D01*
X137633000Y-73118621D01*
X137633000Y-73643539D01*
X137711937Y-74040382D01*
X137936730Y-74376809D01*
X138273157Y-74601602D01*
X138670000Y-74680539D01*
X139066843Y-74601602D01*
X139403270Y-74376809D01*
X139628063Y-74040382D01*
X139707000Y-73643539D01*
X139707000Y-73118621D01*
X140173000Y-73118621D01*
X140173000Y-73643539D01*
X140251937Y-74040382D01*
X140476730Y-74376809D01*
X140813157Y-74601602D01*
X141210000Y-74680539D01*
X141606843Y-74601602D01*
X141943270Y-74376809D01*
X142168063Y-74040382D01*
X142247000Y-73643539D01*
X142247000Y-73118621D01*
X142713000Y-73118621D01*
X142713000Y-73643539D01*
X142791937Y-74040382D01*
X143016730Y-74376809D01*
X143353157Y-74601602D01*
X143750000Y-74680539D01*
X144146843Y-74601602D01*
X144483270Y-74376809D01*
X144708063Y-74040382D01*
X144787000Y-73643539D01*
X144787000Y-73118621D01*
X145253000Y-73118621D01*
X145253000Y-73643539D01*
X145331937Y-74040382D01*
X145556730Y-74376809D01*
X145893157Y-74601602D01*
X146290000Y-74680539D01*
X146686843Y-74601602D01*
X147023270Y-74376809D01*
X147248063Y-74040382D01*
X147327000Y-73643539D01*
X147327000Y-73118621D01*
X150333000Y-73118621D01*
X150333000Y-73643539D01*
X150411937Y-74040382D01*
X150636730Y-74376809D01*
X150973157Y-74601602D01*
X151370000Y-74680539D01*
X151766843Y-74601602D01*
X152103270Y-74376809D01*
X152328063Y-74040382D01*
X152407000Y-73643539D01*
X152407000Y-73118621D01*
X155413000Y-73118621D01*
X155413000Y-73643539D01*
X155491937Y-74040382D01*
X155716730Y-74376809D01*
X156053157Y-74601602D01*
X156450000Y-74680539D01*
X156846843Y-74601602D01*
X157183270Y-74376809D01*
X157408063Y-74040382D01*
X157487000Y-73643539D01*
X157487000Y-73118621D01*
X157953000Y-73118621D01*
X157953000Y-73643539D01*
X158031937Y-74040382D01*
X158256730Y-74376809D01*
X158593157Y-74601602D01*
X158990000Y-74680539D01*
X159386843Y-74601602D01*
X159723270Y-74376809D01*
X159948063Y-74040382D01*
X160027000Y-73643539D01*
X160027000Y-73118621D01*
X160493000Y-73118621D01*
X160493000Y-73643539D01*
X160571937Y-74040382D01*
X160796730Y-74376809D01*
X161133157Y-74601602D01*
X161530000Y-74680539D01*
X161926843Y-74601602D01*
X162263270Y-74376809D01*
X162488063Y-74040382D01*
X162567000Y-73643539D01*
X162567000Y-73118621D01*
X162488063Y-72721778D01*
X162263270Y-72385351D01*
X161926843Y-72160558D01*
X161530000Y-72081621D01*
X161133157Y-72160558D01*
X160796730Y-72385351D01*
X160571937Y-72721778D01*
X160493000Y-73118621D01*
X160027000Y-73118621D01*
X159948063Y-72721778D01*
X159723270Y-72385351D01*
X159386843Y-72160558D01*
X158990000Y-72081621D01*
X158593157Y-72160558D01*
X158256730Y-72385351D01*
X158031937Y-72721778D01*
X157953000Y-73118621D01*
X157487000Y-73118621D01*
X157408063Y-72721778D01*
X157183270Y-72385351D01*
X156846843Y-72160558D01*
X156450000Y-72081621D01*
X156053157Y-72160558D01*
X155716730Y-72385351D01*
X155491937Y-72721778D01*
X155413000Y-73118621D01*
X152407000Y-73118621D01*
X152328063Y-72721778D01*
X152103270Y-72385351D01*
X151766843Y-72160558D01*
X151370000Y-72081621D01*
X150973157Y-72160558D01*
X150636730Y-72385351D01*
X150411937Y-72721778D01*
X150333000Y-73118621D01*
X147327000Y-73118621D01*
X147248063Y-72721778D01*
X147023270Y-72385351D01*
X146686843Y-72160558D01*
X146290000Y-72081621D01*
X145893157Y-72160558D01*
X145556730Y-72385351D01*
X145331937Y-72721778D01*
X145253000Y-73118621D01*
X144787000Y-73118621D01*
X144708063Y-72721778D01*
X144483270Y-72385351D01*
X144146843Y-72160558D01*
X143750000Y-72081621D01*
X143353157Y-72160558D01*
X143016730Y-72385351D01*
X142791937Y-72721778D01*
X142713000Y-73118621D01*
X142247000Y-73118621D01*
X142168063Y-72721778D01*
X141943270Y-72385351D01*
X141606843Y-72160558D01*
X141210000Y-72081621D01*
X140813157Y-72160558D01*
X140476730Y-72385351D01*
X140251937Y-72721778D01*
X140173000Y-73118621D01*
X139707000Y-73118621D01*
X139628063Y-72721778D01*
X139403270Y-72385351D01*
X139066843Y-72160558D01*
X138670000Y-72081621D01*
X138273157Y-72160558D01*
X137936730Y-72385351D01*
X137711937Y-72721778D01*
X137633000Y-73118621D01*
X134627000Y-73118621D01*
X134548063Y-72721778D01*
X134323270Y-72385351D01*
X133986843Y-72160558D01*
X133590000Y-72081621D01*
X133193157Y-72160558D01*
X132856730Y-72385351D01*
X132631937Y-72721778D01*
X132553000Y-73118621D01*
X132087000Y-73118621D01*
X132008063Y-72721778D01*
X131783270Y-72385351D01*
X131446843Y-72160558D01*
X131050000Y-72081621D01*
X130653157Y-72160558D01*
X130316730Y-72385351D01*
X130091937Y-72721778D01*
X130013000Y-73118621D01*
X127007000Y-73118621D01*
X126928063Y-72721778D01*
X126703270Y-72385351D01*
X126366843Y-72160558D01*
X125970000Y-72081621D01*
X125573157Y-72160558D01*
X125236730Y-72385351D01*
X125011937Y-72721778D01*
X124933000Y-73118621D01*
X124467000Y-73118621D01*
X124388063Y-72721778D01*
X124163270Y-72385351D01*
X123826843Y-72160558D01*
X123430000Y-72081621D01*
X123033157Y-72160558D01*
X122696730Y-72385351D01*
X122471937Y-72721778D01*
X122393000Y-73118621D01*
X121927000Y-73118621D01*
X121848063Y-72721778D01*
X121623270Y-72385351D01*
X121286843Y-72160558D01*
X120890000Y-72081621D01*
X120493157Y-72160558D01*
X120156730Y-72385351D01*
X119931937Y-72721778D01*
X119853000Y-73118621D01*
X116847000Y-73118621D01*
X116768063Y-72721778D01*
X116543270Y-72385351D01*
X116206843Y-72160558D01*
X115810000Y-72081621D01*
X115413157Y-72160558D01*
X115076730Y-72385351D01*
X114851937Y-72721778D01*
X114773000Y-73118621D01*
X114307000Y-73118621D01*
X114228063Y-72721778D01*
X114003270Y-72385351D01*
X113666843Y-72160558D01*
X113270000Y-72081621D01*
X112873157Y-72160558D01*
X112536730Y-72385351D01*
X112311937Y-72721778D01*
X112233000Y-73118621D01*
X112195000Y-73118621D01*
X112195000Y-72622464D01*
X112269670Y-72247071D01*
X112480917Y-71930917D01*
X112797071Y-71719670D01*
X113172464Y-71645000D01*
X162167536Y-71645000D01*
X162542929Y-71719670D01*
X162542929Y-71719670D01*
G37*
X162542929Y-71719670D02*
X162859083Y-71930917D01*
X163070330Y-72247071D01*
X163145000Y-72622464D01*
X163145000Y-77620000D01*
X163145480Y-77624877D01*
X163221600Y-78007560D01*
X163225333Y-78016572D01*
X163442106Y-78340996D01*
X163449004Y-78347894D01*
X163773428Y-78564667D01*
X163782440Y-78568400D01*
X164165123Y-78644520D01*
X164170000Y-78645000D01*
X168667536Y-78645000D01*
X169042929Y-78719670D01*
X169359083Y-78930917D01*
X169570330Y-79247071D01*
X169595000Y-79371096D01*
X169595000Y-119368904D01*
X169570330Y-119492929D01*
X169359083Y-119809083D01*
X169042929Y-120020330D01*
X168667536Y-120095000D01*
X163670000Y-120095000D01*
X163665123Y-120095480D01*
X163282440Y-120171600D01*
X163273428Y-120175333D01*
X162949004Y-120392106D01*
X162942106Y-120399004D01*
X162725333Y-120723428D01*
X162721600Y-120732440D01*
X162645480Y-121115123D01*
X162645000Y-121120000D01*
X162645000Y-126117536D01*
X162570330Y-126492929D01*
X162359083Y-126809083D01*
X162042929Y-127020330D01*
X161667536Y-127095000D01*
X113172464Y-127095000D01*
X112797071Y-127020330D01*
X112480917Y-126809083D01*
X112269670Y-126492929D01*
X112195000Y-126117536D01*
X112195000Y-121120000D01*
X112194520Y-121115123D01*
X112118400Y-120732440D01*
X112114667Y-120723428D01*
X111897894Y-120399004D01*
X111890996Y-120392106D01*
X111566572Y-120175333D01*
X111557560Y-120171600D01*
X111174877Y-120095480D01*
X111170000Y-120095000D01*
X106672464Y-120095000D01*
X106297071Y-120020330D01*
X105980917Y-119809083D01*
X105769670Y-119492929D01*
X105695000Y-119117536D01*
X105695000Y-109622464D01*
X105769670Y-109247071D01*
X105980917Y-108930917D01*
X106297071Y-108719670D01*
X106672464Y-108645000D01*
X109670000Y-108645000D01*
X109674877Y-108644520D01*
X110057560Y-108568400D01*
X110066572Y-108564667D01*
X110390996Y-108347894D01*
X110397894Y-108340996D01*
X110614667Y-108016572D01*
X110618400Y-108007560D01*
X110694520Y-107624877D01*
X110695000Y-107620000D01*
X110695000Y-106240510D01*
X114520123Y-106240510D01*
X114520123Y-108239490D01*
X114539298Y-108341399D01*
X114599526Y-108434996D01*
X114691424Y-108497786D01*
X114800510Y-108519877D01*
X115602245Y-108519877D01*
X115312274Y-108577556D01*
X114898799Y-108853830D01*
X114622525Y-109267305D01*
X114525510Y-109755031D01*
X114525510Y-109804969D01*
X114622525Y-110292695D01*
X114898799Y-110706170D01*
X115312274Y-110982444D01*
X115651900Y-111050000D01*
X115312274Y-111117556D01*
X114898799Y-111393830D01*
X114622525Y-111807305D01*
X114525510Y-112295031D01*
X114525510Y-112344969D01*
X114622525Y-112832695D01*
X114898799Y-113246170D01*
X115312274Y-113522444D01*
X115651900Y-113590000D01*
X115312274Y-113657556D01*
X114898799Y-113933830D01*
X114622525Y-114347305D01*
X114525510Y-114835031D01*
X114525510Y-114884969D01*
X114622525Y-115372695D01*
X114898799Y-115786170D01*
X115312274Y-116062444D01*
X115651900Y-116130000D01*
X115312274Y-116197556D01*
X114898799Y-116473830D01*
X114622525Y-116887305D01*
X114525510Y-117375031D01*
X114525510Y-117424969D01*
X114622525Y-117912695D01*
X114898799Y-118326170D01*
X115312274Y-118602444D01*
X115651900Y-118670000D01*
X115312274Y-118737556D01*
X114898799Y-119013830D01*
X114622525Y-119427305D01*
X114525510Y-119915031D01*
X114525510Y-119964969D01*
X114622525Y-120452695D01*
X114898799Y-120866170D01*
X115312274Y-121142444D01*
X115651900Y-121210000D01*
X115312274Y-121277556D01*
X114898799Y-121553830D01*
X114622525Y-121967305D01*
X114525510Y-122455031D01*
X114525510Y-122504969D01*
X114622525Y-122992695D01*
X114898799Y-123406170D01*
X115312274Y-123682444D01*
X115651900Y-123750000D01*
X115312274Y-123817556D01*
X114898799Y-124093830D01*
X114622525Y-124507305D01*
X114525510Y-124995031D01*
X114525510Y-125044969D01*
X114622525Y-125532695D01*
X114898799Y-125946170D01*
X115312274Y-126222444D01*
X115800000Y-126319459D01*
X116287726Y-126222444D01*
X116701201Y-125946170D01*
X116977475Y-125532695D01*
X117074490Y-125044969D01*
X117074490Y-124995031D01*
X116977475Y-124507305D01*
X116701201Y-124093830D01*
X116287726Y-123817556D01*
X115948100Y-123750000D01*
X116287726Y-123682444D01*
X116701201Y-123406170D01*
X116977475Y-122992695D01*
X117074490Y-122504969D01*
X117074490Y-122455031D01*
X116977616Y-121968011D01*
X143468735Y-121968011D01*
X143700414Y-122528715D01*
X144129029Y-122958079D01*
X144689328Y-123190735D01*
X145296011Y-123191265D01*
X145856715Y-122959586D01*
X146286079Y-122530971D01*
X146518735Y-121970672D01*
X146519265Y-121363989D01*
X146287586Y-120803285D01*
X145858971Y-120373921D01*
X145298672Y-120141265D01*
X144691989Y-120140735D01*
X144131285Y-120372414D01*
X143701921Y-120801029D01*
X143469265Y-121361328D01*
X143468735Y-121968011D01*
X116977616Y-121968011D01*
X116977475Y-121967305D01*
X116701201Y-121553830D01*
X116287726Y-121277556D01*
X115948100Y-121210000D01*
X116287726Y-121142444D01*
X116701201Y-120866170D01*
X116977475Y-120452695D01*
X117074490Y-119964969D01*
X117074490Y-119915031D01*
X117021772Y-119650000D01*
X121502960Y-119650000D01*
X121588596Y-120080519D01*
X121832465Y-120445495D01*
X122197441Y-120689364D01*
X122627960Y-120775000D01*
X122672040Y-120775000D01*
X123102559Y-120689364D01*
X123467535Y-120445495D01*
X123711404Y-120080519D01*
X123797040Y-119650000D01*
X125802960Y-119650000D01*
X125888596Y-120080519D01*
X126132465Y-120445495D01*
X126497441Y-120689364D01*
X126927960Y-120775000D01*
X126972040Y-120775000D01*
X127402559Y-120689364D01*
X127767535Y-120445495D01*
X128011404Y-120080519D01*
X128097040Y-119650000D01*
X128011404Y-119219481D01*
X127767535Y-118854505D01*
X127402559Y-118610636D01*
X126972040Y-118525000D01*
X126927960Y-118525000D01*
X126497441Y-118610636D01*
X126132465Y-118854505D01*
X125888596Y-119219481D01*
X125802960Y-119650000D01*
X123797040Y-119650000D01*
X123711404Y-119219481D01*
X123467535Y-118854505D01*
X123102559Y-118610636D01*
X122672040Y-118525000D01*
X122627960Y-118525000D01*
X122197441Y-118610636D01*
X121832465Y-118854505D01*
X121588596Y-119219481D01*
X121502960Y-119650000D01*
X117021772Y-119650000D01*
X116977475Y-119427305D01*
X116701201Y-119013830D01*
X116287726Y-118737556D01*
X115948100Y-118670000D01*
X116287726Y-118602444D01*
X116701201Y-118326170D01*
X116977475Y-117912695D01*
X117074490Y-117424969D01*
X117074490Y-117375031D01*
X117021772Y-117110000D01*
X121502960Y-117110000D01*
X121588596Y-117540519D01*
X121832465Y-117905495D01*
X122197441Y-118149364D01*
X122627960Y-118235000D01*
X122672040Y-118235000D01*
X123102559Y-118149364D01*
X123467535Y-117905495D01*
X123711404Y-117540519D01*
X123797040Y-117110000D01*
X125802960Y-117110000D01*
X125888596Y-117540519D01*
X126132465Y-117905495D01*
X126497441Y-118149364D01*
X126927960Y-118235000D01*
X126972040Y-118235000D01*
X127402559Y-118149364D01*
X127767535Y-117905495D01*
X128011404Y-117540519D01*
X128097040Y-117110000D01*
X128011404Y-116679481D01*
X127767535Y-116314505D01*
X127402559Y-116070636D01*
X126972040Y-115985000D01*
X126927960Y-115985000D01*
X126497441Y-116070636D01*
X126132465Y-116314505D01*
X125888596Y-116679481D01*
X125802960Y-117110000D01*
X123797040Y-117110000D01*
X123711404Y-116679481D01*
X123467535Y-116314505D01*
X123102559Y-116070636D01*
X122672040Y-115985000D01*
X122627960Y-115985000D01*
X122197441Y-116070636D01*
X121832465Y-116314505D01*
X121588596Y-116679481D01*
X121502960Y-117110000D01*
X117021772Y-117110000D01*
X116977475Y-116887305D01*
X116701201Y-116473830D01*
X116287726Y-116197556D01*
X115948100Y-116130000D01*
X116287726Y-116062444D01*
X116701201Y-115786170D01*
X116977475Y-115372695D01*
X117074490Y-114884969D01*
X117074490Y-114835031D01*
X116977475Y-114347305D01*
X116701201Y-113933830D01*
X116287726Y-113657556D01*
X115948100Y-113590000D01*
X116287726Y-113522444D01*
X116701201Y-113246170D01*
X116977475Y-112832695D01*
X117074490Y-112344969D01*
X117074490Y-112295031D01*
X116978632Y-111813120D01*
X117115228Y-111676524D01*
X117145365Y-111656387D01*
X117426751Y-111375000D01*
X123774585Y-111375000D01*
X123869069Y-111375082D01*
X123956773Y-111338843D01*
X123956775Y-111338843D01*
X123956777Y-111338842D01*
X124043714Y-111302920D01*
X124177451Y-111169417D01*
X124249918Y-110994898D01*
X124250082Y-110805931D01*
X124177920Y-110631286D01*
X124044417Y-110497549D01*
X123869898Y-110425082D01*
X123680931Y-110424918D01*
X123680733Y-110425000D01*
X117230000Y-110425000D01*
X117048225Y-110461157D01*
X116894124Y-110564124D01*
X116894122Y-110564127D01*
X116493750Y-110964498D01*
X116466892Y-110982444D01*
X116463613Y-110984635D01*
X116313482Y-111134766D01*
X116287726Y-111117556D01*
X115948100Y-111050000D01*
X116287726Y-110982444D01*
X116701201Y-110706170D01*
X116977475Y-110292695D01*
X117074490Y-109804969D01*
X117074490Y-109755031D01*
X117068516Y-109725000D01*
X123124585Y-109725000D01*
X123219069Y-109725082D01*
X123306773Y-109688843D01*
X123306775Y-109688843D01*
X123306777Y-109688842D01*
X123393714Y-109652920D01*
X123527451Y-109519417D01*
X123599918Y-109344898D01*
X123600082Y-109155931D01*
X123527920Y-108981286D01*
X123394417Y-108847549D01*
X123219898Y-108775082D01*
X123030931Y-108774918D01*
X123030733Y-108775000D01*
X116583223Y-108775000D01*
X116287726Y-108577556D01*
X116249740Y-108570000D01*
X148595000Y-108570000D01*
X148595000Y-123570000D01*
X148601245Y-123601396D01*
X148601245Y-123633404D01*
X148677365Y-124016087D01*
X148725892Y-124133243D01*
X148942664Y-124457665D01*
X148942665Y-124457668D01*
X149032333Y-124547335D01*
X149356757Y-124764108D01*
X149473912Y-124812635D01*
X149473913Y-124812635D01*
X149856594Y-124888755D01*
X149983404Y-124888755D01*
X150366087Y-124812635D01*
X150483243Y-124764108D01*
X150483244Y-124764107D01*
X150807665Y-124547336D01*
X150807668Y-124547335D01*
X150897335Y-124457667D01*
X151114108Y-124133243D01*
X151162635Y-124016088D01*
X151162635Y-124016087D01*
X151238755Y-123633404D01*
X151238755Y-123601396D01*
X151245000Y-123570000D01*
X151245000Y-108570000D01*
X151238755Y-108538604D01*
X151238755Y-108506596D01*
X151162635Y-108123913D01*
X151151017Y-108095863D01*
X151114108Y-108006757D01*
X150897335Y-107682333D01*
X150807668Y-107592665D01*
X150807665Y-107592664D01*
X150483243Y-107375892D01*
X150366087Y-107327365D01*
X149983404Y-107251245D01*
X149856594Y-107251245D01*
X149473913Y-107327365D01*
X149473912Y-107327365D01*
X149356757Y-107375892D01*
X149032333Y-107592665D01*
X148942665Y-107682332D01*
X148942665Y-107682333D01*
X148725893Y-108006756D01*
X148725892Y-108006757D01*
X148677365Y-108123913D01*
X148601245Y-108506596D01*
X148601245Y-108538604D01*
X148595000Y-108570000D01*
X116249740Y-108570000D01*
X115997755Y-108519877D01*
X116799490Y-108519877D01*
X116901399Y-108500702D01*
X116994996Y-108440474D01*
X117057786Y-108348576D01*
X117079877Y-108239490D01*
X117079877Y-107715000D01*
X122356217Y-107715000D01*
X122380102Y-107724918D01*
X122569069Y-107725082D01*
X122743714Y-107652920D01*
X122877451Y-107519417D01*
X122949918Y-107344898D01*
X122950082Y-107155931D01*
X122877920Y-106981286D01*
X122744417Y-106847549D01*
X122669892Y-106816603D01*
X122646775Y-106801157D01*
X122619745Y-106795780D01*
X122569898Y-106775082D01*
X122515448Y-106775035D01*
X122465000Y-106765000D01*
X117079877Y-106765000D01*
X117079877Y-106240510D01*
X117060702Y-106138601D01*
X117000474Y-106045004D01*
X116908576Y-105982214D01*
X116799490Y-105960123D01*
X114800510Y-105960123D01*
X114698601Y-105979298D01*
X114605004Y-106039526D01*
X114542214Y-106131424D01*
X114520123Y-106240510D01*
X110695000Y-106240510D01*
X110695000Y-104234069D01*
X128556918Y-104234069D01*
X128629080Y-104408714D01*
X128741248Y-104521079D01*
X128629549Y-104632583D01*
X128557082Y-104807102D01*
X128556918Y-104996069D01*
X128629080Y-105170714D01*
X128741248Y-105283079D01*
X128629549Y-105394583D01*
X128557082Y-105569102D01*
X128556918Y-105758069D01*
X128629080Y-105932714D01*
X128762583Y-106066451D01*
X128937102Y-106138918D01*
X129126069Y-106139082D01*
X129300714Y-106066920D01*
X129434451Y-105933417D01*
X129506918Y-105758898D01*
X129507082Y-105569931D01*
X129434920Y-105395286D01*
X129322752Y-105282921D01*
X129434451Y-105171417D01*
X129506918Y-104996898D01*
X129507082Y-104807931D01*
X129434920Y-104633286D01*
X129322752Y-104520921D01*
X129434451Y-104409417D01*
X129506918Y-104234898D01*
X129507082Y-104045931D01*
X129434920Y-103871286D01*
X129301417Y-103737549D01*
X129126898Y-103665082D01*
X128937931Y-103664918D01*
X128763286Y-103737080D01*
X128629549Y-103870583D01*
X128557082Y-104045102D01*
X128556918Y-104234069D01*
X110695000Y-104234069D01*
X110695000Y-91620000D01*
X110694520Y-91615123D01*
X110618400Y-91232440D01*
X110614667Y-91223428D01*
X110397894Y-90899004D01*
X110390996Y-90892106D01*
X110066572Y-90675333D01*
X110057560Y-90671600D01*
X109674877Y-90595480D01*
X109670000Y-90595000D01*
X106672464Y-90595000D01*
X106297071Y-90520330D01*
X105980917Y-90309083D01*
X105769670Y-89992929D01*
X105695000Y-89617536D01*
X105695000Y-83454490D01*
X110532375Y-83454490D01*
X110641682Y-83719032D01*
X110843904Y-83921607D01*
X111108255Y-84031375D01*
X111158247Y-84031419D01*
X113893414Y-86766586D01*
X133197414Y-106070587D01*
X133383957Y-106195231D01*
X133604000Y-106239000D01*
X159699000Y-106239000D01*
X159699000Y-114365357D01*
X159664393Y-114399904D01*
X159554625Y-114664255D01*
X159554375Y-114950490D01*
X159663682Y-115215032D01*
X159865904Y-115417607D01*
X160130255Y-115527375D01*
X160416490Y-115527625D01*
X160681032Y-115418318D01*
X160883607Y-115216096D01*
X160993375Y-114951745D01*
X160993625Y-114665510D01*
X160884318Y-114400968D01*
X160849000Y-114365588D01*
X160849000Y-103124000D01*
X160805231Y-102903957D01*
X160680586Y-102717414D01*
X158961582Y-100998410D01*
X158961625Y-100949510D01*
X158852318Y-100684968D01*
X158650096Y-100482393D01*
X158385745Y-100372625D01*
X158099510Y-100372375D01*
X157834968Y-100481682D01*
X157632393Y-100683904D01*
X157522625Y-100948255D01*
X157522375Y-101234490D01*
X157631682Y-101499032D01*
X157833904Y-101701607D01*
X158098255Y-101811375D01*
X158148247Y-101811419D01*
X159699000Y-103362172D01*
X159699000Y-105089000D01*
X133842173Y-105089000D01*
X132631133Y-103877960D01*
X136935000Y-103877960D01*
X136935000Y-103922040D01*
X137020636Y-104352559D01*
X137264505Y-104717535D01*
X137629481Y-104961404D01*
X138060000Y-105047040D01*
X138490519Y-104961404D01*
X138855495Y-104717535D01*
X139099364Y-104352559D01*
X139185000Y-103922040D01*
X139185000Y-103877960D01*
X139099364Y-103447441D01*
X138855495Y-103082465D01*
X138806908Y-103050000D01*
X142009613Y-103050000D01*
X142009613Y-104750000D01*
X142028788Y-104851909D01*
X142089016Y-104945506D01*
X142180914Y-105008296D01*
X142290000Y-105030387D01*
X143990000Y-105030387D01*
X144091909Y-105011212D01*
X144185506Y-104950984D01*
X144248296Y-104859086D01*
X144270387Y-104750000D01*
X144270387Y-103050000D01*
X144251212Y-102948091D01*
X144190984Y-102854494D01*
X144099086Y-102791704D01*
X143990000Y-102769613D01*
X142290000Y-102769613D01*
X142188091Y-102788788D01*
X142094494Y-102849016D01*
X142031704Y-102940914D01*
X142009613Y-103050000D01*
X138806908Y-103050000D01*
X138490519Y-102838596D01*
X138060000Y-102752960D01*
X137629481Y-102838596D01*
X137264505Y-103082465D01*
X137020636Y-103447441D01*
X136935000Y-103877960D01*
X132631133Y-103877960D01*
X125693173Y-96940000D01*
X160667613Y-96940000D01*
X160667613Y-98640000D01*
X160686788Y-98741909D01*
X160747016Y-98835506D01*
X160838914Y-98898296D01*
X160948000Y-98920387D01*
X162648000Y-98920387D01*
X162749909Y-98901212D01*
X162843506Y-98840984D01*
X162906296Y-98749086D01*
X162928387Y-98640000D01*
X162928387Y-96940000D01*
X162909212Y-96838091D01*
X162848984Y-96744494D01*
X162757086Y-96681704D01*
X162648000Y-96659613D01*
X160948000Y-96659613D01*
X160846091Y-96678788D01*
X160752494Y-96739016D01*
X160689704Y-96830914D01*
X160667613Y-96940000D01*
X125693173Y-96940000D01*
X124907663Y-96154490D01*
X128058375Y-96154490D01*
X128167682Y-96419032D01*
X128369904Y-96621607D01*
X128634255Y-96731375D01*
X128920490Y-96731625D01*
X129185032Y-96622318D01*
X129387607Y-96420096D01*
X129497375Y-96155745D01*
X129497529Y-95979000D01*
X138757532Y-95979000D01*
X138891904Y-96113607D01*
X139156255Y-96223375D01*
X139442490Y-96223625D01*
X139707032Y-96114318D01*
X139909607Y-95912096D01*
X140019375Y-95647745D01*
X140019625Y-95361510D01*
X139910318Y-95096968D01*
X139708096Y-94894393D01*
X139443745Y-94784625D01*
X139157510Y-94784375D01*
X138892968Y-94893682D01*
X138757414Y-95029000D01*
X129286000Y-95029000D01*
X129104225Y-95065157D01*
X128950124Y-95168124D01*
X128950122Y-95168127D01*
X128825708Y-95292541D01*
X128635510Y-95292375D01*
X128370968Y-95401682D01*
X128168393Y-95603904D01*
X128058625Y-95868255D01*
X128058375Y-96154490D01*
X124907663Y-96154490D01*
X114706586Y-85953414D01*
X111971582Y-83218410D01*
X111971625Y-83169510D01*
X111862318Y-82904968D01*
X111660096Y-82702393D01*
X111395745Y-82592625D01*
X111109510Y-82592375D01*
X110844968Y-82701682D01*
X110642393Y-82903904D01*
X110532625Y-83168255D01*
X110532375Y-83454490D01*
X105695000Y-83454490D01*
X105695000Y-82192490D01*
X107480375Y-82192490D01*
X107589682Y-82457032D01*
X107791904Y-82659607D01*
X108056255Y-82769375D01*
X108342490Y-82769625D01*
X108430470Y-82733272D01*
X108430375Y-82842490D01*
X108539682Y-83107032D01*
X108741904Y-83309607D01*
X109006255Y-83419375D01*
X109292490Y-83419625D01*
X109557032Y-83310318D01*
X109759607Y-83108096D01*
X109869375Y-82843745D01*
X109869561Y-82630501D01*
X110644499Y-82630501D01*
X110788006Y-82601956D01*
X110909664Y-82520666D01*
X114955330Y-78475000D01*
X116420000Y-78475000D01*
X116563507Y-78446455D01*
X116685165Y-78365165D01*
X117628090Y-77422240D01*
X117875000Y-77587219D01*
X117875000Y-79742000D01*
X117911157Y-79923775D01*
X118014124Y-80077876D01*
X123425000Y-85488752D01*
X123425000Y-89852032D01*
X123290393Y-89986404D01*
X123180625Y-90250755D01*
X123180375Y-90536990D01*
X123289682Y-90801532D01*
X123491904Y-91004107D01*
X123756255Y-91113875D01*
X124042490Y-91114125D01*
X124180248Y-91057204D01*
X124042209Y-91195243D01*
X123852012Y-91195077D01*
X123587470Y-91304384D01*
X123384895Y-91506606D01*
X123275127Y-91770957D01*
X123274877Y-92057192D01*
X123384184Y-92321734D01*
X123586406Y-92524309D01*
X123850757Y-92634077D01*
X124136992Y-92634327D01*
X124401534Y-92525020D01*
X124604109Y-92322798D01*
X124713877Y-92058447D01*
X124714044Y-91866911D01*
X125811873Y-90769082D01*
X125811876Y-90769080D01*
X125825000Y-90749439D01*
X125825000Y-93457532D01*
X125690393Y-93591904D01*
X125580625Y-93856255D01*
X125580375Y-94142490D01*
X125689682Y-94407032D01*
X125891904Y-94609607D01*
X126156255Y-94719375D01*
X126442490Y-94719625D01*
X126707032Y-94610318D01*
X126909607Y-94408096D01*
X127019375Y-94143745D01*
X127019625Y-93857510D01*
X126910318Y-93592968D01*
X126775000Y-93457414D01*
X126775000Y-92978344D01*
X155738765Y-92978344D01*
X155944617Y-93476543D01*
X156325452Y-93858043D01*
X156823291Y-94064764D01*
X157362344Y-94065235D01*
X157860543Y-93859383D01*
X158242043Y-93478548D01*
X158448764Y-92980709D01*
X158448766Y-92978344D01*
X164628765Y-92978344D01*
X164834617Y-93476543D01*
X165215452Y-93858043D01*
X165713291Y-94064764D01*
X166252344Y-94065235D01*
X166750543Y-93859383D01*
X167132043Y-93478548D01*
X167338764Y-92980709D01*
X167339235Y-92441656D01*
X167133383Y-91943457D01*
X166752548Y-91561957D01*
X166254709Y-91355236D01*
X165715656Y-91354765D01*
X165217457Y-91560617D01*
X164835957Y-91941452D01*
X164629236Y-92439291D01*
X164628765Y-92978344D01*
X158448766Y-92978344D01*
X158449235Y-92441656D01*
X158243383Y-91943457D01*
X157862548Y-91561957D01*
X157364709Y-91355236D01*
X156825656Y-91354765D01*
X156327457Y-91560617D01*
X155945957Y-91941452D01*
X155739236Y-92439291D01*
X155738765Y-92978344D01*
X126775000Y-92978344D01*
X126775000Y-86248490D01*
X133392375Y-86248490D01*
X133501682Y-86513032D01*
X133703904Y-86715607D01*
X133968255Y-86825375D01*
X134159790Y-86825542D01*
X137840124Y-90505876D01*
X137994225Y-90608843D01*
X138176000Y-90645000D01*
X149986753Y-90645000D01*
X150270840Y-91332543D01*
X150848416Y-91911129D01*
X151603442Y-92224643D01*
X152420971Y-92225356D01*
X153176543Y-91913160D01*
X153755129Y-91335584D01*
X154068643Y-90580558D01*
X154069356Y-89763029D01*
X153757160Y-89007457D01*
X153179584Y-88428871D01*
X152424558Y-88115357D01*
X151607029Y-88114644D01*
X150851457Y-88426840D01*
X150272871Y-89004416D01*
X149986116Y-89695000D01*
X138372752Y-89695000D01*
X135269712Y-86591960D01*
X149497000Y-86591960D01*
X149497000Y-86636040D01*
X149582636Y-87066559D01*
X149826505Y-87431535D01*
X150191481Y-87675404D01*
X150622000Y-87761040D01*
X151052519Y-87675404D01*
X151417495Y-87431535D01*
X151661364Y-87066559D01*
X151747000Y-86636040D01*
X151747000Y-86591960D01*
X151661364Y-86161441D01*
X151417495Y-85796465D01*
X151052519Y-85552596D01*
X150622000Y-85466960D01*
X150191481Y-85552596D01*
X149826505Y-85796465D01*
X149582636Y-86161441D01*
X149497000Y-86591960D01*
X135269712Y-86591960D01*
X134831459Y-86153707D01*
X134831625Y-85963510D01*
X134722318Y-85698968D01*
X134520096Y-85496393D01*
X134255745Y-85386625D01*
X133969510Y-85386375D01*
X133704968Y-85495682D01*
X133502393Y-85697904D01*
X133392625Y-85962255D01*
X133392375Y-86248490D01*
X126775000Y-86248490D01*
X126775000Y-85358344D01*
X160188765Y-85358344D01*
X160394617Y-85856543D01*
X160775452Y-86238043D01*
X161273291Y-86444764D01*
X161812344Y-86445235D01*
X162310543Y-86239383D01*
X162692043Y-85858548D01*
X162898764Y-85360709D01*
X162899235Y-84821656D01*
X162693383Y-84323457D01*
X162312548Y-83941957D01*
X161814709Y-83735236D01*
X161275656Y-83734765D01*
X160777457Y-83940617D01*
X160395957Y-84321452D01*
X160189236Y-84819291D01*
X160188765Y-85358344D01*
X126775000Y-85358344D01*
X126775000Y-84499995D01*
X126775001Y-84499990D01*
X126738843Y-84318216D01*
X126738843Y-84318215D01*
X126635876Y-84164114D01*
X124656252Y-82184490D01*
X142282375Y-82184490D01*
X142391682Y-82449032D01*
X142593904Y-82651607D01*
X142858255Y-82761375D01*
X143144490Y-82761625D01*
X143409032Y-82652318D01*
X143611607Y-82450096D01*
X143721375Y-82185745D01*
X143721542Y-81994210D01*
X144637262Y-81078490D01*
X153458375Y-81078490D01*
X153567682Y-81343032D01*
X153769904Y-81545607D01*
X154034255Y-81655375D01*
X154320490Y-81655625D01*
X154585032Y-81546318D01*
X154720586Y-81411000D01*
X156685248Y-81411000D01*
X158792541Y-83518292D01*
X158792375Y-83708490D01*
X158901682Y-83973032D01*
X159103904Y-84175607D01*
X159368255Y-84285375D01*
X159654490Y-84285625D01*
X159919032Y-84176318D01*
X160121607Y-83974096D01*
X160231375Y-83709745D01*
X160231625Y-83423510D01*
X160122318Y-83158968D01*
X159920096Y-82956393D01*
X159655745Y-82846625D01*
X159464209Y-82846458D01*
X157217876Y-80600124D01*
X157063775Y-80497157D01*
X156882000Y-80461000D01*
X154720468Y-80461000D01*
X154586096Y-80326393D01*
X154321745Y-80216625D01*
X154035510Y-80216375D01*
X153770968Y-80325682D01*
X153568393Y-80527904D01*
X153458625Y-80792255D01*
X153458375Y-81078490D01*
X144637262Y-81078490D01*
X144976752Y-80739000D01*
X145761532Y-80739000D01*
X145895904Y-80873607D01*
X146160255Y-80983375D01*
X146446490Y-80983625D01*
X146711032Y-80874318D01*
X146913607Y-80672096D01*
X147023375Y-80407745D01*
X147023625Y-80121510D01*
X146914318Y-79856968D01*
X146712096Y-79654393D01*
X146447745Y-79544625D01*
X146161510Y-79544375D01*
X145896968Y-79653682D01*
X145761414Y-79789000D01*
X144780005Y-79789000D01*
X144780000Y-79788999D01*
X144628384Y-79819158D01*
X144598225Y-79825157D01*
X144450633Y-79923775D01*
X144444124Y-79928124D01*
X143049707Y-81322541D01*
X142859510Y-81322375D01*
X142594968Y-81431682D01*
X142392393Y-81633904D01*
X142282625Y-81898255D01*
X142282375Y-82184490D01*
X124656252Y-82184490D01*
X121100252Y-78628490D01*
X144568375Y-78628490D01*
X144677682Y-78893032D01*
X144879904Y-79095607D01*
X145144255Y-79205375D01*
X145430490Y-79205625D01*
X145695032Y-79096318D01*
X145830586Y-78961000D01*
X157029248Y-78961000D01*
X157268541Y-79200293D01*
X157268375Y-79390490D01*
X157377682Y-79655032D01*
X157579904Y-79857607D01*
X157844255Y-79967375D01*
X158130490Y-79967625D01*
X158395032Y-79858318D01*
X158597607Y-79656096D01*
X158707375Y-79391745D01*
X158707625Y-79105510D01*
X158598318Y-78840968D01*
X158396096Y-78638393D01*
X158131745Y-78528625D01*
X157940210Y-78528458D01*
X157561876Y-78150124D01*
X157407775Y-78047157D01*
X157226000Y-78011000D01*
X145830468Y-78011000D01*
X145696096Y-77876393D01*
X145431745Y-77766625D01*
X145145510Y-77766375D01*
X144880968Y-77875682D01*
X144678393Y-78077904D01*
X144568625Y-78342255D01*
X144568375Y-78628490D01*
X121100252Y-78628490D01*
X119925010Y-77453248D01*
X119925010Y-77043398D01*
X119931937Y-77078222D01*
X120156730Y-77414649D01*
X120493157Y-77639442D01*
X120890000Y-77718379D01*
X121286843Y-77639442D01*
X121623270Y-77414649D01*
X121848063Y-77078222D01*
X121927000Y-76681379D01*
X121927000Y-76156461D01*
X124933000Y-76156461D01*
X124933000Y-76681379D01*
X125011937Y-77078222D01*
X125236730Y-77414649D01*
X125573157Y-77639442D01*
X125970000Y-77718379D01*
X126366843Y-77639442D01*
X126703270Y-77414649D01*
X126928063Y-77078222D01*
X127007000Y-76681379D01*
X127007000Y-76156461D01*
X127473000Y-76156461D01*
X127473000Y-76681379D01*
X127551937Y-77078222D01*
X127776730Y-77414649D01*
X128113157Y-77639442D01*
X128510000Y-77718379D01*
X128906843Y-77639442D01*
X129243270Y-77414649D01*
X129468063Y-77078222D01*
X129547000Y-76681379D01*
X129547000Y-76156461D01*
X130013000Y-76156461D01*
X130013000Y-76681379D01*
X130091937Y-77078222D01*
X130316730Y-77414649D01*
X130653157Y-77639442D01*
X131050000Y-77718379D01*
X131446843Y-77639442D01*
X131783270Y-77414649D01*
X132008063Y-77078222D01*
X132087000Y-76681379D01*
X132087000Y-76156461D01*
X132553000Y-76156461D01*
X132553000Y-76681379D01*
X132631937Y-77078222D01*
X132856730Y-77414649D01*
X133193157Y-77639442D01*
X133590000Y-77718379D01*
X133986843Y-77639442D01*
X134323270Y-77414649D01*
X134548063Y-77078222D01*
X134627000Y-76681379D01*
X134627000Y-76156461D01*
X135093000Y-76156461D01*
X135093000Y-76681379D01*
X135171937Y-77078222D01*
X135396730Y-77414649D01*
X135733157Y-77639442D01*
X136130000Y-77718379D01*
X136526843Y-77639442D01*
X136863270Y-77414649D01*
X137088063Y-77078222D01*
X137167000Y-76681379D01*
X137167000Y-76156461D01*
X137633000Y-76156461D01*
X137633000Y-76681379D01*
X137711937Y-77078222D01*
X137936730Y-77414649D01*
X138273157Y-77639442D01*
X138670000Y-77718379D01*
X139066843Y-77639442D01*
X139403270Y-77414649D01*
X139628063Y-77078222D01*
X139707000Y-76681379D01*
X139707000Y-76156461D01*
X140173000Y-76156461D01*
X140173000Y-76681379D01*
X140251937Y-77078222D01*
X140476730Y-77414649D01*
X140813157Y-77639442D01*
X141210000Y-77718379D01*
X141606843Y-77639442D01*
X141943270Y-77414649D01*
X142168063Y-77078222D01*
X142247000Y-76681379D01*
X142247000Y-76156461D01*
X145253000Y-76156461D01*
X145253000Y-76681379D01*
X145331937Y-77078222D01*
X145556730Y-77414649D01*
X145893157Y-77639442D01*
X146290000Y-77718379D01*
X146686843Y-77639442D01*
X147023270Y-77414649D01*
X147248063Y-77078222D01*
X147327000Y-76681379D01*
X147327000Y-76156461D01*
X147793000Y-76156461D01*
X147793000Y-76681379D01*
X147871937Y-77078222D01*
X148096730Y-77414649D01*
X148433157Y-77639442D01*
X148830000Y-77718379D01*
X149226843Y-77639442D01*
X149563270Y-77414649D01*
X149788063Y-77078222D01*
X149867000Y-76681379D01*
X149867000Y-76156461D01*
X150333000Y-76156461D01*
X150333000Y-76681379D01*
X150411937Y-77078222D01*
X150636730Y-77414649D01*
X150973157Y-77639442D01*
X151370000Y-77718379D01*
X151766843Y-77639442D01*
X152103270Y-77414649D01*
X152328063Y-77078222D01*
X152407000Y-76681379D01*
X152407000Y-76156461D01*
X152873000Y-76156461D01*
X152873000Y-76681379D01*
X152951937Y-77078222D01*
X153176730Y-77414649D01*
X153513157Y-77639442D01*
X153910000Y-77718379D01*
X154306843Y-77639442D01*
X154643270Y-77414649D01*
X154868063Y-77078222D01*
X154947000Y-76681379D01*
X154947000Y-76156461D01*
X155413000Y-76156461D01*
X155413000Y-76681379D01*
X155491937Y-77078222D01*
X155716730Y-77414649D01*
X156053157Y-77639442D01*
X156450000Y-77718379D01*
X156846843Y-77639442D01*
X157183270Y-77414649D01*
X157408063Y-77078222D01*
X157487000Y-76681379D01*
X157487000Y-76156461D01*
X157953000Y-76156461D01*
X157953000Y-76681379D01*
X158031937Y-77078222D01*
X158256730Y-77414649D01*
X158593157Y-77639442D01*
X158990000Y-77718379D01*
X159386843Y-77639442D01*
X159723270Y-77414649D01*
X159948063Y-77078222D01*
X160027000Y-76681379D01*
X160027000Y-76156461D01*
X159948063Y-75759618D01*
X159723270Y-75423191D01*
X159386843Y-75198398D01*
X158990000Y-75119461D01*
X158593157Y-75198398D01*
X158256730Y-75423191D01*
X158031937Y-75759618D01*
X157953000Y-76156461D01*
X157487000Y-76156461D01*
X157408063Y-75759618D01*
X157183270Y-75423191D01*
X156846843Y-75198398D01*
X156450000Y-75119461D01*
X156053157Y-75198398D01*
X155716730Y-75423191D01*
X155491937Y-75759618D01*
X155413000Y-76156461D01*
X154947000Y-76156461D01*
X154868063Y-75759618D01*
X154643270Y-75423191D01*
X154306843Y-75198398D01*
X153910000Y-75119461D01*
X153513157Y-75198398D01*
X153176730Y-75423191D01*
X152951937Y-75759618D01*
X152873000Y-76156461D01*
X152407000Y-76156461D01*
X152328063Y-75759618D01*
X152103270Y-75423191D01*
X151766843Y-75198398D01*
X151370000Y-75119461D01*
X150973157Y-75198398D01*
X150636730Y-75423191D01*
X150411937Y-75759618D01*
X150333000Y-76156461D01*
X149867000Y-76156461D01*
X149788063Y-75759618D01*
X149563270Y-75423191D01*
X149226843Y-75198398D01*
X148830000Y-75119461D01*
X148433157Y-75198398D01*
X148096730Y-75423191D01*
X147871937Y-75759618D01*
X147793000Y-76156461D01*
X147327000Y-76156461D01*
X147248063Y-75759618D01*
X147023270Y-75423191D01*
X146686843Y-75198398D01*
X146290000Y-75119461D01*
X145893157Y-75198398D01*
X145556730Y-75423191D01*
X145331937Y-75759618D01*
X145253000Y-76156461D01*
X142247000Y-76156461D01*
X142168063Y-75759618D01*
X141943270Y-75423191D01*
X141606843Y-75198398D01*
X141210000Y-75119461D01*
X140813157Y-75198398D01*
X140476730Y-75423191D01*
X140251937Y-75759618D01*
X140173000Y-76156461D01*
X139707000Y-76156461D01*
X139628063Y-75759618D01*
X139403270Y-75423191D01*
X139066843Y-75198398D01*
X138670000Y-75119461D01*
X138273157Y-75198398D01*
X137936730Y-75423191D01*
X137711937Y-75759618D01*
X137633000Y-76156461D01*
X137167000Y-76156461D01*
X137088063Y-75759618D01*
X136863270Y-75423191D01*
X136526843Y-75198398D01*
X136130000Y-75119461D01*
X135733157Y-75198398D01*
X135396730Y-75423191D01*
X135171937Y-75759618D01*
X135093000Y-76156461D01*
X134627000Y-76156461D01*
X134548063Y-75759618D01*
X134323270Y-75423191D01*
X133986843Y-75198398D01*
X133590000Y-75119461D01*
X133193157Y-75198398D01*
X132856730Y-75423191D01*
X132631937Y-75759618D01*
X132553000Y-76156461D01*
X132087000Y-76156461D01*
X132008063Y-75759618D01*
X131783270Y-75423191D01*
X131446843Y-75198398D01*
X131050000Y-75119461D01*
X130653157Y-75198398D01*
X130316730Y-75423191D01*
X130091937Y-75759618D01*
X130013000Y-76156461D01*
X129547000Y-76156461D01*
X129468063Y-75759618D01*
X129243270Y-75423191D01*
X128906843Y-75198398D01*
X128510000Y-75119461D01*
X128113157Y-75198398D01*
X127776730Y-75423191D01*
X127551937Y-75759618D01*
X127473000Y-76156461D01*
X127007000Y-76156461D01*
X126928063Y-75759618D01*
X126703270Y-75423191D01*
X126366843Y-75198398D01*
X125970000Y-75119461D01*
X125573157Y-75198398D01*
X125236730Y-75423191D01*
X125011937Y-75759618D01*
X124933000Y-76156461D01*
X121927000Y-76156461D01*
X121848063Y-75759618D01*
X121623270Y-75423191D01*
X121286843Y-75198398D01*
X120890000Y-75119461D01*
X120493157Y-75198398D01*
X120156730Y-75423191D01*
X119931937Y-75759618D01*
X119925010Y-75794442D01*
X119925010Y-75714361D01*
X119888853Y-75532586D01*
X119785886Y-75378485D01*
X119141515Y-74734114D01*
X118987414Y-74631147D01*
X118805639Y-74594990D01*
X116910010Y-74594990D01*
X116728235Y-74631147D01*
X116574134Y-74734114D01*
X116125942Y-75182306D01*
X115810000Y-75119461D01*
X115413157Y-75198398D01*
X115076730Y-75423191D01*
X114851937Y-75759618D01*
X114773000Y-76156461D01*
X114773000Y-76676670D01*
X114312387Y-77137283D01*
X114312387Y-75419430D01*
X114293212Y-75317521D01*
X114232984Y-75223924D01*
X114141086Y-75161134D01*
X114032000Y-75139043D01*
X112508000Y-75139043D01*
X112406091Y-75158218D01*
X112312494Y-75218446D01*
X112249704Y-75310344D01*
X112227613Y-75419430D01*
X112227613Y-77418410D01*
X112246788Y-77520319D01*
X112307016Y-77613916D01*
X112398914Y-77676706D01*
X112508000Y-77698797D01*
X113750873Y-77698797D01*
X110219169Y-81230501D01*
X108644499Y-81230501D01*
X108500993Y-81259046D01*
X108379334Y-81340336D01*
X108375754Y-81343916D01*
X108343745Y-81330625D01*
X108057510Y-81330375D01*
X107792968Y-81439682D01*
X107590393Y-81641904D01*
X107480625Y-81906255D01*
X107480375Y-82192490D01*
X105695000Y-82192490D01*
X105695000Y-79622464D01*
X105769670Y-79247071D01*
X105980917Y-78930917D01*
X106297071Y-78719670D01*
X106672464Y-78645000D01*
X111170000Y-78645000D01*
X111174877Y-78644520D01*
X111557560Y-78568400D01*
X111566572Y-78564667D01*
X111890996Y-78347894D01*
X111897894Y-78340996D01*
X112114667Y-78016572D01*
X112118400Y-78007560D01*
X112194520Y-77624877D01*
X112195000Y-77620000D01*
X112195000Y-73118621D01*
X112233000Y-73118621D01*
X112233000Y-73643539D01*
X112311937Y-74040382D01*
X112536730Y-74376809D01*
X112873157Y-74601602D01*
X113270000Y-74680539D01*
X113666843Y-74601602D01*
X114003270Y-74376809D01*
X114228063Y-74040382D01*
X114307000Y-73643539D01*
X114307000Y-73118621D01*
X114773000Y-73118621D01*
X114773000Y-73643539D01*
X114851937Y-74040382D01*
X115076730Y-74376809D01*
X115413157Y-74601602D01*
X115810000Y-74680539D01*
X116206843Y-74601602D01*
X116543270Y-74376809D01*
X116768063Y-74040382D01*
X116847000Y-73643539D01*
X116847000Y-73118621D01*
X119853000Y-73118621D01*
X119853000Y-73643539D01*
X119931937Y-74040382D01*
X120156730Y-74376809D01*
X120493157Y-74601602D01*
X120890000Y-74680539D01*
X121286843Y-74601602D01*
X121623270Y-74376809D01*
X121848063Y-74040382D01*
X121927000Y-73643539D01*
X121927000Y-73118621D01*
X122393000Y-73118621D01*
X122393000Y-73643539D01*
X122471937Y-74040382D01*
X122696730Y-74376809D01*
X123033157Y-74601602D01*
X123430000Y-74680539D01*
X123826843Y-74601602D01*
X124163270Y-74376809D01*
X124388063Y-74040382D01*
X124467000Y-73643539D01*
X124467000Y-73118621D01*
X124933000Y-73118621D01*
X124933000Y-73643539D01*
X125011937Y-74040382D01*
X125236730Y-74376809D01*
X125573157Y-74601602D01*
X125970000Y-74680539D01*
X126366843Y-74601602D01*
X126703270Y-74376809D01*
X126928063Y-74040382D01*
X127007000Y-73643539D01*
X127007000Y-73118621D01*
X130013000Y-73118621D01*
X130013000Y-73643539D01*
X130091937Y-74040382D01*
X130316730Y-74376809D01*
X130653157Y-74601602D01*
X131050000Y-74680539D01*
X131446843Y-74601602D01*
X131783270Y-74376809D01*
X132008063Y-74040382D01*
X132087000Y-73643539D01*
X132087000Y-73118621D01*
X132553000Y-73118621D01*
X132553000Y-73643539D01*
X132631937Y-74040382D01*
X132856730Y-74376809D01*
X133193157Y-74601602D01*
X133590000Y-74680539D01*
X133986843Y-74601602D01*
X134323270Y-74376809D01*
X134548063Y-74040382D01*
X134627000Y-73643539D01*
X134627000Y-73118621D01*
X137633000Y-73118621D01*
X137633000Y-73643539D01*
X137711937Y-74040382D01*
X137936730Y-74376809D01*
X138273157Y-74601602D01*
X138670000Y-74680539D01*
X139066843Y-74601602D01*
X139403270Y-74376809D01*
X139628063Y-74040382D01*
X139707000Y-73643539D01*
X139707000Y-73118621D01*
X140173000Y-73118621D01*
X140173000Y-73643539D01*
X140251937Y-74040382D01*
X140476730Y-74376809D01*
X140813157Y-74601602D01*
X141210000Y-74680539D01*
X141606843Y-74601602D01*
X141943270Y-74376809D01*
X142168063Y-74040382D01*
X142247000Y-73643539D01*
X142247000Y-73118621D01*
X142713000Y-73118621D01*
X142713000Y-73643539D01*
X142791937Y-74040382D01*
X143016730Y-74376809D01*
X143353157Y-74601602D01*
X143750000Y-74680539D01*
X144146843Y-74601602D01*
X144483270Y-74376809D01*
X144708063Y-74040382D01*
X144787000Y-73643539D01*
X144787000Y-73118621D01*
X145253000Y-73118621D01*
X145253000Y-73643539D01*
X145331937Y-74040382D01*
X145556730Y-74376809D01*
X145893157Y-74601602D01*
X146290000Y-74680539D01*
X146686843Y-74601602D01*
X147023270Y-74376809D01*
X147248063Y-74040382D01*
X147327000Y-73643539D01*
X147327000Y-73118621D01*
X150333000Y-73118621D01*
X150333000Y-73643539D01*
X150411937Y-74040382D01*
X150636730Y-74376809D01*
X150973157Y-74601602D01*
X151370000Y-74680539D01*
X151766843Y-74601602D01*
X152103270Y-74376809D01*
X152328063Y-74040382D01*
X152407000Y-73643539D01*
X152407000Y-73118621D01*
X155413000Y-73118621D01*
X155413000Y-73643539D01*
X155491937Y-74040382D01*
X155716730Y-74376809D01*
X156053157Y-74601602D01*
X156450000Y-74680539D01*
X156846843Y-74601602D01*
X157183270Y-74376809D01*
X157408063Y-74040382D01*
X157487000Y-73643539D01*
X157487000Y-73118621D01*
X157953000Y-73118621D01*
X157953000Y-73643539D01*
X158031937Y-74040382D01*
X158256730Y-74376809D01*
X158593157Y-74601602D01*
X158990000Y-74680539D01*
X159386843Y-74601602D01*
X159723270Y-74376809D01*
X159948063Y-74040382D01*
X160027000Y-73643539D01*
X160027000Y-73118621D01*
X160493000Y-73118621D01*
X160493000Y-73643539D01*
X160571937Y-74040382D01*
X160796730Y-74376809D01*
X161133157Y-74601602D01*
X161530000Y-74680539D01*
X161926843Y-74601602D01*
X162263270Y-74376809D01*
X162488063Y-74040382D01*
X162567000Y-73643539D01*
X162567000Y-73118621D01*
X162488063Y-72721778D01*
X162263270Y-72385351D01*
X161926843Y-72160558D01*
X161530000Y-72081621D01*
X161133157Y-72160558D01*
X160796730Y-72385351D01*
X160571937Y-72721778D01*
X160493000Y-73118621D01*
X160027000Y-73118621D01*
X159948063Y-72721778D01*
X159723270Y-72385351D01*
X159386843Y-72160558D01*
X158990000Y-72081621D01*
X158593157Y-72160558D01*
X158256730Y-72385351D01*
X158031937Y-72721778D01*
X157953000Y-73118621D01*
X157487000Y-73118621D01*
X157408063Y-72721778D01*
X157183270Y-72385351D01*
X156846843Y-72160558D01*
X156450000Y-72081621D01*
X156053157Y-72160558D01*
X155716730Y-72385351D01*
X155491937Y-72721778D01*
X155413000Y-73118621D01*
X152407000Y-73118621D01*
X152328063Y-72721778D01*
X152103270Y-72385351D01*
X151766843Y-72160558D01*
X151370000Y-72081621D01*
X150973157Y-72160558D01*
X150636730Y-72385351D01*
X150411937Y-72721778D01*
X150333000Y-73118621D01*
X147327000Y-73118621D01*
X147248063Y-72721778D01*
X147023270Y-72385351D01*
X146686843Y-72160558D01*
X146290000Y-72081621D01*
X145893157Y-72160558D01*
X145556730Y-72385351D01*
X145331937Y-72721778D01*
X145253000Y-73118621D01*
X144787000Y-73118621D01*
X144708063Y-72721778D01*
X144483270Y-72385351D01*
X144146843Y-72160558D01*
X143750000Y-72081621D01*
X143353157Y-72160558D01*
X143016730Y-72385351D01*
X142791937Y-72721778D01*
X142713000Y-73118621D01*
X142247000Y-73118621D01*
X142168063Y-72721778D01*
X141943270Y-72385351D01*
X141606843Y-72160558D01*
X141210000Y-72081621D01*
X140813157Y-72160558D01*
X140476730Y-72385351D01*
X140251937Y-72721778D01*
X140173000Y-73118621D01*
X139707000Y-73118621D01*
X139628063Y-72721778D01*
X139403270Y-72385351D01*
X139066843Y-72160558D01*
X138670000Y-72081621D01*
X138273157Y-72160558D01*
X137936730Y-72385351D01*
X137711937Y-72721778D01*
X137633000Y-73118621D01*
X134627000Y-73118621D01*
X134548063Y-72721778D01*
X134323270Y-72385351D01*
X133986843Y-72160558D01*
X133590000Y-72081621D01*
X133193157Y-72160558D01*
X132856730Y-72385351D01*
X132631937Y-72721778D01*
X132553000Y-73118621D01*
X132087000Y-73118621D01*
X132008063Y-72721778D01*
X131783270Y-72385351D01*
X131446843Y-72160558D01*
X131050000Y-72081621D01*
X130653157Y-72160558D01*
X130316730Y-72385351D01*
X130091937Y-72721778D01*
X130013000Y-73118621D01*
X127007000Y-73118621D01*
X126928063Y-72721778D01*
X126703270Y-72385351D01*
X126366843Y-72160558D01*
X125970000Y-72081621D01*
X125573157Y-72160558D01*
X125236730Y-72385351D01*
X125011937Y-72721778D01*
X124933000Y-73118621D01*
X124467000Y-73118621D01*
X124388063Y-72721778D01*
X124163270Y-72385351D01*
X123826843Y-72160558D01*
X123430000Y-72081621D01*
X123033157Y-72160558D01*
X122696730Y-72385351D01*
X122471937Y-72721778D01*
X122393000Y-73118621D01*
X121927000Y-73118621D01*
X121848063Y-72721778D01*
X121623270Y-72385351D01*
X121286843Y-72160558D01*
X120890000Y-72081621D01*
X120493157Y-72160558D01*
X120156730Y-72385351D01*
X119931937Y-72721778D01*
X119853000Y-73118621D01*
X116847000Y-73118621D01*
X116768063Y-72721778D01*
X116543270Y-72385351D01*
X116206843Y-72160558D01*
X115810000Y-72081621D01*
X115413157Y-72160558D01*
X115076730Y-72385351D01*
X114851937Y-72721778D01*
X114773000Y-73118621D01*
X114307000Y-73118621D01*
X114228063Y-72721778D01*
X114003270Y-72385351D01*
X113666843Y-72160558D01*
X113270000Y-72081621D01*
X112873157Y-72160558D01*
X112536730Y-72385351D01*
X112311937Y-72721778D01*
X112233000Y-73118621D01*
X112195000Y-73118621D01*
X112195000Y-72622464D01*
X112269670Y-72247071D01*
X112480917Y-71930917D01*
X112797071Y-71719670D01*
X113172464Y-71645000D01*
X162167536Y-71645000D01*
X162542929Y-71719670D01*
M02*
