%FSLAX45Y45*%
G04 Gerber Fmt 4.5, Leading zero omitted, Abs format (unit mm)*
G04 Created by KiCad (PCBNEW 4.0.7-e1-6374~58~ubuntu16.04.1) date Tue Aug 22 17:37:20 2017*
%MOMM*%
%LPD*%
G01*
G04 APERTURE LIST*
%ADD10C,0.127000*%
%ADD11C,0.100000*%
%ADD12C,0.200000*%
%ADD13C,0.300000*%
G04 APERTURE END LIST*
D10*
D11*
X15092000Y-10857000D02*
G75*
G03X14992000Y-10757000I-100000J0D01*
G01*
X14992000Y-10757000D02*
G75*
G03X14892000Y-10857000I0J-100000D01*
G01*
X10492000Y-10907000D02*
X10492000Y-12457000D01*
X10492000Y-9007000D02*
X10492000Y-7407000D01*
X10892000Y-10807000D02*
X10592000Y-10807000D01*
X10992000Y-9207000D02*
X10992000Y-10707000D01*
X10592000Y-9107000D02*
X10892000Y-9107000D01*
X10892000Y-10807000D02*
G75*
G03X10992000Y-10707000I0J100000D01*
G01*
X10992000Y-9207000D02*
G75*
G03X10892000Y-9107000I-100000J0D01*
G01*
X10592000Y-10807000D02*
G75*
G03X10492000Y-10907000I0J-100000D01*
G01*
X10492000Y-9007000D02*
G75*
G03X10592000Y-9107000I100000J0D01*
G01*
X14892000Y-12357000D02*
X14892000Y-10857000D01*
X15092000Y-10857000D02*
X15092000Y-12357000D01*
X14992000Y-12457000D02*
G75*
G03X15092000Y-12357000I0J100000D01*
G01*
X14892000Y-12357000D02*
G75*
G03X14992000Y-12457000I100000J0D01*
G01*
X16692000Y-12757000D02*
X10792000Y-12757000D01*
X16992000Y-7407000D02*
X16992000Y-12457000D01*
X10792000Y-7107000D02*
X16692000Y-7107000D01*
X16692000Y-12757000D02*
G75*
G03X16992000Y-12457000I0J300000D01*
G01*
X10792000Y-7107000D02*
G75*
G03X10492000Y-7407000I0J-300000D01*
G01*
X16992000Y-7407000D02*
G75*
G03X16692000Y-7107000I-300000J0D01*
G01*
X10492000Y-12457000D02*
G75*
G03X10792000Y-12757000I300000J0D01*
G01*
D12*
X12130000Y-8280000D02*
X12152000Y-8302000D01*
X12152000Y-8280000D02*
X12130000Y-8302000D01*
X12320000Y-8280000D02*
X12342000Y-8302000D01*
X12342000Y-8280000D02*
X12320000Y-8302000D01*
X12481000Y-9181000D02*
X12503000Y-9203000D01*
X12503000Y-9181000D02*
X12481000Y-9203000D01*
X12524000Y-9224000D02*
X12546000Y-9246000D01*
X12546000Y-9224000D02*
X12524000Y-9246000D01*
X12586000Y-7802000D02*
X12608000Y-7824000D01*
X12608000Y-7802000D02*
X12586000Y-7824000D01*
X12715000Y-7802000D02*
X12737000Y-7824000D01*
X12737000Y-7802000D02*
X12715000Y-7824000D01*
X12765000Y-8130891D02*
X12787000Y-8152891D01*
X12787000Y-8130891D02*
X12765000Y-8152891D01*
X12830000Y-7980891D02*
X12852000Y-8002891D01*
X12852000Y-7980891D02*
X12830000Y-8002891D01*
X13272000Y-11053000D02*
X13294000Y-11075000D01*
X13294000Y-11053000D02*
X13272000Y-11075000D01*
X13337000Y-10999000D02*
X13359000Y-11021000D01*
X13359000Y-10999000D02*
X13337000Y-11021000D01*
X13499000Y-9940000D02*
X13521000Y-9962000D01*
X13521000Y-9940000D02*
X13499000Y-9962000D01*
X13504000Y-9580001D02*
X13526000Y-9602001D01*
X13526000Y-9580001D02*
X13504000Y-9602001D01*
X13504000Y-9673000D02*
X13526000Y-9695000D01*
X13526000Y-9673000D02*
X13504000Y-9695000D01*
X13525000Y-10443000D02*
X13547000Y-10465000D01*
X13547000Y-10443000D02*
X13525000Y-10465000D01*
X13592000Y-10443000D02*
X13614000Y-10465000D01*
X13614000Y-10443000D02*
X13592000Y-10465000D01*
X13608000Y-9671000D02*
X13630000Y-9693000D01*
X13630000Y-9671000D02*
X13608000Y-9693000D01*
X13662000Y-10442000D02*
X13684000Y-10464000D01*
X13684000Y-10442000D02*
X13662000Y-10464000D01*
X13695000Y-9829000D02*
X13717000Y-9851000D01*
X13717000Y-9829000D02*
X13695000Y-9851000D01*
X13870000Y-10828000D02*
X13892000Y-10850000D01*
X13892000Y-10828000D02*
X13870000Y-10850000D01*
X13870000Y-10988000D02*
X13892000Y-11010000D01*
X13892000Y-10988000D02*
X13870000Y-11010000D01*
X14662000Y-10299000D02*
X14684000Y-10321000D01*
X14684000Y-10299000D02*
X14662000Y-10321000D01*
X14742340Y-9425000D02*
X14764340Y-9447000D01*
X14764340Y-9425000D02*
X14742340Y-9447000D01*
X14873000Y-9425000D02*
X14895000Y-9447000D01*
X14895000Y-9425000D02*
X14873000Y-9447000D01*
X14901000Y-9163000D02*
X14923000Y-9185000D01*
X14923000Y-9163000D02*
X14901000Y-9185000D01*
X14957000Y-10557000D02*
X14979000Y-10579000D01*
X14979000Y-10557000D02*
X14957000Y-10579000D01*
X14957000Y-10622000D02*
X14979000Y-10644000D01*
X14979000Y-10622000D02*
X14957000Y-10644000D01*
X14958000Y-9163000D02*
X14980000Y-9185000D01*
X14980000Y-9163000D02*
X14958000Y-9185000D01*
X15016000Y-9163000D02*
X15038000Y-9185000D01*
X15038000Y-9163000D02*
X15016000Y-9185000D01*
X15881000Y-9290000D02*
X15903000Y-9312000D01*
X15903000Y-9290000D02*
X15881000Y-9312000D01*
X12206250Y-9839500D02*
G75*
G03X12206250Y-9839500I-31750J0D01*
G01*
X13152750Y-8893000D02*
G75*
G03X13152750Y-8893000I-31750J0D01*
G01*
X14139750Y-10910000D02*
G75*
G03X14139750Y-10910000I-31750J0D01*
G01*
X14326750Y-9152000D02*
G75*
G03X14326750Y-9152000I-31750J0D01*
G01*
X14326750Y-9928000D02*
G75*
G03X14326750Y-9928000I-31750J0D01*
G01*
X15567750Y-11416000D02*
G75*
G03X15567750Y-11416000I-31750J0D01*
G01*
X10880000Y-8032500D02*
X10880000Y-8132500D01*
X10830000Y-8082500D02*
X10930000Y-8082500D01*
X10880000Y-8286500D02*
X10880000Y-8386500D01*
X10830000Y-8336500D02*
X10930000Y-8336500D01*
X15491000Y-9821000D02*
X15491000Y-9921000D01*
X15441000Y-9871000D02*
X15541000Y-9871000D01*
X15491000Y-10075000D02*
X15491000Y-10175000D01*
X15441000Y-10125000D02*
X15541000Y-10125000D01*
X15572385Y-8087571D02*
X15572385Y-8187571D01*
X15522385Y-8137571D02*
X15622385Y-8137571D01*
X15572385Y-8341571D02*
X15572385Y-8441571D01*
X15522385Y-8391571D02*
X15622385Y-8391571D01*
X16122229Y-9251822D02*
X16122229Y-9351822D01*
X16072229Y-9301822D02*
X16172229Y-9301822D01*
X16122229Y-9505822D02*
X16122229Y-9605822D01*
X16072229Y-9555822D02*
X16172229Y-9555822D01*
X16122229Y-9759822D02*
X16122229Y-9859822D01*
X16072229Y-9809822D02*
X16172229Y-9809822D01*
X16122229Y-10013822D02*
X16122229Y-10113822D01*
X16072229Y-10063822D02*
X16172229Y-10063822D01*
X11362382Y-7398382D02*
X11362382Y-7327617D01*
X11291617Y-7327617D01*
X11291617Y-7398382D01*
X11362382Y-7398382D01*
X11362382Y-7652382D02*
X11362382Y-7581617D01*
X11291617Y-7581617D01*
X11291617Y-7652382D01*
X11362382Y-7652382D01*
X11616382Y-7398382D02*
X11616382Y-7327617D01*
X11545617Y-7327617D01*
X11545617Y-7398382D01*
X11616382Y-7398382D01*
X11616382Y-7652382D02*
X11616382Y-7581617D01*
X11545617Y-7581617D01*
X11545617Y-7652382D01*
X11616382Y-7652382D01*
X11870382Y-7398382D02*
X11870382Y-7327617D01*
X11799617Y-7327617D01*
X11799617Y-7398382D01*
X11870382Y-7398382D01*
X11870382Y-7652382D02*
X11870382Y-7581617D01*
X11799617Y-7581617D01*
X11799617Y-7652382D01*
X11870382Y-7652382D01*
X12124382Y-7398382D02*
X12124382Y-7327617D01*
X12053617Y-7327617D01*
X12053617Y-7398382D01*
X12124382Y-7398382D01*
X12124382Y-7652382D02*
X12124382Y-7581617D01*
X12053617Y-7581617D01*
X12053617Y-7652382D01*
X12124382Y-7652382D01*
X12378382Y-7398382D02*
X12378382Y-7327617D01*
X12307617Y-7327617D01*
X12307617Y-7398382D01*
X12378382Y-7398382D01*
X12378382Y-7652382D02*
X12378382Y-7581617D01*
X12307617Y-7581617D01*
X12307617Y-7652382D01*
X12378382Y-7652382D01*
X12632382Y-7398382D02*
X12632382Y-7327617D01*
X12561617Y-7327617D01*
X12561617Y-7398382D01*
X12632382Y-7398382D01*
X12632382Y-7652382D02*
X12632382Y-7581617D01*
X12561617Y-7581617D01*
X12561617Y-7652382D01*
X12632382Y-7652382D01*
X12886382Y-7398382D02*
X12886382Y-7327617D01*
X12815617Y-7327617D01*
X12815617Y-7398382D01*
X12886382Y-7398382D01*
X12886382Y-7652382D02*
X12886382Y-7581617D01*
X12815617Y-7581617D01*
X12815617Y-7652382D01*
X12886382Y-7652382D01*
X13140382Y-7398382D02*
X13140382Y-7327617D01*
X13069617Y-7327617D01*
X13069617Y-7398382D01*
X13140382Y-7398382D01*
X13140382Y-7652382D02*
X13140382Y-7581617D01*
X13069617Y-7581617D01*
X13069617Y-7652382D01*
X13140382Y-7652382D01*
X13394382Y-7398382D02*
X13394382Y-7327617D01*
X13323617Y-7327617D01*
X13323617Y-7398382D01*
X13394382Y-7398382D01*
X13394382Y-7652382D02*
X13394382Y-7581617D01*
X13323617Y-7581617D01*
X13323617Y-7652382D01*
X13394382Y-7652382D01*
X13648382Y-7398382D02*
X13648382Y-7327617D01*
X13577617Y-7327617D01*
X13577617Y-7398382D01*
X13648382Y-7398382D01*
X13648382Y-7652382D02*
X13648382Y-7581617D01*
X13577617Y-7581617D01*
X13577617Y-7652382D01*
X13648382Y-7652382D01*
X13902382Y-7398382D02*
X13902382Y-7327617D01*
X13831617Y-7327617D01*
X13831617Y-7398382D01*
X13902382Y-7398382D01*
X13902382Y-7652382D02*
X13902382Y-7581617D01*
X13831617Y-7581617D01*
X13831617Y-7652382D01*
X13902382Y-7652382D01*
X14156382Y-7398382D02*
X14156382Y-7327617D01*
X14085617Y-7327617D01*
X14085617Y-7398382D01*
X14156382Y-7398382D01*
X14156382Y-7652382D02*
X14156382Y-7581617D01*
X14085617Y-7581617D01*
X14085617Y-7652382D01*
X14156382Y-7652382D01*
X14410382Y-7398382D02*
X14410382Y-7327617D01*
X14339617Y-7327617D01*
X14339617Y-7398382D01*
X14410382Y-7398382D01*
X14410382Y-7652382D02*
X14410382Y-7581617D01*
X14339617Y-7581617D01*
X14339617Y-7652382D01*
X14410382Y-7652382D01*
X14664382Y-7398382D02*
X14664382Y-7327617D01*
X14593617Y-7327617D01*
X14593617Y-7398382D01*
X14664382Y-7398382D01*
X14664382Y-7652382D02*
X14664382Y-7581617D01*
X14593617Y-7581617D01*
X14593617Y-7652382D01*
X14664382Y-7652382D01*
X14918382Y-7398382D02*
X14918382Y-7327617D01*
X14847617Y-7327617D01*
X14847617Y-7398382D01*
X14918382Y-7398382D01*
X14918382Y-7652382D02*
X14918382Y-7581617D01*
X14847617Y-7581617D01*
X14847617Y-7652382D01*
X14918382Y-7652382D01*
X15172382Y-7398382D02*
X15172382Y-7327617D01*
X15101617Y-7327617D01*
X15101617Y-7398382D01*
X15172382Y-7398382D01*
X15172382Y-7652382D02*
X15172382Y-7581617D01*
X15101617Y-7581617D01*
X15101617Y-7652382D01*
X15172382Y-7652382D01*
X15426382Y-7398382D02*
X15426382Y-7327617D01*
X15355617Y-7327617D01*
X15355617Y-7398382D01*
X15426382Y-7398382D01*
X15426382Y-7652382D02*
X15426382Y-7581617D01*
X15355617Y-7581617D01*
X15355617Y-7652382D01*
X15426382Y-7652382D01*
X15680382Y-7398382D02*
X15680382Y-7327617D01*
X15609617Y-7327617D01*
X15609617Y-7398382D01*
X15680382Y-7398382D01*
X15680382Y-7652382D02*
X15680382Y-7581617D01*
X15609617Y-7581617D01*
X15609617Y-7652382D01*
X15680382Y-7652382D01*
X15934382Y-7398382D02*
X15934382Y-7327617D01*
X15863617Y-7327617D01*
X15863617Y-7398382D01*
X15934382Y-7398382D01*
X15934382Y-7652382D02*
X15934382Y-7581617D01*
X15863617Y-7581617D01*
X15863617Y-7652382D01*
X15934382Y-7652382D01*
X16188382Y-7398382D02*
X16188382Y-7327617D01*
X16117617Y-7327617D01*
X16117617Y-7398382D01*
X16188382Y-7398382D01*
X16188382Y-7652382D02*
X16188382Y-7581617D01*
X16117617Y-7581617D01*
X16117617Y-7652382D01*
X16188382Y-7652382D01*
X11979000Y-12279000D02*
X12030000Y-12228000D01*
X11979000Y-12177000D01*
X11928000Y-12228000D01*
X11979000Y-12279000D01*
X12116000Y-12533000D02*
X12167000Y-12482000D01*
X12116000Y-12431000D01*
X12065000Y-12482000D01*
X12116000Y-12533000D01*
X12258000Y-12279000D02*
X12309000Y-12228000D01*
X12258000Y-12177000D01*
X12207000Y-12228000D01*
X12258000Y-12279000D01*
X12390000Y-12533000D02*
X12441000Y-12482000D01*
X12390000Y-12431000D01*
X12339000Y-12482000D01*
X12390000Y-12533000D01*
X12525000Y-12279000D02*
X12576000Y-12228000D01*
X12525000Y-12177000D01*
X12474000Y-12228000D01*
X12525000Y-12279000D01*
X12669000Y-12533000D02*
X12720000Y-12482000D01*
X12669000Y-12431000D01*
X12618000Y-12482000D01*
X12669000Y-12533000D01*
X12804000Y-12279000D02*
X12855000Y-12228000D01*
X12804000Y-12177000D01*
X12753000Y-12228000D01*
X12804000Y-12279000D01*
X12944000Y-12533000D02*
X12995000Y-12482000D01*
X12944000Y-12431000D01*
X12893000Y-12482000D01*
X12944000Y-12533000D01*
X13084000Y-12279000D02*
X13135000Y-12228000D01*
X13084000Y-12177000D01*
X13033000Y-12228000D01*
X13084000Y-12279000D01*
X13218000Y-12533000D02*
X13269000Y-12482000D01*
X13218000Y-12431000D01*
X13167000Y-12482000D01*
X13218000Y-12533000D01*
X13363000Y-12279000D02*
X13414000Y-12228000D01*
X13363000Y-12177000D01*
X13312000Y-12228000D01*
X13363000Y-12279000D01*
X13498000Y-12533000D02*
X13549000Y-12482000D01*
X13498000Y-12431000D01*
X13447000Y-12482000D01*
X13498000Y-12533000D01*
X13630000Y-12279000D02*
X13681000Y-12228000D01*
X13630000Y-12177000D01*
X13579000Y-12228000D01*
X13630000Y-12279000D01*
X13752000Y-12533000D02*
X13803000Y-12482000D01*
X13752000Y-12431000D01*
X13701000Y-12482000D01*
X13752000Y-12533000D01*
X13909000Y-12279000D02*
X13960000Y-12228000D01*
X13909000Y-12177000D01*
X13858000Y-12228000D01*
X13909000Y-12279000D01*
X10692013Y-7332013D02*
X10991987Y-7631987D01*
X10991987Y-7332013D02*
X10692013Y-7631987D01*
X10991987Y-7482000D02*
G75*
G03X10991987Y-7482000I-149987J0D01*
G01*
X10692013Y-12232013D02*
X10991987Y-12531987D01*
X10991987Y-12232013D02*
X10692013Y-12531987D01*
X10991987Y-12382000D02*
G75*
G03X10991987Y-12382000I-149987J0D01*
G01*
X16492013Y-7332013D02*
X16791987Y-7631987D01*
X16791987Y-7332013D02*
X16492013Y-7631987D01*
X16791987Y-7482000D02*
G75*
G03X16791987Y-7482000I-149987J0D01*
G01*
X16492013Y-12232013D02*
X16791987Y-12531987D01*
X16791987Y-12232013D02*
X16492013Y-12531987D01*
X16791987Y-12382000D02*
G75*
G03X16791987Y-12382000I-149987J0D01*
G01*
X11114500Y-12304500D02*
X11419500Y-12609500D01*
X11419500Y-12304500D02*
X11114500Y-12609500D01*
X11267000Y-12304500D02*
X11267000Y-12609500D01*
X11114500Y-12457000D02*
X11419500Y-12457000D01*
X14467500Y-12329500D02*
X14772500Y-12634500D01*
X14772500Y-12329500D02*
X14467500Y-12634500D01*
X14620000Y-12329500D02*
X14620000Y-12634500D01*
X14467500Y-12482000D02*
X14772500Y-12482000D01*
D13*
X10758429Y-13227714D02*
X10758429Y-12927714D01*
X10829857Y-12927714D01*
X10872714Y-12942000D01*
X10901286Y-12970571D01*
X10915571Y-12999143D01*
X10929857Y-13056286D01*
X10929857Y-13099143D01*
X10915571Y-13156286D01*
X10901286Y-13184857D01*
X10872714Y-13213429D01*
X10829857Y-13227714D01*
X10758429Y-13227714D01*
X11058429Y-13227714D02*
X11058429Y-13027714D01*
X11058429Y-13084857D02*
X11072714Y-13056286D01*
X11087000Y-13042000D01*
X11115571Y-13027714D01*
X11144143Y-13027714D01*
X11244143Y-13227714D02*
X11244143Y-13027714D01*
X11244143Y-12927714D02*
X11229857Y-12942000D01*
X11244143Y-12956286D01*
X11258428Y-12942000D01*
X11244143Y-12927714D01*
X11244143Y-12956286D01*
X11429857Y-13227714D02*
X11401286Y-13213429D01*
X11387000Y-13184857D01*
X11387000Y-12927714D01*
X11587000Y-13227714D02*
X11558428Y-13213429D01*
X11544143Y-13184857D01*
X11544143Y-12927714D01*
X11929857Y-13227714D02*
X11929857Y-12927714D01*
X12029857Y-13142000D01*
X12129857Y-12927714D01*
X12129857Y-13227714D01*
X12401286Y-13227714D02*
X12401286Y-13070571D01*
X12387000Y-13042000D01*
X12358428Y-13027714D01*
X12301286Y-13027714D01*
X12272714Y-13042000D01*
X12401286Y-13213429D02*
X12372714Y-13227714D01*
X12301286Y-13227714D01*
X12272714Y-13213429D01*
X12258428Y-13184857D01*
X12258428Y-13156286D01*
X12272714Y-13127714D01*
X12301286Y-13113429D01*
X12372714Y-13113429D01*
X12401286Y-13099143D01*
X12544143Y-13027714D02*
X12544143Y-13327714D01*
X12544143Y-13042000D02*
X12572714Y-13027714D01*
X12629857Y-13027714D01*
X12658428Y-13042000D01*
X12672714Y-13056286D01*
X12687000Y-13084857D01*
X12687000Y-13170571D01*
X12672714Y-13199143D01*
X12658428Y-13213429D01*
X12629857Y-13227714D01*
X12572714Y-13227714D01*
X12544143Y-13213429D01*
X12815571Y-13199143D02*
X12829857Y-13213429D01*
X12815571Y-13227714D01*
X12801286Y-13213429D01*
X12815571Y-13199143D01*
X12815571Y-13227714D01*
X12815571Y-13042000D02*
X12829857Y-13056286D01*
X12815571Y-13070571D01*
X12801286Y-13056286D01*
X12815571Y-13042000D01*
X12815571Y-13070571D01*
X10465000Y-13711000D02*
X10487000Y-13733000D01*
X10487000Y-13711000D02*
X10465000Y-13733000D01*
X10815571Y-13557714D02*
X10844143Y-13557714D01*
X10872714Y-13572000D01*
X10887000Y-13586286D01*
X10901286Y-13614857D01*
X10915571Y-13672000D01*
X10915571Y-13743429D01*
X10901286Y-13800571D01*
X10887000Y-13829143D01*
X10872714Y-13843429D01*
X10844143Y-13857714D01*
X10815571Y-13857714D01*
X10787000Y-13843429D01*
X10772714Y-13829143D01*
X10758429Y-13800571D01*
X10744143Y-13743429D01*
X10744143Y-13672000D01*
X10758429Y-13614857D01*
X10772714Y-13586286D01*
X10787000Y-13572000D01*
X10815571Y-13557714D01*
X11044143Y-13829143D02*
X11058429Y-13843429D01*
X11044143Y-13857714D01*
X11029857Y-13843429D01*
X11044143Y-13829143D01*
X11044143Y-13857714D01*
X11172714Y-13586286D02*
X11187000Y-13572000D01*
X11215571Y-13557714D01*
X11287000Y-13557714D01*
X11315571Y-13572000D01*
X11329857Y-13586286D01*
X11344143Y-13614857D01*
X11344143Y-13643429D01*
X11329857Y-13686286D01*
X11158428Y-13857714D01*
X11344143Y-13857714D01*
X11458428Y-13586286D02*
X11472714Y-13572000D01*
X11501286Y-13557714D01*
X11572714Y-13557714D01*
X11601286Y-13572000D01*
X11615571Y-13586286D01*
X11629857Y-13614857D01*
X11629857Y-13643429D01*
X11615571Y-13686286D01*
X11444143Y-13857714D01*
X11629857Y-13857714D01*
X11758428Y-13857714D02*
X11758428Y-13657714D01*
X11758428Y-13686286D02*
X11772714Y-13672000D01*
X11801286Y-13657714D01*
X11844143Y-13657714D01*
X11872714Y-13672000D01*
X11887000Y-13700571D01*
X11887000Y-13857714D01*
X11887000Y-13700571D02*
X11901286Y-13672000D01*
X11929857Y-13657714D01*
X11972714Y-13657714D01*
X12001286Y-13672000D01*
X12015571Y-13700571D01*
X12015571Y-13857714D01*
X12158428Y-13857714D02*
X12158428Y-13657714D01*
X12158428Y-13686286D02*
X12172714Y-13672000D01*
X12201286Y-13657714D01*
X12244143Y-13657714D01*
X12272714Y-13672000D01*
X12287000Y-13700571D01*
X12287000Y-13857714D01*
X12287000Y-13700571D02*
X12301286Y-13672000D01*
X12329857Y-13657714D01*
X12372714Y-13657714D01*
X12401286Y-13672000D01*
X12415571Y-13700571D01*
X12415571Y-13857714D01*
X13001286Y-13543429D02*
X12744143Y-13929143D01*
X13387000Y-13557714D02*
X13415571Y-13557714D01*
X13444143Y-13572000D01*
X13458428Y-13586286D01*
X13472714Y-13614857D01*
X13487000Y-13672000D01*
X13487000Y-13743429D01*
X13472714Y-13800571D01*
X13458428Y-13829143D01*
X13444143Y-13843429D01*
X13415571Y-13857714D01*
X13387000Y-13857714D01*
X13358428Y-13843429D01*
X13344143Y-13829143D01*
X13329857Y-13800571D01*
X13315571Y-13743429D01*
X13315571Y-13672000D01*
X13329857Y-13614857D01*
X13344143Y-13586286D01*
X13358428Y-13572000D01*
X13387000Y-13557714D01*
X13615571Y-13829143D02*
X13629857Y-13843429D01*
X13615571Y-13857714D01*
X13601286Y-13843429D01*
X13615571Y-13829143D01*
X13615571Y-13857714D01*
X13815571Y-13557714D02*
X13844143Y-13557714D01*
X13872714Y-13572000D01*
X13887000Y-13586286D01*
X13901285Y-13614857D01*
X13915571Y-13672000D01*
X13915571Y-13743429D01*
X13901285Y-13800571D01*
X13887000Y-13829143D01*
X13872714Y-13843429D01*
X13844143Y-13857714D01*
X13815571Y-13857714D01*
X13787000Y-13843429D01*
X13772714Y-13829143D01*
X13758428Y-13800571D01*
X13744143Y-13743429D01*
X13744143Y-13672000D01*
X13758428Y-13614857D01*
X13772714Y-13586286D01*
X13787000Y-13572000D01*
X13815571Y-13557714D01*
X14101285Y-13557714D02*
X14129857Y-13557714D01*
X14158428Y-13572000D01*
X14172714Y-13586286D01*
X14187000Y-13614857D01*
X14201285Y-13672000D01*
X14201285Y-13743429D01*
X14187000Y-13800571D01*
X14172714Y-13829143D01*
X14158428Y-13843429D01*
X14129857Y-13857714D01*
X14101285Y-13857714D01*
X14072714Y-13843429D01*
X14058428Y-13829143D01*
X14044143Y-13800571D01*
X14029857Y-13743429D01*
X14029857Y-13672000D01*
X14044143Y-13614857D01*
X14058428Y-13586286D01*
X14072714Y-13572000D01*
X14101285Y-13557714D01*
X14344143Y-13857714D02*
X14401285Y-13857714D01*
X14429857Y-13843429D01*
X14444143Y-13829143D01*
X14472714Y-13786286D01*
X14487000Y-13729143D01*
X14487000Y-13614857D01*
X14472714Y-13586286D01*
X14458428Y-13572000D01*
X14429857Y-13557714D01*
X14372714Y-13557714D01*
X14344143Y-13572000D01*
X14329857Y-13586286D01*
X14315571Y-13614857D01*
X14315571Y-13686286D01*
X14329857Y-13714857D01*
X14344143Y-13729143D01*
X14372714Y-13743429D01*
X14429857Y-13743429D01*
X14458428Y-13729143D01*
X14472714Y-13714857D01*
X14487000Y-13686286D01*
X14601286Y-13557714D02*
X14601286Y-13614857D01*
X14715571Y-13557714D02*
X14715571Y-13614857D01*
X15158428Y-13972000D02*
X15144143Y-13957714D01*
X15115571Y-13914857D01*
X15101285Y-13886286D01*
X15087000Y-13843429D01*
X15072714Y-13772000D01*
X15072714Y-13714857D01*
X15087000Y-13643429D01*
X15101285Y-13600571D01*
X15115571Y-13572000D01*
X15144143Y-13529143D01*
X15158428Y-13514857D01*
X15258428Y-13586286D02*
X15272714Y-13572000D01*
X15301285Y-13557714D01*
X15372714Y-13557714D01*
X15401285Y-13572000D01*
X15415571Y-13586286D01*
X15429857Y-13614857D01*
X15429857Y-13643429D01*
X15415571Y-13686286D01*
X15244143Y-13857714D01*
X15429857Y-13857714D01*
X15572714Y-13857714D02*
X15629857Y-13857714D01*
X15658428Y-13843429D01*
X15672714Y-13829143D01*
X15701285Y-13786286D01*
X15715571Y-13729143D01*
X15715571Y-13614857D01*
X15701285Y-13586286D01*
X15687000Y-13572000D01*
X15658428Y-13557714D01*
X15601285Y-13557714D01*
X15572714Y-13572000D01*
X15558428Y-13586286D01*
X15544143Y-13614857D01*
X15544143Y-13686286D01*
X15558428Y-13714857D01*
X15572714Y-13729143D01*
X15601285Y-13743429D01*
X15658428Y-13743429D01*
X15687000Y-13729143D01*
X15701285Y-13714857D01*
X15715571Y-13686286D01*
X16072714Y-13857714D02*
X16072714Y-13557714D01*
X16201285Y-13857714D02*
X16201285Y-13700571D01*
X16187000Y-13672000D01*
X16158428Y-13657714D01*
X16115571Y-13657714D01*
X16087000Y-13672000D01*
X16072714Y-13686286D01*
X16387000Y-13857714D02*
X16358428Y-13843429D01*
X16344143Y-13829143D01*
X16329857Y-13800571D01*
X16329857Y-13714857D01*
X16344143Y-13686286D01*
X16358428Y-13672000D01*
X16387000Y-13657714D01*
X16429857Y-13657714D01*
X16458428Y-13672000D01*
X16472714Y-13686286D01*
X16487000Y-13714857D01*
X16487000Y-13800571D01*
X16472714Y-13829143D01*
X16458428Y-13843429D01*
X16429857Y-13857714D01*
X16387000Y-13857714D01*
X16658428Y-13857714D02*
X16629857Y-13843429D01*
X16615571Y-13814857D01*
X16615571Y-13557714D01*
X16887000Y-13843429D02*
X16858429Y-13857714D01*
X16801286Y-13857714D01*
X16772714Y-13843429D01*
X16758428Y-13814857D01*
X16758428Y-13700571D01*
X16772714Y-13672000D01*
X16801286Y-13657714D01*
X16858429Y-13657714D01*
X16887000Y-13672000D01*
X16901286Y-13700571D01*
X16901286Y-13729143D01*
X16758428Y-13757714D01*
X17015571Y-13843429D02*
X17044143Y-13857714D01*
X17101286Y-13857714D01*
X17129857Y-13843429D01*
X17144143Y-13814857D01*
X17144143Y-13800571D01*
X17129857Y-13772000D01*
X17101286Y-13757714D01*
X17058429Y-13757714D01*
X17029857Y-13743429D01*
X17015571Y-13714857D01*
X17015571Y-13700571D01*
X17029857Y-13672000D01*
X17058429Y-13657714D01*
X17101286Y-13657714D01*
X17129857Y-13672000D01*
X17244143Y-13972000D02*
X17258429Y-13957714D01*
X17287000Y-13914857D01*
X17301286Y-13886286D01*
X17315571Y-13843429D01*
X17329857Y-13772000D01*
X17329857Y-13714857D01*
X17315571Y-13643429D01*
X17301286Y-13600571D01*
X17287000Y-13572000D01*
X17258429Y-13529143D01*
X17244143Y-13514857D01*
X10487000Y-14118000D02*
G75*
G03X10487000Y-14118000I-31750J0D01*
G01*
X10815571Y-13953714D02*
X10844143Y-13953714D01*
X10872714Y-13968000D01*
X10887000Y-13982286D01*
X10901286Y-14010857D01*
X10915571Y-14068000D01*
X10915571Y-14139429D01*
X10901286Y-14196571D01*
X10887000Y-14225143D01*
X10872714Y-14239429D01*
X10844143Y-14253714D01*
X10815571Y-14253714D01*
X10787000Y-14239429D01*
X10772714Y-14225143D01*
X10758429Y-14196571D01*
X10744143Y-14139429D01*
X10744143Y-14068000D01*
X10758429Y-14010857D01*
X10772714Y-13982286D01*
X10787000Y-13968000D01*
X10815571Y-13953714D01*
X11044143Y-14225143D02*
X11058429Y-14239429D01*
X11044143Y-14253714D01*
X11029857Y-14239429D01*
X11044143Y-14225143D01*
X11044143Y-14253714D01*
X11315571Y-13953714D02*
X11258428Y-13953714D01*
X11229857Y-13968000D01*
X11215571Y-13982286D01*
X11187000Y-14025143D01*
X11172714Y-14082286D01*
X11172714Y-14196571D01*
X11187000Y-14225143D01*
X11201286Y-14239429D01*
X11229857Y-14253714D01*
X11287000Y-14253714D01*
X11315571Y-14239429D01*
X11329857Y-14225143D01*
X11344143Y-14196571D01*
X11344143Y-14125143D01*
X11329857Y-14096571D01*
X11315571Y-14082286D01*
X11287000Y-14068000D01*
X11229857Y-14068000D01*
X11201286Y-14082286D01*
X11187000Y-14096571D01*
X11172714Y-14125143D01*
X11601286Y-14053714D02*
X11601286Y-14253714D01*
X11529857Y-13939429D02*
X11458428Y-14153714D01*
X11644143Y-14153714D01*
X11758428Y-14253714D02*
X11758428Y-14053714D01*
X11758428Y-14082286D02*
X11772714Y-14068000D01*
X11801286Y-14053714D01*
X11844143Y-14053714D01*
X11872714Y-14068000D01*
X11887000Y-14096571D01*
X11887000Y-14253714D01*
X11887000Y-14096571D02*
X11901286Y-14068000D01*
X11929857Y-14053714D01*
X11972714Y-14053714D01*
X12001286Y-14068000D01*
X12015571Y-14096571D01*
X12015571Y-14253714D01*
X12158428Y-14253714D02*
X12158428Y-14053714D01*
X12158428Y-14082286D02*
X12172714Y-14068000D01*
X12201286Y-14053714D01*
X12244143Y-14053714D01*
X12272714Y-14068000D01*
X12287000Y-14096571D01*
X12287000Y-14253714D01*
X12287000Y-14096571D02*
X12301286Y-14068000D01*
X12329857Y-14053714D01*
X12372714Y-14053714D01*
X12401286Y-14068000D01*
X12415571Y-14096571D01*
X12415571Y-14253714D01*
X13001286Y-13939429D02*
X12744143Y-14325143D01*
X13387000Y-13953714D02*
X13415571Y-13953714D01*
X13444143Y-13968000D01*
X13458428Y-13982286D01*
X13472714Y-14010857D01*
X13487000Y-14068000D01*
X13487000Y-14139429D01*
X13472714Y-14196571D01*
X13458428Y-14225143D01*
X13444143Y-14239429D01*
X13415571Y-14253714D01*
X13387000Y-14253714D01*
X13358428Y-14239429D01*
X13344143Y-14225143D01*
X13329857Y-14196571D01*
X13315571Y-14139429D01*
X13315571Y-14068000D01*
X13329857Y-14010857D01*
X13344143Y-13982286D01*
X13358428Y-13968000D01*
X13387000Y-13953714D01*
X13615571Y-14225143D02*
X13629857Y-14239429D01*
X13615571Y-14253714D01*
X13601286Y-14239429D01*
X13615571Y-14225143D01*
X13615571Y-14253714D01*
X13815571Y-13953714D02*
X13844143Y-13953714D01*
X13872714Y-13968000D01*
X13887000Y-13982286D01*
X13901285Y-14010857D01*
X13915571Y-14068000D01*
X13915571Y-14139429D01*
X13901285Y-14196571D01*
X13887000Y-14225143D01*
X13872714Y-14239429D01*
X13844143Y-14253714D01*
X13815571Y-14253714D01*
X13787000Y-14239429D01*
X13772714Y-14225143D01*
X13758428Y-14196571D01*
X13744143Y-14139429D01*
X13744143Y-14068000D01*
X13758428Y-14010857D01*
X13772714Y-13982286D01*
X13787000Y-13968000D01*
X13815571Y-13953714D01*
X14029857Y-13982286D02*
X14044143Y-13968000D01*
X14072714Y-13953714D01*
X14144143Y-13953714D01*
X14172714Y-13968000D01*
X14187000Y-13982286D01*
X14201285Y-14010857D01*
X14201285Y-14039429D01*
X14187000Y-14082286D01*
X14015571Y-14253714D01*
X14201285Y-14253714D01*
X14472714Y-13953714D02*
X14329857Y-13953714D01*
X14315571Y-14096571D01*
X14329857Y-14082286D01*
X14358428Y-14068000D01*
X14429857Y-14068000D01*
X14458428Y-14082286D01*
X14472714Y-14096571D01*
X14487000Y-14125143D01*
X14487000Y-14196571D01*
X14472714Y-14225143D01*
X14458428Y-14239429D01*
X14429857Y-14253714D01*
X14358428Y-14253714D01*
X14329857Y-14239429D01*
X14315571Y-14225143D01*
X14601286Y-13953714D02*
X14601286Y-14010857D01*
X14715571Y-13953714D02*
X14715571Y-14010857D01*
X15158428Y-14368000D02*
X15144143Y-14353714D01*
X15115571Y-14310857D01*
X15101285Y-14282286D01*
X15087000Y-14239429D01*
X15072714Y-14168000D01*
X15072714Y-14110857D01*
X15087000Y-14039429D01*
X15101285Y-13996571D01*
X15115571Y-13968000D01*
X15144143Y-13925143D01*
X15158428Y-13910857D01*
X15401285Y-13953714D02*
X15344143Y-13953714D01*
X15315571Y-13968000D01*
X15301285Y-13982286D01*
X15272714Y-14025143D01*
X15258428Y-14082286D01*
X15258428Y-14196571D01*
X15272714Y-14225143D01*
X15287000Y-14239429D01*
X15315571Y-14253714D01*
X15372714Y-14253714D01*
X15401285Y-14239429D01*
X15415571Y-14225143D01*
X15429857Y-14196571D01*
X15429857Y-14125143D01*
X15415571Y-14096571D01*
X15401285Y-14082286D01*
X15372714Y-14068000D01*
X15315571Y-14068000D01*
X15287000Y-14082286D01*
X15272714Y-14096571D01*
X15258428Y-14125143D01*
X15787000Y-14253714D02*
X15787000Y-13953714D01*
X15915571Y-14253714D02*
X15915571Y-14096571D01*
X15901285Y-14068000D01*
X15872714Y-14053714D01*
X15829857Y-14053714D01*
X15801285Y-14068000D01*
X15787000Y-14082286D01*
X16101285Y-14253714D02*
X16072714Y-14239429D01*
X16058428Y-14225143D01*
X16044143Y-14196571D01*
X16044143Y-14110857D01*
X16058428Y-14082286D01*
X16072714Y-14068000D01*
X16101285Y-14053714D01*
X16144143Y-14053714D01*
X16172714Y-14068000D01*
X16187000Y-14082286D01*
X16201285Y-14110857D01*
X16201285Y-14196571D01*
X16187000Y-14225143D01*
X16172714Y-14239429D01*
X16144143Y-14253714D01*
X16101285Y-14253714D01*
X16372714Y-14253714D02*
X16344143Y-14239429D01*
X16329857Y-14210857D01*
X16329857Y-13953714D01*
X16601286Y-14239429D02*
X16572714Y-14253714D01*
X16515571Y-14253714D01*
X16487000Y-14239429D01*
X16472714Y-14210857D01*
X16472714Y-14096571D01*
X16487000Y-14068000D01*
X16515571Y-14053714D01*
X16572714Y-14053714D01*
X16601286Y-14068000D01*
X16615571Y-14096571D01*
X16615571Y-14125143D01*
X16472714Y-14153714D01*
X16729857Y-14239429D02*
X16758428Y-14253714D01*
X16815571Y-14253714D01*
X16844143Y-14239429D01*
X16858429Y-14210857D01*
X16858429Y-14196571D01*
X16844143Y-14168000D01*
X16815571Y-14153714D01*
X16772714Y-14153714D01*
X16744143Y-14139429D01*
X16729857Y-14110857D01*
X16729857Y-14096571D01*
X16744143Y-14068000D01*
X16772714Y-14053714D01*
X16815571Y-14053714D01*
X16844143Y-14068000D01*
X16958428Y-14368000D02*
X16972714Y-14353714D01*
X17001286Y-14310857D01*
X17015571Y-14282286D01*
X17029857Y-14239429D01*
X17044143Y-14168000D01*
X17044143Y-14110857D01*
X17029857Y-14039429D01*
X17015571Y-13996571D01*
X17001286Y-13968000D01*
X16972714Y-13925143D01*
X16958428Y-13910857D01*
X10437000Y-14464000D02*
X10437000Y-14564000D01*
X10387000Y-14514000D02*
X10487000Y-14514000D01*
X10915571Y-14649714D02*
X10744143Y-14649714D01*
X10829857Y-14649714D02*
X10829857Y-14349714D01*
X10801286Y-14392571D01*
X10772714Y-14421143D01*
X10744143Y-14435429D01*
X11044143Y-14621143D02*
X11058429Y-14635429D01*
X11044143Y-14649714D01*
X11029857Y-14635429D01*
X11044143Y-14621143D01*
X11044143Y-14649714D01*
X11244143Y-14349714D02*
X11272714Y-14349714D01*
X11301286Y-14364000D01*
X11315571Y-14378286D01*
X11329857Y-14406857D01*
X11344143Y-14464000D01*
X11344143Y-14535429D01*
X11329857Y-14592571D01*
X11315571Y-14621143D01*
X11301286Y-14635429D01*
X11272714Y-14649714D01*
X11244143Y-14649714D01*
X11215571Y-14635429D01*
X11201286Y-14621143D01*
X11187000Y-14592571D01*
X11172714Y-14535429D01*
X11172714Y-14464000D01*
X11187000Y-14406857D01*
X11201286Y-14378286D01*
X11215571Y-14364000D01*
X11244143Y-14349714D01*
X11529857Y-14349714D02*
X11558428Y-14349714D01*
X11587000Y-14364000D01*
X11601286Y-14378286D01*
X11615571Y-14406857D01*
X11629857Y-14464000D01*
X11629857Y-14535429D01*
X11615571Y-14592571D01*
X11601286Y-14621143D01*
X11587000Y-14635429D01*
X11558428Y-14649714D01*
X11529857Y-14649714D01*
X11501286Y-14635429D01*
X11487000Y-14621143D01*
X11472714Y-14592571D01*
X11458428Y-14535429D01*
X11458428Y-14464000D01*
X11472714Y-14406857D01*
X11487000Y-14378286D01*
X11501286Y-14364000D01*
X11529857Y-14349714D01*
X11758428Y-14649714D02*
X11758428Y-14449714D01*
X11758428Y-14478286D02*
X11772714Y-14464000D01*
X11801286Y-14449714D01*
X11844143Y-14449714D01*
X11872714Y-14464000D01*
X11887000Y-14492571D01*
X11887000Y-14649714D01*
X11887000Y-14492571D02*
X11901286Y-14464000D01*
X11929857Y-14449714D01*
X11972714Y-14449714D01*
X12001286Y-14464000D01*
X12015571Y-14492571D01*
X12015571Y-14649714D01*
X12158428Y-14649714D02*
X12158428Y-14449714D01*
X12158428Y-14478286D02*
X12172714Y-14464000D01*
X12201286Y-14449714D01*
X12244143Y-14449714D01*
X12272714Y-14464000D01*
X12287000Y-14492571D01*
X12287000Y-14649714D01*
X12287000Y-14492571D02*
X12301286Y-14464000D01*
X12329857Y-14449714D01*
X12372714Y-14449714D01*
X12401286Y-14464000D01*
X12415571Y-14492571D01*
X12415571Y-14649714D01*
X13001286Y-14335429D02*
X12744143Y-14721143D01*
X13387000Y-14349714D02*
X13415571Y-14349714D01*
X13444143Y-14364000D01*
X13458428Y-14378286D01*
X13472714Y-14406857D01*
X13487000Y-14464000D01*
X13487000Y-14535429D01*
X13472714Y-14592571D01*
X13458428Y-14621143D01*
X13444143Y-14635429D01*
X13415571Y-14649714D01*
X13387000Y-14649714D01*
X13358428Y-14635429D01*
X13344143Y-14621143D01*
X13329857Y-14592571D01*
X13315571Y-14535429D01*
X13315571Y-14464000D01*
X13329857Y-14406857D01*
X13344143Y-14378286D01*
X13358428Y-14364000D01*
X13387000Y-14349714D01*
X13615571Y-14621143D02*
X13629857Y-14635429D01*
X13615571Y-14649714D01*
X13601286Y-14635429D01*
X13615571Y-14621143D01*
X13615571Y-14649714D01*
X13815571Y-14349714D02*
X13844143Y-14349714D01*
X13872714Y-14364000D01*
X13887000Y-14378286D01*
X13901285Y-14406857D01*
X13915571Y-14464000D01*
X13915571Y-14535429D01*
X13901285Y-14592571D01*
X13887000Y-14621143D01*
X13872714Y-14635429D01*
X13844143Y-14649714D01*
X13815571Y-14649714D01*
X13787000Y-14635429D01*
X13772714Y-14621143D01*
X13758428Y-14592571D01*
X13744143Y-14535429D01*
X13744143Y-14464000D01*
X13758428Y-14406857D01*
X13772714Y-14378286D01*
X13787000Y-14364000D01*
X13815571Y-14349714D01*
X14015571Y-14349714D02*
X14201285Y-14349714D01*
X14101285Y-14464000D01*
X14144143Y-14464000D01*
X14172714Y-14478286D01*
X14187000Y-14492571D01*
X14201285Y-14521143D01*
X14201285Y-14592571D01*
X14187000Y-14621143D01*
X14172714Y-14635429D01*
X14144143Y-14649714D01*
X14058428Y-14649714D01*
X14029857Y-14635429D01*
X14015571Y-14621143D01*
X14344143Y-14649714D02*
X14401285Y-14649714D01*
X14429857Y-14635429D01*
X14444143Y-14621143D01*
X14472714Y-14578286D01*
X14487000Y-14521143D01*
X14487000Y-14406857D01*
X14472714Y-14378286D01*
X14458428Y-14364000D01*
X14429857Y-14349714D01*
X14372714Y-14349714D01*
X14344143Y-14364000D01*
X14329857Y-14378286D01*
X14315571Y-14406857D01*
X14315571Y-14478286D01*
X14329857Y-14506857D01*
X14344143Y-14521143D01*
X14372714Y-14535429D01*
X14429857Y-14535429D01*
X14458428Y-14521143D01*
X14472714Y-14506857D01*
X14487000Y-14478286D01*
X14601286Y-14349714D02*
X14601286Y-14406857D01*
X14715571Y-14349714D02*
X14715571Y-14406857D01*
X15158428Y-14764000D02*
X15144143Y-14749714D01*
X15115571Y-14706857D01*
X15101285Y-14678286D01*
X15087000Y-14635429D01*
X15072714Y-14564000D01*
X15072714Y-14506857D01*
X15087000Y-14435429D01*
X15101285Y-14392571D01*
X15115571Y-14364000D01*
X15144143Y-14321143D01*
X15158428Y-14306857D01*
X15429857Y-14649714D02*
X15258428Y-14649714D01*
X15344143Y-14649714D02*
X15344143Y-14349714D01*
X15315571Y-14392571D01*
X15287000Y-14421143D01*
X15258428Y-14435429D01*
X15615571Y-14349714D02*
X15644143Y-14349714D01*
X15672714Y-14364000D01*
X15687000Y-14378286D01*
X15701285Y-14406857D01*
X15715571Y-14464000D01*
X15715571Y-14535429D01*
X15701285Y-14592571D01*
X15687000Y-14621143D01*
X15672714Y-14635429D01*
X15644143Y-14649714D01*
X15615571Y-14649714D01*
X15587000Y-14635429D01*
X15572714Y-14621143D01*
X15558428Y-14592571D01*
X15544143Y-14535429D01*
X15544143Y-14464000D01*
X15558428Y-14406857D01*
X15572714Y-14378286D01*
X15587000Y-14364000D01*
X15615571Y-14349714D01*
X16072714Y-14649714D02*
X16072714Y-14349714D01*
X16201285Y-14649714D02*
X16201285Y-14492571D01*
X16187000Y-14464000D01*
X16158428Y-14449714D01*
X16115571Y-14449714D01*
X16087000Y-14464000D01*
X16072714Y-14478286D01*
X16387000Y-14649714D02*
X16358428Y-14635429D01*
X16344143Y-14621143D01*
X16329857Y-14592571D01*
X16329857Y-14506857D01*
X16344143Y-14478286D01*
X16358428Y-14464000D01*
X16387000Y-14449714D01*
X16429857Y-14449714D01*
X16458428Y-14464000D01*
X16472714Y-14478286D01*
X16487000Y-14506857D01*
X16487000Y-14592571D01*
X16472714Y-14621143D01*
X16458428Y-14635429D01*
X16429857Y-14649714D01*
X16387000Y-14649714D01*
X16658428Y-14649714D02*
X16629857Y-14635429D01*
X16615571Y-14606857D01*
X16615571Y-14349714D01*
X16887000Y-14635429D02*
X16858429Y-14649714D01*
X16801286Y-14649714D01*
X16772714Y-14635429D01*
X16758428Y-14606857D01*
X16758428Y-14492571D01*
X16772714Y-14464000D01*
X16801286Y-14449714D01*
X16858429Y-14449714D01*
X16887000Y-14464000D01*
X16901286Y-14492571D01*
X16901286Y-14521143D01*
X16758428Y-14549714D01*
X17015571Y-14635429D02*
X17044143Y-14649714D01*
X17101286Y-14649714D01*
X17129857Y-14635429D01*
X17144143Y-14606857D01*
X17144143Y-14592571D01*
X17129857Y-14564000D01*
X17101286Y-14549714D01*
X17058429Y-14549714D01*
X17029857Y-14535429D01*
X17015571Y-14506857D01*
X17015571Y-14492571D01*
X17029857Y-14464000D01*
X17058429Y-14449714D01*
X17101286Y-14449714D01*
X17129857Y-14464000D01*
X17244143Y-14764000D02*
X17258429Y-14749714D01*
X17287000Y-14706857D01*
X17301286Y-14678286D01*
X17315571Y-14635429D01*
X17329857Y-14564000D01*
X17329857Y-14506857D01*
X17315571Y-14435429D01*
X17301286Y-14392571D01*
X17287000Y-14364000D01*
X17258429Y-14321143D01*
X17244143Y-14306857D01*
X10472344Y-14945383D02*
X10472344Y-14874618D01*
X10401579Y-14874618D01*
X10401579Y-14945383D01*
X10472344Y-14945383D01*
X10915571Y-15045714D02*
X10744143Y-15045714D01*
X10829857Y-15045714D02*
X10829857Y-14745714D01*
X10801286Y-14788571D01*
X10772714Y-14817143D01*
X10744143Y-14831429D01*
X11044143Y-15017143D02*
X11058429Y-15031429D01*
X11044143Y-15045714D01*
X11029857Y-15031429D01*
X11044143Y-15017143D01*
X11044143Y-15045714D01*
X11244143Y-14745714D02*
X11272714Y-14745714D01*
X11301286Y-14760000D01*
X11315571Y-14774286D01*
X11329857Y-14802857D01*
X11344143Y-14860000D01*
X11344143Y-14931429D01*
X11329857Y-14988571D01*
X11315571Y-15017143D01*
X11301286Y-15031429D01*
X11272714Y-15045714D01*
X11244143Y-15045714D01*
X11215571Y-15031429D01*
X11201286Y-15017143D01*
X11187000Y-14988571D01*
X11172714Y-14931429D01*
X11172714Y-14860000D01*
X11187000Y-14802857D01*
X11201286Y-14774286D01*
X11215571Y-14760000D01*
X11244143Y-14745714D01*
X11529857Y-14745714D02*
X11558428Y-14745714D01*
X11587000Y-14760000D01*
X11601286Y-14774286D01*
X11615571Y-14802857D01*
X11629857Y-14860000D01*
X11629857Y-14931429D01*
X11615571Y-14988571D01*
X11601286Y-15017143D01*
X11587000Y-15031429D01*
X11558428Y-15045714D01*
X11529857Y-15045714D01*
X11501286Y-15031429D01*
X11487000Y-15017143D01*
X11472714Y-14988571D01*
X11458428Y-14931429D01*
X11458428Y-14860000D01*
X11472714Y-14802857D01*
X11487000Y-14774286D01*
X11501286Y-14760000D01*
X11529857Y-14745714D01*
X11758428Y-15045714D02*
X11758428Y-14845714D01*
X11758428Y-14874286D02*
X11772714Y-14860000D01*
X11801286Y-14845714D01*
X11844143Y-14845714D01*
X11872714Y-14860000D01*
X11887000Y-14888571D01*
X11887000Y-15045714D01*
X11887000Y-14888571D02*
X11901286Y-14860000D01*
X11929857Y-14845714D01*
X11972714Y-14845714D01*
X12001286Y-14860000D01*
X12015571Y-14888571D01*
X12015571Y-15045714D01*
X12158428Y-15045714D02*
X12158428Y-14845714D01*
X12158428Y-14874286D02*
X12172714Y-14860000D01*
X12201286Y-14845714D01*
X12244143Y-14845714D01*
X12272714Y-14860000D01*
X12287000Y-14888571D01*
X12287000Y-15045714D01*
X12287000Y-14888571D02*
X12301286Y-14860000D01*
X12329857Y-14845714D01*
X12372714Y-14845714D01*
X12401286Y-14860000D01*
X12415571Y-14888571D01*
X12415571Y-15045714D01*
X13001286Y-14731429D02*
X12744143Y-15117143D01*
X13387000Y-14745714D02*
X13415571Y-14745714D01*
X13444143Y-14760000D01*
X13458428Y-14774286D01*
X13472714Y-14802857D01*
X13487000Y-14860000D01*
X13487000Y-14931429D01*
X13472714Y-14988571D01*
X13458428Y-15017143D01*
X13444143Y-15031429D01*
X13415571Y-15045714D01*
X13387000Y-15045714D01*
X13358428Y-15031429D01*
X13344143Y-15017143D01*
X13329857Y-14988571D01*
X13315571Y-14931429D01*
X13315571Y-14860000D01*
X13329857Y-14802857D01*
X13344143Y-14774286D01*
X13358428Y-14760000D01*
X13387000Y-14745714D01*
X13615571Y-15017143D02*
X13629857Y-15031429D01*
X13615571Y-15045714D01*
X13601286Y-15031429D01*
X13615571Y-15017143D01*
X13615571Y-15045714D01*
X13815571Y-14745714D02*
X13844143Y-14745714D01*
X13872714Y-14760000D01*
X13887000Y-14774286D01*
X13901285Y-14802857D01*
X13915571Y-14860000D01*
X13915571Y-14931429D01*
X13901285Y-14988571D01*
X13887000Y-15017143D01*
X13872714Y-15031429D01*
X13844143Y-15045714D01*
X13815571Y-15045714D01*
X13787000Y-15031429D01*
X13772714Y-15017143D01*
X13758428Y-14988571D01*
X13744143Y-14931429D01*
X13744143Y-14860000D01*
X13758428Y-14802857D01*
X13772714Y-14774286D01*
X13787000Y-14760000D01*
X13815571Y-14745714D01*
X14015571Y-14745714D02*
X14201285Y-14745714D01*
X14101285Y-14860000D01*
X14144143Y-14860000D01*
X14172714Y-14874286D01*
X14187000Y-14888571D01*
X14201285Y-14917143D01*
X14201285Y-14988571D01*
X14187000Y-15017143D01*
X14172714Y-15031429D01*
X14144143Y-15045714D01*
X14058428Y-15045714D01*
X14029857Y-15031429D01*
X14015571Y-15017143D01*
X14344143Y-15045714D02*
X14401285Y-15045714D01*
X14429857Y-15031429D01*
X14444143Y-15017143D01*
X14472714Y-14974286D01*
X14487000Y-14917143D01*
X14487000Y-14802857D01*
X14472714Y-14774286D01*
X14458428Y-14760000D01*
X14429857Y-14745714D01*
X14372714Y-14745714D01*
X14344143Y-14760000D01*
X14329857Y-14774286D01*
X14315571Y-14802857D01*
X14315571Y-14874286D01*
X14329857Y-14902857D01*
X14344143Y-14917143D01*
X14372714Y-14931429D01*
X14429857Y-14931429D01*
X14458428Y-14917143D01*
X14472714Y-14902857D01*
X14487000Y-14874286D01*
X14601286Y-14745714D02*
X14601286Y-14802857D01*
X14715571Y-14745714D02*
X14715571Y-14802857D01*
X15158428Y-15160000D02*
X15144143Y-15145714D01*
X15115571Y-15102857D01*
X15101285Y-15074286D01*
X15087000Y-15031429D01*
X15072714Y-14960000D01*
X15072714Y-14902857D01*
X15087000Y-14831429D01*
X15101285Y-14788571D01*
X15115571Y-14760000D01*
X15144143Y-14717143D01*
X15158428Y-14702857D01*
X15401285Y-14845714D02*
X15401285Y-15045714D01*
X15329857Y-14731429D02*
X15258428Y-14945714D01*
X15444143Y-14945714D01*
X15615571Y-14745714D02*
X15644143Y-14745714D01*
X15672714Y-14760000D01*
X15687000Y-14774286D01*
X15701285Y-14802857D01*
X15715571Y-14860000D01*
X15715571Y-14931429D01*
X15701285Y-14988571D01*
X15687000Y-15017143D01*
X15672714Y-15031429D01*
X15644143Y-15045714D01*
X15615571Y-15045714D01*
X15587000Y-15031429D01*
X15572714Y-15017143D01*
X15558428Y-14988571D01*
X15544143Y-14931429D01*
X15544143Y-14860000D01*
X15558428Y-14802857D01*
X15572714Y-14774286D01*
X15587000Y-14760000D01*
X15615571Y-14745714D01*
X16072714Y-15045714D02*
X16072714Y-14745714D01*
X16201285Y-15045714D02*
X16201285Y-14888571D01*
X16187000Y-14860000D01*
X16158428Y-14845714D01*
X16115571Y-14845714D01*
X16087000Y-14860000D01*
X16072714Y-14874286D01*
X16387000Y-15045714D02*
X16358428Y-15031429D01*
X16344143Y-15017143D01*
X16329857Y-14988571D01*
X16329857Y-14902857D01*
X16344143Y-14874286D01*
X16358428Y-14860000D01*
X16387000Y-14845714D01*
X16429857Y-14845714D01*
X16458428Y-14860000D01*
X16472714Y-14874286D01*
X16487000Y-14902857D01*
X16487000Y-14988571D01*
X16472714Y-15017143D01*
X16458428Y-15031429D01*
X16429857Y-15045714D01*
X16387000Y-15045714D01*
X16658428Y-15045714D02*
X16629857Y-15031429D01*
X16615571Y-15002857D01*
X16615571Y-14745714D01*
X16887000Y-15031429D02*
X16858429Y-15045714D01*
X16801286Y-15045714D01*
X16772714Y-15031429D01*
X16758428Y-15002857D01*
X16758428Y-14888571D01*
X16772714Y-14860000D01*
X16801286Y-14845714D01*
X16858429Y-14845714D01*
X16887000Y-14860000D01*
X16901286Y-14888571D01*
X16901286Y-14917143D01*
X16758428Y-14945714D01*
X17015571Y-15031429D02*
X17044143Y-15045714D01*
X17101286Y-15045714D01*
X17129857Y-15031429D01*
X17144143Y-15002857D01*
X17144143Y-14988571D01*
X17129857Y-14960000D01*
X17101286Y-14945714D01*
X17058429Y-14945714D01*
X17029857Y-14931429D01*
X17015571Y-14902857D01*
X17015571Y-14888571D01*
X17029857Y-14860000D01*
X17058429Y-14845714D01*
X17101286Y-14845714D01*
X17129857Y-14860000D01*
X17244143Y-15160000D02*
X17258429Y-15145714D01*
X17287000Y-15102857D01*
X17301286Y-15074286D01*
X17315571Y-15031429D01*
X17329857Y-14960000D01*
X17329857Y-14902857D01*
X17315571Y-14831429D01*
X17301286Y-14788571D01*
X17287000Y-14760000D01*
X17258429Y-14717143D01*
X17244143Y-14702857D01*
X10436000Y-15357000D02*
X10487000Y-15306000D01*
X10436000Y-15255000D01*
X10385000Y-15306000D01*
X10436000Y-15357000D01*
X10915571Y-15441714D02*
X10744143Y-15441714D01*
X10829857Y-15441714D02*
X10829857Y-15141714D01*
X10801286Y-15184571D01*
X10772714Y-15213143D01*
X10744143Y-15227429D01*
X11044143Y-15413143D02*
X11058429Y-15427429D01*
X11044143Y-15441714D01*
X11029857Y-15427429D01*
X11044143Y-15413143D01*
X11044143Y-15441714D01*
X11244143Y-15141714D02*
X11272714Y-15141714D01*
X11301286Y-15156000D01*
X11315571Y-15170286D01*
X11329857Y-15198857D01*
X11344143Y-15256000D01*
X11344143Y-15327429D01*
X11329857Y-15384571D01*
X11315571Y-15413143D01*
X11301286Y-15427429D01*
X11272714Y-15441714D01*
X11244143Y-15441714D01*
X11215571Y-15427429D01*
X11201286Y-15413143D01*
X11187000Y-15384571D01*
X11172714Y-15327429D01*
X11172714Y-15256000D01*
X11187000Y-15198857D01*
X11201286Y-15170286D01*
X11215571Y-15156000D01*
X11244143Y-15141714D01*
X11458428Y-15170286D02*
X11472714Y-15156000D01*
X11501286Y-15141714D01*
X11572714Y-15141714D01*
X11601286Y-15156000D01*
X11615571Y-15170286D01*
X11629857Y-15198857D01*
X11629857Y-15227429D01*
X11615571Y-15270286D01*
X11444143Y-15441714D01*
X11629857Y-15441714D01*
X11758428Y-15441714D02*
X11758428Y-15241714D01*
X11758428Y-15270286D02*
X11772714Y-15256000D01*
X11801286Y-15241714D01*
X11844143Y-15241714D01*
X11872714Y-15256000D01*
X11887000Y-15284571D01*
X11887000Y-15441714D01*
X11887000Y-15284571D02*
X11901286Y-15256000D01*
X11929857Y-15241714D01*
X11972714Y-15241714D01*
X12001286Y-15256000D01*
X12015571Y-15284571D01*
X12015571Y-15441714D01*
X12158428Y-15441714D02*
X12158428Y-15241714D01*
X12158428Y-15270286D02*
X12172714Y-15256000D01*
X12201286Y-15241714D01*
X12244143Y-15241714D01*
X12272714Y-15256000D01*
X12287000Y-15284571D01*
X12287000Y-15441714D01*
X12287000Y-15284571D02*
X12301286Y-15256000D01*
X12329857Y-15241714D01*
X12372714Y-15241714D01*
X12401286Y-15256000D01*
X12415571Y-15284571D01*
X12415571Y-15441714D01*
X13001286Y-15127429D02*
X12744143Y-15513143D01*
X13387000Y-15141714D02*
X13415571Y-15141714D01*
X13444143Y-15156000D01*
X13458428Y-15170286D01*
X13472714Y-15198857D01*
X13487000Y-15256000D01*
X13487000Y-15327429D01*
X13472714Y-15384571D01*
X13458428Y-15413143D01*
X13444143Y-15427429D01*
X13415571Y-15441714D01*
X13387000Y-15441714D01*
X13358428Y-15427429D01*
X13344143Y-15413143D01*
X13329857Y-15384571D01*
X13315571Y-15327429D01*
X13315571Y-15256000D01*
X13329857Y-15198857D01*
X13344143Y-15170286D01*
X13358428Y-15156000D01*
X13387000Y-15141714D01*
X13615571Y-15413143D02*
X13629857Y-15427429D01*
X13615571Y-15441714D01*
X13601286Y-15427429D01*
X13615571Y-15413143D01*
X13615571Y-15441714D01*
X13815571Y-15141714D02*
X13844143Y-15141714D01*
X13872714Y-15156000D01*
X13887000Y-15170286D01*
X13901285Y-15198857D01*
X13915571Y-15256000D01*
X13915571Y-15327429D01*
X13901285Y-15384571D01*
X13887000Y-15413143D01*
X13872714Y-15427429D01*
X13844143Y-15441714D01*
X13815571Y-15441714D01*
X13787000Y-15427429D01*
X13772714Y-15413143D01*
X13758428Y-15384571D01*
X13744143Y-15327429D01*
X13744143Y-15256000D01*
X13758428Y-15198857D01*
X13772714Y-15170286D01*
X13787000Y-15156000D01*
X13815571Y-15141714D01*
X14172714Y-15241714D02*
X14172714Y-15441714D01*
X14101285Y-15127429D02*
X14029857Y-15341714D01*
X14215571Y-15341714D01*
X14387000Y-15141714D02*
X14415571Y-15141714D01*
X14444143Y-15156000D01*
X14458428Y-15170286D01*
X14472714Y-15198857D01*
X14487000Y-15256000D01*
X14487000Y-15327429D01*
X14472714Y-15384571D01*
X14458428Y-15413143D01*
X14444143Y-15427429D01*
X14415571Y-15441714D01*
X14387000Y-15441714D01*
X14358428Y-15427429D01*
X14344143Y-15413143D01*
X14329857Y-15384571D01*
X14315571Y-15327429D01*
X14315571Y-15256000D01*
X14329857Y-15198857D01*
X14344143Y-15170286D01*
X14358428Y-15156000D01*
X14387000Y-15141714D01*
X14601286Y-15141714D02*
X14601286Y-15198857D01*
X14715571Y-15141714D02*
X14715571Y-15198857D01*
X15158428Y-15556000D02*
X15144143Y-15541714D01*
X15115571Y-15498857D01*
X15101285Y-15470286D01*
X15087000Y-15427429D01*
X15072714Y-15356000D01*
X15072714Y-15298857D01*
X15087000Y-15227429D01*
X15101285Y-15184571D01*
X15115571Y-15156000D01*
X15144143Y-15113143D01*
X15158428Y-15098857D01*
X15429857Y-15441714D02*
X15258428Y-15441714D01*
X15344143Y-15441714D02*
X15344143Y-15141714D01*
X15315571Y-15184571D01*
X15287000Y-15213143D01*
X15258428Y-15227429D01*
X15701285Y-15141714D02*
X15558428Y-15141714D01*
X15544143Y-15284571D01*
X15558428Y-15270286D01*
X15587000Y-15256000D01*
X15658428Y-15256000D01*
X15687000Y-15270286D01*
X15701285Y-15284571D01*
X15715571Y-15313143D01*
X15715571Y-15384571D01*
X15701285Y-15413143D01*
X15687000Y-15427429D01*
X15658428Y-15441714D01*
X15587000Y-15441714D01*
X15558428Y-15427429D01*
X15544143Y-15413143D01*
X16072714Y-15441714D02*
X16072714Y-15141714D01*
X16201285Y-15441714D02*
X16201285Y-15284571D01*
X16187000Y-15256000D01*
X16158428Y-15241714D01*
X16115571Y-15241714D01*
X16087000Y-15256000D01*
X16072714Y-15270286D01*
X16387000Y-15441714D02*
X16358428Y-15427429D01*
X16344143Y-15413143D01*
X16329857Y-15384571D01*
X16329857Y-15298857D01*
X16344143Y-15270286D01*
X16358428Y-15256000D01*
X16387000Y-15241714D01*
X16429857Y-15241714D01*
X16458428Y-15256000D01*
X16472714Y-15270286D01*
X16487000Y-15298857D01*
X16487000Y-15384571D01*
X16472714Y-15413143D01*
X16458428Y-15427429D01*
X16429857Y-15441714D01*
X16387000Y-15441714D01*
X16658428Y-15441714D02*
X16629857Y-15427429D01*
X16615571Y-15398857D01*
X16615571Y-15141714D01*
X16887000Y-15427429D02*
X16858429Y-15441714D01*
X16801286Y-15441714D01*
X16772714Y-15427429D01*
X16758428Y-15398857D01*
X16758428Y-15284571D01*
X16772714Y-15256000D01*
X16801286Y-15241714D01*
X16858429Y-15241714D01*
X16887000Y-15256000D01*
X16901286Y-15284571D01*
X16901286Y-15313143D01*
X16758428Y-15341714D01*
X17015571Y-15427429D02*
X17044143Y-15441714D01*
X17101286Y-15441714D01*
X17129857Y-15427429D01*
X17144143Y-15398857D01*
X17144143Y-15384571D01*
X17129857Y-15356000D01*
X17101286Y-15341714D01*
X17058429Y-15341714D01*
X17029857Y-15327429D01*
X17015571Y-15298857D01*
X17015571Y-15284571D01*
X17029857Y-15256000D01*
X17058429Y-15241714D01*
X17101286Y-15241714D01*
X17129857Y-15256000D01*
X17244143Y-15556000D02*
X17258429Y-15541714D01*
X17287000Y-15498857D01*
X17301286Y-15470286D01*
X17315571Y-15427429D01*
X17329857Y-15356000D01*
X17329857Y-15298857D01*
X17315571Y-15227429D01*
X17301286Y-15184571D01*
X17287000Y-15156000D01*
X17258429Y-15113143D01*
X17244143Y-15098857D01*
X10187026Y-15552013D02*
X10487000Y-15851987D01*
X10487000Y-15552013D02*
X10187026Y-15851987D01*
X10487000Y-15702000D02*
G75*
G03X10487000Y-15702000I-149987J0D01*
G01*
X10729857Y-15537714D02*
X10915571Y-15537714D01*
X10815571Y-15652000D01*
X10858429Y-15652000D01*
X10887000Y-15666286D01*
X10901286Y-15680571D01*
X10915571Y-15709143D01*
X10915571Y-15780571D01*
X10901286Y-15809143D01*
X10887000Y-15823429D01*
X10858429Y-15837714D01*
X10772714Y-15837714D01*
X10744143Y-15823429D01*
X10729857Y-15809143D01*
X11044143Y-15809143D02*
X11058429Y-15823429D01*
X11044143Y-15837714D01*
X11029857Y-15823429D01*
X11044143Y-15809143D01*
X11044143Y-15837714D01*
X11244143Y-15537714D02*
X11272714Y-15537714D01*
X11301286Y-15552000D01*
X11315571Y-15566286D01*
X11329857Y-15594857D01*
X11344143Y-15652000D01*
X11344143Y-15723429D01*
X11329857Y-15780571D01*
X11315571Y-15809143D01*
X11301286Y-15823429D01*
X11272714Y-15837714D01*
X11244143Y-15837714D01*
X11215571Y-15823429D01*
X11201286Y-15809143D01*
X11187000Y-15780571D01*
X11172714Y-15723429D01*
X11172714Y-15652000D01*
X11187000Y-15594857D01*
X11201286Y-15566286D01*
X11215571Y-15552000D01*
X11244143Y-15537714D01*
X11529857Y-15537714D02*
X11558428Y-15537714D01*
X11587000Y-15552000D01*
X11601286Y-15566286D01*
X11615571Y-15594857D01*
X11629857Y-15652000D01*
X11629857Y-15723429D01*
X11615571Y-15780571D01*
X11601286Y-15809143D01*
X11587000Y-15823429D01*
X11558428Y-15837714D01*
X11529857Y-15837714D01*
X11501286Y-15823429D01*
X11487000Y-15809143D01*
X11472714Y-15780571D01*
X11458428Y-15723429D01*
X11458428Y-15652000D01*
X11472714Y-15594857D01*
X11487000Y-15566286D01*
X11501286Y-15552000D01*
X11529857Y-15537714D01*
X11758428Y-15837714D02*
X11758428Y-15637714D01*
X11758428Y-15666286D02*
X11772714Y-15652000D01*
X11801286Y-15637714D01*
X11844143Y-15637714D01*
X11872714Y-15652000D01*
X11887000Y-15680571D01*
X11887000Y-15837714D01*
X11887000Y-15680571D02*
X11901286Y-15652000D01*
X11929857Y-15637714D01*
X11972714Y-15637714D01*
X12001286Y-15652000D01*
X12015571Y-15680571D01*
X12015571Y-15837714D01*
X12158428Y-15837714D02*
X12158428Y-15637714D01*
X12158428Y-15666286D02*
X12172714Y-15652000D01*
X12201286Y-15637714D01*
X12244143Y-15637714D01*
X12272714Y-15652000D01*
X12287000Y-15680571D01*
X12287000Y-15837714D01*
X12287000Y-15680571D02*
X12301286Y-15652000D01*
X12329857Y-15637714D01*
X12372714Y-15637714D01*
X12401286Y-15652000D01*
X12415571Y-15680571D01*
X12415571Y-15837714D01*
X13001286Y-15523429D02*
X12744143Y-15909143D01*
X13387000Y-15537714D02*
X13415571Y-15537714D01*
X13444143Y-15552000D01*
X13458428Y-15566286D01*
X13472714Y-15594857D01*
X13487000Y-15652000D01*
X13487000Y-15723429D01*
X13472714Y-15780571D01*
X13458428Y-15809143D01*
X13444143Y-15823429D01*
X13415571Y-15837714D01*
X13387000Y-15837714D01*
X13358428Y-15823429D01*
X13344143Y-15809143D01*
X13329857Y-15780571D01*
X13315571Y-15723429D01*
X13315571Y-15652000D01*
X13329857Y-15594857D01*
X13344143Y-15566286D01*
X13358428Y-15552000D01*
X13387000Y-15537714D01*
X13615571Y-15809143D02*
X13629857Y-15823429D01*
X13615571Y-15837714D01*
X13601286Y-15823429D01*
X13615571Y-15809143D01*
X13615571Y-15837714D01*
X13915571Y-15837714D02*
X13744143Y-15837714D01*
X13829857Y-15837714D02*
X13829857Y-15537714D01*
X13801285Y-15580571D01*
X13772714Y-15609143D01*
X13744143Y-15623429D01*
X14201285Y-15837714D02*
X14029857Y-15837714D01*
X14115571Y-15837714D02*
X14115571Y-15537714D01*
X14087000Y-15580571D01*
X14058428Y-15609143D01*
X14029857Y-15623429D01*
X14372714Y-15666286D02*
X14344143Y-15652000D01*
X14329857Y-15637714D01*
X14315571Y-15609143D01*
X14315571Y-15594857D01*
X14329857Y-15566286D01*
X14344143Y-15552000D01*
X14372714Y-15537714D01*
X14429857Y-15537714D01*
X14458428Y-15552000D01*
X14472714Y-15566286D01*
X14487000Y-15594857D01*
X14487000Y-15609143D01*
X14472714Y-15637714D01*
X14458428Y-15652000D01*
X14429857Y-15666286D01*
X14372714Y-15666286D01*
X14344143Y-15680571D01*
X14329857Y-15694857D01*
X14315571Y-15723429D01*
X14315571Y-15780571D01*
X14329857Y-15809143D01*
X14344143Y-15823429D01*
X14372714Y-15837714D01*
X14429857Y-15837714D01*
X14458428Y-15823429D01*
X14472714Y-15809143D01*
X14487000Y-15780571D01*
X14487000Y-15723429D01*
X14472714Y-15694857D01*
X14458428Y-15680571D01*
X14429857Y-15666286D01*
X14601286Y-15537714D02*
X14601286Y-15594857D01*
X14715571Y-15537714D02*
X14715571Y-15594857D01*
X15158428Y-15952000D02*
X15144143Y-15937714D01*
X15115571Y-15894857D01*
X15101285Y-15866286D01*
X15087000Y-15823429D01*
X15072714Y-15752000D01*
X15072714Y-15694857D01*
X15087000Y-15623429D01*
X15101285Y-15580571D01*
X15115571Y-15552000D01*
X15144143Y-15509143D01*
X15158428Y-15494857D01*
X15401285Y-15637714D02*
X15401285Y-15837714D01*
X15329857Y-15523429D02*
X15258428Y-15737714D01*
X15444143Y-15737714D01*
X15787000Y-15837714D02*
X15787000Y-15537714D01*
X15915571Y-15837714D02*
X15915571Y-15680571D01*
X15901285Y-15652000D01*
X15872714Y-15637714D01*
X15829857Y-15637714D01*
X15801285Y-15652000D01*
X15787000Y-15666286D01*
X16101285Y-15837714D02*
X16072714Y-15823429D01*
X16058428Y-15809143D01*
X16044143Y-15780571D01*
X16044143Y-15694857D01*
X16058428Y-15666286D01*
X16072714Y-15652000D01*
X16101285Y-15637714D01*
X16144143Y-15637714D01*
X16172714Y-15652000D01*
X16187000Y-15666286D01*
X16201285Y-15694857D01*
X16201285Y-15780571D01*
X16187000Y-15809143D01*
X16172714Y-15823429D01*
X16144143Y-15837714D01*
X16101285Y-15837714D01*
X16372714Y-15837714D02*
X16344143Y-15823429D01*
X16329857Y-15794857D01*
X16329857Y-15537714D01*
X16601286Y-15823429D02*
X16572714Y-15837714D01*
X16515571Y-15837714D01*
X16487000Y-15823429D01*
X16472714Y-15794857D01*
X16472714Y-15680571D01*
X16487000Y-15652000D01*
X16515571Y-15637714D01*
X16572714Y-15637714D01*
X16601286Y-15652000D01*
X16615571Y-15680571D01*
X16615571Y-15709143D01*
X16472714Y-15737714D01*
X16729857Y-15823429D02*
X16758428Y-15837714D01*
X16815571Y-15837714D01*
X16844143Y-15823429D01*
X16858429Y-15794857D01*
X16858429Y-15780571D01*
X16844143Y-15752000D01*
X16815571Y-15737714D01*
X16772714Y-15737714D01*
X16744143Y-15723429D01*
X16729857Y-15694857D01*
X16729857Y-15680571D01*
X16744143Y-15652000D01*
X16772714Y-15637714D01*
X16815571Y-15637714D01*
X16844143Y-15652000D01*
X16958428Y-15952000D02*
X16972714Y-15937714D01*
X17001286Y-15894857D01*
X17015571Y-15866286D01*
X17029857Y-15823429D01*
X17044143Y-15752000D01*
X17044143Y-15694857D01*
X17029857Y-15623429D01*
X17015571Y-15580571D01*
X17001286Y-15552000D01*
X16972714Y-15509143D01*
X16958428Y-15494857D01*
X10182000Y-15979474D02*
X10487000Y-16284474D01*
X10487000Y-15979474D02*
X10182000Y-16284474D01*
X10334500Y-15979474D02*
X10334500Y-16284474D01*
X10182000Y-16131974D02*
X10487000Y-16131974D01*
X10729857Y-15967688D02*
X10915571Y-15967688D01*
X10815571Y-16081974D01*
X10858429Y-16081974D01*
X10887000Y-16096260D01*
X10901286Y-16110545D01*
X10915571Y-16139117D01*
X10915571Y-16210545D01*
X10901286Y-16239117D01*
X10887000Y-16253403D01*
X10858429Y-16267688D01*
X10772714Y-16267688D01*
X10744143Y-16253403D01*
X10729857Y-16239117D01*
X11044143Y-16239117D02*
X11058429Y-16253403D01*
X11044143Y-16267688D01*
X11029857Y-16253403D01*
X11044143Y-16239117D01*
X11044143Y-16267688D01*
X11244143Y-15967688D02*
X11272714Y-15967688D01*
X11301286Y-15981974D01*
X11315571Y-15996260D01*
X11329857Y-16024831D01*
X11344143Y-16081974D01*
X11344143Y-16153403D01*
X11329857Y-16210545D01*
X11315571Y-16239117D01*
X11301286Y-16253403D01*
X11272714Y-16267688D01*
X11244143Y-16267688D01*
X11215571Y-16253403D01*
X11201286Y-16239117D01*
X11187000Y-16210545D01*
X11172714Y-16153403D01*
X11172714Y-16081974D01*
X11187000Y-16024831D01*
X11201286Y-15996260D01*
X11215571Y-15981974D01*
X11244143Y-15967688D01*
X11615571Y-15967688D02*
X11472714Y-15967688D01*
X11458428Y-16110545D01*
X11472714Y-16096260D01*
X11501286Y-16081974D01*
X11572714Y-16081974D01*
X11601286Y-16096260D01*
X11615571Y-16110545D01*
X11629857Y-16139117D01*
X11629857Y-16210545D01*
X11615571Y-16239117D01*
X11601286Y-16253403D01*
X11572714Y-16267688D01*
X11501286Y-16267688D01*
X11472714Y-16253403D01*
X11458428Y-16239117D01*
X11758428Y-16267688D02*
X11758428Y-16067688D01*
X11758428Y-16096260D02*
X11772714Y-16081974D01*
X11801286Y-16067688D01*
X11844143Y-16067688D01*
X11872714Y-16081974D01*
X11887000Y-16110545D01*
X11887000Y-16267688D01*
X11887000Y-16110545D02*
X11901286Y-16081974D01*
X11929857Y-16067688D01*
X11972714Y-16067688D01*
X12001286Y-16081974D01*
X12015571Y-16110545D01*
X12015571Y-16267688D01*
X12158428Y-16267688D02*
X12158428Y-16067688D01*
X12158428Y-16096260D02*
X12172714Y-16081974D01*
X12201286Y-16067688D01*
X12244143Y-16067688D01*
X12272714Y-16081974D01*
X12287000Y-16110545D01*
X12287000Y-16267688D01*
X12287000Y-16110545D02*
X12301286Y-16081974D01*
X12329857Y-16067688D01*
X12372714Y-16067688D01*
X12401286Y-16081974D01*
X12415571Y-16110545D01*
X12415571Y-16267688D01*
X13001286Y-15953403D02*
X12744143Y-16339117D01*
X13387000Y-15967688D02*
X13415571Y-15967688D01*
X13444143Y-15981974D01*
X13458428Y-15996260D01*
X13472714Y-16024831D01*
X13487000Y-16081974D01*
X13487000Y-16153403D01*
X13472714Y-16210545D01*
X13458428Y-16239117D01*
X13444143Y-16253403D01*
X13415571Y-16267688D01*
X13387000Y-16267688D01*
X13358428Y-16253403D01*
X13344143Y-16239117D01*
X13329857Y-16210545D01*
X13315571Y-16153403D01*
X13315571Y-16081974D01*
X13329857Y-16024831D01*
X13344143Y-15996260D01*
X13358428Y-15981974D01*
X13387000Y-15967688D01*
X13615571Y-16239117D02*
X13629857Y-16253403D01*
X13615571Y-16267688D01*
X13601286Y-16253403D01*
X13615571Y-16239117D01*
X13615571Y-16267688D01*
X13915571Y-16267688D02*
X13744143Y-16267688D01*
X13829857Y-16267688D02*
X13829857Y-15967688D01*
X13801285Y-16010545D01*
X13772714Y-16039117D01*
X13744143Y-16053403D01*
X14029857Y-15996260D02*
X14044143Y-15981974D01*
X14072714Y-15967688D01*
X14144143Y-15967688D01*
X14172714Y-15981974D01*
X14187000Y-15996260D01*
X14201285Y-16024831D01*
X14201285Y-16053403D01*
X14187000Y-16096260D01*
X14015571Y-16267688D01*
X14201285Y-16267688D01*
X14387000Y-15967688D02*
X14415571Y-15967688D01*
X14444143Y-15981974D01*
X14458428Y-15996260D01*
X14472714Y-16024831D01*
X14487000Y-16081974D01*
X14487000Y-16153403D01*
X14472714Y-16210545D01*
X14458428Y-16239117D01*
X14444143Y-16253403D01*
X14415571Y-16267688D01*
X14387000Y-16267688D01*
X14358428Y-16253403D01*
X14344143Y-16239117D01*
X14329857Y-16210545D01*
X14315571Y-16153403D01*
X14315571Y-16081974D01*
X14329857Y-16024831D01*
X14344143Y-15996260D01*
X14358428Y-15981974D01*
X14387000Y-15967688D01*
X14601286Y-15967688D02*
X14601286Y-16024831D01*
X14715571Y-15967688D02*
X14715571Y-16024831D01*
X15158428Y-16381974D02*
X15144143Y-16367688D01*
X15115571Y-16324831D01*
X15101285Y-16296260D01*
X15087000Y-16253403D01*
X15072714Y-16181974D01*
X15072714Y-16124831D01*
X15087000Y-16053403D01*
X15101285Y-16010545D01*
X15115571Y-15981974D01*
X15144143Y-15939117D01*
X15158428Y-15924831D01*
X15258428Y-15996260D02*
X15272714Y-15981974D01*
X15301285Y-15967688D01*
X15372714Y-15967688D01*
X15401285Y-15981974D01*
X15415571Y-15996260D01*
X15429857Y-16024831D01*
X15429857Y-16053403D01*
X15415571Y-16096260D01*
X15244143Y-16267688D01*
X15429857Y-16267688D01*
X15787000Y-16267688D02*
X15787000Y-15967688D01*
X15915571Y-16267688D02*
X15915571Y-16110545D01*
X15901285Y-16081974D01*
X15872714Y-16067688D01*
X15829857Y-16067688D01*
X15801285Y-16081974D01*
X15787000Y-16096260D01*
X16101285Y-16267688D02*
X16072714Y-16253403D01*
X16058428Y-16239117D01*
X16044143Y-16210545D01*
X16044143Y-16124831D01*
X16058428Y-16096260D01*
X16072714Y-16081974D01*
X16101285Y-16067688D01*
X16144143Y-16067688D01*
X16172714Y-16081974D01*
X16187000Y-16096260D01*
X16201285Y-16124831D01*
X16201285Y-16210545D01*
X16187000Y-16239117D01*
X16172714Y-16253403D01*
X16144143Y-16267688D01*
X16101285Y-16267688D01*
X16372714Y-16267688D02*
X16344143Y-16253403D01*
X16329857Y-16224831D01*
X16329857Y-15967688D01*
X16601286Y-16253403D02*
X16572714Y-16267688D01*
X16515571Y-16267688D01*
X16487000Y-16253403D01*
X16472714Y-16224831D01*
X16472714Y-16110545D01*
X16487000Y-16081974D01*
X16515571Y-16067688D01*
X16572714Y-16067688D01*
X16601286Y-16081974D01*
X16615571Y-16110545D01*
X16615571Y-16139117D01*
X16472714Y-16167688D01*
X16729857Y-16253403D02*
X16758428Y-16267688D01*
X16815571Y-16267688D01*
X16844143Y-16253403D01*
X16858429Y-16224831D01*
X16858429Y-16210545D01*
X16844143Y-16181974D01*
X16815571Y-16167688D01*
X16772714Y-16167688D01*
X16744143Y-16153403D01*
X16729857Y-16124831D01*
X16729857Y-16110545D01*
X16744143Y-16081974D01*
X16772714Y-16067688D01*
X16815571Y-16067688D01*
X16844143Y-16081974D01*
X16958428Y-16381974D02*
X16972714Y-16367688D01*
X17001286Y-16324831D01*
X17015571Y-16296260D01*
X17029857Y-16253403D01*
X17044143Y-16181974D01*
X17044143Y-16124831D01*
X17029857Y-16053403D01*
X17015571Y-16010545D01*
X17001286Y-15981974D01*
X16972714Y-15939117D01*
X16958428Y-15924831D01*
M02*
