M48
;DRILL file {KiCad 4.0.7-e1-6374~58~ubuntu16.04.1} date Thu Aug  3 08:38:43 2017
;FORMAT={-:-/ absolute / metric / decimal}
FMAT,2
METRIC,TZ
T1C0.220
T2C0.635
T3C1.000
T4C1.001
T5C1.020
T6C1.097
T7C1.300
T8C2.030
T9C2.540
T10C3.000
%
G90
G05
M71
T1
X112.255Y-88.138
X117.348Y-98.044
X118.11Y-98.044
X118.872Y-98.044
X122.475Y-107.25
X123.125Y-109.25
X123.775Y-110.9
X129.032Y-104.14
X129.032Y-104.902
X129.032Y-105.664
T2
X108.2Y-82.05
X109.15Y-82.7
X111.252Y-83.312
X123.9Y-90.394
X123.995Y-91.915
X125.476Y-87.63
X126.3Y-94.
X128.778Y-96.012
X134.112Y-86.106
X139.3Y-95.504
X143.002Y-82.042
X145.288Y-78.486
X146.304Y-80.264
X151.638Y-81.788
X154.178Y-80.936
X157.988Y-79.248
X158.242Y-101.092
X159.512Y-83.566
X160.274Y-114.808
T3
X122.65Y-114.57
X122.65Y-117.11
X122.65Y-119.65
X126.95Y-114.57
X126.95Y-117.11
X126.95Y-119.65
X138.06Y-103.9
X140.6Y-103.9
X143.14Y-103.9
X150.622Y-86.614
X153.162Y-86.614
X161.798Y-97.79
X164.338Y-97.79
T4
X113.27Y-73.63
X113.27Y-76.17
X115.81Y-73.63
X115.81Y-76.17
X118.35Y-73.63
X118.35Y-76.17
X120.89Y-73.63
X120.89Y-76.17
X123.43Y-73.63
X123.43Y-76.17
X125.97Y-73.63
X125.97Y-76.17
X128.51Y-73.63
X128.51Y-76.17
X131.05Y-73.63
X131.05Y-76.17
X133.59Y-73.63
X133.59Y-76.17
X136.13Y-73.63
X136.13Y-76.17
X138.67Y-73.63
X138.67Y-76.17
X141.21Y-73.63
X141.21Y-76.17
X143.75Y-73.63
X143.75Y-76.17
X146.29Y-73.63
X146.29Y-76.17
X148.83Y-73.63
X148.83Y-76.17
X151.37Y-73.63
X151.37Y-76.17
X153.91Y-73.63
X153.91Y-76.17
X156.45Y-73.63
X156.45Y-76.17
X158.99Y-73.63
X158.99Y-76.17
X161.53Y-73.63
X161.53Y-76.17
T5
X161.544Y-90.17
T6
X115.8Y-107.24
X115.8Y-109.78
X115.8Y-112.32
X115.8Y-114.86
X115.8Y-117.4
X115.8Y-119.94
X115.8Y-122.48
X115.8Y-125.02
T7
X139.994Y-121.666
X144.994Y-121.666
T8
X157.094Y-92.71
X161.544Y-85.09
X165.984Y-92.71
T9
X152.014Y-90.17
T10
X108.42Y-74.82
X108.42Y-123.82
X166.42Y-74.82
X166.42Y-123.82
T0
M30
