G04 #@! TF.FileFunction,Soldermask,Bot*
%FSLAX46Y46*%
G04 Gerber Fmt 4.6, Leading zero omitted, Abs format (unit mm)*
G04 Created by KiCad (PCBNEW 4.0.7-e1-6374~58~ubuntu16.04.1) date Thu Aug  3 01:25:43 2017*
%MOMM*%
%LPD*%
G01*
G04 APERTURE LIST*
%ADD10C,0.100000*%
%ADD11C,3.560000*%
%ADD12C,2.540000*%
%ADD13C,2.160000*%
%ADD14C,2.500000*%
%ADD15O,1.998980X1.998980*%
%ADD16R,1.998980X1.998980*%
%ADD17R,1.700000X1.700000*%
%ADD18O,1.700000X1.700000*%
%ADD19R,1.524000X1.998980*%
%ADD20O,1.524000X1.998980*%
G04 APERTURE END LIST*
D10*
D11*
X152014000Y-90170000D03*
D12*
X161544000Y-90170000D03*
D13*
X161544000Y-85090000D03*
X165984000Y-92710000D03*
X157094000Y-92710000D03*
D14*
X139994000Y-121666000D03*
X144994000Y-121666000D03*
D15*
X115800000Y-114860000D03*
D16*
X115800000Y-107240000D03*
D15*
X115800000Y-109780000D03*
X115800000Y-112320000D03*
X115800000Y-117400000D03*
X115800000Y-119940000D03*
X115800000Y-122480000D03*
X115800000Y-125020000D03*
D17*
X143140000Y-103900000D03*
D18*
X140600000Y-103900000D03*
X138060000Y-103900000D03*
D17*
X122650000Y-114570000D03*
D18*
X122650000Y-117110000D03*
X122650000Y-119650000D03*
D17*
X126950000Y-114570000D03*
D18*
X126950000Y-117110000D03*
X126950000Y-119650000D03*
D17*
X161798000Y-97790000D03*
D18*
X164338000Y-97790000D03*
D17*
X153162000Y-86614000D03*
D18*
X150622000Y-86614000D03*
D19*
X113270000Y-76418920D03*
D20*
X113270000Y-73381080D03*
X115810000Y-76418920D03*
X115810000Y-73381080D03*
X118350000Y-76418920D03*
X118350000Y-73381080D03*
X120890000Y-76418920D03*
X120890000Y-73381080D03*
X123430000Y-76418920D03*
X123430000Y-73381080D03*
X125970000Y-76418920D03*
X125970000Y-73381080D03*
X128510000Y-76418920D03*
X128510000Y-73381080D03*
X131050000Y-76418920D03*
X131050000Y-73381080D03*
X133590000Y-76418920D03*
X133590000Y-73381080D03*
X136130000Y-76418920D03*
X136130000Y-73381080D03*
X138670000Y-76418920D03*
X138670000Y-73381080D03*
X141210000Y-76418920D03*
X141210000Y-73381080D03*
X143750000Y-76418920D03*
X143750000Y-73381080D03*
X146290000Y-76418920D03*
X146290000Y-73381080D03*
X148830000Y-76418920D03*
X148830000Y-73381080D03*
X151370000Y-76418920D03*
X151370000Y-73381080D03*
X153910000Y-76418920D03*
X153910000Y-73381080D03*
X156450000Y-76418920D03*
X156450000Y-73381080D03*
X158990000Y-76418920D03*
X158990000Y-73381080D03*
X161530000Y-76418920D03*
X161530000Y-73381080D03*
M02*
