G04 #@! TF.FileFunction,Soldermask,Top*
%FSLAX46Y46*%
G04 Gerber Fmt 4.6, Leading zero omitted, Abs format (unit mm)*
G04 Created by KiCad (PCBNEW 4.0.7-e1-6374~58~ubuntu16.04.1) date Thu Aug  3 01:25:43 2017*
%MOMM*%
%LPD*%
G01*
G04 APERTURE LIST*
%ADD10C,0.100000*%
%ADD11R,1.060000X0.650000*%
%ADD12C,3.560000*%
%ADD13C,2.540000*%
%ADD14C,2.160000*%
%ADD15R,2.000000X1.000000*%
%ADD16C,2.500000*%
%ADD17R,0.419100X1.470660*%
%ADD18R,0.599440X1.000760*%
%ADD19R,2.200000X1.050000*%
%ADD20R,1.000000X1.000000*%
%ADD21R,0.550000X0.200000*%
%ADD22R,0.200000X0.550000*%
%ADD23R,0.500000X0.900000*%
%ADD24R,1.300000X0.700000*%
%ADD25R,0.750000X0.800000*%
%ADD26R,0.800000X0.750000*%
%ADD27R,0.600000X0.800000*%
%ADD28R,0.900000X0.500000*%
%ADD29R,0.900000X0.800000*%
%ADD30O,1.998980X1.998980*%
%ADD31R,1.998980X1.998980*%
%ADD32R,0.800000X0.600000*%
%ADD33R,0.450000X0.600000*%
%ADD34R,1.143000X0.508000*%
%ADD35R,0.450000X1.500000*%
%ADD36R,0.508000X1.143000*%
%ADD37R,0.600000X1.550000*%
%ADD38R,3.599180X1.600200*%
%ADD39R,1.998980X2.301240*%
%ADD40R,2.997200X7.498080*%
%ADD41R,4.600000X1.100000*%
%ADD42R,9.400000X10.800000*%
%ADD43R,1.700000X1.700000*%
%ADD44O,1.700000X1.700000*%
%ADD45R,1.524000X1.998980*%
%ADD46O,1.524000X1.998980*%
G04 APERTURE END LIST*
D10*
D11*
X153219328Y-101023300D03*
X153219328Y-100073300D03*
X153219328Y-99123300D03*
X151019328Y-99123300D03*
X151019328Y-101023300D03*
D12*
X152014000Y-90170000D03*
D13*
X161544000Y-90170000D03*
D14*
X161544000Y-85090000D03*
X165984000Y-92710000D03*
X157094000Y-92710000D03*
D15*
X147350000Y-81550000D03*
X131350000Y-81550000D03*
X147350000Y-83050000D03*
X131350000Y-83050000D03*
X147350000Y-84550000D03*
X131350000Y-84550000D03*
X147350000Y-86050000D03*
X131350000Y-86050000D03*
X147350000Y-87550000D03*
X131350000Y-87550000D03*
X147350000Y-89050000D03*
X131350000Y-89050000D03*
X147350000Y-90550000D03*
X131350000Y-90550000D03*
X147350000Y-92050000D03*
X131350000Y-92050000D03*
X147350000Y-93550000D03*
X131350000Y-93550000D03*
X147350000Y-95050000D03*
X131350000Y-95050000D03*
D16*
X139994000Y-121666000D03*
X144994000Y-121666000D03*
D17*
X156625420Y-86385080D03*
X157270580Y-86385080D03*
X157923360Y-86385080D03*
X155972640Y-86385080D03*
X157923360Y-80786920D03*
X157270580Y-80786920D03*
X156625420Y-80786920D03*
X155972640Y-80786920D03*
D18*
X116038480Y-84548260D03*
X117943480Y-84548260D03*
X116990980Y-84548260D03*
X117943480Y-82434980D03*
X116038480Y-82434980D03*
X116990980Y-82434980D03*
D19*
X145850000Y-100625000D03*
X145850000Y-97675000D03*
D20*
X144350000Y-99150000D03*
X147350000Y-99150000D03*
D21*
X107700000Y-84950000D03*
X107700000Y-85350000D03*
X107700000Y-85750000D03*
X107700000Y-86150000D03*
X107700000Y-86550000D03*
X107700000Y-86950000D03*
D22*
X108200000Y-87450000D03*
X108600000Y-87450000D03*
X109000000Y-87450000D03*
X109400000Y-87450000D03*
X109800000Y-87450000D03*
X110200000Y-87450000D03*
D21*
X110700000Y-86950000D03*
X110700000Y-86550000D03*
X110700000Y-86150000D03*
X110700000Y-85750000D03*
X110700000Y-85350000D03*
X110700000Y-84950000D03*
D22*
X110200000Y-84450000D03*
X109800000Y-84450000D03*
X109400000Y-84450000D03*
X109000000Y-84450000D03*
X108600000Y-84450000D03*
X108200000Y-84450000D03*
D23*
X151098000Y-84036000D03*
X152598000Y-84036000D03*
D24*
X126150000Y-83450000D03*
X126150000Y-81550000D03*
D25*
X152598000Y-80936000D03*
X152598000Y-82436000D03*
X127900000Y-81550000D03*
X127900000Y-83050000D03*
D26*
X108350000Y-88800000D03*
X106850000Y-88800000D03*
D25*
X129400000Y-81550000D03*
X129400000Y-83050000D03*
X112050000Y-86950000D03*
X112050000Y-85450000D03*
D26*
X111250000Y-88800000D03*
X109750000Y-88800000D03*
X134050000Y-119050000D03*
X132550000Y-119050000D03*
D27*
X127450000Y-87550000D03*
X129150000Y-87550000D03*
D28*
X150748000Y-81086000D03*
X150748000Y-82586000D03*
X154398000Y-82736000D03*
X154398000Y-84236000D03*
X159512000Y-82272000D03*
X159512000Y-80772000D03*
X119540980Y-84541620D03*
X119540980Y-83041620D03*
D23*
X117940980Y-80991620D03*
X119440980Y-80991620D03*
D28*
X127450000Y-86250000D03*
X127450000Y-84750000D03*
D23*
X114868854Y-104584930D03*
X116368854Y-104584930D03*
X122450000Y-111750000D03*
X120950000Y-111750000D03*
D26*
X134050000Y-97750000D03*
X132550000Y-97750000D03*
D25*
X131100000Y-120550000D03*
X131100000Y-119050000D03*
X131100000Y-109250000D03*
X131100000Y-107750000D03*
X129850000Y-101350000D03*
X129850000Y-102850000D03*
D26*
X114868854Y-99284930D03*
X116368854Y-99284930D03*
D29*
X125050000Y-97050000D03*
X125050000Y-95150000D03*
X123050000Y-96100000D03*
D30*
X115800000Y-114860000D03*
D31*
X115800000Y-107240000D03*
D30*
X115800000Y-109780000D03*
X115800000Y-112320000D03*
X115800000Y-117400000D03*
X115800000Y-119940000D03*
X115800000Y-122480000D03*
X115800000Y-125020000D03*
D29*
X114540980Y-83391620D03*
X114540980Y-81491620D03*
X112540980Y-82441620D03*
D23*
X116368854Y-102684930D03*
X114868854Y-102684930D03*
X114868854Y-100884930D03*
X116368854Y-100884930D03*
D28*
X129550000Y-109250000D03*
X129550000Y-107750000D03*
X128350000Y-101350000D03*
X128350000Y-102850000D03*
D23*
X122450000Y-110100000D03*
X120950000Y-110100000D03*
D28*
X121100000Y-97600000D03*
X121100000Y-96100000D03*
X126800000Y-96650000D03*
X126800000Y-95150000D03*
D26*
X134050000Y-107750000D03*
X132550000Y-107750000D03*
X130650000Y-97750000D03*
X129150000Y-97750000D03*
X134050000Y-120550000D03*
X132550000Y-120550000D03*
X134050000Y-109250000D03*
X132550000Y-109250000D03*
D25*
X120800000Y-99500000D03*
X120800000Y-101000000D03*
D32*
X113518854Y-104584930D03*
X113518854Y-102884930D03*
D33*
X118118854Y-100884930D03*
X118118854Y-98784930D03*
D29*
X124950000Y-93100000D03*
X124950000Y-91200000D03*
X122950000Y-92150000D03*
X119415070Y-88268854D03*
X119415070Y-86368854D03*
X117415070Y-87318854D03*
X139300000Y-97600000D03*
X139300000Y-99500000D03*
X141300000Y-98550000D03*
D23*
X120950000Y-108450000D03*
X122450000Y-108450000D03*
D28*
X121100000Y-93650000D03*
X121100000Y-92150000D03*
X126700000Y-92700000D03*
X126700000Y-91200000D03*
D23*
X115915070Y-89018854D03*
X114415070Y-89018854D03*
D28*
X112700000Y-95000000D03*
X112700000Y-93500000D03*
D23*
X114415070Y-87318854D03*
X115915070Y-87318854D03*
D28*
X121065070Y-87868854D03*
X121065070Y-86368854D03*
D23*
X139800000Y-101200000D03*
X141300000Y-101200000D03*
D28*
X137600000Y-98000000D03*
X137600000Y-99500000D03*
D34*
X124750000Y-126205000D03*
X124750000Y-124935000D03*
X124750000Y-123665000D03*
X124750000Y-122395000D03*
X131100000Y-122395000D03*
X131100000Y-123665000D03*
X131100000Y-124935000D03*
X131100000Y-126205000D03*
D35*
X122475000Y-105400000D03*
X123125000Y-105400000D03*
X123775000Y-105400000D03*
X124425000Y-105400000D03*
X125075000Y-105400000D03*
X125725000Y-105400000D03*
X126375000Y-105400000D03*
X127025000Y-105400000D03*
X127025000Y-99500000D03*
X126375000Y-99500000D03*
X125725000Y-99500000D03*
X125075000Y-99500000D03*
X124425000Y-99500000D03*
X123775000Y-99500000D03*
X123125000Y-99500000D03*
X122475000Y-99500000D03*
D36*
X135305000Y-117275000D03*
X134035000Y-117275000D03*
X132765000Y-117275000D03*
X131495000Y-117275000D03*
X131495000Y-110925000D03*
X132765000Y-110925000D03*
X134035000Y-110925000D03*
X135305000Y-110925000D03*
X135305000Y-105825000D03*
X134035000Y-105825000D03*
X132765000Y-105825000D03*
X131495000Y-105825000D03*
X131495000Y-99475000D03*
X132765000Y-99475000D03*
X134035000Y-99475000D03*
X135305000Y-99475000D03*
D37*
X114410070Y-96668854D03*
X115680070Y-96668854D03*
X116950070Y-96668854D03*
X118220070Y-96668854D03*
X118220070Y-91268854D03*
X116950070Y-91268854D03*
X115680070Y-91268854D03*
X114410070Y-91268854D03*
D38*
X145288000Y-112522000D03*
X139786360Y-112522000D03*
X161798000Y-117094000D03*
X167299640Y-117094000D03*
D39*
X157457140Y-124714000D03*
X153438860Y-124714000D03*
D40*
X152694640Y-118110000D03*
X157693360Y-118110000D03*
D41*
X155702000Y-110940000D03*
X155702000Y-109240000D03*
X155702000Y-105840000D03*
D42*
X164862000Y-107540000D03*
D41*
X155702000Y-107540000D03*
X155702000Y-104140000D03*
D43*
X143140000Y-103900000D03*
D44*
X140600000Y-103900000D03*
X138060000Y-103900000D03*
D43*
X122650000Y-114570000D03*
D44*
X122650000Y-117110000D03*
X122650000Y-119650000D03*
D43*
X126950000Y-114570000D03*
D44*
X126950000Y-117110000D03*
X126950000Y-119650000D03*
D43*
X161798000Y-97790000D03*
D44*
X164338000Y-97790000D03*
D25*
X154919328Y-101023300D03*
X154919328Y-99523300D03*
X149319328Y-101023300D03*
X149319328Y-99523300D03*
D43*
X153162000Y-86614000D03*
D44*
X150622000Y-86614000D03*
D45*
X113270000Y-76418920D03*
D46*
X113270000Y-73381080D03*
X115810000Y-76418920D03*
X115810000Y-73381080D03*
X118350000Y-76418920D03*
X118350000Y-73381080D03*
X120890000Y-76418920D03*
X120890000Y-73381080D03*
X123430000Y-76418920D03*
X123430000Y-73381080D03*
X125970000Y-76418920D03*
X125970000Y-73381080D03*
X128510000Y-76418920D03*
X128510000Y-73381080D03*
X131050000Y-76418920D03*
X131050000Y-73381080D03*
X133590000Y-76418920D03*
X133590000Y-73381080D03*
X136130000Y-76418920D03*
X136130000Y-73381080D03*
X138670000Y-76418920D03*
X138670000Y-73381080D03*
X141210000Y-76418920D03*
X141210000Y-73381080D03*
X143750000Y-76418920D03*
X143750000Y-73381080D03*
X146290000Y-76418920D03*
X146290000Y-73381080D03*
X148830000Y-76418920D03*
X148830000Y-73381080D03*
X151370000Y-76418920D03*
X151370000Y-73381080D03*
X153910000Y-76418920D03*
X153910000Y-73381080D03*
X156450000Y-76418920D03*
X156450000Y-73381080D03*
X158990000Y-76418920D03*
X158990000Y-73381080D03*
X161530000Y-76418920D03*
X161530000Y-73381080D03*
M02*
