G04 #@! TF.FileFunction,Legend,Top*
%FSLAX46Y46*%
G04 Gerber Fmt 4.6, Leading zero omitted, Abs format (unit mm)*
G04 Created by KiCad (PCBNEW 4.0.7-e1-6374~58~ubuntu16.04.1) date Tue Aug 22 17:37:57 2017*
%MOMM*%
%LPD*%
G01*
G04 APERTURE LIST*
%ADD10C,0.100000*%
%ADD11C,0.150000*%
%ADD12C,0.120000*%
%ADD13C,0.127000*%
%ADD14C,0.304800*%
%ADD15C,0.030000*%
%ADD16C,0.125000*%
G04 APERTURE END LIST*
D10*
D11*
X156713571Y-101382857D02*
X157170714Y-101382857D01*
X156942143Y-101611429D02*
X156942143Y-101154286D01*
X157742142Y-101011429D02*
X157456428Y-101011429D01*
X157427857Y-101297143D01*
X157456428Y-101268571D01*
X157513571Y-101240000D01*
X157656428Y-101240000D01*
X157713571Y-101268571D01*
X157742142Y-101297143D01*
X157770714Y-101354286D01*
X157770714Y-101497143D01*
X157742142Y-101554286D01*
X157713571Y-101582857D01*
X157656428Y-101611429D01*
X157513571Y-101611429D01*
X157456428Y-101582857D01*
X157427857Y-101554286D01*
X157942143Y-101011429D02*
X158142143Y-101611429D01*
X158342143Y-101011429D01*
X157027858Y-98315000D02*
X156970715Y-98286429D01*
X156885001Y-98286429D01*
X156799286Y-98315000D01*
X156742144Y-98372143D01*
X156713572Y-98429286D01*
X156685001Y-98543571D01*
X156685001Y-98629286D01*
X156713572Y-98743571D01*
X156742144Y-98800714D01*
X156799286Y-98857857D01*
X156885001Y-98886429D01*
X156942144Y-98886429D01*
X157027858Y-98857857D01*
X157056429Y-98829286D01*
X157056429Y-98629286D01*
X156942144Y-98629286D01*
X157313572Y-98886429D02*
X157313572Y-98286429D01*
X157656429Y-98886429D01*
X157656429Y-98286429D01*
X157942143Y-98886429D02*
X157942143Y-98286429D01*
X158085000Y-98286429D01*
X158170715Y-98315000D01*
X158227857Y-98372143D01*
X158256429Y-98429286D01*
X158285000Y-98543571D01*
X158285000Y-98629286D01*
X158256429Y-98743571D01*
X158227857Y-98800714D01*
X158170715Y-98857857D01*
X158085000Y-98886429D01*
X157942143Y-98886429D01*
X106725000Y-83667858D02*
X106753571Y-83610715D01*
X106753571Y-83525001D01*
X106725000Y-83439286D01*
X106667857Y-83382144D01*
X106610714Y-83353572D01*
X106496429Y-83325001D01*
X106410714Y-83325001D01*
X106296429Y-83353572D01*
X106239286Y-83382144D01*
X106182143Y-83439286D01*
X106153571Y-83525001D01*
X106153571Y-83582144D01*
X106182143Y-83667858D01*
X106210714Y-83696429D01*
X106410714Y-83696429D01*
X106410714Y-83582144D01*
X106153571Y-83953572D02*
X106753571Y-83953572D01*
X106153571Y-84296429D01*
X106753571Y-84296429D01*
X106153571Y-84582143D02*
X106753571Y-84582143D01*
X106753571Y-84725000D01*
X106725000Y-84810715D01*
X106667857Y-84867857D01*
X106610714Y-84896429D01*
X106496429Y-84925000D01*
X106410714Y-84925000D01*
X106296429Y-84896429D01*
X106239286Y-84867857D01*
X106182143Y-84810715D01*
X106153571Y-84725000D01*
X106153571Y-84582143D01*
X106432143Y-78985714D02*
X106432143Y-79442857D01*
X106203571Y-79214286D02*
X106660714Y-79214286D01*
X106803571Y-80014285D02*
X106803571Y-79728571D01*
X106517857Y-79700000D01*
X106546429Y-79728571D01*
X106575000Y-79785714D01*
X106575000Y-79928571D01*
X106546429Y-79985714D01*
X106517857Y-80014285D01*
X106460714Y-80042857D01*
X106317857Y-80042857D01*
X106260714Y-80014285D01*
X106232143Y-79985714D01*
X106203571Y-79928571D01*
X106203571Y-79785714D01*
X106232143Y-79728571D01*
X106260714Y-79700000D01*
X106803571Y-80214286D02*
X106203571Y-80414286D01*
X106803571Y-80614286D01*
X106203571Y-81614286D02*
X106489286Y-81414286D01*
X106203571Y-81271429D02*
X106803571Y-81271429D01*
X106803571Y-81500001D01*
X106775000Y-81557143D01*
X106746429Y-81585715D01*
X106689286Y-81614286D01*
X106603571Y-81614286D01*
X106546429Y-81585715D01*
X106517857Y-81557143D01*
X106489286Y-81500001D01*
X106489286Y-81271429D01*
X106603571Y-81871429D02*
X106003571Y-81871429D01*
X106575000Y-81871429D02*
X106603571Y-81928572D01*
X106603571Y-82042858D01*
X106575000Y-82100001D01*
X106546429Y-82128572D01*
X106489286Y-82157143D01*
X106317857Y-82157143D01*
X106260714Y-82128572D01*
X106232143Y-82100001D01*
X106203571Y-82042858D01*
X106203571Y-81928572D01*
X106232143Y-81871429D01*
X106203571Y-82414286D02*
X106603571Y-82414286D01*
X106803571Y-82414286D02*
X106775000Y-82385715D01*
X106746429Y-82414286D01*
X106775000Y-82442858D01*
X106803571Y-82414286D01*
X106746429Y-82414286D01*
X168112381Y-109962858D02*
X167588571Y-109962858D01*
X167493333Y-110010477D01*
X167445714Y-110105715D01*
X167445714Y-110296192D01*
X167493333Y-110391430D01*
X168064762Y-109962858D02*
X168112381Y-110058096D01*
X168112381Y-110296192D01*
X168064762Y-110391430D01*
X167969524Y-110439049D01*
X167874286Y-110439049D01*
X167779048Y-110391430D01*
X167731429Y-110296192D01*
X167731429Y-110058096D01*
X167683810Y-109962858D01*
X168064762Y-109105715D02*
X168112381Y-109200953D01*
X168112381Y-109391430D01*
X168064762Y-109486668D01*
X167969524Y-109534287D01*
X167588571Y-109534287D01*
X167493333Y-109486668D01*
X167445714Y-109391430D01*
X167445714Y-109200953D01*
X167493333Y-109105715D01*
X167588571Y-109058096D01*
X167683810Y-109058096D01*
X167779048Y-109534287D01*
X168112381Y-108629525D02*
X167445714Y-108629525D01*
X167636190Y-108629525D02*
X167540952Y-108581906D01*
X167493333Y-108534287D01*
X167445714Y-108439049D01*
X167445714Y-108343810D01*
X168112381Y-107867620D02*
X168064762Y-107962858D01*
X168017143Y-108010477D01*
X167921905Y-108058096D01*
X167636190Y-108058096D01*
X167540952Y-108010477D01*
X167493333Y-107962858D01*
X167445714Y-107867620D01*
X167445714Y-107724762D01*
X167493333Y-107629524D01*
X167540952Y-107581905D01*
X167636190Y-107534286D01*
X167921905Y-107534286D01*
X168017143Y-107581905D01*
X168064762Y-107629524D01*
X168112381Y-107724762D01*
X168112381Y-107867620D01*
X168112381Y-107105715D02*
X167112381Y-107105715D01*
X167112381Y-106724762D01*
X167160000Y-106629524D01*
X167207619Y-106581905D01*
X167302857Y-106534286D01*
X167445714Y-106534286D01*
X167540952Y-106581905D01*
X167588571Y-106629524D01*
X167636190Y-106724762D01*
X167636190Y-107105715D01*
X168112381Y-106105715D02*
X167445714Y-106105715D01*
X167112381Y-106105715D02*
X167160000Y-106153334D01*
X167207619Y-106105715D01*
X167160000Y-106058096D01*
X167112381Y-106105715D01*
X167207619Y-106105715D01*
X167350476Y-104058096D02*
X167302857Y-104153334D01*
X167302857Y-104343810D01*
X167350476Y-104439048D01*
X167445714Y-104534286D01*
X167540952Y-104581905D01*
X167731429Y-104581905D01*
X167826667Y-104534286D01*
X167921905Y-104439048D01*
X167969524Y-104343810D01*
X167969524Y-104153334D01*
X167921905Y-104058096D01*
X166969524Y-104248572D02*
X167017143Y-104486667D01*
X167160000Y-104724763D01*
X167398095Y-104867620D01*
X167636190Y-104915239D01*
X167874286Y-104867620D01*
X168112381Y-104724763D01*
X168255238Y-104486667D01*
X168302857Y-104248572D01*
X168255238Y-104010477D01*
X168112381Y-103772382D01*
X167874286Y-103629525D01*
X167636190Y-103581905D01*
X167398095Y-103629525D01*
X167160000Y-103772382D01*
X167017143Y-104010477D01*
X166969524Y-104248572D01*
X168017143Y-101820000D02*
X168064762Y-101867619D01*
X168112381Y-102010476D01*
X168112381Y-102105714D01*
X168064762Y-102248572D01*
X167969524Y-102343810D01*
X167874286Y-102391429D01*
X167683810Y-102439048D01*
X167540952Y-102439048D01*
X167350476Y-102391429D01*
X167255238Y-102343810D01*
X167160000Y-102248572D01*
X167112381Y-102105714D01*
X167112381Y-102010476D01*
X167160000Y-101867619D01*
X167207619Y-101820000D01*
X168112381Y-101391429D02*
X167112381Y-101391429D01*
X167112381Y-101153334D01*
X167160000Y-101010476D01*
X167255238Y-100915238D01*
X167350476Y-100867619D01*
X167540952Y-100820000D01*
X167683810Y-100820000D01*
X167874286Y-100867619D01*
X167969524Y-100915238D01*
X168064762Y-101010476D01*
X168112381Y-101153334D01*
X168112381Y-101391429D01*
X168064762Y-99677143D02*
X168112381Y-99534286D01*
X168112381Y-99296190D01*
X168064762Y-99200952D01*
X168017143Y-99153333D01*
X167921905Y-99105714D01*
X167826667Y-99105714D01*
X167731429Y-99153333D01*
X167683810Y-99200952D01*
X167636190Y-99296190D01*
X167588571Y-99486667D01*
X167540952Y-99581905D01*
X167493333Y-99629524D01*
X167398095Y-99677143D01*
X167302857Y-99677143D01*
X167207619Y-99629524D01*
X167160000Y-99581905D01*
X167112381Y-99486667D01*
X167112381Y-99248571D01*
X167160000Y-99105714D01*
X167445714Y-98772381D02*
X168112381Y-98534286D01*
X167445714Y-98296190D02*
X168112381Y-98534286D01*
X168350476Y-98629524D01*
X168398095Y-98677143D01*
X168445714Y-98772381D01*
X168064762Y-97962857D02*
X168112381Y-97867619D01*
X168112381Y-97677143D01*
X168064762Y-97581904D01*
X167969524Y-97534285D01*
X167921905Y-97534285D01*
X167826667Y-97581904D01*
X167779048Y-97677143D01*
X167779048Y-97820000D01*
X167731429Y-97915238D01*
X167636190Y-97962857D01*
X167588571Y-97962857D01*
X167493333Y-97915238D01*
X167445714Y-97820000D01*
X167445714Y-97677143D01*
X167493333Y-97581904D01*
X167445714Y-97248571D02*
X167445714Y-96867619D01*
X167112381Y-97105714D02*
X167969524Y-97105714D01*
X168064762Y-97058095D01*
X168112381Y-96962857D01*
X168112381Y-96867619D01*
X168064762Y-96153332D02*
X168112381Y-96248570D01*
X168112381Y-96439047D01*
X168064762Y-96534285D01*
X167969524Y-96581904D01*
X167588571Y-96581904D01*
X167493333Y-96534285D01*
X167445714Y-96439047D01*
X167445714Y-96248570D01*
X167493333Y-96153332D01*
X167588571Y-96105713D01*
X167683810Y-96105713D01*
X167779048Y-96581904D01*
X168112381Y-95677142D02*
X167445714Y-95677142D01*
X167540952Y-95677142D02*
X167493333Y-95629523D01*
X167445714Y-95534285D01*
X167445714Y-95391427D01*
X167493333Y-95296189D01*
X167588571Y-95248570D01*
X168112381Y-95248570D01*
X167588571Y-95248570D02*
X167493333Y-95200951D01*
X167445714Y-95105713D01*
X167445714Y-94962856D01*
X167493333Y-94867618D01*
X167588571Y-94819999D01*
X168112381Y-94819999D01*
X167731429Y-93581904D02*
X167731429Y-92819999D01*
X167207619Y-91629523D02*
X167160000Y-91581904D01*
X167112381Y-91486666D01*
X167112381Y-91248570D01*
X167160000Y-91153332D01*
X167207619Y-91105713D01*
X167302857Y-91058094D01*
X167398095Y-91058094D01*
X167540952Y-91105713D01*
X168112381Y-91677142D01*
X168112381Y-91058094D01*
X167112381Y-90439047D02*
X167112381Y-90343808D01*
X167160000Y-90248570D01*
X167207619Y-90200951D01*
X167302857Y-90153332D01*
X167493333Y-90105713D01*
X167731429Y-90105713D01*
X167921905Y-90153332D01*
X168017143Y-90200951D01*
X168064762Y-90248570D01*
X168112381Y-90343808D01*
X168112381Y-90439047D01*
X168064762Y-90534285D01*
X168017143Y-90581904D01*
X167921905Y-90629523D01*
X167731429Y-90677142D01*
X167493333Y-90677142D01*
X167302857Y-90629523D01*
X167207619Y-90581904D01*
X167160000Y-90534285D01*
X167112381Y-90439047D01*
X168112381Y-89153332D02*
X168112381Y-89724761D01*
X168112381Y-89439047D02*
X167112381Y-89439047D01*
X167255238Y-89534285D01*
X167350476Y-89629523D01*
X167398095Y-89724761D01*
X167112381Y-88819999D02*
X167112381Y-88153332D01*
X168112381Y-88581904D01*
X167112381Y-87153332D02*
X168112381Y-86819999D01*
X167112381Y-86486665D01*
X168112381Y-85629522D02*
X168112381Y-86200951D01*
X168112381Y-85915237D02*
X167112381Y-85915237D01*
X167255238Y-86010475D01*
X167350476Y-86105713D01*
X167398095Y-86200951D01*
X168017143Y-85200951D02*
X168064762Y-85153332D01*
X168112381Y-85200951D01*
X168064762Y-85248570D01*
X168017143Y-85200951D01*
X168112381Y-85200951D01*
X167112381Y-84534285D02*
X167112381Y-84439046D01*
X167160000Y-84343808D01*
X167207619Y-84296189D01*
X167302857Y-84248570D01*
X167493333Y-84200951D01*
X167731429Y-84200951D01*
X167921905Y-84248570D01*
X168017143Y-84296189D01*
X168064762Y-84343808D01*
X168112381Y-84439046D01*
X168112381Y-84534285D01*
X168064762Y-84629523D01*
X168017143Y-84677142D01*
X167921905Y-84724761D01*
X167731429Y-84772380D01*
X167493333Y-84772380D01*
X167302857Y-84724761D01*
X167207619Y-84677142D01*
X167160000Y-84629523D01*
X167112381Y-84534285D01*
X118272764Y-94668914D02*
X134272764Y-94668914D01*
X134272764Y-94668914D02*
X134272764Y-78668914D01*
X134272764Y-78668914D02*
X118272764Y-78668914D01*
X118272764Y-78668914D02*
X118272764Y-94668914D01*
D12*
X134487000Y-98256000D02*
X134487000Y-99256000D01*
X133127000Y-99256000D02*
X133127000Y-98256000D01*
D11*
X134582000Y-111456000D02*
X134582000Y-107056000D01*
X129057000Y-113031000D02*
X129057000Y-107056000D01*
D12*
X127210000Y-114630000D02*
X126210000Y-114630000D01*
X126210000Y-113270000D02*
X127210000Y-113270000D01*
X126190000Y-114920000D02*
X127190000Y-114920000D01*
X127190000Y-116280000D02*
X126190000Y-116280000D01*
X150284214Y-98694052D02*
X148484214Y-98694052D01*
X148484214Y-101914052D02*
X150934214Y-101914052D01*
D13*
X151380090Y-81425108D02*
X151380090Y-78326308D01*
X151380090Y-78326308D02*
X146777610Y-78326308D01*
X146777610Y-78326308D02*
X146777610Y-81425108D01*
X146777610Y-81425108D02*
X151380090Y-81425108D01*
X150886831Y-80782488D02*
G75*
G03X150886831Y-80782488I-283981J0D01*
G01*
X111833880Y-83566080D02*
X112481580Y-82918380D01*
X111833880Y-83413680D02*
X112329180Y-82918380D01*
X113230880Y-84416980D02*
X113891280Y-84416980D01*
X113230880Y-85369480D02*
X113891280Y-85369480D01*
X113230880Y-83464480D02*
X113891280Y-83464480D01*
X111833880Y-84416980D02*
X111173480Y-84416980D01*
X111833880Y-85369480D02*
X111173480Y-85369480D01*
X111833880Y-83464480D02*
X111173480Y-83464480D01*
X113230880Y-82918380D02*
X113230880Y-85915580D01*
X113230880Y-85915580D02*
X111833880Y-85915580D01*
X111833880Y-85915580D02*
X111833880Y-82918380D01*
X111833880Y-82918380D02*
X113230880Y-82918380D01*
D12*
X114480000Y-90750000D02*
X115080000Y-90750000D01*
X115080000Y-90750000D02*
X115280000Y-90950000D01*
X112280000Y-90950000D02*
X112280000Y-90750000D01*
X112280000Y-90750000D02*
X113080000Y-90750000D01*
X113080000Y-93750000D02*
X112280000Y-93750000D01*
X112280000Y-93750000D02*
X112280000Y-93550000D01*
X115280000Y-93550000D02*
X115280000Y-93750000D01*
X115280000Y-93750000D02*
X114480000Y-93750000D01*
D11*
X155754837Y-90488451D02*
X155754837Y-90888451D01*
X155754837Y-90488451D02*
X155354837Y-90488451D01*
X152554837Y-90488451D02*
X152554837Y-90888451D01*
X152554837Y-90488451D02*
X152954837Y-90488451D01*
X152554837Y-93688451D02*
X152554837Y-93288451D01*
X152554837Y-93688451D02*
X152954837Y-93688451D01*
X155754837Y-93688451D02*
X155354837Y-93688451D01*
D12*
X153818850Y-82665708D02*
X153818850Y-83665708D01*
X152458850Y-83665708D02*
X152458850Y-82665708D01*
X138592764Y-93068914D02*
X138592764Y-91868914D01*
X140352764Y-91868914D02*
X140352764Y-93068914D01*
X148899181Y-83598975D02*
X148899181Y-82898975D01*
X150099181Y-82898975D02*
X150099181Y-83598975D01*
X137122764Y-93018914D02*
X137122764Y-92318914D01*
X138322764Y-92318914D02*
X138322764Y-93018914D01*
X155504837Y-88642451D02*
X156204837Y-88642451D01*
X156204837Y-89842451D02*
X155504837Y-89842451D01*
X135622764Y-93018914D02*
X135622764Y-92318914D01*
X136822764Y-92318914D02*
X136822764Y-93018914D01*
X151904837Y-91488451D02*
X151904837Y-92188451D01*
X150704837Y-92188451D02*
X150704837Y-91488451D01*
X152260837Y-88638451D02*
X152960837Y-88638451D01*
X152960837Y-89838451D02*
X152260837Y-89838451D01*
X160782000Y-121009000D02*
X160782000Y-120309000D01*
X161982000Y-120309000D02*
X161982000Y-121009000D01*
X138622764Y-87968914D02*
X138622764Y-86868914D01*
X138622764Y-86868914D02*
X136522764Y-86868914D01*
X138622764Y-87968914D02*
X136522764Y-87968914D01*
X152024181Y-82750975D02*
X152024181Y-83750975D01*
X150664181Y-83750975D02*
X150664181Y-82750975D01*
X147528850Y-83105708D02*
X146528850Y-83105708D01*
X146528850Y-81745708D02*
X147528850Y-81745708D01*
X145183850Y-79145708D02*
X145183850Y-80145708D01*
X143823850Y-80145708D02*
X143823850Y-79145708D01*
X108950000Y-85620000D02*
X109950000Y-85620000D01*
X109950000Y-86980000D02*
X108950000Y-86980000D01*
X112350000Y-86270000D02*
X113350000Y-86270000D01*
X113350000Y-87630000D02*
X112350000Y-87630000D01*
X137492764Y-89968914D02*
X137492764Y-88968914D01*
X138852764Y-88968914D02*
X138852764Y-89968914D01*
X139485750Y-119319082D02*
X139485750Y-118319082D01*
X140845750Y-118319082D02*
X140845750Y-119319082D01*
X126210000Y-116550000D02*
X127210000Y-116550000D01*
X127210000Y-117910000D02*
X126210000Y-117910000D01*
X159415871Y-115325575D02*
X159415871Y-114625575D01*
X160615871Y-114625575D02*
X160615871Y-115325575D01*
X160282000Y-117859000D02*
X160982000Y-117859000D01*
X160982000Y-119059000D02*
X160282000Y-119059000D01*
X162134871Y-111274575D02*
X162134871Y-111974575D01*
X160934871Y-111974575D02*
X160934871Y-111274575D01*
X146065750Y-118469082D02*
X146065750Y-119169082D01*
X144865750Y-119169082D02*
X144865750Y-118469082D01*
X130397000Y-101326000D02*
X130397000Y-102256000D01*
X130397000Y-104486000D02*
X130397000Y-103556000D01*
X130397000Y-104486000D02*
X132557000Y-104486000D01*
X130397000Y-101326000D02*
X131857000Y-101326000D01*
X115162380Y-80206980D02*
X114232380Y-80206980D01*
X112002380Y-80206980D02*
X112932380Y-80206980D01*
X112002380Y-80206980D02*
X112002380Y-82366980D01*
X115162380Y-80206980D02*
X115162380Y-81666980D01*
X142745750Y-118319082D02*
X142745750Y-119319082D01*
X141385750Y-119319082D02*
X141385750Y-118319082D01*
X143185750Y-119319082D02*
X143185750Y-118319082D01*
X144545750Y-118319082D02*
X144545750Y-119319082D01*
X159354871Y-112124575D02*
X159354871Y-111124575D01*
X160714871Y-111124575D02*
X160714871Y-112124575D01*
X128000000Y-103590000D02*
X127000000Y-103590000D01*
X127000000Y-102230000D02*
X128000000Y-102230000D01*
X134587000Y-102206000D02*
X134587000Y-103206000D01*
X133227000Y-103206000D02*
X133227000Y-102206000D01*
X160964871Y-115325575D02*
X160964871Y-114625575D01*
X162164871Y-114625575D02*
X162164871Y-115325575D01*
X159282000Y-121009000D02*
X159282000Y-120309000D01*
X160482000Y-120309000D02*
X160482000Y-121009000D01*
X128507000Y-106706000D02*
X128507000Y-107406000D01*
X127307000Y-107406000D02*
X127307000Y-106706000D01*
X139610000Y-117190000D02*
X140710000Y-117190000D01*
X140710000Y-117190000D02*
X140710000Y-115090000D01*
X139610000Y-117190000D02*
X139610000Y-115090000D01*
X146400000Y-120040000D02*
X148100000Y-120040000D01*
X148100000Y-120040000D02*
X148100000Y-117490000D01*
X146400000Y-120040000D02*
X146400000Y-117490000D01*
X130297000Y-97376000D02*
X130297000Y-98306000D01*
X130297000Y-100536000D02*
X130297000Y-99606000D01*
X130297000Y-100536000D02*
X132457000Y-100536000D01*
X130297000Y-97376000D02*
X131757000Y-97376000D01*
X146186070Y-104552854D02*
X146186070Y-105482854D01*
X146186070Y-107712854D02*
X146186070Y-106782854D01*
X146186070Y-107712854D02*
X148346070Y-107712854D01*
X146186070Y-104552854D02*
X147646070Y-104552854D01*
X141446000Y-100537000D02*
X141446000Y-99607000D01*
X141446000Y-97377000D02*
X141446000Y-98307000D01*
X141446000Y-97377000D02*
X139286000Y-97377000D01*
X141446000Y-100537000D02*
X139986000Y-100537000D01*
X127990000Y-99640000D02*
X126990000Y-99640000D01*
X126990000Y-98280000D02*
X127990000Y-98280000D01*
X143196070Y-107152854D02*
X144196070Y-107152854D01*
X144196070Y-108512854D02*
X143196070Y-108512854D01*
X140840000Y-112540000D02*
X140840000Y-113540000D01*
X139480000Y-113540000D02*
X139480000Y-112540000D01*
X144196070Y-106812854D02*
X143196070Y-106812854D01*
X143196070Y-105452854D02*
X144196070Y-105452854D01*
X144200000Y-105090000D02*
X143200000Y-105090000D01*
X143200000Y-103730000D02*
X144200000Y-103730000D01*
X141436000Y-102287000D02*
X140436000Y-102287000D01*
X140436000Y-100927000D02*
X141436000Y-100927000D01*
X137306000Y-99657000D02*
X137306000Y-98657000D01*
X138666000Y-98657000D02*
X138666000Y-99657000D01*
D11*
X152798000Y-123318000D02*
X152798000Y-118238000D01*
X152798000Y-118238000D02*
X157370000Y-118238000D01*
X157370000Y-118238000D02*
X157370000Y-123318000D01*
X157370000Y-123318000D02*
X152798000Y-123318000D01*
X154322000Y-123318000D02*
X154322000Y-122810000D01*
X154322000Y-122810000D02*
X155592000Y-122810000D01*
X155592000Y-122810000D02*
X155592000Y-123318000D01*
X152759871Y-116065575D02*
X152759871Y-110985575D01*
X152759871Y-110985575D02*
X157331871Y-110985575D01*
X157331871Y-110985575D02*
X157331871Y-116065575D01*
X157331871Y-116065575D02*
X152759871Y-116065575D01*
X154283871Y-116065575D02*
X154283871Y-115557575D01*
X154283871Y-115557575D02*
X155553871Y-115557575D01*
X155553871Y-115557575D02*
X155553871Y-116065575D01*
X142271070Y-114857854D02*
X142321070Y-114857854D01*
X142271070Y-110707854D02*
X142416070Y-110707854D01*
X147421070Y-110707854D02*
X147276070Y-110707854D01*
X147421070Y-114857854D02*
X147276070Y-114857854D01*
X142271070Y-114857854D02*
X142271070Y-110707854D01*
X147421070Y-114857854D02*
X147421070Y-110707854D01*
X142321070Y-114857854D02*
X142321070Y-116257854D01*
D12*
X151584214Y-100854052D02*
X151584214Y-100154052D01*
X152784214Y-100154052D02*
X152784214Y-100854052D01*
X145984214Y-100854052D02*
X145984214Y-100154052D01*
X147184214Y-100154052D02*
X147184214Y-100854052D01*
X147405403Y-89353919D02*
X147405403Y-88653919D01*
X148605403Y-88653919D02*
X148605403Y-89353919D01*
X148929403Y-89353919D02*
X148929403Y-88653919D01*
X150129403Y-88653919D02*
X150129403Y-89353919D01*
X154333850Y-82645708D02*
X154333850Y-85305708D01*
X154333850Y-85305708D02*
X157113850Y-85305708D01*
X157113850Y-85305708D02*
X157113850Y-82645708D01*
X157113850Y-82645708D02*
X154333850Y-82645708D01*
X154333850Y-81375708D02*
X154333850Y-79985708D01*
X154333850Y-79985708D02*
X155723850Y-79985708D01*
X153520000Y-99980000D02*
X153520000Y-102640000D01*
X153520000Y-102640000D02*
X156300000Y-102640000D01*
X156300000Y-102640000D02*
X156300000Y-99980000D01*
X156300000Y-99980000D02*
X153520000Y-99980000D01*
X153520000Y-98710000D02*
X153520000Y-97320000D01*
X153520000Y-97320000D02*
X154910000Y-97320000D01*
D14*
X162800000Y-77440000D02*
X112000000Y-77440000D01*
X112000000Y-72360000D02*
X162800000Y-72360000D01*
X112000000Y-74900000D02*
X114540000Y-74900000D01*
X114540000Y-74900000D02*
X114540000Y-77440000D01*
X112000000Y-72360000D02*
X112000000Y-77440000D01*
X162800000Y-77440000D02*
X162800000Y-72360000D01*
D12*
X110190000Y-82095000D02*
X110190000Y-79435000D01*
X110190000Y-79435000D02*
X107410000Y-79435000D01*
X107410000Y-79435000D02*
X107410000Y-82095000D01*
X107410000Y-82095000D02*
X110190000Y-82095000D01*
X110190000Y-83365000D02*
X110190000Y-84755000D01*
X110190000Y-84755000D02*
X108800000Y-84755000D01*
D11*
X149438403Y-92051919D02*
G75*
G03X149438403Y-92051919I-300000J0D01*
G01*
D15*
X149763403Y-90801919D02*
X149763403Y-93301919D01*
X149763403Y-93301919D02*
X147263403Y-93301919D01*
X147263403Y-93301919D02*
X147263403Y-90801919D01*
X147263403Y-90801919D02*
X149763403Y-90801919D01*
D12*
X159832294Y-94288216D02*
X159832294Y-102028216D01*
X159832294Y-102028216D02*
X162612294Y-102028216D01*
X162612294Y-102028216D02*
X162612294Y-94288216D01*
X162612294Y-94288216D02*
X159832294Y-94288216D01*
X159832294Y-93018216D02*
X159832294Y-91628216D01*
X159832294Y-91628216D02*
X161222294Y-91628216D01*
X111455840Y-111714615D02*
G75*
G02X111840000Y-110800000I984160J124615D01*
G01*
X111455840Y-100885385D02*
G75*
G03X111840000Y-101800000I984160J-124615D01*
G01*
X111851329Y-110790661D02*
G75*
G03X111840000Y-101800000I-3711329J4490661D01*
G01*
X112990000Y-113050000D02*
G75*
G02X111440000Y-111600000I-50000J1500000D01*
G01*
X112990000Y-99550000D02*
G75*
G03X111440000Y-101000000I-50000J-1500000D01*
G01*
X115040000Y-113050000D02*
X112940000Y-113050000D01*
X115040000Y-99550000D02*
X112940000Y-99550000D01*
X119040000Y-99550000D02*
X120490000Y-99550000D01*
X120490000Y-99550000D02*
X123090000Y-102150000D01*
X123090000Y-102150000D02*
X123890000Y-102150000D01*
X123890000Y-102150000D02*
X123890000Y-110450000D01*
X123890000Y-110450000D02*
X123090000Y-110450000D01*
X123090000Y-110450000D02*
X120490000Y-113050000D01*
X120490000Y-113050000D02*
X119040000Y-113050000D01*
D10*
X125968002Y-95149866D02*
X125968002Y-95473676D01*
X125987050Y-95511771D01*
X126006097Y-95530819D01*
X126044193Y-95549866D01*
X126120383Y-95549866D01*
X126158478Y-95530819D01*
X126177526Y-95511771D01*
X126196574Y-95473676D01*
X126196574Y-95149866D01*
X126558479Y-95149866D02*
X126482288Y-95149866D01*
X126444193Y-95168914D01*
X126425145Y-95187962D01*
X126387050Y-95245104D01*
X126368002Y-95321295D01*
X126368002Y-95473676D01*
X126387050Y-95511771D01*
X126406098Y-95530819D01*
X126444193Y-95549866D01*
X126520383Y-95549866D01*
X126558479Y-95530819D01*
X126577526Y-95511771D01*
X126596574Y-95473676D01*
X126596574Y-95378438D01*
X126577526Y-95340343D01*
X126558479Y-95321295D01*
X126520383Y-95302247D01*
X126444193Y-95302247D01*
X126406098Y-95321295D01*
X126387050Y-95340343D01*
X126368002Y-95378438D01*
X133549858Y-97280952D02*
X133416524Y-97090476D01*
X133321286Y-97280952D02*
X133321286Y-96880952D01*
X133473667Y-96880952D01*
X133511762Y-96900000D01*
X133530810Y-96919048D01*
X133549858Y-96957143D01*
X133549858Y-97014286D01*
X133530810Y-97052381D01*
X133511762Y-97071429D01*
X133473667Y-97090476D01*
X133321286Y-97090476D01*
X133702238Y-96919048D02*
X133721286Y-96900000D01*
X133759381Y-96880952D01*
X133854619Y-96880952D01*
X133892715Y-96900000D01*
X133911762Y-96919048D01*
X133930810Y-96957143D01*
X133930810Y-96995238D01*
X133911762Y-97052381D01*
X133683191Y-97280952D01*
X133930810Y-97280952D01*
X134292714Y-96880952D02*
X134102238Y-96880952D01*
X134083190Y-97071429D01*
X134102238Y-97052381D01*
X134140333Y-97033333D01*
X134235571Y-97033333D01*
X134273667Y-97052381D01*
X134292714Y-97071429D01*
X134311762Y-97109524D01*
X134311762Y-97204762D01*
X134292714Y-97242857D01*
X134273667Y-97261905D01*
X134235571Y-97280952D01*
X134140333Y-97280952D01*
X134102238Y-97261905D01*
X134083190Y-97242857D01*
X128065238Y-109580952D02*
X128065238Y-109904762D01*
X128084286Y-109942857D01*
X128103333Y-109961905D01*
X128141429Y-109980952D01*
X128217619Y-109980952D01*
X128255714Y-109961905D01*
X128274762Y-109942857D01*
X128293810Y-109904762D01*
X128293810Y-109580952D01*
X128503334Y-109980952D02*
X128579524Y-109980952D01*
X128617619Y-109961905D01*
X128636667Y-109942857D01*
X128674762Y-109885714D01*
X128693810Y-109809524D01*
X128693810Y-109657143D01*
X128674762Y-109619048D01*
X128655715Y-109600000D01*
X128617619Y-109580952D01*
X128541429Y-109580952D01*
X128503334Y-109600000D01*
X128484286Y-109619048D01*
X128465238Y-109657143D01*
X128465238Y-109752381D01*
X128484286Y-109790476D01*
X128503334Y-109809524D01*
X128541429Y-109828571D01*
X128617619Y-109828571D01*
X128655715Y-109809524D01*
X128674762Y-109790476D01*
X128693810Y-109752381D01*
X124432858Y-113680952D02*
X124299524Y-113490476D01*
X124204286Y-113680952D02*
X124204286Y-113280952D01*
X124356667Y-113280952D01*
X124394762Y-113300000D01*
X124413810Y-113319048D01*
X124432858Y-113357143D01*
X124432858Y-113414286D01*
X124413810Y-113452381D01*
X124394762Y-113471429D01*
X124356667Y-113490476D01*
X124204286Y-113490476D01*
X124585238Y-113319048D02*
X124604286Y-113300000D01*
X124642381Y-113280952D01*
X124737619Y-113280952D01*
X124775715Y-113300000D01*
X124794762Y-113319048D01*
X124813810Y-113357143D01*
X124813810Y-113395238D01*
X124794762Y-113452381D01*
X124566191Y-113680952D01*
X124813810Y-113680952D01*
X124947143Y-113280952D02*
X125194762Y-113280952D01*
X125061429Y-113433333D01*
X125118571Y-113433333D01*
X125156667Y-113452381D01*
X125175714Y-113471429D01*
X125194762Y-113509524D01*
X125194762Y-113604762D01*
X125175714Y-113642857D01*
X125156667Y-113661905D01*
X125118571Y-113680952D01*
X125004286Y-113680952D01*
X124966190Y-113661905D01*
X124947143Y-113642857D01*
X124452858Y-115320952D02*
X124319524Y-115130476D01*
X124224286Y-115320952D02*
X124224286Y-114920952D01*
X124376667Y-114920952D01*
X124414762Y-114940000D01*
X124433810Y-114959048D01*
X124452858Y-114997143D01*
X124452858Y-115054286D01*
X124433810Y-115092381D01*
X124414762Y-115111429D01*
X124376667Y-115130476D01*
X124224286Y-115130476D01*
X124605238Y-114959048D02*
X124624286Y-114940000D01*
X124662381Y-114920952D01*
X124757619Y-114920952D01*
X124795715Y-114940000D01*
X124814762Y-114959048D01*
X124833810Y-114997143D01*
X124833810Y-115035238D01*
X124814762Y-115092381D01*
X124586191Y-115320952D01*
X124833810Y-115320952D01*
X125081429Y-114920952D02*
X125119524Y-114920952D01*
X125157619Y-114940000D01*
X125176667Y-114959048D01*
X125195714Y-114997143D01*
X125214762Y-115073333D01*
X125214762Y-115168571D01*
X125195714Y-115244762D01*
X125176667Y-115282857D01*
X125157619Y-115301905D01*
X125119524Y-115320952D01*
X125081429Y-115320952D01*
X125043333Y-115301905D01*
X125024286Y-115282857D01*
X125005238Y-115244762D01*
X124986190Y-115168571D01*
X124986190Y-115073333D01*
X125005238Y-114997143D01*
X125024286Y-114959048D01*
X125043333Y-114940000D01*
X125081429Y-114920952D01*
D16*
X148979048Y-97511190D02*
X148979048Y-97915952D01*
X149002857Y-97963571D01*
X149026667Y-97987381D01*
X149074286Y-98011190D01*
X149169524Y-98011190D01*
X149217143Y-97987381D01*
X149240952Y-97963571D01*
X149264762Y-97915952D01*
X149264762Y-97511190D01*
X149764762Y-98011190D02*
X149479048Y-98011190D01*
X149621905Y-98011190D02*
X149621905Y-97511190D01*
X149574286Y-97582619D01*
X149526667Y-97630238D01*
X149479048Y-97654048D01*
X151939048Y-77926190D02*
X151939048Y-78330952D01*
X151962857Y-78378571D01*
X151986667Y-78402381D01*
X152034286Y-78426190D01*
X152129524Y-78426190D01*
X152177143Y-78402381D01*
X152200952Y-78378571D01*
X152224762Y-78330952D01*
X152224762Y-77926190D01*
X152439048Y-77973810D02*
X152462858Y-77950000D01*
X152510477Y-77926190D01*
X152629524Y-77926190D01*
X152677143Y-77950000D01*
X152700953Y-77973810D01*
X152724762Y-78021429D01*
X152724762Y-78069048D01*
X152700953Y-78140476D01*
X152415239Y-78426190D01*
X152724762Y-78426190D01*
D10*
X110895238Y-82080952D02*
X110895238Y-82404762D01*
X110914286Y-82442857D01*
X110933333Y-82461905D01*
X110971429Y-82480952D01*
X111047619Y-82480952D01*
X111085714Y-82461905D01*
X111104762Y-82442857D01*
X111123810Y-82404762D01*
X111123810Y-82080952D01*
X111504762Y-82080952D02*
X111314286Y-82080952D01*
X111295238Y-82271429D01*
X111314286Y-82252381D01*
X111352381Y-82233333D01*
X111447619Y-82233333D01*
X111485715Y-82252381D01*
X111504762Y-82271429D01*
X111523810Y-82309524D01*
X111523810Y-82404762D01*
X111504762Y-82442857D01*
X111485715Y-82461905D01*
X111447619Y-82480952D01*
X111352381Y-82480952D01*
X111314286Y-82461905D01*
X111295238Y-82442857D01*
D16*
X114413334Y-94876190D02*
X114413334Y-95233333D01*
X114389524Y-95304762D01*
X114341905Y-95352381D01*
X114270477Y-95376190D01*
X114222858Y-95376190D01*
X114913333Y-95376190D02*
X114627619Y-95376190D01*
X114770476Y-95376190D02*
X114770476Y-94876190D01*
X114722857Y-94947619D01*
X114675238Y-94995238D01*
X114627619Y-95019048D01*
D10*
X156400075Y-91869403D02*
X156400075Y-92193213D01*
X156419123Y-92231308D01*
X156438170Y-92250356D01*
X156476266Y-92269403D01*
X156552456Y-92269403D01*
X156590551Y-92250356D01*
X156609599Y-92231308D01*
X156628647Y-92193213D01*
X156628647Y-91869403D01*
X156781028Y-91869403D02*
X157047695Y-91869403D01*
X156876266Y-92269403D01*
D16*
X152743334Y-84856190D02*
X152743334Y-85213333D01*
X152719524Y-85284762D01*
X152671905Y-85332381D01*
X152600477Y-85356190D01*
X152552858Y-85356190D01*
X152981429Y-85356190D02*
X152981429Y-84856190D01*
X153171905Y-84856190D01*
X153219524Y-84880000D01*
X153243333Y-84903810D01*
X153267143Y-84951429D01*
X153267143Y-85022857D01*
X153243333Y-85070476D01*
X153219524Y-85094286D01*
X153171905Y-85118095D01*
X152981429Y-85118095D01*
X153743333Y-85356190D02*
X153457619Y-85356190D01*
X153600476Y-85356190D02*
X153600476Y-84856190D01*
X153552857Y-84927619D01*
X153505238Y-84975238D01*
X153457619Y-84999048D01*
D10*
X139406097Y-94699866D02*
X139215621Y-94699866D01*
X139215621Y-94299866D01*
X139520383Y-94337962D02*
X139539431Y-94318914D01*
X139577526Y-94299866D01*
X139672764Y-94299866D01*
X139710860Y-94318914D01*
X139729907Y-94337962D01*
X139748955Y-94376057D01*
X139748955Y-94414152D01*
X139729907Y-94471295D01*
X139501336Y-94699866D01*
X139748955Y-94699866D01*
D16*
X149415848Y-85357546D02*
X149392038Y-85381356D01*
X149320610Y-85405165D01*
X149272991Y-85405165D01*
X149201562Y-85381356D01*
X149153943Y-85333737D01*
X149130134Y-85286118D01*
X149106324Y-85190880D01*
X149106324Y-85119451D01*
X149130134Y-85024213D01*
X149153943Y-84976594D01*
X149201562Y-84928975D01*
X149272991Y-84905165D01*
X149320610Y-84905165D01*
X149392038Y-84928975D01*
X149415848Y-84952785D01*
X149844419Y-85071832D02*
X149844419Y-85405165D01*
X149725372Y-84881356D02*
X149606324Y-85238499D01*
X149915848Y-85238499D01*
D10*
X137656098Y-94711771D02*
X137637050Y-94730819D01*
X137579907Y-94749866D01*
X137541812Y-94749866D01*
X137484669Y-94730819D01*
X137446574Y-94692724D01*
X137427526Y-94654628D01*
X137408478Y-94578438D01*
X137408478Y-94521295D01*
X137427526Y-94445104D01*
X137446574Y-94407009D01*
X137484669Y-94368914D01*
X137541812Y-94349866D01*
X137579907Y-94349866D01*
X137637050Y-94368914D01*
X137656098Y-94387962D01*
X137846574Y-94749866D02*
X137922764Y-94749866D01*
X137960859Y-94730819D01*
X137979907Y-94711771D01*
X138018002Y-94654628D01*
X138037050Y-94578438D01*
X138037050Y-94426057D01*
X138018002Y-94387962D01*
X137998955Y-94368914D01*
X137960859Y-94349866D01*
X137884669Y-94349866D01*
X137846574Y-94368914D01*
X137827526Y-94387962D01*
X137808478Y-94426057D01*
X137808478Y-94521295D01*
X137827526Y-94559390D01*
X137846574Y-94578438D01*
X137884669Y-94597485D01*
X137960859Y-94597485D01*
X137998955Y-94578438D01*
X138018002Y-94559390D01*
X138037050Y-94521295D01*
X155597695Y-88385308D02*
X155578647Y-88404356D01*
X155521504Y-88423403D01*
X155483409Y-88423403D01*
X155426266Y-88404356D01*
X155388171Y-88366261D01*
X155369123Y-88328165D01*
X155350075Y-88251975D01*
X155350075Y-88194832D01*
X155369123Y-88118641D01*
X155388171Y-88080546D01*
X155426266Y-88042451D01*
X155483409Y-88023403D01*
X155521504Y-88023403D01*
X155578647Y-88042451D01*
X155597695Y-88061499D01*
X155978647Y-88423403D02*
X155750075Y-88423403D01*
X155864361Y-88423403D02*
X155864361Y-88023403D01*
X155826266Y-88080546D01*
X155788171Y-88118641D01*
X155750075Y-88137689D01*
X156226266Y-88023403D02*
X156264361Y-88023403D01*
X156302456Y-88042451D01*
X156321504Y-88061499D01*
X156340551Y-88099594D01*
X156359599Y-88175784D01*
X156359599Y-88271022D01*
X156340551Y-88347213D01*
X156321504Y-88385308D01*
X156302456Y-88404356D01*
X156264361Y-88423403D01*
X156226266Y-88423403D01*
X156188170Y-88404356D01*
X156169123Y-88385308D01*
X156150075Y-88347213D01*
X156131027Y-88271022D01*
X156131027Y-88175784D01*
X156150075Y-88099594D01*
X156169123Y-88061499D01*
X156188170Y-88042451D01*
X156226266Y-88023403D01*
X135952858Y-94682857D02*
X135933810Y-94701905D01*
X135876667Y-94720952D01*
X135838572Y-94720952D01*
X135781429Y-94701905D01*
X135743334Y-94663810D01*
X135724286Y-94625714D01*
X135705238Y-94549524D01*
X135705238Y-94492381D01*
X135724286Y-94416190D01*
X135743334Y-94378095D01*
X135781429Y-94340000D01*
X135838572Y-94320952D01*
X135876667Y-94320952D01*
X135933810Y-94340000D01*
X135952858Y-94359048D01*
X136333810Y-94720952D02*
X136105238Y-94720952D01*
X136219524Y-94720952D02*
X136219524Y-94320952D01*
X136181429Y-94378095D01*
X136143334Y-94416190D01*
X136105238Y-94435238D01*
X136714762Y-94720952D02*
X136486190Y-94720952D01*
X136600476Y-94720952D02*
X136600476Y-94320952D01*
X136562381Y-94378095D01*
X136524286Y-94416190D01*
X136486190Y-94435238D01*
X151062858Y-93952857D02*
X151043810Y-93971905D01*
X150986667Y-93990952D01*
X150948572Y-93990952D01*
X150891429Y-93971905D01*
X150853334Y-93933810D01*
X150834286Y-93895714D01*
X150815238Y-93819524D01*
X150815238Y-93762381D01*
X150834286Y-93686190D01*
X150853334Y-93648095D01*
X150891429Y-93610000D01*
X150948572Y-93590952D01*
X150986667Y-93590952D01*
X151043810Y-93610000D01*
X151062858Y-93629048D01*
X151443810Y-93990952D02*
X151215238Y-93990952D01*
X151329524Y-93990952D02*
X151329524Y-93590952D01*
X151291429Y-93648095D01*
X151253334Y-93686190D01*
X151215238Y-93705238D01*
X151596190Y-93629048D02*
X151615238Y-93610000D01*
X151653333Y-93590952D01*
X151748571Y-93590952D01*
X151786667Y-93610000D01*
X151805714Y-93629048D01*
X151824762Y-93667143D01*
X151824762Y-93705238D01*
X151805714Y-93762381D01*
X151577143Y-93990952D01*
X151824762Y-93990952D01*
X152353695Y-88381308D02*
X152334647Y-88400356D01*
X152277504Y-88419403D01*
X152239409Y-88419403D01*
X152182266Y-88400356D01*
X152144171Y-88362261D01*
X152125123Y-88324165D01*
X152106075Y-88247975D01*
X152106075Y-88190832D01*
X152125123Y-88114641D01*
X152144171Y-88076546D01*
X152182266Y-88038451D01*
X152239409Y-88019403D01*
X152277504Y-88019403D01*
X152334647Y-88038451D01*
X152353695Y-88057499D01*
X152734647Y-88419403D02*
X152506075Y-88419403D01*
X152620361Y-88419403D02*
X152620361Y-88019403D01*
X152582266Y-88076546D01*
X152544171Y-88114641D01*
X152506075Y-88133689D01*
X152867980Y-88019403D02*
X153115599Y-88019403D01*
X152982266Y-88171784D01*
X153039408Y-88171784D01*
X153077504Y-88190832D01*
X153096551Y-88209880D01*
X153115599Y-88247975D01*
X153115599Y-88343213D01*
X153096551Y-88381308D01*
X153077504Y-88400356D01*
X153039408Y-88419403D01*
X152925123Y-88419403D01*
X152887027Y-88400356D01*
X152867980Y-88381308D01*
X161124858Y-122851857D02*
X161105810Y-122870905D01*
X161048667Y-122889952D01*
X161010572Y-122889952D01*
X160953429Y-122870905D01*
X160915334Y-122832810D01*
X160896286Y-122794714D01*
X160877238Y-122718524D01*
X160877238Y-122661381D01*
X160896286Y-122585190D01*
X160915334Y-122547095D01*
X160953429Y-122509000D01*
X161010572Y-122489952D01*
X161048667Y-122489952D01*
X161105810Y-122509000D01*
X161124858Y-122528048D01*
X161505810Y-122889952D02*
X161277238Y-122889952D01*
X161391524Y-122889952D02*
X161391524Y-122489952D01*
X161353429Y-122547095D01*
X161315334Y-122585190D01*
X161277238Y-122604238D01*
X161848667Y-122623286D02*
X161848667Y-122889952D01*
X161753429Y-122470905D02*
X161658190Y-122756619D01*
X161905810Y-122756619D01*
X139234762Y-87580952D02*
X139234762Y-87180952D01*
X139330000Y-87180952D01*
X139387143Y-87200000D01*
X139425238Y-87238095D01*
X139444286Y-87276190D01*
X139463334Y-87352381D01*
X139463334Y-87409524D01*
X139444286Y-87485714D01*
X139425238Y-87523810D01*
X139387143Y-87561905D01*
X139330000Y-87580952D01*
X139234762Y-87580952D01*
X139615714Y-87219048D02*
X139634762Y-87200000D01*
X139672857Y-87180952D01*
X139768095Y-87180952D01*
X139806191Y-87200000D01*
X139825238Y-87219048D01*
X139844286Y-87257143D01*
X139844286Y-87295238D01*
X139825238Y-87352381D01*
X139596667Y-87580952D01*
X139844286Y-87580952D01*
D16*
X151326667Y-85386190D02*
X151160000Y-85148095D01*
X151040953Y-85386190D02*
X151040953Y-84886190D01*
X151231429Y-84886190D01*
X151279048Y-84910000D01*
X151302857Y-84933810D01*
X151326667Y-84981429D01*
X151326667Y-85052857D01*
X151302857Y-85100476D01*
X151279048Y-85124286D01*
X151231429Y-85148095D01*
X151040953Y-85148095D01*
X151802857Y-85386190D02*
X151517143Y-85386190D01*
X151660000Y-85386190D02*
X151660000Y-84886190D01*
X151612381Y-84957619D01*
X151564762Y-85005238D01*
X151517143Y-85029048D01*
X145068517Y-82646898D02*
X144901850Y-82408803D01*
X144782803Y-82646898D02*
X144782803Y-82146898D01*
X144973279Y-82146898D01*
X145020898Y-82170708D01*
X145044707Y-82194518D01*
X145068517Y-82242137D01*
X145068517Y-82313565D01*
X145044707Y-82361184D01*
X145020898Y-82384994D01*
X144973279Y-82408803D01*
X144782803Y-82408803D01*
X145235184Y-82146898D02*
X145544707Y-82146898D01*
X145378041Y-82337375D01*
X145449469Y-82337375D01*
X145497088Y-82361184D01*
X145520898Y-82384994D01*
X145544707Y-82432613D01*
X145544707Y-82551660D01*
X145520898Y-82599279D01*
X145497088Y-82623089D01*
X145449469Y-82646898D01*
X145306612Y-82646898D01*
X145258993Y-82623089D01*
X145235184Y-82599279D01*
X144386667Y-81746190D02*
X144220000Y-81508095D01*
X144100953Y-81746190D02*
X144100953Y-81246190D01*
X144291429Y-81246190D01*
X144339048Y-81270000D01*
X144362857Y-81293810D01*
X144386667Y-81341429D01*
X144386667Y-81412857D01*
X144362857Y-81460476D01*
X144339048Y-81484286D01*
X144291429Y-81508095D01*
X144100953Y-81508095D01*
X144839048Y-81246190D02*
X144600953Y-81246190D01*
X144577143Y-81484286D01*
X144600953Y-81460476D01*
X144648572Y-81436667D01*
X144767619Y-81436667D01*
X144815238Y-81460476D01*
X144839048Y-81484286D01*
X144862857Y-81531905D01*
X144862857Y-81650952D01*
X144839048Y-81698571D01*
X144815238Y-81722381D01*
X144767619Y-81746190D01*
X144648572Y-81746190D01*
X144600953Y-81722381D01*
X144577143Y-81698571D01*
D10*
X107292858Y-86480952D02*
X107159524Y-86290476D01*
X107064286Y-86480952D02*
X107064286Y-86080952D01*
X107216667Y-86080952D01*
X107254762Y-86100000D01*
X107273810Y-86119048D01*
X107292858Y-86157143D01*
X107292858Y-86214286D01*
X107273810Y-86252381D01*
X107254762Y-86271429D01*
X107216667Y-86290476D01*
X107064286Y-86290476D01*
X107673810Y-86480952D02*
X107445238Y-86480952D01*
X107559524Y-86480952D02*
X107559524Y-86080952D01*
X107521429Y-86138095D01*
X107483334Y-86176190D01*
X107445238Y-86195238D01*
X108054762Y-86480952D02*
X107826190Y-86480952D01*
X107940476Y-86480952D02*
X107940476Y-86080952D01*
X107902381Y-86138095D01*
X107864286Y-86176190D01*
X107826190Y-86195238D01*
X112592858Y-88255952D02*
X112459524Y-88065476D01*
X112364286Y-88255952D02*
X112364286Y-87855952D01*
X112516667Y-87855952D01*
X112554762Y-87875000D01*
X112573810Y-87894048D01*
X112592858Y-87932143D01*
X112592858Y-87989286D01*
X112573810Y-88027381D01*
X112554762Y-88046429D01*
X112516667Y-88065476D01*
X112364286Y-88065476D01*
X112973810Y-88255952D02*
X112745238Y-88255952D01*
X112859524Y-88255952D02*
X112859524Y-87855952D01*
X112821429Y-87913095D01*
X112783334Y-87951190D01*
X112745238Y-87970238D01*
X113126190Y-87894048D02*
X113145238Y-87875000D01*
X113183333Y-87855952D01*
X113278571Y-87855952D01*
X113316667Y-87875000D01*
X113335714Y-87894048D01*
X113354762Y-87932143D01*
X113354762Y-87970238D01*
X113335714Y-88027381D01*
X113107143Y-88255952D01*
X113354762Y-88255952D01*
X139372858Y-89640952D02*
X139239524Y-89450476D01*
X139144286Y-89640952D02*
X139144286Y-89240952D01*
X139296667Y-89240952D01*
X139334762Y-89260000D01*
X139353810Y-89279048D01*
X139372858Y-89317143D01*
X139372858Y-89374286D01*
X139353810Y-89412381D01*
X139334762Y-89431429D01*
X139296667Y-89450476D01*
X139144286Y-89450476D01*
X139753810Y-89640952D02*
X139525238Y-89640952D01*
X139639524Y-89640952D02*
X139639524Y-89240952D01*
X139601429Y-89298095D01*
X139563334Y-89336190D01*
X139525238Y-89355238D01*
X139887143Y-89240952D02*
X140134762Y-89240952D01*
X140001429Y-89393333D01*
X140058571Y-89393333D01*
X140096667Y-89412381D01*
X140115714Y-89431429D01*
X140134762Y-89469524D01*
X140134762Y-89564762D01*
X140115714Y-89602857D01*
X140096667Y-89621905D01*
X140058571Y-89640952D01*
X139944286Y-89640952D01*
X139906190Y-89621905D01*
X139887143Y-89602857D01*
D16*
X138248572Y-119016190D02*
X138081905Y-118778095D01*
X137962858Y-119016190D02*
X137962858Y-118516190D01*
X138153334Y-118516190D01*
X138200953Y-118540000D01*
X138224762Y-118563810D01*
X138248572Y-118611429D01*
X138248572Y-118682857D01*
X138224762Y-118730476D01*
X138200953Y-118754286D01*
X138153334Y-118778095D01*
X137962858Y-118778095D01*
X138724762Y-119016190D02*
X138439048Y-119016190D01*
X138581905Y-119016190D02*
X138581905Y-118516190D01*
X138534286Y-118587619D01*
X138486667Y-118635238D01*
X138439048Y-118659048D01*
X139153333Y-118682857D02*
X139153333Y-119016190D01*
X139034286Y-118492381D02*
X138915238Y-118849524D01*
X139224762Y-118849524D01*
D10*
X124502858Y-116900952D02*
X124369524Y-116710476D01*
X124274286Y-116900952D02*
X124274286Y-116500952D01*
X124426667Y-116500952D01*
X124464762Y-116520000D01*
X124483810Y-116539048D01*
X124502858Y-116577143D01*
X124502858Y-116634286D01*
X124483810Y-116672381D01*
X124464762Y-116691429D01*
X124426667Y-116710476D01*
X124274286Y-116710476D01*
X124883810Y-116900952D02*
X124655238Y-116900952D01*
X124769524Y-116900952D02*
X124769524Y-116500952D01*
X124731429Y-116558095D01*
X124693334Y-116596190D01*
X124655238Y-116615238D01*
X125245714Y-116500952D02*
X125055238Y-116500952D01*
X125036190Y-116691429D01*
X125055238Y-116672381D01*
X125093333Y-116653333D01*
X125188571Y-116653333D01*
X125226667Y-116672381D01*
X125245714Y-116691429D01*
X125264762Y-116729524D01*
X125264762Y-116824762D01*
X125245714Y-116862857D01*
X125226667Y-116881905D01*
X125188571Y-116900952D01*
X125093333Y-116900952D01*
X125055238Y-116881905D01*
X125036190Y-116862857D01*
X159758729Y-117168432D02*
X159739681Y-117187480D01*
X159682538Y-117206527D01*
X159644443Y-117206527D01*
X159587300Y-117187480D01*
X159549205Y-117149385D01*
X159530157Y-117111289D01*
X159511109Y-117035099D01*
X159511109Y-116977956D01*
X159530157Y-116901765D01*
X159549205Y-116863670D01*
X159587300Y-116825575D01*
X159644443Y-116806527D01*
X159682538Y-116806527D01*
X159739681Y-116825575D01*
X159758729Y-116844623D01*
X159911109Y-116844623D02*
X159930157Y-116825575D01*
X159968252Y-116806527D01*
X160063490Y-116806527D01*
X160101586Y-116825575D01*
X160120633Y-116844623D01*
X160139681Y-116882718D01*
X160139681Y-116920813D01*
X160120633Y-116977956D01*
X159892062Y-117206527D01*
X160139681Y-117206527D01*
X160387300Y-116806527D02*
X160425395Y-116806527D01*
X160463490Y-116825575D01*
X160482538Y-116844623D01*
X160501585Y-116882718D01*
X160520633Y-116958908D01*
X160520633Y-117054146D01*
X160501585Y-117130337D01*
X160482538Y-117168432D01*
X160463490Y-117187480D01*
X160425395Y-117206527D01*
X160387300Y-117206527D01*
X160349204Y-117187480D01*
X160330157Y-117168432D01*
X160311109Y-117130337D01*
X160292061Y-117054146D01*
X160292061Y-116958908D01*
X160311109Y-116882718D01*
X160330157Y-116844623D01*
X160349204Y-116825575D01*
X160387300Y-116806527D01*
X162672858Y-118602857D02*
X162653810Y-118621905D01*
X162596667Y-118640952D01*
X162558572Y-118640952D01*
X162501429Y-118621905D01*
X162463334Y-118583810D01*
X162444286Y-118545714D01*
X162425238Y-118469524D01*
X162425238Y-118412381D01*
X162444286Y-118336190D01*
X162463334Y-118298095D01*
X162501429Y-118260000D01*
X162558572Y-118240952D01*
X162596667Y-118240952D01*
X162653810Y-118260000D01*
X162672858Y-118279048D01*
X162825238Y-118279048D02*
X162844286Y-118260000D01*
X162882381Y-118240952D01*
X162977619Y-118240952D01*
X163015715Y-118260000D01*
X163034762Y-118279048D01*
X163053810Y-118317143D01*
X163053810Y-118355238D01*
X163034762Y-118412381D01*
X162806191Y-118640952D01*
X163053810Y-118640952D01*
X163434762Y-118640952D02*
X163206190Y-118640952D01*
X163320476Y-118640952D02*
X163320476Y-118240952D01*
X163282381Y-118298095D01*
X163244286Y-118336190D01*
X163206190Y-118355238D01*
X161292858Y-109832857D02*
X161273810Y-109851905D01*
X161216667Y-109870952D01*
X161178572Y-109870952D01*
X161121429Y-109851905D01*
X161083334Y-109813810D01*
X161064286Y-109775714D01*
X161045238Y-109699524D01*
X161045238Y-109642381D01*
X161064286Y-109566190D01*
X161083334Y-109528095D01*
X161121429Y-109490000D01*
X161178572Y-109470952D01*
X161216667Y-109470952D01*
X161273810Y-109490000D01*
X161292858Y-109509048D01*
X161445238Y-109509048D02*
X161464286Y-109490000D01*
X161502381Y-109470952D01*
X161597619Y-109470952D01*
X161635715Y-109490000D01*
X161654762Y-109509048D01*
X161673810Y-109547143D01*
X161673810Y-109585238D01*
X161654762Y-109642381D01*
X161426191Y-109870952D01*
X161673810Y-109870952D01*
X161807143Y-109470952D02*
X162054762Y-109470952D01*
X161921429Y-109623333D01*
X161978571Y-109623333D01*
X162016667Y-109642381D01*
X162035714Y-109661429D01*
X162054762Y-109699524D01*
X162054762Y-109794762D01*
X162035714Y-109832857D01*
X162016667Y-109851905D01*
X161978571Y-109870952D01*
X161864286Y-109870952D01*
X161826190Y-109851905D01*
X161807143Y-109832857D01*
D16*
X145138572Y-117158571D02*
X145114762Y-117182381D01*
X145043334Y-117206190D01*
X144995715Y-117206190D01*
X144924286Y-117182381D01*
X144876667Y-117134762D01*
X144852858Y-117087143D01*
X144829048Y-116991905D01*
X144829048Y-116920476D01*
X144852858Y-116825238D01*
X144876667Y-116777619D01*
X144924286Y-116730000D01*
X144995715Y-116706190D01*
X145043334Y-116706190D01*
X145114762Y-116730000D01*
X145138572Y-116753810D01*
X145329048Y-116753810D02*
X145352858Y-116730000D01*
X145400477Y-116706190D01*
X145519524Y-116706190D01*
X145567143Y-116730000D01*
X145590953Y-116753810D01*
X145614762Y-116801429D01*
X145614762Y-116849048D01*
X145590953Y-116920476D01*
X145305239Y-117206190D01*
X145614762Y-117206190D01*
X146043333Y-116872857D02*
X146043333Y-117206190D01*
X145924286Y-116682381D02*
X145805238Y-117039524D01*
X146114762Y-117039524D01*
D10*
X131818905Y-105225048D02*
X131780810Y-105206000D01*
X131742714Y-105167905D01*
X131685571Y-105110762D01*
X131647476Y-105091714D01*
X131609381Y-105091714D01*
X131628429Y-105186952D02*
X131590333Y-105167905D01*
X131552238Y-105129810D01*
X131533190Y-105053619D01*
X131533190Y-104920286D01*
X131552238Y-104844095D01*
X131590333Y-104806000D01*
X131628429Y-104786952D01*
X131704619Y-104786952D01*
X131742714Y-104806000D01*
X131780810Y-104844095D01*
X131799857Y-104920286D01*
X131799857Y-105053619D01*
X131780810Y-105129810D01*
X131742714Y-105167905D01*
X131704619Y-105186952D01*
X131628429Y-105186952D01*
X131952238Y-104825048D02*
X131971286Y-104806000D01*
X132009381Y-104786952D01*
X132104619Y-104786952D01*
X132142715Y-104806000D01*
X132161762Y-104825048D01*
X132180810Y-104863143D01*
X132180810Y-104901238D01*
X132161762Y-104958381D01*
X131933191Y-105186952D01*
X132180810Y-105186952D01*
X111344285Y-81186028D02*
X111306190Y-81166980D01*
X111268094Y-81128885D01*
X111210951Y-81071742D01*
X111172856Y-81052694D01*
X111134761Y-81052694D01*
X111153809Y-81147932D02*
X111115713Y-81128885D01*
X111077618Y-81090790D01*
X111058570Y-81014599D01*
X111058570Y-80881266D01*
X111077618Y-80805075D01*
X111115713Y-80766980D01*
X111153809Y-80747932D01*
X111229999Y-80747932D01*
X111268094Y-80766980D01*
X111306190Y-80805075D01*
X111325237Y-80881266D01*
X111325237Y-81014599D01*
X111306190Y-81090790D01*
X111268094Y-81128885D01*
X111229999Y-81147932D01*
X111153809Y-81147932D01*
X111706190Y-81147932D02*
X111477618Y-81147932D01*
X111591904Y-81147932D02*
X111591904Y-80747932D01*
X111553809Y-80805075D01*
X111515714Y-80843170D01*
X111477618Y-80862218D01*
D16*
X141738572Y-117286190D02*
X141571905Y-117048095D01*
X141452858Y-117286190D02*
X141452858Y-116786190D01*
X141643334Y-116786190D01*
X141690953Y-116810000D01*
X141714762Y-116833810D01*
X141738572Y-116881429D01*
X141738572Y-116952857D01*
X141714762Y-117000476D01*
X141690953Y-117024286D01*
X141643334Y-117048095D01*
X141452858Y-117048095D01*
X142214762Y-117286190D02*
X141929048Y-117286190D01*
X142071905Y-117286190D02*
X142071905Y-116786190D01*
X142024286Y-116857619D01*
X141976667Y-116905238D01*
X141929048Y-116929048D01*
X142643333Y-116786190D02*
X142548095Y-116786190D01*
X142500476Y-116810000D01*
X142476667Y-116833810D01*
X142429048Y-116905238D01*
X142405238Y-117000476D01*
X142405238Y-117190952D01*
X142429048Y-117238571D01*
X142452857Y-117262381D01*
X142500476Y-117286190D01*
X142595714Y-117286190D01*
X142643333Y-117262381D01*
X142667143Y-117238571D01*
X142690952Y-117190952D01*
X142690952Y-117071905D01*
X142667143Y-117024286D01*
X142643333Y-117000476D01*
X142595714Y-116976667D01*
X142500476Y-116976667D01*
X142452857Y-117000476D01*
X142429048Y-117024286D01*
X142405238Y-117071905D01*
X143438572Y-117296190D02*
X143271905Y-117058095D01*
X143152858Y-117296190D02*
X143152858Y-116796190D01*
X143343334Y-116796190D01*
X143390953Y-116820000D01*
X143414762Y-116843810D01*
X143438572Y-116891429D01*
X143438572Y-116962857D01*
X143414762Y-117010476D01*
X143390953Y-117034286D01*
X143343334Y-117058095D01*
X143152858Y-117058095D01*
X143914762Y-117296190D02*
X143629048Y-117296190D01*
X143771905Y-117296190D02*
X143771905Y-116796190D01*
X143724286Y-116867619D01*
X143676667Y-116915238D01*
X143629048Y-116939048D01*
X144081429Y-116796190D02*
X144414762Y-116796190D01*
X144200476Y-117296190D01*
D10*
X159692858Y-109900952D02*
X159559524Y-109710476D01*
X159464286Y-109900952D02*
X159464286Y-109500952D01*
X159616667Y-109500952D01*
X159654762Y-109520000D01*
X159673810Y-109539048D01*
X159692858Y-109577143D01*
X159692858Y-109634286D01*
X159673810Y-109672381D01*
X159654762Y-109691429D01*
X159616667Y-109710476D01*
X159464286Y-109710476D01*
X160073810Y-109900952D02*
X159845238Y-109900952D01*
X159959524Y-109900952D02*
X159959524Y-109500952D01*
X159921429Y-109558095D01*
X159883334Y-109596190D01*
X159845238Y-109615238D01*
X160264286Y-109900952D02*
X160340476Y-109900952D01*
X160378571Y-109881905D01*
X160397619Y-109862857D01*
X160435714Y-109805714D01*
X160454762Y-109729524D01*
X160454762Y-109577143D01*
X160435714Y-109539048D01*
X160416667Y-109520000D01*
X160378571Y-109500952D01*
X160302381Y-109500952D01*
X160264286Y-109520000D01*
X160245238Y-109539048D01*
X160226190Y-109577143D01*
X160226190Y-109672381D01*
X160245238Y-109710476D01*
X160264286Y-109729524D01*
X160302381Y-109748571D01*
X160378571Y-109748571D01*
X160416667Y-109729524D01*
X160435714Y-109710476D01*
X160454762Y-109672381D01*
X127262858Y-101940952D02*
X127129524Y-101750476D01*
X127034286Y-101940952D02*
X127034286Y-101540952D01*
X127186667Y-101540952D01*
X127224762Y-101560000D01*
X127243810Y-101579048D01*
X127262858Y-101617143D01*
X127262858Y-101674286D01*
X127243810Y-101712381D01*
X127224762Y-101731429D01*
X127186667Y-101750476D01*
X127034286Y-101750476D01*
X127415238Y-101579048D02*
X127434286Y-101560000D01*
X127472381Y-101540952D01*
X127567619Y-101540952D01*
X127605715Y-101560000D01*
X127624762Y-101579048D01*
X127643810Y-101617143D01*
X127643810Y-101655238D01*
X127624762Y-101712381D01*
X127396191Y-101940952D01*
X127643810Y-101940952D01*
X128024762Y-101940952D02*
X127796190Y-101940952D01*
X127910476Y-101940952D02*
X127910476Y-101540952D01*
X127872381Y-101598095D01*
X127834286Y-101636190D01*
X127796190Y-101655238D01*
X133662858Y-101270952D02*
X133529524Y-101080476D01*
X133434286Y-101270952D02*
X133434286Y-100870952D01*
X133586667Y-100870952D01*
X133624762Y-100890000D01*
X133643810Y-100909048D01*
X133662858Y-100947143D01*
X133662858Y-101004286D01*
X133643810Y-101042381D01*
X133624762Y-101061429D01*
X133586667Y-101080476D01*
X133434286Y-101080476D01*
X133815238Y-100909048D02*
X133834286Y-100890000D01*
X133872381Y-100870952D01*
X133967619Y-100870952D01*
X134005715Y-100890000D01*
X134024762Y-100909048D01*
X134043810Y-100947143D01*
X134043810Y-100985238D01*
X134024762Y-101042381D01*
X133796191Y-101270952D01*
X134043810Y-101270952D01*
X134196190Y-100909048D02*
X134215238Y-100890000D01*
X134253333Y-100870952D01*
X134348571Y-100870952D01*
X134386667Y-100890000D01*
X134405714Y-100909048D01*
X134424762Y-100947143D01*
X134424762Y-100985238D01*
X134405714Y-101042381D01*
X134177143Y-101270952D01*
X134424762Y-101270952D01*
X161307729Y-117168432D02*
X161288681Y-117187480D01*
X161231538Y-117206527D01*
X161193443Y-117206527D01*
X161136300Y-117187480D01*
X161098205Y-117149385D01*
X161079157Y-117111289D01*
X161060109Y-117035099D01*
X161060109Y-116977956D01*
X161079157Y-116901765D01*
X161098205Y-116863670D01*
X161136300Y-116825575D01*
X161193443Y-116806527D01*
X161231538Y-116806527D01*
X161288681Y-116825575D01*
X161307729Y-116844623D01*
X161688681Y-117206527D02*
X161460109Y-117206527D01*
X161574395Y-117206527D02*
X161574395Y-116806527D01*
X161536300Y-116863670D01*
X161498205Y-116901765D01*
X161460109Y-116920813D01*
X162031538Y-116806527D02*
X161955347Y-116806527D01*
X161917252Y-116825575D01*
X161898204Y-116844623D01*
X161860109Y-116901765D01*
X161841061Y-116977956D01*
X161841061Y-117130337D01*
X161860109Y-117168432D01*
X161879157Y-117187480D01*
X161917252Y-117206527D01*
X161993442Y-117206527D01*
X162031538Y-117187480D01*
X162050585Y-117168432D01*
X162069633Y-117130337D01*
X162069633Y-117035099D01*
X162050585Y-116997004D01*
X162031538Y-116977956D01*
X161993442Y-116958908D01*
X161917252Y-116958908D01*
X161879157Y-116977956D01*
X161860109Y-116997004D01*
X161841061Y-117035099D01*
X159624858Y-122851857D02*
X159605810Y-122870905D01*
X159548667Y-122889952D01*
X159510572Y-122889952D01*
X159453429Y-122870905D01*
X159415334Y-122832810D01*
X159396286Y-122794714D01*
X159377238Y-122718524D01*
X159377238Y-122661381D01*
X159396286Y-122585190D01*
X159415334Y-122547095D01*
X159453429Y-122509000D01*
X159510572Y-122489952D01*
X159548667Y-122489952D01*
X159605810Y-122509000D01*
X159624858Y-122528048D01*
X160005810Y-122889952D02*
X159777238Y-122889952D01*
X159891524Y-122889952D02*
X159891524Y-122489952D01*
X159853429Y-122547095D01*
X159815334Y-122585190D01*
X159777238Y-122604238D01*
X160139143Y-122489952D02*
X160405810Y-122489952D01*
X160234381Y-122889952D01*
X127699858Y-105448857D02*
X127680810Y-105467905D01*
X127623667Y-105486952D01*
X127585572Y-105486952D01*
X127528429Y-105467905D01*
X127490334Y-105429810D01*
X127471286Y-105391714D01*
X127452238Y-105315524D01*
X127452238Y-105258381D01*
X127471286Y-105182190D01*
X127490334Y-105144095D01*
X127528429Y-105106000D01*
X127585572Y-105086952D01*
X127623667Y-105086952D01*
X127680810Y-105106000D01*
X127699858Y-105125048D01*
X128080810Y-105486952D02*
X127852238Y-105486952D01*
X127966524Y-105486952D02*
X127966524Y-105086952D01*
X127928429Y-105144095D01*
X127890334Y-105182190D01*
X127852238Y-105201238D01*
X128271286Y-105486952D02*
X128347476Y-105486952D01*
X128385571Y-105467905D01*
X128404619Y-105448857D01*
X128442714Y-105391714D01*
X128461762Y-105315524D01*
X128461762Y-105163143D01*
X128442714Y-105125048D01*
X128423667Y-105106000D01*
X128385571Y-105086952D01*
X128309381Y-105086952D01*
X128271286Y-105106000D01*
X128252238Y-105125048D01*
X128233190Y-105163143D01*
X128233190Y-105258381D01*
X128252238Y-105296476D01*
X128271286Y-105315524D01*
X128309381Y-105334571D01*
X128385571Y-105334571D01*
X128423667Y-105315524D01*
X128442714Y-105296476D01*
X128461762Y-105258381D01*
D16*
X138330953Y-116116190D02*
X138330953Y-115616190D01*
X138450000Y-115616190D01*
X138521429Y-115640000D01*
X138569048Y-115687619D01*
X138592857Y-115735238D01*
X138616667Y-115830476D01*
X138616667Y-115901905D01*
X138592857Y-115997143D01*
X138569048Y-116044762D01*
X138521429Y-116092381D01*
X138450000Y-116116190D01*
X138330953Y-116116190D01*
X139045238Y-115782857D02*
X139045238Y-116116190D01*
X138926191Y-115592381D02*
X138807143Y-115949524D01*
X139116667Y-115949524D01*
X147900953Y-116626190D02*
X147900953Y-116126190D01*
X148020000Y-116126190D01*
X148091429Y-116150000D01*
X148139048Y-116197619D01*
X148162857Y-116245238D01*
X148186667Y-116340476D01*
X148186667Y-116411905D01*
X148162857Y-116507143D01*
X148139048Y-116554762D01*
X148091429Y-116602381D01*
X148020000Y-116626190D01*
X147900953Y-116626190D01*
X148639048Y-116126190D02*
X148400953Y-116126190D01*
X148377143Y-116364286D01*
X148400953Y-116340476D01*
X148448572Y-116316667D01*
X148567619Y-116316667D01*
X148615238Y-116340476D01*
X148639048Y-116364286D01*
X148662857Y-116411905D01*
X148662857Y-116530952D01*
X148639048Y-116578571D01*
X148615238Y-116602381D01*
X148567619Y-116626190D01*
X148448572Y-116626190D01*
X148400953Y-116602381D01*
X148377143Y-116578571D01*
D10*
X131018905Y-96875048D02*
X130980810Y-96856000D01*
X130942714Y-96817905D01*
X130885571Y-96760762D01*
X130847476Y-96741714D01*
X130809381Y-96741714D01*
X130828429Y-96836952D02*
X130790333Y-96817905D01*
X130752238Y-96779810D01*
X130733190Y-96703619D01*
X130733190Y-96570286D01*
X130752238Y-96494095D01*
X130790333Y-96456000D01*
X130828429Y-96436952D01*
X130904619Y-96436952D01*
X130942714Y-96456000D01*
X130980810Y-96494095D01*
X130999857Y-96570286D01*
X130999857Y-96703619D01*
X130980810Y-96779810D01*
X130942714Y-96817905D01*
X130904619Y-96836952D01*
X130828429Y-96836952D01*
X131133191Y-96436952D02*
X131380810Y-96436952D01*
X131247477Y-96589333D01*
X131304619Y-96589333D01*
X131342715Y-96608381D01*
X131361762Y-96627429D01*
X131380810Y-96665524D01*
X131380810Y-96760762D01*
X131361762Y-96798857D01*
X131342715Y-96817905D01*
X131304619Y-96836952D01*
X131190334Y-96836952D01*
X131152238Y-96817905D01*
X131133191Y-96798857D01*
D16*
X146933381Y-108637810D02*
X146885762Y-108614000D01*
X146838143Y-108566381D01*
X146766714Y-108494952D01*
X146719095Y-108471143D01*
X146671476Y-108471143D01*
X146695286Y-108590190D02*
X146647667Y-108566381D01*
X146600048Y-108518762D01*
X146576238Y-108423524D01*
X146576238Y-108256857D01*
X146600048Y-108161619D01*
X146647667Y-108114000D01*
X146695286Y-108090190D01*
X146790524Y-108090190D01*
X146838143Y-108114000D01*
X146885762Y-108161619D01*
X146909571Y-108256857D01*
X146909571Y-108423524D01*
X146885762Y-108518762D01*
X146838143Y-108566381D01*
X146790524Y-108590190D01*
X146695286Y-108590190D01*
X147338143Y-108256857D02*
X147338143Y-108590190D01*
X147219096Y-108066381D02*
X147100048Y-108423524D01*
X147409572Y-108423524D01*
D10*
X140651905Y-97069048D02*
X140613810Y-97050000D01*
X140575714Y-97011905D01*
X140518571Y-96954762D01*
X140480476Y-96935714D01*
X140442381Y-96935714D01*
X140461429Y-97030952D02*
X140423333Y-97011905D01*
X140385238Y-96973810D01*
X140366190Y-96897619D01*
X140366190Y-96764286D01*
X140385238Y-96688095D01*
X140423333Y-96650000D01*
X140461429Y-96630952D01*
X140537619Y-96630952D01*
X140575714Y-96650000D01*
X140613810Y-96688095D01*
X140632857Y-96764286D01*
X140632857Y-96897619D01*
X140613810Y-96973810D01*
X140575714Y-97011905D01*
X140537619Y-97030952D01*
X140461429Y-97030952D01*
X140994762Y-96630952D02*
X140804286Y-96630952D01*
X140785238Y-96821429D01*
X140804286Y-96802381D01*
X140842381Y-96783333D01*
X140937619Y-96783333D01*
X140975715Y-96802381D01*
X140994762Y-96821429D01*
X141013810Y-96859524D01*
X141013810Y-96954762D01*
X140994762Y-96992857D01*
X140975715Y-97011905D01*
X140937619Y-97030952D01*
X140842381Y-97030952D01*
X140804286Y-97011905D01*
X140785238Y-96992857D01*
X127232858Y-98070952D02*
X127099524Y-97880476D01*
X127004286Y-98070952D02*
X127004286Y-97670952D01*
X127156667Y-97670952D01*
X127194762Y-97690000D01*
X127213810Y-97709048D01*
X127232858Y-97747143D01*
X127232858Y-97804286D01*
X127213810Y-97842381D01*
X127194762Y-97861429D01*
X127156667Y-97880476D01*
X127004286Y-97880476D01*
X127385238Y-97709048D02*
X127404286Y-97690000D01*
X127442381Y-97670952D01*
X127537619Y-97670952D01*
X127575715Y-97690000D01*
X127594762Y-97709048D01*
X127613810Y-97747143D01*
X127613810Y-97785238D01*
X127594762Y-97842381D01*
X127366191Y-98070952D01*
X127613810Y-98070952D01*
X127956667Y-97804286D02*
X127956667Y-98070952D01*
X127861429Y-97651905D02*
X127766190Y-97937619D01*
X128013810Y-97937619D01*
D16*
X141218572Y-108056190D02*
X141051905Y-107818095D01*
X140932858Y-108056190D02*
X140932858Y-107556190D01*
X141123334Y-107556190D01*
X141170953Y-107580000D01*
X141194762Y-107603810D01*
X141218572Y-107651429D01*
X141218572Y-107722857D01*
X141194762Y-107770476D01*
X141170953Y-107794286D01*
X141123334Y-107818095D01*
X140932858Y-107818095D01*
X141409048Y-107603810D02*
X141432858Y-107580000D01*
X141480477Y-107556190D01*
X141599524Y-107556190D01*
X141647143Y-107580000D01*
X141670953Y-107603810D01*
X141694762Y-107651429D01*
X141694762Y-107699048D01*
X141670953Y-107770476D01*
X141385239Y-108056190D01*
X141694762Y-108056190D01*
X142123333Y-107556190D02*
X142028095Y-107556190D01*
X141980476Y-107580000D01*
X141956667Y-107603810D01*
X141909048Y-107675238D01*
X141885238Y-107770476D01*
X141885238Y-107960952D01*
X141909048Y-108008571D01*
X141932857Y-108032381D01*
X141980476Y-108056190D01*
X142075714Y-108056190D01*
X142123333Y-108032381D01*
X142147143Y-108008571D01*
X142170952Y-107960952D01*
X142170952Y-107841905D01*
X142147143Y-107794286D01*
X142123333Y-107770476D01*
X142075714Y-107746667D01*
X141980476Y-107746667D01*
X141932857Y-107770476D01*
X141909048Y-107794286D01*
X141885238Y-107841905D01*
X138288572Y-113266190D02*
X138121905Y-113028095D01*
X138002858Y-113266190D02*
X138002858Y-112766190D01*
X138193334Y-112766190D01*
X138240953Y-112790000D01*
X138264762Y-112813810D01*
X138288572Y-112861429D01*
X138288572Y-112932857D01*
X138264762Y-112980476D01*
X138240953Y-113004286D01*
X138193334Y-113028095D01*
X138002858Y-113028095D01*
X138479048Y-112813810D02*
X138502858Y-112790000D01*
X138550477Y-112766190D01*
X138669524Y-112766190D01*
X138717143Y-112790000D01*
X138740953Y-112813810D01*
X138764762Y-112861429D01*
X138764762Y-112909048D01*
X138740953Y-112980476D01*
X138455239Y-113266190D01*
X138764762Y-113266190D01*
X138931429Y-112766190D02*
X139264762Y-112766190D01*
X139050476Y-113266190D01*
X141228572Y-106356190D02*
X141061905Y-106118095D01*
X140942858Y-106356190D02*
X140942858Y-105856190D01*
X141133334Y-105856190D01*
X141180953Y-105880000D01*
X141204762Y-105903810D01*
X141228572Y-105951429D01*
X141228572Y-106022857D01*
X141204762Y-106070476D01*
X141180953Y-106094286D01*
X141133334Y-106118095D01*
X140942858Y-106118095D01*
X141419048Y-105903810D02*
X141442858Y-105880000D01*
X141490477Y-105856190D01*
X141609524Y-105856190D01*
X141657143Y-105880000D01*
X141680953Y-105903810D01*
X141704762Y-105951429D01*
X141704762Y-105999048D01*
X141680953Y-106070476D01*
X141395239Y-106356190D01*
X141704762Y-106356190D01*
X141990476Y-106070476D02*
X141942857Y-106046667D01*
X141919048Y-106022857D01*
X141895238Y-105975238D01*
X141895238Y-105951429D01*
X141919048Y-105903810D01*
X141942857Y-105880000D01*
X141990476Y-105856190D01*
X142085714Y-105856190D01*
X142133333Y-105880000D01*
X142157143Y-105903810D01*
X142180952Y-105951429D01*
X142180952Y-105975238D01*
X142157143Y-106022857D01*
X142133333Y-106046667D01*
X142085714Y-106070476D01*
X141990476Y-106070476D01*
X141942857Y-106094286D01*
X141919048Y-106118095D01*
X141895238Y-106165714D01*
X141895238Y-106260952D01*
X141919048Y-106308571D01*
X141942857Y-106332381D01*
X141990476Y-106356190D01*
X142085714Y-106356190D01*
X142133333Y-106332381D01*
X142157143Y-106308571D01*
X142180952Y-106260952D01*
X142180952Y-106165714D01*
X142157143Y-106118095D01*
X142133333Y-106094286D01*
X142085714Y-106070476D01*
X141228572Y-104626190D02*
X141061905Y-104388095D01*
X140942858Y-104626190D02*
X140942858Y-104126190D01*
X141133334Y-104126190D01*
X141180953Y-104150000D01*
X141204762Y-104173810D01*
X141228572Y-104221429D01*
X141228572Y-104292857D01*
X141204762Y-104340476D01*
X141180953Y-104364286D01*
X141133334Y-104388095D01*
X140942858Y-104388095D01*
X141419048Y-104173810D02*
X141442858Y-104150000D01*
X141490477Y-104126190D01*
X141609524Y-104126190D01*
X141657143Y-104150000D01*
X141680953Y-104173810D01*
X141704762Y-104221429D01*
X141704762Y-104269048D01*
X141680953Y-104340476D01*
X141395239Y-104626190D01*
X141704762Y-104626190D01*
X141942857Y-104626190D02*
X142038095Y-104626190D01*
X142085714Y-104602381D01*
X142109524Y-104578571D01*
X142157143Y-104507143D01*
X142180952Y-104411905D01*
X142180952Y-104221429D01*
X142157143Y-104173810D01*
X142133333Y-104150000D01*
X142085714Y-104126190D01*
X141990476Y-104126190D01*
X141942857Y-104150000D01*
X141919048Y-104173810D01*
X141895238Y-104221429D01*
X141895238Y-104340476D01*
X141919048Y-104388095D01*
X141942857Y-104411905D01*
X141990476Y-104435714D01*
X142085714Y-104435714D01*
X142133333Y-104411905D01*
X142157143Y-104388095D01*
X142180952Y-104340476D01*
D10*
X138602858Y-101770952D02*
X138469524Y-101580476D01*
X138374286Y-101770952D02*
X138374286Y-101370952D01*
X138526667Y-101370952D01*
X138564762Y-101390000D01*
X138583810Y-101409048D01*
X138602858Y-101447143D01*
X138602858Y-101504286D01*
X138583810Y-101542381D01*
X138564762Y-101561429D01*
X138526667Y-101580476D01*
X138374286Y-101580476D01*
X138736191Y-101370952D02*
X138983810Y-101370952D01*
X138850477Y-101523333D01*
X138907619Y-101523333D01*
X138945715Y-101542381D01*
X138964762Y-101561429D01*
X138983810Y-101599524D01*
X138983810Y-101694762D01*
X138964762Y-101732857D01*
X138945715Y-101751905D01*
X138907619Y-101770952D01*
X138793334Y-101770952D01*
X138755238Y-101751905D01*
X138736191Y-101732857D01*
X139231429Y-101370952D02*
X139269524Y-101370952D01*
X139307619Y-101390000D01*
X139326667Y-101409048D01*
X139345714Y-101447143D01*
X139364762Y-101523333D01*
X139364762Y-101618571D01*
X139345714Y-101694762D01*
X139326667Y-101732857D01*
X139307619Y-101751905D01*
X139269524Y-101770952D01*
X139231429Y-101770952D01*
X139193333Y-101751905D01*
X139174286Y-101732857D01*
X139155238Y-101694762D01*
X139136190Y-101618571D01*
X139136190Y-101523333D01*
X139155238Y-101447143D01*
X139174286Y-101409048D01*
X139193333Y-101390000D01*
X139231429Y-101370952D01*
X136252858Y-99337952D02*
X136119524Y-99147476D01*
X136024286Y-99337952D02*
X136024286Y-98937952D01*
X136176667Y-98937952D01*
X136214762Y-98957000D01*
X136233810Y-98976048D01*
X136252858Y-99014143D01*
X136252858Y-99071286D01*
X136233810Y-99109381D01*
X136214762Y-99128429D01*
X136176667Y-99147476D01*
X136024286Y-99147476D01*
X136386191Y-98937952D02*
X136633810Y-98937952D01*
X136500477Y-99090333D01*
X136557619Y-99090333D01*
X136595715Y-99109381D01*
X136614762Y-99128429D01*
X136633810Y-99166524D01*
X136633810Y-99261762D01*
X136614762Y-99299857D01*
X136595715Y-99318905D01*
X136557619Y-99337952D01*
X136443334Y-99337952D01*
X136405238Y-99318905D01*
X136386191Y-99299857D01*
X137014762Y-99337952D02*
X136786190Y-99337952D01*
X136900476Y-99337952D02*
X136900476Y-98937952D01*
X136862381Y-98995095D01*
X136824286Y-99033190D01*
X136786190Y-99052238D01*
X152925238Y-117490952D02*
X152925238Y-117814762D01*
X152944286Y-117852857D01*
X152963333Y-117871905D01*
X153001429Y-117890952D01*
X153077619Y-117890952D01*
X153115714Y-117871905D01*
X153134762Y-117852857D01*
X153153810Y-117814762D01*
X153153810Y-117490952D01*
X153401429Y-117662381D02*
X153363334Y-117643333D01*
X153344286Y-117624286D01*
X153325238Y-117586190D01*
X153325238Y-117567143D01*
X153344286Y-117529048D01*
X153363334Y-117510000D01*
X153401429Y-117490952D01*
X153477619Y-117490952D01*
X153515715Y-117510000D01*
X153534762Y-117529048D01*
X153553810Y-117567143D01*
X153553810Y-117586190D01*
X153534762Y-117624286D01*
X153515715Y-117643333D01*
X153477619Y-117662381D01*
X153401429Y-117662381D01*
X153363334Y-117681429D01*
X153344286Y-117700476D01*
X153325238Y-117738571D01*
X153325238Y-117814762D01*
X153344286Y-117852857D01*
X153363334Y-117871905D01*
X153401429Y-117890952D01*
X153477619Y-117890952D01*
X153515715Y-117871905D01*
X153534762Y-117852857D01*
X153553810Y-117814762D01*
X153553810Y-117738571D01*
X153534762Y-117700476D01*
X153515715Y-117681429D01*
X153477619Y-117662381D01*
X152850633Y-110306527D02*
X152850633Y-110630337D01*
X152869681Y-110668432D01*
X152888728Y-110687480D01*
X152926824Y-110706527D01*
X153003014Y-110706527D01*
X153041109Y-110687480D01*
X153060157Y-110668432D01*
X153079205Y-110630337D01*
X153079205Y-110306527D01*
X153479205Y-110706527D02*
X153250633Y-110706527D01*
X153364919Y-110706527D02*
X153364919Y-110306527D01*
X153326824Y-110363670D01*
X153288729Y-110401765D01*
X153250633Y-110420813D01*
X153860157Y-110706527D02*
X153631585Y-110706527D01*
X153745871Y-110706527D02*
X153745871Y-110306527D01*
X153707776Y-110363670D01*
X153669681Y-110401765D01*
X153631585Y-110420813D01*
D16*
X140440953Y-110286190D02*
X140440953Y-110690952D01*
X140464762Y-110738571D01*
X140488572Y-110762381D01*
X140536191Y-110786190D01*
X140631429Y-110786190D01*
X140679048Y-110762381D01*
X140702857Y-110738571D01*
X140726667Y-110690952D01*
X140726667Y-110286190D01*
X141226667Y-110786190D02*
X140940953Y-110786190D01*
X141083810Y-110786190D02*
X141083810Y-110286190D01*
X141036191Y-110357619D01*
X140988572Y-110405238D01*
X140940953Y-110429048D01*
X141417143Y-110333810D02*
X141440953Y-110310000D01*
X141488572Y-110286190D01*
X141607619Y-110286190D01*
X141655238Y-110310000D01*
X141679048Y-110333810D01*
X141702857Y-110381429D01*
X141702857Y-110429048D01*
X141679048Y-110500476D01*
X141393334Y-110786190D01*
X141702857Y-110786190D01*
X152096667Y-98748571D02*
X152072857Y-98772381D01*
X152001429Y-98796190D01*
X151953810Y-98796190D01*
X151882381Y-98772381D01*
X151834762Y-98724762D01*
X151810953Y-98677143D01*
X151787143Y-98581905D01*
X151787143Y-98510476D01*
X151810953Y-98415238D01*
X151834762Y-98367619D01*
X151882381Y-98320000D01*
X151953810Y-98296190D01*
X152001429Y-98296190D01*
X152072857Y-98320000D01*
X152096667Y-98343810D01*
X152263334Y-98296190D02*
X152572857Y-98296190D01*
X152406191Y-98486667D01*
X152477619Y-98486667D01*
X152525238Y-98510476D01*
X152549048Y-98534286D01*
X152572857Y-98581905D01*
X152572857Y-98700952D01*
X152549048Y-98748571D01*
X152525238Y-98772381D01*
X152477619Y-98796190D01*
X152334762Y-98796190D01*
X152287143Y-98772381D01*
X152263334Y-98748571D01*
X146486667Y-98778571D02*
X146462857Y-98802381D01*
X146391429Y-98826190D01*
X146343810Y-98826190D01*
X146272381Y-98802381D01*
X146224762Y-98754762D01*
X146200953Y-98707143D01*
X146177143Y-98611905D01*
X146177143Y-98540476D01*
X146200953Y-98445238D01*
X146224762Y-98397619D01*
X146272381Y-98350000D01*
X146343810Y-98326190D01*
X146391429Y-98326190D01*
X146462857Y-98350000D01*
X146486667Y-98373810D01*
X146653334Y-98326190D02*
X146986667Y-98326190D01*
X146772381Y-98826190D01*
D10*
X147953334Y-87302857D02*
X147934286Y-87321905D01*
X147877143Y-87340952D01*
X147839048Y-87340952D01*
X147781905Y-87321905D01*
X147743810Y-87283810D01*
X147724762Y-87245714D01*
X147705714Y-87169524D01*
X147705714Y-87112381D01*
X147724762Y-87036190D01*
X147743810Y-86998095D01*
X147781905Y-86960000D01*
X147839048Y-86940952D01*
X147877143Y-86940952D01*
X147934286Y-86960000D01*
X147953334Y-86979048D01*
X148334286Y-87340952D02*
X148105714Y-87340952D01*
X148220000Y-87340952D02*
X148220000Y-86940952D01*
X148181905Y-86998095D01*
X148143810Y-87036190D01*
X148105714Y-87055238D01*
X149473334Y-87372857D02*
X149454286Y-87391905D01*
X149397143Y-87410952D01*
X149359048Y-87410952D01*
X149301905Y-87391905D01*
X149263810Y-87353810D01*
X149244762Y-87315714D01*
X149225714Y-87239524D01*
X149225714Y-87182381D01*
X149244762Y-87106190D01*
X149263810Y-87068095D01*
X149301905Y-87030000D01*
X149359048Y-87010952D01*
X149397143Y-87010952D01*
X149454286Y-87030000D01*
X149473334Y-87049048D01*
X149835238Y-87010952D02*
X149644762Y-87010952D01*
X149625714Y-87201429D01*
X149644762Y-87182381D01*
X149682857Y-87163333D01*
X149778095Y-87163333D01*
X149816191Y-87182381D01*
X149835238Y-87201429D01*
X149854286Y-87239524D01*
X149854286Y-87334762D01*
X149835238Y-87372857D01*
X149816191Y-87391905D01*
X149778095Y-87410952D01*
X149682857Y-87410952D01*
X149644762Y-87391905D01*
X149625714Y-87372857D01*
X155404762Y-79520952D02*
X155404762Y-79120952D01*
X155557143Y-79120952D01*
X155595238Y-79140000D01*
X155614286Y-79159048D01*
X155633334Y-79197143D01*
X155633334Y-79254286D01*
X155614286Y-79292381D01*
X155595238Y-79311429D01*
X155557143Y-79330476D01*
X155404762Y-79330476D01*
X156014286Y-79520952D02*
X155785714Y-79520952D01*
X155900000Y-79520952D02*
X155900000Y-79120952D01*
X155861905Y-79178095D01*
X155823810Y-79216190D01*
X155785714Y-79235238D01*
X154614762Y-96890952D02*
X154614762Y-96490952D01*
X154767143Y-96490952D01*
X154805238Y-96510000D01*
X154824286Y-96529048D01*
X154843334Y-96567143D01*
X154843334Y-96624286D01*
X154824286Y-96662381D01*
X154805238Y-96681429D01*
X154767143Y-96700476D01*
X154614762Y-96700476D01*
X154995714Y-96529048D02*
X155014762Y-96510000D01*
X155052857Y-96490952D01*
X155148095Y-96490952D01*
X155186191Y-96510000D01*
X155205238Y-96529048D01*
X155224286Y-96567143D01*
X155224286Y-96605238D01*
X155205238Y-96662381D01*
X154976667Y-96890952D01*
X155224286Y-96890952D01*
X137104762Y-78580952D02*
X137104762Y-78180952D01*
X137257143Y-78180952D01*
X137295238Y-78200000D01*
X137314286Y-78219048D01*
X137333334Y-78257143D01*
X137333334Y-78314286D01*
X137314286Y-78352381D01*
X137295238Y-78371429D01*
X137257143Y-78390476D01*
X137104762Y-78390476D01*
X137466667Y-78180952D02*
X137714286Y-78180952D01*
X137580953Y-78333333D01*
X137638095Y-78333333D01*
X137676191Y-78352381D01*
X137695238Y-78371429D01*
X137714286Y-78409524D01*
X137714286Y-78504762D01*
X137695238Y-78542857D01*
X137676191Y-78561905D01*
X137638095Y-78580952D01*
X137523810Y-78580952D01*
X137485714Y-78561905D01*
X137466667Y-78542857D01*
X107304762Y-85605952D02*
X107304762Y-85205952D01*
X107457143Y-85205952D01*
X107495238Y-85225000D01*
X107514286Y-85244048D01*
X107533334Y-85282143D01*
X107533334Y-85339286D01*
X107514286Y-85377381D01*
X107495238Y-85396429D01*
X107457143Y-85415476D01*
X107304762Y-85415476D01*
X107876191Y-85339286D02*
X107876191Y-85605952D01*
X107780953Y-85186905D02*
X107685714Y-85472619D01*
X107933334Y-85472619D01*
X149085238Y-93700952D02*
X149085238Y-94024762D01*
X149104286Y-94062857D01*
X149123333Y-94081905D01*
X149161429Y-94100952D01*
X149237619Y-94100952D01*
X149275714Y-94081905D01*
X149294762Y-94062857D01*
X149313810Y-94024762D01*
X149313810Y-93700952D01*
X149466191Y-93700952D02*
X149713810Y-93700952D01*
X149580477Y-93853333D01*
X149637619Y-93853333D01*
X149675715Y-93872381D01*
X149694762Y-93891429D01*
X149713810Y-93929524D01*
X149713810Y-94024762D01*
X149694762Y-94062857D01*
X149675715Y-94081905D01*
X149637619Y-94100952D01*
X149523334Y-94100952D01*
X149485238Y-94081905D01*
X149466191Y-94062857D01*
X161086667Y-90830952D02*
X161086667Y-91116667D01*
X161067619Y-91173810D01*
X161029524Y-91211905D01*
X160972381Y-91230952D01*
X160934286Y-91230952D01*
X161448572Y-90964286D02*
X161448572Y-91230952D01*
X161353334Y-90811905D02*
X161258095Y-91097619D01*
X161505715Y-91097619D01*
X119006667Y-119610952D02*
X119006667Y-119896667D01*
X118987619Y-119953810D01*
X118949524Y-119991905D01*
X118892381Y-120010952D01*
X118854286Y-120010952D01*
X119178095Y-119649048D02*
X119197143Y-119630000D01*
X119235238Y-119610952D01*
X119330476Y-119610952D01*
X119368572Y-119630000D01*
X119387619Y-119649048D01*
X119406667Y-119687143D01*
X119406667Y-119725238D01*
X119387619Y-119782381D01*
X119159048Y-120010952D01*
X119406667Y-120010952D01*
X122855714Y-100641429D02*
X122912857Y-100660476D01*
X122931905Y-100679524D01*
X122950953Y-100717619D01*
X122950953Y-100774762D01*
X122931905Y-100812857D01*
X122912857Y-100831905D01*
X122874762Y-100850952D01*
X122722381Y-100850952D01*
X122722381Y-100450952D01*
X122855714Y-100450952D01*
X122893810Y-100470000D01*
X122912857Y-100489048D01*
X122931905Y-100527143D01*
X122931905Y-100565238D01*
X122912857Y-100603333D01*
X122893810Y-100622381D01*
X122855714Y-100641429D01*
X122722381Y-100641429D01*
X123065238Y-100450952D02*
X123293810Y-100450952D01*
X123179524Y-100850952D02*
X123179524Y-100450952D01*
X123636667Y-100850952D02*
X123408095Y-100850952D01*
X123522381Y-100850952D02*
X123522381Y-100450952D01*
X123484286Y-100508095D01*
X123446191Y-100546190D01*
X123408095Y-100565238D01*
M02*
